<svg xmlns="http://www.w3.org/2000/svg" xmlns:xlink="http://www.w3.org/1999/xlink" width="500" zoomAndPan="magnify" viewBox="0 0 375 374.999991" height="500" preserveAspectRatio="xMidYMid meet" version="1.0"><defs><g/><clipPath id="766c6cb584"><path d="M 180.589844 73.726562 L 199.628906 73.726562 L 199.628906 92.765625 L 180.589844 92.765625 Z M 180.589844 73.726562 " clip-rule="nonzero"/></clipPath><clipPath id="a89c94a86d"><path d="M 190.109375 73.726562 C 184.851562 73.726562 180.589844 77.988281 180.589844 83.246094 C 180.589844 88.503906 184.851562 92.765625 190.109375 92.765625 C 195.367188 92.765625 199.628906 88.503906 199.628906 83.246094 C 199.628906 77.988281 195.367188 73.726562 190.109375 73.726562 Z M 190.109375 73.726562 " clip-rule="nonzero"/></clipPath><clipPath id="994cd07c9b"><path d="M 136.425781 179.367188 L 148.835938 179.367188 L 148.835938 191.773438 L 136.425781 191.773438 Z M 136.425781 179.367188 " clip-rule="nonzero"/></clipPath><clipPath id="fc3d0ab69a"><path d="M 142.632812 179.367188 C 139.203125 179.367188 136.425781 182.144531 136.425781 185.570312 C 136.425781 188.996094 139.203125 191.773438 142.632812 191.773438 C 146.058594 191.773438 148.835938 188.996094 148.835938 185.570312 C 148.835938 182.144531 146.058594 179.367188 142.632812 179.367188 Z M 142.632812 179.367188 " clip-rule="nonzero"/></clipPath><clipPath id="2470880e72"><path d="M 129.988281 277.238281 L 146.101562 277.238281 L 146.101562 293.355469 L 129.988281 293.355469 Z M 129.988281 277.238281 " clip-rule="nonzero"/></clipPath><clipPath id="c74064a569"><path d="M 138.042969 277.238281 C 133.59375 277.238281 129.988281 280.847656 129.988281 285.296875 C 129.988281 289.746094 133.59375 293.355469 138.042969 293.355469 C 142.496094 293.355469 146.101562 289.746094 146.101562 285.296875 C 146.101562 280.847656 142.496094 277.238281 138.042969 277.238281 Z M 138.042969 277.238281 " clip-rule="nonzero"/></clipPath></defs><rect x="-37.5" width="450" fill="#ffffff" y="-37.499999" height="449.999989" fill-opacity="1"/><rect x="-37.5" width="450" fill="#ffffff" y="-37.499999" height="449.999989" fill-opacity="1"/><g fill="#000000" fill-opacity="1"><g transform="translate(87.111599, 292.851509)"><g><path d="M 1.53125 -1.03125 C 1.476562 -1.269531 1.453125 -1.722656 1.453125 -2.390625 C 1.453125 -3.054688 1.582031 -3.769531 1.84375 -4.53125 L 2.0625 -4.53125 C 2.039062 -4.34375 2.03125 -4.160156 2.03125 -3.984375 C 2.03125 -2.953125 2.34375 -2.097656 2.96875 -1.421875 C 3.59375 -0.742188 4.414062 -0.40625 5.4375 -0.40625 C 6.488281 -0.40625 7.351562 -0.722656 8.03125 -1.359375 C 8.71875 -1.992188 9.0625 -2.789062 9.0625 -3.75 C 9.0625 -4.71875 8.734375 -5.503906 8.078125 -6.109375 L 3.25 -10.59375 C 2.34375 -11.4375 1.890625 -12.453125 1.890625 -13.640625 C 1.890625 -14.835938 2.285156 -15.859375 3.078125 -16.703125 C 3.878906 -17.546875 4.957031 -17.96875 6.3125 -17.96875 C 6.957031 -17.96875 7.679688 -17.882812 8.484375 -17.71875 L 9.46875 -17.71875 L 9.46875 -14.625 L 9.234375 -14.625 C 9.234375 -15.414062 8.960938 -16.046875 8.421875 -16.515625 C 7.878906 -16.984375 7.175781 -17.21875 6.3125 -17.21875 C 5.457031 -17.21875 4.738281 -16.929688 4.15625 -16.359375 C 3.582031 -15.785156 3.296875 -15.070312 3.296875 -14.21875 C 3.296875 -13.363281 3.628906 -12.625 4.296875 -12 L 9.265625 -7.421875 C 10.097656 -6.648438 10.515625 -5.59375 10.515625 -4.25 C 10.515625 -2.90625 10.085938 -1.800781 9.234375 -0.9375 C 8.378906 -0.0703125 7.238281 0.359375 5.8125 0.359375 C 5.070312 0.359375 4.285156 0.242188 3.453125 0.015625 C 2.628906 -0.210938 1.988281 -0.5625 1.53125 -1.03125 Z M 1.53125 -1.03125 "/></g></g></g><g fill="#000000" fill-opacity="1"><g transform="translate(99.069497, 292.851509)"><g><path d="M 18.03125 -0.25 L 18.234375 -0.25 L 18.234375 0 L 12.5625 0 L 12.5625 -0.25 L 12.796875 -0.25 C 13.148438 -0.25 13.410156 -0.363281 13.578125 -0.59375 C 13.753906 -0.820312 13.84375 -1.035156 13.84375 -1.234375 C 13.84375 -1.429688 13.8125 -1.632812 13.75 -1.84375 L 12.140625 -6.109375 L 5.34375 -6.109375 L 3.65625 -1.8125 C 3.59375 -1.613281 3.5625 -1.414062 3.5625 -1.21875 C 3.5625 -1.03125 3.644531 -0.820312 3.8125 -0.59375 C 3.988281 -0.363281 4.253906 -0.25 4.609375 -0.25 L 4.84375 -0.25 L 4.84375 0 L -0.21875 0 L -0.21875 -0.25 L 0 -0.25 C 0.425781 -0.25 0.835938 -0.382812 1.234375 -0.65625 C 1.640625 -0.925781 1.96875 -1.320312 2.21875 -1.84375 L 7.90625 -15.375 C 8.53125 -16.738281 8.84375 -17.601562 8.84375 -17.96875 L 9.0625 -17.96875 L 15.8125 -1.84375 C 16.050781 -1.320312 16.367188 -0.925781 16.765625 -0.65625 C 17.171875 -0.382812 17.59375 -0.25 18.03125 -0.25 Z M 5.640625 -6.875 L 11.84375 -6.875 L 8.8125 -14.953125 Z M 5.640625 -6.875 "/></g></g></g><g fill="#000000" fill-opacity="1"><g transform="translate(116.993759, 292.851509)"><g><path d="M 1.84375 -0.25 C 2.269531 -0.25 2.640625 -0.40625 2.953125 -0.71875 C 3.265625 -1.03125 3.429688 -1.40625 3.453125 -1.84375 L 3.453125 -15.78125 C 3.429688 -16.21875 3.265625 -16.59375 2.953125 -16.90625 C 2.640625 -17.21875 2.269531 -17.375 1.84375 -17.375 L 1.515625 -17.375 L 1.515625 -17.625 L 7.015625 -17.625 L 7.015625 -17.375 L 6.703125 -17.375 C 6.097656 -17.375 5.632812 -17.113281 5.3125 -16.59375 C 5.15625 -16.332031 5.078125 -16.0625 5.078125 -15.78125 L 5.078125 -0.78125 L 8.6875 -0.78125 C 9.925781 -0.78125 10.875 -1.054688 11.53125 -1.609375 C 12.1875 -2.160156 12.734375 -2.984375 13.171875 -4.078125 L 13.421875 -4.078125 L 11.953125 0 L 1.515625 0 L 1.515625 -0.25 Z M 1.84375 -0.25 "/></g></g></g><g fill="#000000" fill-opacity="1"><g transform="translate(131.146812, 292.851509)"><g/></g></g><g fill="#000000" fill-opacity="1"><g transform="translate(137.440447, 292.851509)"><g/></g></g><g fill="#000000" fill-opacity="1"><g transform="translate(143.737785, 292.851509)"><g><path d="M 19.578125 -17.375 C 19.160156 -17.375 18.800781 -17.222656 18.5 -16.921875 C 18.195312 -16.628906 18.035156 -16.273438 18.015625 -15.859375 L 18.015625 -2.875 C 18.015625 -1.894531 18.078125 -0.96875 18.203125 -0.09375 L 18.25 0.359375 L 18.015625 0.359375 L 4.296875 -14.296875 L 4.296875 -1.765625 C 4.316406 -1.171875 4.578125 -0.734375 5.078125 -0.453125 C 5.316406 -0.316406 5.570312 -0.25 5.84375 -0.25 L 6.3125 -0.25 L 6.3125 0 L 1.125 0 L 1.125 -0.25 L 1.609375 -0.25 C 2.023438 -0.25 2.382812 -0.394531 2.6875 -0.6875 C 2.988281 -0.976562 3.140625 -1.34375 3.140625 -1.78125 L 3.140625 -14.84375 C 3.140625 -15.875 3.082031 -16.789062 2.96875 -17.59375 L 2.921875 -18 L 3.171875 -18 L 16.890625 -3.34375 L 16.890625 -15.828125 C 16.867188 -16.265625 16.707031 -16.628906 16.40625 -16.921875 C 16.101562 -17.222656 15.742188 -17.375 15.328125 -17.375 L 14.84375 -17.375 L 14.84375 -17.625 L 20.03125 -17.625 L 20.03125 -17.375 Z M 19.578125 -17.375 "/></g></g></g><g fill="#000000" fill-opacity="1"><g transform="translate(164.909563, 292.851509)"><g/></g></g><g fill="#000000" fill-opacity="1"><g transform="translate(171.203198, 292.851509)"><g><path d="M 6.703125 -16.84375 L 5.078125 -16.84375 L 5.078125 -1.84375 C 5.078125 -1.40625 5.234375 -1.03125 5.546875 -0.71875 C 5.859375 -0.40625 6.242188 -0.25 6.703125 -0.25 L 7 -0.25 L 7.015625 0 L 1.515625 0 L 1.515625 -0.25 L 1.84375 -0.25 C 2.269531 -0.25 2.640625 -0.398438 2.953125 -0.703125 C 3.265625 -1.003906 3.429688 -1.375 3.453125 -1.8125 L 3.453125 -15.78125 C 3.429688 -16.21875 3.265625 -16.59375 2.953125 -16.90625 C 2.640625 -17.21875 2.269531 -17.375 1.84375 -17.375 L 1.515625 -17.375 L 1.515625 -17.625 L 8.3125 -17.625 C 9.832031 -17.625 11.03125 -17.195312 11.90625 -16.34375 C 12.78125 -15.5 13.21875 -14.398438 13.21875 -13.046875 C 13.21875 -11.703125 12.800781 -10.535156 11.96875 -9.546875 C 11.132812 -8.566406 10.125 -8.078125 8.9375 -8.078125 C 9.1875 -7.960938 9.484375 -7.734375 9.828125 -7.390625 C 10.171875 -7.046875 10.476562 -6.6875 10.75 -6.3125 C 12.1875 -4.25 13.125 -2.976562 13.5625 -2.5 C 14 -2.019531 14.3125 -1.691406 14.5 -1.515625 C 14.6875 -1.347656 14.890625 -1.175781 15.109375 -1 C 15.328125 -0.832031 15.539062 -0.703125 15.75 -0.609375 C 16.238281 -0.367188 16.757812 -0.25 17.3125 -0.25 L 17.3125 0 L 15.9375 0 C 15.207031 0 14.53125 -0.128906 13.90625 -0.390625 C 13.289062 -0.648438 12.828125 -0.914062 12.515625 -1.1875 C 12.210938 -1.46875 11.945312 -1.738281 11.71875 -2 C 11.488281 -2.257812 10.863281 -3.128906 9.84375 -4.609375 C 8.820312 -6.085938 8.222656 -6.929688 8.046875 -7.140625 C 7.878906 -7.347656 7.707031 -7.550781 7.53125 -7.75 C 6.988281 -8.320312 6.453125 -8.609375 5.921875 -8.609375 L 5.921875 -8.859375 C 6.046875 -8.835938 6.21875 -8.828125 6.4375 -8.828125 C 6.65625 -8.828125 6.925781 -8.835938 7.25 -8.859375 C 9.332031 -8.910156 10.640625 -9.785156 11.171875 -11.484375 C 11.273438 -11.816406 11.328125 -12.128906 11.328125 -12.421875 C 11.328125 -12.710938 11.328125 -12.898438 11.328125 -12.984375 C 11.296875 -14.109375 11 -15.015625 10.4375 -15.703125 C 9.882812 -16.390625 9.140625 -16.757812 8.203125 -16.8125 C 7.804688 -16.832031 7.304688 -16.84375 6.703125 -16.84375 Z M 6.703125 -16.84375 "/></g></g></g><g fill="#000000" fill-opacity="1"><g transform="translate(188.246357, 292.851509)"><g><path d="M 18.03125 -0.25 L 18.234375 -0.25 L 18.234375 0 L 12.5625 0 L 12.5625 -0.25 L 12.796875 -0.25 C 13.148438 -0.25 13.410156 -0.363281 13.578125 -0.59375 C 13.753906 -0.820312 13.84375 -1.035156 13.84375 -1.234375 C 13.84375 -1.429688 13.8125 -1.632812 13.75 -1.84375 L 12.140625 -6.109375 L 5.34375 -6.109375 L 3.65625 -1.8125 C 3.59375 -1.613281 3.5625 -1.414062 3.5625 -1.21875 C 3.5625 -1.03125 3.644531 -0.820312 3.8125 -0.59375 C 3.988281 -0.363281 4.253906 -0.25 4.609375 -0.25 L 4.84375 -0.25 L 4.84375 0 L -0.21875 0 L -0.21875 -0.25 L 0 -0.25 C 0.425781 -0.25 0.835938 -0.382812 1.234375 -0.65625 C 1.640625 -0.925781 1.96875 -1.320312 2.21875 -1.84375 L 7.90625 -15.375 C 8.53125 -16.738281 8.84375 -17.601562 8.84375 -17.96875 L 9.0625 -17.96875 L 15.8125 -1.84375 C 16.050781 -1.320312 16.367188 -0.925781 16.765625 -0.65625 C 17.171875 -0.382812 17.59375 -0.25 18.03125 -0.25 Z M 5.640625 -6.875 L 11.84375 -6.875 L 8.8125 -14.953125 Z M 5.640625 -6.875 "/></g></g></g><g fill="#000000" fill-opacity="1"><g transform="translate(206.17062, 292.851509)"><g><path d="M 10.5 0.359375 C 7.84375 0.335938 5.679688 -0.507812 4.015625 -2.1875 C 2.347656 -3.863281 1.515625 -6.070312 1.515625 -8.8125 C 1.515625 -11.5625 2.347656 -13.773438 4.015625 -15.453125 C 5.679688 -17.128906 7.890625 -17.96875 10.640625 -17.96875 C 12.890625 -17.96875 14.878906 -17.398438 16.609375 -16.265625 L 17.109375 -12.71875 L 16.890625 -12.71875 C 16.523438 -14.15625 15.78125 -15.265625 14.65625 -16.046875 C 13.53125 -16.828125 12.191406 -17.21875 10.640625 -17.21875 C 8.441406 -17.21875 6.679688 -16.453125 5.359375 -14.921875 C 4.046875 -13.398438 3.390625 -11.378906 3.390625 -8.859375 C 3.390625 -6.335938 4.039062 -4.3125 5.34375 -2.78125 C 6.644531 -1.25 8.363281 -0.457031 10.5 -0.40625 C 12.375 -0.40625 13.941406 -0.914062 15.203125 -1.9375 C 16.566406 -3.039062 17.390625 -4.84375 17.671875 -7.34375 L 17.875 -7.34375 L 17.5625 -3.390625 C 16.039062 -0.890625 13.6875 0.359375 10.5 0.359375 Z M 10.5 0.359375 "/></g></g></g><g fill="#000000" fill-opacity="1"><g transform="translate(225.303263, 292.851509)"><g><path d="M 13.765625 -0.25 C 14.203125 -0.25 14.578125 -0.398438 14.890625 -0.703125 C 15.203125 -1.003906 15.363281 -1.375 15.375 -1.8125 L 15.375 -8.328125 L 5.078125 -8.328125 L 5.078125 -1.84375 C 5.078125 -1.40625 5.238281 -1.03125 5.5625 -0.71875 C 5.882812 -0.40625 6.265625 -0.25 6.703125 -0.25 L 7.015625 -0.25 L 7.015625 0 L 1.515625 0 L 1.515625 -0.25 L 1.84375 -0.25 C 2.269531 -0.25 2.640625 -0.40625 2.953125 -0.71875 C 3.265625 -1.03125 3.429688 -1.40625 3.453125 -1.84375 L 3.453125 -15.8125 C 3.429688 -16.25 3.265625 -16.617188 2.953125 -16.921875 C 2.640625 -17.222656 2.269531 -17.375 1.84375 -17.375 L 1.515625 -17.375 L 1.515625 -17.625 L 7.015625 -17.625 L 7.015625 -17.375 L 6.703125 -17.375 C 6.265625 -17.375 5.890625 -17.222656 5.578125 -16.921875 C 5.265625 -16.617188 5.097656 -16.25 5.078125 -15.8125 L 5.078125 -9.09375 L 15.375 -9.09375 L 15.375 -15.8125 C 15.363281 -16.414062 15.097656 -16.867188 14.578125 -17.171875 C 14.328125 -17.304688 14.054688 -17.375 13.765625 -17.375 L 13.4375 -17.375 L 13.4375 -17.625 L 18.953125 -17.625 L 18.953125 -17.375 L 18.625 -17.375 C 18.1875 -17.375 17.8125 -17.21875 17.5 -16.90625 C 17.195312 -16.59375 17.035156 -16.21875 17.015625 -15.78125 L 17.015625 -1.84375 C 17.035156 -1.40625 17.195312 -1.03125 17.5 -0.71875 C 17.8125 -0.40625 18.1875 -0.25 18.625 -0.25 L 18.953125 -0.25 L 18.953125 0 L 13.4375 0 L 13.4375 -0.25 Z M 13.765625 -0.25 "/></g></g></g><g fill="#000000" fill-opacity="1"><g transform="translate(245.770157, 292.851509)"><g><path d="M 1.84375 -0.25 C 2.269531 -0.25 2.640625 -0.40625 2.953125 -0.71875 C 3.265625 -1.03125 3.429688 -1.40625 3.453125 -1.84375 L 3.453125 -15.9375 C 3.398438 -16.332031 3.222656 -16.671875 2.921875 -16.953125 C 2.617188 -17.234375 2.257812 -17.375 1.84375 -17.375 L 1.53125 -17.375 L 1.515625 -17.625 L 8.890625 -17.625 C 9.410156 -17.625 9.972656 -17.671875 10.578125 -17.765625 C 11.191406 -17.867188 11.625 -17.972656 11.875 -18.078125 L 11.875 -14.90625 L 11.625 -14.90625 L 11.625 -15.359375 C 11.625 -15.753906 11.484375 -16.09375 11.203125 -16.375 C 10.929688 -16.664062 10.601562 -16.820312 10.21875 -16.84375 L 5.078125 -16.84375 L 5.078125 -9.0625 L 9.34375 -9.0625 C 9.675781 -9.082031 9.957031 -9.207031 10.1875 -9.4375 C 10.425781 -9.675781 10.546875 -9.972656 10.546875 -10.328125 L 10.546875 -10.671875 L 10.796875 -10.671875 L 10.796875 -6.703125 L 10.546875 -6.703125 L 10.546875 -7.078125 C 10.546875 -7.410156 10.429688 -7.691406 10.203125 -7.921875 C 9.984375 -8.160156 9.703125 -8.289062 9.359375 -8.3125 L 5.078125 -8.3125 L 5.078125 -0.78125 L 8.6875 -0.78125 C 9.925781 -0.78125 10.875 -1.054688 11.53125 -1.609375 C 12.1875 -2.160156 12.734375 -2.984375 13.171875 -4.078125 L 13.421875 -4.078125 L 11.953125 0 L 1.515625 0 L 1.515625 -0.25 Z M 1.84375 -0.25 "/></g></g></g><g fill="#000000" fill-opacity="1"><g transform="translate(260.295861, 292.851509)"><g><path d="M 1.84375 -0.25 C 2.269531 -0.25 2.640625 -0.40625 2.953125 -0.71875 C 3.265625 -1.03125 3.429688 -1.40625 3.453125 -1.84375 L 3.453125 -15.78125 C 3.429688 -16.21875 3.265625 -16.59375 2.953125 -16.90625 C 2.640625 -17.21875 2.269531 -17.375 1.84375 -17.375 L 1.515625 -17.375 L 1.515625 -17.625 L 7.015625 -17.625 L 7.015625 -17.375 L 6.703125 -17.375 C 6.097656 -17.375 5.632812 -17.113281 5.3125 -16.59375 C 5.15625 -16.332031 5.078125 -16.0625 5.078125 -15.78125 L 5.078125 -0.78125 L 8.6875 -0.78125 C 9.925781 -0.78125 10.875 -1.054688 11.53125 -1.609375 C 12.1875 -2.160156 12.734375 -2.984375 13.171875 -4.078125 L 13.421875 -4.078125 L 11.953125 0 L 1.515625 0 L 1.515625 -0.25 Z M 1.84375 -0.25 "/></g></g></g><g fill="#000000" fill-opacity="1"><g transform="translate(274.443943, 292.851509)"><g><path d="M 1.84375 -0.25 C 2.269531 -0.25 2.640625 -0.40625 2.953125 -0.71875 C 3.265625 -1.03125 3.429688 -1.40625 3.453125 -1.84375 L 3.453125 -15.78125 C 3.429688 -16.21875 3.265625 -16.59375 2.953125 -16.90625 C 2.640625 -17.21875 2.269531 -17.375 1.84375 -17.375 L 1.515625 -17.375 L 1.515625 -17.625 L 7.015625 -17.625 L 7.015625 -17.375 L 6.703125 -17.375 C 6.097656 -17.375 5.632812 -17.113281 5.3125 -16.59375 C 5.15625 -16.332031 5.078125 -16.0625 5.078125 -15.78125 L 5.078125 -0.78125 L 8.6875 -0.78125 C 9.925781 -0.78125 10.875 -1.054688 11.53125 -1.609375 C 12.1875 -2.160156 12.734375 -2.984375 13.171875 -4.078125 L 13.421875 -4.078125 L 11.953125 0 L 1.515625 0 L 1.515625 -0.25 Z M 1.84375 -0.25 "/></g></g></g><g fill="#000000" fill-opacity="1"><g transform="translate(288.592033, 292.851509)"><g><path d="M 1.84375 -0.25 C 2.269531 -0.25 2.640625 -0.40625 2.953125 -0.71875 C 3.265625 -1.03125 3.429688 -1.40625 3.453125 -1.84375 L 3.453125 -15.9375 C 3.398438 -16.332031 3.222656 -16.671875 2.921875 -16.953125 C 2.617188 -17.234375 2.257812 -17.375 1.84375 -17.375 L 1.53125 -17.375 L 1.515625 -17.625 L 8.890625 -17.625 C 9.410156 -17.625 9.972656 -17.671875 10.578125 -17.765625 C 11.191406 -17.867188 11.625 -17.972656 11.875 -18.078125 L 11.875 -14.90625 L 11.625 -14.90625 L 11.625 -15.359375 C 11.625 -15.753906 11.484375 -16.09375 11.203125 -16.375 C 10.929688 -16.664062 10.601562 -16.820312 10.21875 -16.84375 L 5.078125 -16.84375 L 5.078125 -9.0625 L 9.34375 -9.0625 C 9.675781 -9.082031 9.957031 -9.207031 10.1875 -9.4375 C 10.425781 -9.675781 10.546875 -9.972656 10.546875 -10.328125 L 10.546875 -10.671875 L 10.796875 -10.671875 L 10.796875 -6.703125 L 10.546875 -6.703125 L 10.546875 -7.078125 C 10.546875 -7.410156 10.429688 -7.691406 10.203125 -7.921875 C 9.984375 -8.160156 9.703125 -8.289062 9.359375 -8.3125 L 5.078125 -8.3125 L 5.078125 -0.78125 L 8.6875 -0.78125 C 9.925781 -0.78125 10.875 -1.054688 11.53125 -1.609375 C 12.1875 -2.160156 12.734375 -2.984375 13.171875 -4.078125 L 13.421875 -4.078125 L 11.953125 0 L 1.515625 0 L 1.515625 -0.25 Z M 1.84375 -0.25 "/></g></g></g><g fill="#000000" fill-opacity="1"><g transform="translate(134.450122, 222.51523)"><g><path d="M 161.859375 29.03125 C 157.078125 30.28125 152.835938 30.90625 149.140625 30.90625 C 145.441406 30.90625 142.164062 30.675781 139.3125 30.21875 C 136.46875 29.757812 133.421875 28.875 130.171875 27.5625 C 126.929688 26.257812 123.890625 24.753906 121.046875 23.046875 C 118.203125 21.335938 115.359375 19.234375 112.515625 16.734375 C 107.273438 12.523438 102.519531 7.972656 98.25 3.078125 C 93.988281 -1.816406 85.765625 -11.007812 73.578125 -24.5 C 61.398438 -37.988281 53.316406 -46.953125 49.328125 -51.390625 C 45.347656 -55.828125 42.28125 -58.160156 40.125 -58.390625 L 40.125 -60.09375 C 46.726562 -60.09375 51.140625 -60.234375 53.359375 -60.515625 C 55.578125 -60.804688 57.9375 -61.320312 60.4375 -62.0625 C 62.945312 -62.800781 65.050781 -63.796875 66.75 -65.046875 C 73.46875 -69.367188 76.828125 -76.539062 76.828125 -86.5625 C 76.828125 -94.875 74.976562 -101.53125 71.28125 -106.53125 C 67.582031 -111.539062 62.375 -114.101562 55.65625 -114.21875 L 34.484375 -114.21875 L 34.484375 -12.46875 C 34.484375 -9.613281 35.535156 -7.101562 37.640625 -4.9375 C 39.753906 -2.78125 42.347656 -1.703125 45.421875 -1.703125 L 47.46875 -1.703125 L 47.640625 0 L 10.25 0 L 10.25 -1.703125 L 12.46875 -1.703125 C 15.3125 -1.703125 17.8125 -2.726562 19.96875 -4.78125 C 22.132812 -6.832031 23.273438 -9.335938 23.390625 -12.296875 L 23.390625 -107.046875 C 23.273438 -110.003906 22.164062 -112.535156 20.0625 -114.640625 C 17.957031 -116.753906 15.425781 -117.8125 12.46875 -117.8125 L 10.25 -117.8125 L 10.25 -119.515625 L 56.34375 -119.515625 C 66.351562 -119.515625 74.40625 -116.695312 80.5 -111.0625 C 86.59375 -105.425781 89.640625 -97.96875 89.640625 -88.6875 C 89.640625 -79.414062 86.847656 -71.453125 81.265625 -64.796875 C 75.691406 -58.140625 68.863281 -54.8125 60.78125 -54.8125 C 60.78125 -54.8125 60.722656 -54.8125 60.609375 -54.8125 C 64.484375 -50.707031 68.863281 -45.925781 73.75 -40.46875 C 93.445312 -18.726562 106.082031 -5.070312 111.65625 0.5 C 117.238281 6.082031 122.160156 10.664062 126.421875 14.25 C 130.691406 17.84375 134.476562 20.492188 137.78125 22.203125 C 144.5 25.835938 151.160156 27.65625 157.765625 27.65625 C 159.128906 27.65625 160.492188 27.539062 161.859375 27.3125 Z M 161.859375 29.03125 "/></g></g></g><g clip-path="url(#766c6cb584)"><g clip-path="url(#a89c94a86d)"><path fill="#ad9551" d="M 180.589844 73.726562 L 199.628906 73.726562 L 199.628906 92.765625 L 180.589844 92.765625 Z M 180.589844 73.726562 " fill-opacity="1" fill-rule="nonzero"/></g></g><g clip-path="url(#994cd07c9b)"><g clip-path="url(#fc3d0ab69a)"><path fill="#000000" d="M 136.425781 179.367188 L 148.835938 179.367188 L 148.835938 191.773438 L 136.425781 191.773438 Z M 136.425781 179.367188 " fill-opacity="1" fill-rule="nonzero"/></g></g><g clip-path="url(#2470880e72)"><g clip-path="url(#c74064a569)"><path fill="#ad9551" d="M 129.988281 277.238281 L 146.101562 277.238281 L 146.101562 293.355469 L 129.988281 293.355469 Z M 129.988281 277.238281 " fill-opacity="1" fill-rule="nonzero"/></g></g><g fill="#ad9551" fill-opacity="1"><g transform="translate(119.203933, 235.437851)"><g><path d="M 18.75 -41.90625 C 13.289062 -34.769531 10.5625 -27.050781 10.5625 -18.75 C 10.5625 -8.875 14.707031 -1.207031 23 4.25 C 27.832031 7.507812 33.320312 9.140625 39.46875 9.140625 C 45.613281 9.140625 50.945312 7.929688 55.46875 5.515625 C 63.96875 1.097656 68.742188 -6.304688 69.796875 -16.703125 C 69.898438 -17.429688 69.953125 -18.164062 69.953125 -18.90625 C 69.953125 -22.789062 68.875 -26.988281 66.71875 -31.5 C 64.570312 -36.019531 61.082031 -40.171875 56.25 -43.953125 L 27.890625 -66.328125 C 21.691406 -71.160156 18.59375 -77.410156 18.59375 -85.078125 C 18.59375 -92.742188 21.0625 -99.226562 26 -104.53125 C 30.9375 -109.84375 37.609375 -112.5 46.015625 -112.5 C 50.210938 -112.5 54.78125 -111.972656 59.71875 -110.921875 L 66.015625 -110.921875 L 66.328125 -91.546875 L 64.765625 -91.546875 C 64.648438 -96.585938 62.832031 -100.550781 59.3125 -103.4375 C 55.800781 -106.320312 51.390625 -107.765625 46.078125 -107.765625 C 40.773438 -107.765625 36.335938 -106.003906 32.765625 -102.484375 C 29.203125 -98.972656 27.421875 -94.457031 27.421875 -88.9375 C 27.421875 -83.425781 29.726562 -78.832031 34.34375 -75.15625 L 63.5 -52.15625 C 75.050781 -43.007812 80.828125 -31.976562 80.828125 -19.0625 C 80.828125 -9.394531 76.992188 -1.097656 69.328125 5.828125 C 62.710938 11.816406 53.890625 14.8125 42.859375 14.8125 C 36.128906 14.8125 30.140625 13.550781 24.890625 11.03125 C 15.015625 6.40625 9.082031 -1.472656 7.09375 -12.609375 C 6.78125 -14.285156 6.625 -16.410156 6.625 -18.984375 C 6.625 -21.554688 7.359375 -25.070312 8.828125 -29.53125 C 10.296875 -34 13.128906 -38.492188 17.328125 -43.015625 Z M 18.75 -41.90625 "/></g></g></g></svg>