<svg xmlns="http://www.w3.org/2000/svg" xmlns:xlink="http://www.w3.org/1999/xlink" width="500" zoomAndPan="magnify" viewBox="0 0 375 374.999991" height="500" preserveAspectRatio="xMidYMid meet" version="1.0"><defs><g/><clipPath id="40f8349def"><path d="M 86.21875 86.21875 L 288.78125 86.21875 L 288.78125 288.78125 L 86.21875 288.78125 Z M 86.21875 86.21875 " clip-rule="nonzero"/></clipPath><clipPath id="ffdba9f691"><path d="M 187.5 86.21875 C 131.5625 86.21875 86.21875 131.5625 86.21875 187.5 C 86.21875 243.4375 131.5625 288.78125 187.5 288.78125 C 243.4375 288.78125 288.78125 243.4375 288.78125 187.5 C 288.78125 131.5625 243.4375 86.21875 187.5 86.21875 Z M 187.5 86.21875 " clip-rule="nonzero"/></clipPath><clipPath id="d5aeb4ee0c"><path d="M 94.117188 94.117188 L 280.882812 94.117188 L 280.882812 280.882812 L 94.117188 280.882812 Z M 94.117188 94.117188 " clip-rule="nonzero"/></clipPath><clipPath id="37661739da"><path d="M 187.5 94.117188 C 135.925781 94.117188 94.117188 135.925781 94.117188 187.5 C 94.117188 239.074219 135.925781 280.882812 187.5 280.882812 C 239.074219 280.882812 280.882812 239.074219 280.882812 187.5 C 280.882812 135.925781 239.074219 94.117188 187.5 94.117188 Z M 187.5 94.117188 " clip-rule="nonzero"/></clipPath><clipPath id="12b206bdf0"><path d="M 94.117188 94.117188 L 280.867188 94.117188 L 280.867188 280.867188 L 94.117188 280.867188 Z M 94.117188 94.117188 " clip-rule="nonzero"/></clipPath><clipPath id="6b8f4f374b"><path d="M 187.5 94.117188 C 135.925781 94.117188 94.117188 135.925781 94.117188 187.5 C 94.117188 239.074219 135.925781 280.878906 187.5 280.878906 C 239.074219 280.878906 280.878906 239.074219 280.878906 187.5 C 280.878906 135.925781 239.074219 94.117188 187.5 94.117188 Z M 187.5 94.117188 " clip-rule="nonzero"/></clipPath><clipPath id="d5c62e9a35"><path d="M 159.273438 101.269531 L 203 101.269531 L 203 144.769531 L 159.273438 144.769531 Z M 159.273438 101.269531 " clip-rule="nonzero"/></clipPath><clipPath id="08398ef4ef"><path d="M 194 122 L 215.523438 122 L 215.523438 144.769531 L 194 144.769531 Z M 194 122 " clip-rule="nonzero"/></clipPath><clipPath id="50d89ea2b8"><path d="M 159.273438 101.269531 L 201 101.269531 L 201 142.519531 L 159.273438 142.519531 Z M 159.273438 101.269531 " clip-rule="nonzero"/></clipPath><clipPath id="15dddd9d07"><path d="M 192 121 L 213.273438 121 L 213.273438 142.519531 L 192 142.519531 Z M 192 121 " clip-rule="nonzero"/></clipPath></defs><rect x="-37.5" width="450" fill="#ffffff" y="-37.499999" height="449.999989" fill-opacity="1"/><rect x="-37.5" width="450" fill="#51abb2" y="-37.499999" height="449.999989" fill-opacity="1"/><g clip-path="url(#40f8349def)"><g clip-path="url(#ffdba9f691)"><path fill="#f0dfc8" d="M 86.21875 86.21875 L 288.78125 86.21875 L 288.78125 288.78125 L 86.21875 288.78125 Z M 86.21875 86.21875 " fill-opacity="1" fill-rule="nonzero"/></g></g><g clip-path="url(#d5aeb4ee0c)"><g clip-path="url(#37661739da)"><path fill="#e16539" d="M 94.117188 94.117188 L 280.882812 94.117188 L 280.882812 280.882812 L 94.117188 280.882812 Z M 94.117188 94.117188 " fill-opacity="1" fill-rule="nonzero"/></g></g><g clip-path="url(#12b206bdf0)"><g clip-path="url(#6b8f4f374b)"><path stroke-linecap="butt" transform="matrix(0.75, 0, 0, 0.75, 94.118677, 94.118672)" fill="none" stroke-linejoin="miter" d="M 124.508439 -0.00197963 C 55.74281 -0.00197963 -0.00198563 55.742816 -0.00198563 124.508445 C -0.00198563 193.274075 55.74281 249.013662 124.508439 249.013662 C 193.274069 249.013662 249.013656 193.274075 249.013656 124.508445 C 249.013656 55.742816 193.274069 -0.00197963 124.508439 -0.00197963 Z M 124.508439 -0.00197963 " stroke="#303030" stroke-width="12" stroke-opacity="1" stroke-miterlimit="4"/></g></g><g clip-path="url(#d5c62e9a35)"><path fill="#f0dfc8" d="M 181.226562 112.777344 C 181.289062 113.375 181.40625 113.964844 181.570312 114.542969 C 181.738281 115.125 181.949219 115.683594 182.210938 116.226562 C 182.472656 116.773438 182.773438 117.289062 183.125 117.78125 C 183.472656 118.273438 183.859375 118.730469 184.285156 119.15625 C 184.710938 119.582031 185.167969 119.972656 185.660156 120.320312 C 186.152344 120.667969 186.671875 120.972656 187.214844 121.230469 C 187.757812 121.492188 188.320312 121.707031 188.898438 121.871094 C 189.476562 122.035156 190.066406 122.152344 190.664062 122.21875 C 194.480469 122.597656 198.300781 122.769531 202.132812 122.738281 C 198.300781 122.707031 194.480469 122.882812 190.664062 123.261719 C 190.066406 123.328125 189.476562 123.445312 188.898438 123.609375 C 188.320312 123.773438 187.757812 123.988281 187.214844 124.246094 C 186.671875 124.507812 186.152344 124.8125 185.660156 125.160156 C 185.171875 125.507812 184.710938 125.894531 184.285156 126.320312 C 183.859375 126.75 183.472656 127.207031 183.125 127.699219 C 182.773438 128.191406 182.472656 128.707031 182.210938 129.25 C 181.949219 129.792969 181.738281 130.355469 181.570312 130.9375 C 181.40625 131.515625 181.289062 132.105469 181.226562 132.703125 C 180.84375 136.515625 180.671875 140.339844 180.703125 144.171875 C 180.734375 140.339844 180.558594 136.515625 180.179688 132.703125 C 180.113281 132.105469 180 131.515625 179.832031 130.9375 C 179.667969 130.355469 179.457031 129.792969 179.195312 129.25 C 178.933594 128.707031 178.628906 128.191406 178.28125 127.699219 C 177.933594 127.207031 177.546875 126.75 177.121094 126.320312 C 176.695312 125.894531 176.234375 125.507812 175.742188 125.160156 C 175.253906 124.8125 174.734375 124.507812 174.191406 124.246094 C 173.648438 123.988281 173.085938 123.773438 172.507812 123.609375 C 171.929688 123.441406 171.339844 123.328125 170.738281 123.261719 C 166.925781 122.882812 163.105469 122.707031 159.273438 122.738281 C 163.105469 122.769531 166.925781 122.597656 170.738281 122.21875 C 171.339844 122.152344 171.929688 122.035156 172.507812 121.871094 C 173.085938 121.707031 173.648438 121.492188 174.191406 121.230469 C 174.734375 120.972656 175.253906 120.667969 175.742188 120.320312 C 176.234375 119.972656 176.695312 119.582031 177.121094 119.15625 C 177.546875 118.730469 177.933594 118.273438 178.28125 117.78125 C 178.628906 117.289062 178.933594 116.773438 179.195312 116.226562 C 179.457031 115.683594 179.667969 115.125 179.832031 114.542969 C 180 113.964844 180.113281 113.375 180.179688 112.777344 C 180.558594 108.964844 180.734375 105.140625 180.703125 101.308594 C 180.671875 105.140625 180.84375 108.964844 181.226562 112.777344 Z M 181.226562 112.777344 " fill-opacity="1" fill-rule="nonzero"/></g><g clip-path="url(#08398ef4ef)"><path fill="#f0dfc8" d="M 205.152344 128.542969 C 205.21875 129.152344 205.386719 129.734375 205.652344 130.289062 C 205.917969 130.84375 206.265625 131.335938 206.699219 131.773438 C 207.132812 132.207031 207.628906 132.554688 208.183594 132.820312 C 208.738281 133.085938 209.320312 133.253906 209.929688 133.320312 C 211.859375 133.511719 213.792969 133.601562 215.734375 133.585938 C 213.792969 133.570312 211.859375 133.65625 209.929688 133.847656 C 209.320312 133.914062 208.738281 134.082031 208.183594 134.347656 C 207.628906 134.613281 207.132812 134.964844 206.699219 135.398438 C 206.265625 135.832031 205.917969 136.324219 205.652344 136.878906 C 205.386719 137.433594 205.21875 138.015625 205.152344 138.625 C 204.960938 140.554688 204.871094 142.492188 204.886719 144.429688 C 204.902344 142.492188 204.816406 140.554688 204.621094 138.625 C 204.554688 138.015625 204.390625 137.433594 204.125 136.878906 C 203.859375 136.324219 203.507812 135.832031 203.074219 135.398438 C 202.640625 134.964844 202.144531 134.613281 201.59375 134.347656 C 201.039062 134.082031 200.457031 133.914062 199.84375 133.847656 C 197.914062 133.65625 195.980469 133.570312 194.042969 133.585938 C 195.980469 133.601562 197.914062 133.511719 199.84375 133.320312 C 200.457031 133.253906 201.039062 133.085938 201.59375 132.820312 C 202.144531 132.554688 202.640625 132.207031 203.074219 131.773438 C 203.507812 131.335938 203.859375 130.84375 204.125 130.289062 C 204.390625 129.734375 204.554688 129.152344 204.621094 128.542969 C 204.816406 126.613281 204.90625 124.679688 204.890625 122.738281 C 204.871094 124.679688 204.960938 126.613281 205.152344 128.542969 Z M 205.152344 128.542969 " fill-opacity="1" fill-rule="nonzero"/></g><path fill="#f0dfc8" d="M 197 107.140625 C 197.039062 107.515625 197.140625 107.871094 197.304688 108.207031 C 197.464844 108.546875 197.679688 108.847656 197.945312 109.113281 C 198.210938 109.378906 198.511719 109.59375 198.851562 109.753906 C 199.1875 109.917969 199.542969 110.019531 199.917969 110.058594 C 201.09375 110.175781 202.277344 110.230469 203.460938 110.21875 C 202.277344 110.210938 201.09375 110.265625 199.917969 110.382812 C 199.542969 110.421875 199.1875 110.523438 198.851562 110.6875 C 198.511719 110.847656 198.210938 111.0625 197.945312 111.328125 C 197.679688 111.59375 197.464844 111.894531 197.304688 112.230469 C 197.140625 112.570312 197.039062 112.925781 197 113.296875 C 196.882812 114.476562 196.828125 115.65625 196.839844 116.839844 C 196.847656 115.65625 196.792969 114.476562 196.675781 113.296875 C 196.636719 112.925781 196.535156 112.570312 196.371094 112.230469 C 196.210938 111.894531 195.996094 111.59375 195.730469 111.328125 C 195.464844 111.0625 195.164062 110.847656 194.828125 110.6875 C 194.488281 110.523438 194.132812 110.421875 193.761719 110.382812 C 192.582031 110.265625 191.402344 110.210938 190.214844 110.21875 C 191.402344 110.230469 192.582031 110.175781 193.761719 110.058594 C 194.132812 110.019531 194.488281 109.917969 194.828125 109.753906 C 195.164062 109.59375 195.464844 109.378906 195.730469 109.113281 C 195.996094 108.847656 196.210938 108.546875 196.371094 108.207031 C 196.535156 107.871094 196.636719 107.515625 196.675781 107.140625 C 196.792969 105.964844 196.847656 104.78125 196.839844 103.597656 C 196.828125 104.78125 196.882812 105.964844 197 107.140625 Z M 197 107.140625 " fill-opacity="1" fill-rule="nonzero"/><g clip-path="url(#50d89ea2b8)"><path fill="#303030" d="M 180.246094 112.261719 C 180.308594 112.832031 180.417969 113.394531 180.578125 113.949219 C 180.734375 114.503906 180.9375 115.039062 181.1875 115.558594 C 181.433594 116.078125 181.726562 116.570312 182.058594 117.042969 C 182.390625 117.511719 182.761719 117.949219 183.167969 118.355469 C 183.574219 118.765625 184.015625 119.132812 184.484375 119.464844 C 184.953125 119.800781 185.449219 120.089844 185.96875 120.339844 C 186.484375 120.585938 187.023438 120.792969 187.574219 120.949219 C 188.128906 121.105469 188.691406 121.21875 189.265625 121.28125 C 192.90625 121.644531 196.558594 121.808594 200.222656 121.777344 C 196.558594 121.75 192.90625 121.914062 189.265625 122.277344 C 188.691406 122.339844 188.128906 122.453125 187.574219 122.609375 C 187.023438 122.765625 186.484375 122.96875 185.96875 123.21875 C 185.449219 123.46875 184.953125 123.757812 184.484375 124.089844 C 184.015625 124.425781 183.574219 124.792969 183.167969 125.203125 C 182.761719 125.609375 182.390625 126.046875 182.058594 126.515625 C 181.726562 126.988281 181.433594 127.480469 181.1875 128 C 180.9375 128.519531 180.734375 129.054688 180.578125 129.609375 C 180.417969 130.164062 180.308594 130.726562 180.246094 131.296875 C 179.882812 134.941406 179.714844 138.59375 179.746094 142.253906 C 179.777344 138.59375 179.609375 134.941406 179.246094 131.296875 C 179.183594 130.726562 179.074219 130.164062 178.917969 129.609375 C 178.757812 129.054688 178.554688 128.519531 178.304688 128 C 178.058594 127.480469 177.765625 126.988281 177.433594 126.515625 C 177.101562 126.046875 176.730469 125.609375 176.324219 125.203125 C 175.917969 124.792969 175.480469 124.425781 175.007812 124.089844 C 174.539062 123.757812 174.042969 123.46875 173.527344 123.21875 C 173.007812 122.96875 172.46875 122.765625 171.917969 122.609375 C 171.363281 122.449219 170.800781 122.339844 170.226562 122.277344 C 166.585938 121.914062 162.933594 121.75 159.273438 121.777344 C 162.933594 121.808594 166.585938 121.640625 170.226562 121.28125 C 170.800781 121.21875 171.363281 121.105469 171.917969 120.949219 C 172.46875 120.789062 173.007812 120.585938 173.527344 120.339844 C 174.042969 120.089844 174.539062 119.800781 175.007812 119.464844 C 175.476562 119.132812 175.917969 118.761719 176.324219 118.355469 C 176.730469 117.949219 177.101562 117.511719 177.433594 117.042969 C 177.765625 116.570312 178.058594 116.078125 178.304688 115.558594 C 178.554688 115.039062 178.757812 114.503906 178.917969 113.949219 C 179.074219 113.394531 179.183594 112.832031 179.246094 112.261719 C 179.609375 108.617188 179.777344 104.964844 179.746094 101.304688 C 179.714844 104.964844 179.882812 108.617188 180.246094 112.261719 Z M 180.246094 112.261719 " fill-opacity="1" fill-rule="nonzero"/></g><g clip-path="url(#15dddd9d07)"><path fill="#303030" d="M 203.105469 127.324219 C 203.167969 127.90625 203.328125 128.460938 203.582031 128.992188 C 203.835938 129.519531 204.167969 129.992188 204.582031 130.40625 C 205 130.824219 205.46875 131.15625 206 131.410156 C 206.527344 131.664062 207.085938 131.824219 207.667969 131.886719 C 209.511719 132.070312 211.359375 132.15625 213.210938 132.140625 C 211.359375 132.125 209.511719 132.207031 207.667969 132.390625 C 207.085938 132.457031 206.527344 132.613281 206 132.867188 C 205.46875 133.121094 205 133.457031 204.582031 133.871094 C 204.167969 134.285156 203.835938 134.757812 203.582031 135.289062 C 203.328125 135.816406 203.167969 136.375 203.105469 136.957031 C 202.921875 138.800781 202.835938 140.648438 202.851562 142.5 C 202.867188 140.648438 202.78125 138.800781 202.597656 136.957031 C 202.535156 136.375 202.375 135.816406 202.121094 135.289062 C 201.867188 134.757812 201.535156 134.285156 201.121094 133.871094 C 200.703125 133.457031 200.234375 133.121094 199.703125 132.867188 C 199.175781 132.613281 198.617188 132.457031 198.035156 132.390625 C 196.191406 132.207031 194.34375 132.125 192.492188 132.140625 C 194.34375 132.15625 196.191406 132.070312 198.035156 131.886719 C 198.617188 131.824219 199.175781 131.664062 199.703125 131.410156 C 200.234375 131.15625 200.703125 130.824219 201.121094 130.40625 C 201.535156 129.992188 201.867188 129.519531 202.121094 128.992188 C 202.375 128.460938 202.535156 127.90625 202.597656 127.324219 C 202.78125 125.480469 202.867188 123.632812 202.851562 121.777344 C 202.835938 123.632812 202.921875 125.480469 203.105469 127.324219 Z M 203.105469 127.324219 " fill-opacity="1" fill-rule="nonzero"/></g><path fill="#303030" d="M 195.316406 106.878906 C 195.355469 107.234375 195.453125 107.574219 195.605469 107.894531 C 195.761719 108.21875 195.964844 108.507812 196.21875 108.761719 C 196.472656 109.015625 196.761719 109.21875 197.082031 109.371094 C 197.40625 109.527344 197.746094 109.625 198.101562 109.664062 C 199.226562 109.777344 200.355469 109.828125 201.488281 109.816406 C 200.355469 109.808594 199.226562 109.859375 198.101562 109.972656 C 197.746094 110.011719 197.40625 110.109375 197.082031 110.261719 C 196.761719 110.417969 196.472656 110.621094 196.21875 110.875 C 195.964844 111.128906 195.761719 111.417969 195.605469 111.738281 C 195.453125 112.0625 195.355469 112.402344 195.316406 112.757812 C 195.203125 113.882812 195.152344 115.011719 195.160156 116.144531 C 195.171875 115.011719 195.121094 113.882812 195.007812 112.757812 C 194.96875 112.402344 194.871094 112.0625 194.714844 111.738281 C 194.5625 111.417969 194.359375 111.128906 194.105469 110.875 C 193.851562 110.621094 193.5625 110.417969 193.238281 110.261719 C 192.917969 110.109375 192.578125 110.011719 192.222656 109.972656 C 191.09375 109.859375 189.964844 109.808594 188.835938 109.816406 C 189.964844 109.828125 191.09375 109.777344 192.222656 109.664062 C 192.578125 109.625 192.917969 109.527344 193.238281 109.371094 C 193.5625 109.21875 193.851562 109.011719 194.105469 108.761719 C 194.355469 108.507812 194.5625 108.21875 194.714844 107.894531 C 194.871094 107.574219 194.96875 107.234375 195.007812 106.878906 C 195.117188 105.75 195.171875 104.621094 195.160156 103.492188 C 195.152344 104.621094 195.203125 105.75 195.316406 106.878906 Z M 195.316406 106.878906 " fill-opacity="1" fill-rule="nonzero"/><path stroke-linecap="butt" transform="matrix(0.741476, -0.11275, 0.11275, 0.741476, 66.916531, 162.660004)" fill="none" stroke-linejoin="miter" d="M 29.595729 55.001592 C 35.59091 55.001829 43.437048 50.763406 47.787538 36.357882 C 48.888817 32.753309 52.022933 32.9296 51.480867 36.355797 C 49.250748 50.467368 55.178594 54.998559 61.447795 54.998318 C 85.54415 55.001045 75.76087 3.381144 93.862827 3.378485 C 96.991887 3.380156 96.906011 5.226774 101.615831 5.226481 C 115.634027 5.229755 116.942182 -15.533514 99.67773 -15.529939 C 87.661621 -15.534328 78.262289 -5.931983 71.049793 17.421013 C 68.277766 26.192512 66.429385 33.49766 62.842171 33.494808 C 60.703074 33.496162 58.945211 28.218796 61.44842 15.845113 C 63.202656 7.461472 69.202348 1.646297 69.198829 -4.913154 C 69.19766 -9.443988 65.325531 -11.834516 61.263932 -11.835749 C 53.040552 -11.837644 53.128223 -2.436372 48.710714 13.276013 C 44.741353 27.565642 42.05901 33.495411 38.634551 33.496235 C 33.83563 33.493516 35.59199 26.10062 41.317272 1.441494 C 43.526304 -7.95824 42.421427 -13.684206 29.02929 -13.68184 C 9.647903 -13.684077 -4.195179 -2.054867 -4.194564 11.695242 C -4.194456 18.796799 -0.226509 25.268952 7.344284 25.266441 C 16.294688 25.268257 21.094417 17.331913 19.430154 13.275199 C 17.401538 13.277549 15.932824 11.226146 15.933885 8.655424 C 15.933246 2.839228 23.126133 -1.329947 31.352128 1.079915 C 22.202531 17.874457 18.88922 30.067005 18.88702 38.569553 C 18.885285 50.291046 24.227389 55.001846 29.595729 55.001592 Z M 93.204044 55.001547 C 99.763494 54.998028 105.311057 49.003469 109.004012 41.520476 L 109.367916 41.517862 C 108.260255 49.18325 110.942097 55.001502 117.301183 54.999125 C 127.558328 54.999453 132.629911 40.598215 137.160026 32.009763 C 138.086327 30.248795 134.387768 27.479009 133.010864 29.708814 C 131.165588 32.662896 128.843444 34.422337 125.709235 34.419883 C 121.652786 34.419433 120.63421 30.724313 123.771708 23.983965 C 125.799288 18.618425 128.210187 15.75562 128.209244 12.262657 C 128.210809 10.208295 127.376847 8.832917 124.96373 8.834749 C 120.638411 8.83556 119.982851 12.349863 116.937744 12.350421 C 114.529777 12.353036 114.912099 8.834062 107.515144 8.836665 C 91.647317 8.836617 83.689787 28.219996 83.690415 41.069244 C 83.691651 49.272027 86.934843 55.001788 93.204044 55.001547 Z M 102.443047 35.886785 C 99.582857 35.883853 97.825035 34.036094 97.827489 30.901886 C 97.82279 26.844653 100.866728 22.313261 105.670799 22.316763 C 108.621656 22.312409 110.46858 24.16318 110.469138 27.208288 C 110.469564 31.085751 107.2479 35.885138 102.443047 35.886785 Z M 169.466635 29.710183 C 167.617868 32.479347 165.863484 34.419951 163.113776 34.418014 C 158.940913 34.420935 157.386469 32.482934 157.385512 29.890831 C 157.38701 24.16452 161.353933 20.284494 161.355033 15.011188 C 161.354261 10.027349 152.473953 4.125266 143.792418 4.122189 C 138.813728 4.123744 135.590804 8.65426 135.589093 12.44184 C 135.590913 15.755817 136.784505 16.948812 138.634096 17.604106 C 137.054027 21.862886 134.75556 27.208307 132.995417 29.706465 C 131.800246 31.468693 135.950933 34.417863 137.165958 32.005396 C 138.629747 28.961695 141.676962 22.676489 143.34239 18.999655 C 147.041692 20.378749 148.23563 22.678119 148.232485 23.599577 C 148.236666 28.04131 141.764807 36.719077 141.765526 45.30636 C 141.76582 50.01618 144.358693 54.999063 151.928703 55.001702 C 164.398599 55.00134 170.664264 37.078128 173.61658 32.005983 C 174.652579 30.25116 170.954803 27.476224 169.466635 29.710183 Z M 173.164869 55.001497 C 179.539401 55.001468 180.737902 49.926046 180.737609 45.216226 L 180.735922 41.069892 C 180.738601 32.841363 185.359821 25.178163 190.701632 25.179143 C 192.81935 25.179806 194.216321 26.282559 194.215658 28.400276 C 194.213947 32.187856 190.336604 38.388977 190.340508 45.396284 C 190.340403 50.559109 192.368052 54.997709 198.183465 55.002219 C 210.648212 55.001074 216.939623 37.081777 219.891938 32.009632 C 220.907341 30.251677 217.209565 27.476742 215.721398 29.7107 C 213.872631 32.479865 212.139626 34.418451 209.363389 34.417748 C 206.323431 34.41909 204.921828 32.931054 204.924282 29.796845 C 204.926126 25.17691 207.877778 22.222482 207.87836 17.333676 C 207.875055 12.712958 205.193425 8.833438 199.582744 8.833718 C 195.499766 8.834502 191.80665 10.775319 188.400241 14.08732 C 185.445457 17.062344 183.599396 15.933448 183.601465 12.351384 C 183.59824 10.501753 183.035018 8.835647 180.55418 8.83245 C 177.129721 8.833274 172.508316 18.88821 169.466635 29.710183 C 167.345496 37.284679 166.422527 43.908706 166.424572 48.260554 C 166.424998 52.138018 168.8344 55.001525 173.164869 55.001497 Z M 230.962137 55.002873 C 241.667922 54.997668 251.450707 47.065703 259.588033 32.008519 C 260.603436 30.250564 256.90566 27.475628 255.417492 29.709587 C 251.26917 36.064427 243.784812 39.30949 237.52076 39.310514 C 232.247454 39.309414 227.917251 37.644729 227.917568 34.420636 C 227.918218 33.203779 228.839198 32.932905 229.495966 33.290916 C 231.613033 34.508436 234.095133 34.780504 236.687235 34.779547 C 245.727524 34.779226 251.541209 27.207795 251.539349 20.46421 C 251.542599 14.379927 247.776238 8.834023 239.188954 8.834742 C 212.679482 8.833847 205.016935 54.998223 230.962137 55.002873 Z M 234.293731 27.86194 C 231.32306 27.858013 229.946726 26.099873 229.944376 24.071257 C 229.945557 21.569039 232.155215 18.886361 235.763809 18.887196 C 238.623998 18.890128 240.000333 20.648268 239.997533 22.676101 C 239.997228 24.999334 237.881728 27.859643 234.293731 27.86194 Z M 291.894643 29.708939 C 290.045093 32.483253 288.291492 34.418707 285.541 34.42192 C 281.368921 34.419691 279.814476 32.48169 279.81352 29.889587 C 279.815018 24.163276 283.781157 20.288399 283.78304 15.009944 C 283.781486 10.031254 274.896811 4.123239 266.219643 4.126095 C 261.241736 4.1225 258.013663 8.652234 258.017101 12.440596 C 258.013771 15.75379 259.21173 16.952718 261.056954 17.60208 C 259.482035 21.861642 257.183568 27.207063 255.422641 29.71037 C 254.228253 31.467449 258.378158 34.421768 259.593182 32.009302 C 261.056971 28.965601 264.099821 22.674462 265.769615 19.003561 C 269.46455 20.376722 270.663637 22.676875 270.660492 23.598333 C 270.659525 28.039283 264.192815 36.717833 264.193534 45.305117 C 264.193044 50.020086 266.786701 54.99782 274.35671 55.000458 C 286.821457 54.999313 293.091489 37.082033 296.043804 32.009888 C 297.080586 30.249916 293.382811 27.474981 291.894643 29.708939 Z M 291.894643 29.708939 " stroke="#f0dfc8" stroke-width="6.925335" stroke-opacity="1" stroke-miterlimit="4"/><path stroke-linecap="butt" transform="matrix(0.741476, -0.11275, 0.11275, 0.741476, 66.916531, 162.660004)" fill="none" stroke-linejoin="miter" d="M 25.120232 134.877165 C 38.691355 134.875675 48.384825 125.001965 48.382193 111.230477 C 48.380916 99.598086 36.660324 91.483452 36.931089 83.258811 C 36.9298 78.659472 39.612928 76.812681 42.658035 76.812123 C 47.932124 76.808073 47.369357 83.3499 45.607953 85.579188 C 44.325458 87.222773 48.384483 90.28971 49.488111 88.713754 C 54.470994 86.12088 57.716572 80.956355 57.716411 75.414179 C 57.715904 68.765627 53.54446 62.315213 42.749574 62.317405 C 30.464596 62.314277 24.942116 70.430469 24.940699 78.927868 C 24.940357 90.085875 34.25038 96.938359 34.250489 104.039916 C 34.251658 108.57075 31.114995 111.702505 26.673262 111.706686 C 21.874341 111.703967 19.010673 108.571192 19.013034 103.566757 C 19.010126 98.493033 22.256475 98.312348 22.257138 96.19463 C 22.258663 94.798788 20.771715 93.872009 18.46908 93.874836 C 13.016788 93.87286 3.794011 98.676376 3.797506 113.16974 C 3.79459 127.39345 13.014239 134.874913 25.120232 134.877165 Z M 99.159348 105.707463 C 96.951428 108.933029 94.44868 110.21721 91.767476 110.215154 C 92.8973 106.630727 93.525853 102.843638 93.52844 98.877073 C 93.525584 90.199905 88.725626 84.833996 81.445083 84.833228 C 78.578961 84.834662 75.627494 85.397353 72.379567 88.533261 C 70.918963 89.996985 69.160491 89.366083 69.430887 87.96898 C 69.702039 86.324386 68.980336 84.834373 65.734863 84.836073 C 61.019894 84.835583 60.098119 88.056531 54.100063 105.709612 C 52.816003 109.40756 51.531585 112.899993 50.316428 116.144816 C 45.602338 128.229722 41.363216 137.468268 41.364731 143.105477 C 41.364281 147.161927 43.21159 149.460554 47.836674 149.46318 C 54.369596 149.460896 56.874384 134.13199 59.645335 120.65582 C 60.095513 118.353583 62.596855 118.533749 62.237438 120.654864 C 61.023967 128.046021 65.100218 130.999677 70.352928 130.997645 C 76.258225 131.000018 82.253856 126.943806 86.608596 120.651964 L 87.172082 120.653357 C 96.117337 120.65439 100.650199 113.641548 103.308509 108.008411 C 104.321297 105.886553 100.268125 104.132289 99.159348 105.707463 Z M 72.111022 111.883257 C 68.596679 111.886217 67.308491 109.583051 67.310547 106.901847 C 67.310997 102.845398 70.354935 98.314005 74.885769 98.312836 C 78.489214 98.312888 79.955035 100.521897 79.957345 103.209032 C 79.958553 107.081347 76.730958 111.8851 72.111022 111.883257 Z M 114.394939 130.998853 C 125.105089 130.999579 134.882725 123.066831 143.020051 108.009647 C 144.035454 106.251692 140.342827 103.47754 138.855442 105.706349 C 134.706337 112.066338 127.221979 115.311402 120.952779 115.311642 C 115.679473 115.310542 111.350052 113.640709 111.349586 110.421764 C 111.351019 109.199759 112.277148 108.929667 112.927984 109.292045 C 115.050201 110.510347 117.527151 110.781632 120.119253 110.780676 C 129.159542 110.780355 134.97401 103.203774 134.976516 96.466121 C 134.974617 90.381055 131.213405 84.835934 122.620972 84.83587 C 96.1115 84.834976 88.448953 130.999351 114.394939 130.998853 Z M 117.731681 103.858702 C 114.755079 103.859141 113.378744 102.101001 113.381544 100.073168 C 113.382724 97.57095 115.592382 94.888273 119.195827 94.888325 C 122.061948 94.886891 123.433134 96.644248 123.4347 98.678013 C 123.435179 100.996096 121.313746 103.860772 117.731681 103.858702 Z M 142.553676 130.997663 C 148.933357 130.998418 150.131076 125.928144 150.130782 121.218324 L 150.129096 117.07199 C 150.126625 108.842678 154.747845 101.179478 160.090439 101.17531 C 162.213306 101.176756 163.609494 102.284657 163.608831 104.402375 C 163.60712 108.189954 159.730561 114.385927 159.733681 121.398382 C 159.733577 126.561207 161.761225 130.999807 167.577421 130.999169 C 180.042168 130.998024 186.32843 113.077944 189.285895 108.006581 C 190.296148 106.247843 186.602739 103.47884 185.115354 105.707649 C 183.265804 108.481963 181.52765 110.419766 178.756562 110.419847 C 175.711455 110.420405 174.315001 108.933153 174.317456 105.798944 C 174.31415 101.178225 177.270951 98.224581 177.266384 93.334992 C 177.269011 88.709907 174.586598 84.835536 168.975917 84.835817 C 164.892939 84.836601 161.195457 86.771485 157.793414 90.089419 C 154.83863 93.064443 152.992569 91.935547 152.989489 88.352699 C 152.991413 86.503852 152.428975 84.832597 149.947353 84.834548 C 146.522895 84.835372 141.901489 94.890309 138.860592 105.707132 C 136.739452 113.281628 135.815701 119.910804 135.812597 124.26187 C 135.813022 128.139334 138.228356 130.998474 142.553676 130.997663 Z M 199.249718 131.000168 C 210.044604 130.997975 219.917273 123.063873 228.054599 108.006689 C 229.070002 106.248734 225.371444 103.478948 223.910587 105.706523 C 215.231552 118.263228 197.037613 117.51962 197.038605 105.144757 C 197.040448 100.524821 199.427008 96.193755 203.577708 96.198 C 206.348796 96.19792 207.360869 97.75316 207.365753 99.418655 C 207.36444 102.753229 205.244188 103.115687 205.246152 104.696447 C 205.244268 105.886775 206.820703 107.264423 210.044796 107.26474 C 214.012144 107.262178 219.46689 104.129945 219.466914 96.196031 C 219.467151 90.20085 215.589434 84.832936 206.73328 84.834916 C 192.145666 84.834615 183.264209 100.073665 183.264956 112.991418 C 183.264667 122.590043 188.160216 130.999707 199.249718 131.000168 Z M 239.129948 131.000713 C 249.840098 131.00144 259.618517 123.063543 267.755843 108.006359 C 268.771246 106.248404 265.077837 103.479401 263.590452 105.70821 C 259.442129 112.06305 251.956988 115.313263 245.688571 115.308354 C 240.414482 115.312403 236.085061 113.642569 236.085378 110.418476 C 236.086028 109.20162 237.012157 108.931528 237.662993 109.293906 C 239.78521 110.512208 242.262943 110.778344 244.854262 110.782537 C 253.894551 110.782215 259.709019 103.205635 259.711525 96.467982 C 259.710409 90.377767 255.948414 84.837795 247.356764 84.832582 C 220.846509 84.836836 213.183962 131.001212 239.129948 131.000713 Z M 242.46669 103.860563 C 239.490088 103.861002 238.113753 102.102862 238.116553 100.075029 C 238.117733 97.572811 240.327391 94.890134 243.930836 94.890186 C 246.796957 94.888752 248.168143 96.646108 248.170492 98.674725 C 248.170188 100.997957 246.049538 103.857483 242.46669 103.860563 Z M 300.067602 105.707562 C 298.218052 108.481876 296.458519 110.421697 293.70881 110.41976 C 289.536731 110.417532 287.982286 108.47953 287.98133 105.887428 C 287.982828 100.161117 291.948967 96.28624 291.950067 91.012933 C 291.949296 86.029094 283.06977 80.121862 274.392602 80.124718 C 269.408763 80.125489 266.185839 84.656006 266.184128 88.443585 C 266.185947 91.757563 267.37954 92.950558 269.229131 93.605852 C 267.649062 97.864631 265.351378 103.204904 263.595601 105.708993 C 262.401212 107.466072 266.545968 110.419609 267.766142 108.007925 C 269.22993 104.964224 272.27278 98.673085 273.937425 95.001401 C 277.637509 96.375345 278.831447 98.674716 278.832669 99.602105 C 278.832484 104.037906 272.359842 112.720822 272.360561 121.308106 C 272.360854 126.017926 274.953728 131.000809 282.529669 130.999082 C 294.994417 130.997937 301.259299 113.079874 304.211614 108.007728 C 305.248396 106.247756 301.554987 103.478753 300.067602 105.707562 Z M 300.067602 105.707562 " stroke="#f0dfc8" stroke-width="6.925335" stroke-opacity="1" stroke-miterlimit="4"/><g fill="#303030" fill-opacity="1"><g transform="translate(82.258799, 202.051211)"><g><path d="M 12.800781 -1.945312 C 17.253906 -2.625 22.59375 -6.65625 24.1875 -17.828125 C 24.601562 -20.621094 26.949219 -20.839844 26.925781 -18.242188 C 26.875 -7.519531 31.765625 -4.832031 36.421875 -5.539062 C 54.289062 -8.253906 41.214844 -45.421875 54.632812 -47.460938 C 56.960938 -47.816406 57.097656 -46.4375 60.589844 -46.96875 C 70.996094 -48.550781 69.613281 -64.097656 56.808594 -62.152344 C 47.910156 -60.796875 42.011719 -52.617188 39.304688 -34.484375 C 38.238281 -27.667969 37.691406 -22.050781 35.023438 -21.644531 C 33.449219 -21.40625 31.554688 -25.109375 32.007812 -34.566406 C 32.359375 -40.992188 36.15625 -45.984375 35.414062 -50.84375 C 34.90625 -54.199219 31.757812 -55.539062 28.746094 -55.082031 C 22.652344 -54.15625 23.785156 -47.183594 22.269531 -35.046875 C 20.9375 -23.988281 19.617188 -19.304688 17.085938 -18.917969 C 13.527344 -18.375 13.992188 -24.050781 15.457031 -42.976562 C 16.039062 -50.207031 14.574219 -54.328125 4.644531 -52.820312 C -9.730469 -50.632812 -18.6875 -40.445312 -17.136719 -30.246094 C -16.335938 -24.972656 -12.664062 -20.628906 -7.050781 -21.480469 C -0.410156 -22.492188 2.257812 -28.921875 0.566406 -31.746094 C -0.941406 -31.515625 -2.265625 -32.855469 -2.554688 -34.773438 C -3.210938 -39.085938 1.660156 -42.980469 8.023438 -42.125 C 3.140625 -28.636719 2.050781 -19.222656 3.007812 -12.925781 C 4.328125 -4.230469 8.832031 -1.34375 12.800781 -1.945312 Z M 12.800781 -1.945312 "/></g></g></g><g fill="#303030" fill-opacity="1"><g transform="translate(134.972303, 194.035514)"><g><path d="M 7.257812 -1.101562 C 12.117188 -1.84375 15.546875 -6.917969 17.445312 -12.878906 L 17.71875 -12.921875 C 17.761719 -7.113281 20.402344 -3.101562 25.125 -3.820312 C 32.722656 -4.976562 34.867188 -16.226562 37.25 -23.105469 C 37.738281 -24.511719 34.6875 -26.148438 33.910156 -24.347656 C 32.875 -21.949219 31.359375 -20.386719 29.035156 -20.035156 C 26.019531 -19.578125 24.851562 -22.199219 26.417969 -27.550781 C 27.320312 -31.75 28.777344 -34.144531 28.382812 -36.746094 C 28.15625 -38.253906 27.382812 -39.183594 25.601562 -38.914062 C 22.382812 -38.425781 22.300781 -35.75 20.042969 -35.40625 C 18.261719 -35.136719 18.140625 -37.78125 12.664062 -36.949219 C 0.886719 -35.15625 -2.8125 -19.886719 -1.367188 -10.367188 C -0.441406 -4.277344 2.601562 -0.394531 7.257812 -1.101562 Z M 11.949219 -16.316406 C 9.824219 -15.992188 8.316406 -17.164062 7.960938 -19.492188 C 7.503906 -22.503906 9.253906 -26.203125 12.8125 -26.742188 C 15.003906 -27.078125 16.582031 -25.914062 16.925781 -23.65625 C 17.363281 -20.78125 15.507812 -16.855469 11.949219 -16.316406 Z M 11.949219 -16.316406 "/></g></g></g><g fill="#303030" fill-opacity="1"><g transform="translate(170.16028, 188.684776)"><g><path d="M 25.765625 -23.109375 C 24.707031 -20.847656 23.625 -19.210938 21.570312 -18.898438 C 18.492188 -18.429688 17.109375 -19.691406 16.816406 -21.609375 C 16.171875 -25.855469 18.675781 -29.175781 18.085938 -33.078125 C 17.523438 -36.777344 10.285156 -40.15625 3.847656 -39.179688 C 0.152344 -38.617188 -1.734375 -34.898438 -1.308594 -32.089844 C -0.933594 -29.625 0.09375 -28.871094 1.535156 -28.601562 C 0.847656 -25.273438 -0.257812 -21.042969 -1.277344 -18.996094 C -1.96875 -17.5625 1.445312 -15.839844 2.0625 -17.753906 C 2.816406 -20.179688 4.367188 -25.179688 5.183594 -28.105469 C 8.078125 -27.496094 9.226562 -25.917969 9.332031 -25.234375 C 9.832031 -21.949219 6.015625 -14.785156 6.984375 -8.417969 C 7.515625 -4.925781 9.996094 -1.519531 15.609375 -2.375 C 24.851562 -3.777344 27.488281 -17.769531 29.105469 -21.867188 C 29.660156 -23.28125 26.609375 -24.917969 25.765625 -23.109375 Z M 25.765625 -23.109375 "/></g></g></g><g fill="#303030" fill-opacity="1"><g transform="translate(197.201621, 184.572827)"><g><path d="M 4.3125 -0.65625 C 9.035156 -1.375 9.355469 -5.273438 8.824219 -8.765625 L 8.355469 -11.847656 C 7.429688 -17.941406 9.988281 -24.144531 13.957031 -24.746094 C 15.53125 -24.984375 16.683594 -24.320312 16.925781 -22.746094 C 17.351562 -19.9375 15.171875 -14.914062 15.964844 -9.710938 C 16.546875 -5.878906 18.554688 -2.820312 22.867188 -3.476562 C 32.109375 -4.882812 34.742188 -18.871094 36.363281 -22.96875 C 36.917969 -24.386719 33.867188 -26.023438 33.019531 -24.214844 C 31.964844 -21.949219 30.882812 -20.316406 28.828125 -20.003906 C 26.570312 -19.660156 25.375 -20.597656 25.019531 -22.925781 C 24.5 -26.351562 26.359375 -28.875 25.808594 -32.503906 C 25.285156 -35.925781 22.863281 -38.5 18.6875 -37.863281 C 15.675781 -37.40625 13.15625 -35.550781 10.996094 -32.703125 C 9.140625 -30.175781 7.644531 -30.789062 7.238281 -33.460938 C 7.03125 -34.832031 6.433594 -36 4.585938 -35.71875 C 2.050781 -35.332031 -0.238281 -27.351562 -1.277344 -18.996094 C -2 -13.144531 -1.933594 -8.109375 -1.445312 -4.894531 C -1.007812 -2.019531 1.09375 -0.167969 4.3125 -0.65625 Z M 4.3125 -0.65625 "/></g></g></g><g fill="#303030" fill-opacity="1"><g transform="translate(231.499625, 179.35742)"><g><path d="M 12.871094 -1.957031 C 20.8125 -3.164062 27.171875 -10.15625 31.5 -22.230469 C 32.054688 -23.644531 29.003906 -25.285156 28.160156 -23.472656 C 25.796875 -18.28125 20.617188 -15.042969 15.960938 -14.335938 C 12.058594 -13.742188 8.652344 -14.484375 8.289062 -16.878906 C 8.15625 -17.769531 8.808594 -18.078125 9.328125 -17.878906 C 11.039062 -17.226562 12.917969 -17.304688 14.835938 -17.59375 C 21.542969 -18.617188 25.003906 -24.886719 24.242188 -29.882812 C 23.558594 -34.402344 20.125 -38.082031 13.757812 -37.113281 C -5.890625 -34.125 -6.367188 0.96875 12.871094 -1.957031 Z M 12.273438 -22.460938 C 10.082031 -22.125 8.859375 -23.269531 8.628906 -24.777344 C 8.347656 -26.625 9.691406 -28.859375 12.359375 -29.265625 C 14.480469 -29.589844 15.707031 -28.445312 15.9375 -26.9375 C 16.195312 -25.226562 14.945312 -22.867188 12.273438 -22.460938 Z M 12.273438 -22.460938 "/></g></g></g><g fill="#303030" fill-opacity="1"><g transform="translate(260.93703, 174.881122)"><g><path d="M 25.765625 -23.109375 C 24.707031 -20.847656 23.625 -19.210938 21.570312 -18.898438 C 18.492188 -18.429688 17.109375 -19.691406 16.816406 -21.609375 C 16.171875 -25.855469 18.675781 -29.175781 18.085938 -33.078125 C 17.523438 -36.777344 10.285156 -40.15625 3.847656 -39.179688 C 0.152344 -38.617188 -1.734375 -34.898438 -1.308594 -32.089844 C -0.933594 -29.625 0.09375 -28.871094 1.535156 -28.601562 C 0.847656 -25.273438 -0.257812 -21.042969 -1.277344 -18.996094 C -1.96875 -17.5625 1.445312 -15.839844 2.0625 -17.753906 C 2.816406 -20.179688 4.367188 -25.179688 5.183594 -28.105469 C 8.078125 -27.496094 9.226562 -25.917969 9.332031 -25.234375 C 9.832031 -21.949219 6.015625 -14.785156 6.984375 -8.417969 C 7.515625 -4.925781 9.996094 -1.519531 15.609375 -2.375 C 24.851562 -3.777344 27.488281 -17.769531 29.105469 -21.867188 C 29.660156 -23.28125 26.609375 -24.917969 25.765625 -23.109375 Z M 25.765625 -23.109375 "/></g></g></g><g fill="#303030" fill-opacity="1"><g transform="translate(84.768551, 259.324801)"><g><path d="M 15.976562 0.511719 C 26.042969 -1.019531 32.117188 -9.4375 30.566406 -19.636719 C 29.253906 -28.261719 19.640625 -32.964844 18.921875 -39.089844 C 18.402344 -42.511719 20.179688 -44.183594 22.4375 -44.527344 C 26.339844 -45.121094 26.667969 -40.199219 25.617188 -38.355469 C 24.847656 -36.980469 28.203125 -35.175781 28.847656 -36.464844 C 32.25 -38.945312 34.066406 -43.144531 33.441406 -47.25 C 32.691406 -52.179688 28.882812 -56.503906 20.871094 -55.285156 C 11.765625 -53.902344 8.574219 -47.253906 9.53125 -40.953125 C 10.792969 -32.671875 18.476562 -28.65625 19.277344 -23.382812 C 19.789062 -20.03125 17.816406 -17.347656 14.527344 -16.847656 C 10.96875 -16.308594 8.492188 -18.3125 7.929688 -22.007812 C 7.359375 -25.773438 9.734375 -26.277344 9.492188 -27.851562 C 9.335938 -28.875 8.136719 -29.394531 6.425781 -29.132812 C 2.386719 -28.519531 -3.917969 -23.917969 -2.28125 -13.171875 C -0.679688 -2.628906 7.007812 1.875 15.976562 0.511719 Z M 15.976562 0.511719 "/></g></g></g><g fill="#303030" fill-opacity="1"><g transform="translate(120.230361, 253.932423)"><g><path d="M 32.132812 -24.078125 C 30.851562 -21.433594 29.148438 -20.191406 27.164062 -19.890625 C 27.578125 -22.683594 27.632812 -25.566406 27.183594 -28.507812 C 26.207031 -34.945312 22.042969 -38.375 16.632812 -37.550781 C 14.511719 -37.226562 12.382812 -36.484375 10.339844 -33.792969 C 9.414062 -32.53125 8.039062 -32.8125 8.085938 -33.871094 C 8.105469 -35.132812 7.390625 -36.144531 4.996094 -35.78125 C 1.503906 -35.25 1.183594 -32.75 -1.277344 -18.996094 C -1.820312 -16.113281 -2.382812 -13.367188 -2.910156 -10.835938 C -5.035156 -1.335938 -7.144531 5.988281 -6.507812 10.164062 C -6.050781 13.179688 -4.421875 14.679688 -1 14.160156 C 3.863281 13.421875 3.980469 1.777344 4.515625 -8.53125 C 4.597656 -10.296875 6.46875 -10.4375 6.433594 -8.824219 C 6.375 -3.210938 9.722656 -1.476562 13.625 -2.070312 C 18.003906 -2.738281 21.996094 -6.425781 24.507812 -11.570312 L 24.917969 -11.632812 C 31.558594 -12.644531 34.121094 -18.355469 35.472656 -22.835938 C 35.984375 -24.523438 32.777344 -25.367188 32.132812 -24.078125 Z M 12.769531 -16.441406 C 10.167969 -16.046875 8.949219 -17.609375 8.648438 -19.597656 C 8.1875 -22.609375 9.9375 -26.308594 13.292969 -26.816406 C 15.964844 -27.222656 17.308594 -25.746094 17.609375 -23.761719 C 18.046875 -20.886719 16.191406 -16.960938 12.769531 -16.441406 Z M 12.769531 -16.441406 "/></g></g></g><g fill="#303030" fill-opacity="1"><g transform="translate(153.638403, 248.852344)"><g><path d="M 12.871094 -1.957031 C 20.8125 -3.164062 27.171875 -10.15625 31.5 -22.230469 C 32.054688 -23.644531 29.003906 -25.285156 28.160156 -23.472656 C 25.796875 -18.28125 20.617188 -15.042969 15.960938 -14.335938 C 12.058594 -13.742188 8.652344 -14.484375 8.289062 -16.878906 C 8.15625 -17.769531 8.808594 -18.078125 9.328125 -17.878906 C 11.039062 -17.226562 12.917969 -17.304688 14.835938 -17.59375 C 21.542969 -18.617188 25.003906 -24.886719 24.242188 -29.882812 C 23.558594 -34.402344 20.125 -38.082031 13.757812 -37.113281 C -5.890625 -34.125 -6.367188 0.96875 12.871094 -1.957031 Z M 12.273438 -22.460938 C 10.082031 -22.125 8.859375 -23.269531 8.628906 -24.777344 C 8.347656 -26.625 9.691406 -28.859375 12.359375 -29.265625 C 14.480469 -29.589844 15.707031 -28.445312 15.9375 -26.9375 C 16.195312 -25.226562 14.945312 -22.867188 12.273438 -22.460938 Z M 12.273438 -22.460938 "/></g></g></g><g fill="#303030" fill-opacity="1"><g transform="translate(183.075808, 244.376047)"><g><path d="M 4.3125 -0.65625 C 9.035156 -1.375 9.355469 -5.273438 8.824219 -8.765625 L 8.355469 -11.847656 C 7.429688 -17.941406 9.988281 -24.144531 13.957031 -24.746094 C 15.53125 -24.984375 16.683594 -24.320312 16.925781 -22.746094 C 17.351562 -19.9375 15.171875 -14.914062 15.964844 -9.710938 C 16.546875 -5.878906 18.554688 -2.820312 22.867188 -3.476562 C 32.109375 -4.882812 34.742188 -18.871094 36.363281 -22.96875 C 36.917969 -24.386719 33.867188 -26.023438 33.019531 -24.214844 C 31.964844 -21.949219 30.882812 -20.316406 28.828125 -20.003906 C 26.570312 -19.660156 25.375 -20.597656 25.019531 -22.925781 C 24.5 -26.351562 26.359375 -28.875 25.808594 -32.503906 C 25.285156 -35.925781 22.863281 -38.5 18.6875 -37.863281 C 15.675781 -37.40625 13.15625 -35.550781 10.996094 -32.703125 C 9.140625 -30.175781 7.644531 -30.789062 7.238281 -33.460938 C 7.03125 -34.832031 6.433594 -36 4.585938 -35.71875 C 2.050781 -35.332031 -0.238281 -27.351562 -1.277344 -18.996094 C -2 -13.144531 -1.933594 -8.109375 -1.445312 -4.894531 C -1.007812 -2.019531 1.09375 -0.167969 4.3125 -0.65625 Z M 4.3125 -0.65625 "/></g></g></g><g fill="#303030" fill-opacity="1"><g transform="translate(217.373812, 239.160639)"><g><path d="M 12.050781 -1.832031 C 20.058594 -3.050781 26.488281 -10.050781 30.816406 -22.125 C 31.371094 -23.542969 28.320312 -25.179688 27.476562 -23.371094 C 22.457031 -13.082031 8.886719 -11.578125 7.492188 -20.75 C 6.96875 -24.175781 8.261719 -27.664062 11.34375 -28.132812 C 13.394531 -28.445312 14.324219 -27.394531 14.511719 -26.160156 C 14.886719 -23.695312 13.355469 -23.183594 13.53125 -22.019531 C 13.667969 -21.128906 14.988281 -20.28125 17.382812 -20.644531 C 20.328125 -21.09375 24.011719 -24.035156 23.117188 -29.921875 C 22.441406 -34.371094 18.960938 -37.90625 12.390625 -36.90625 C 1.574219 -35.261719 -3.28125 -22.964844 -1.824219 -13.382812 C -0.742188 -6.261719 3.832031 -0.582031 12.050781 -1.832031 Z M 12.050781 -1.832031 "/></g></g></g><g fill="#303030" fill-opacity="1"><g transform="translate(246.126627, 234.788441)"><g><path d="M 12.871094 -1.957031 C 20.8125 -3.164062 27.171875 -10.15625 31.5 -22.230469 C 32.054688 -23.644531 29.003906 -25.285156 28.160156 -23.472656 C 25.796875 -18.28125 20.617188 -15.042969 15.960938 -14.335938 C 12.058594 -13.742188 8.652344 -14.484375 8.289062 -16.878906 C 8.15625 -17.769531 8.808594 -18.078125 9.328125 -17.878906 C 11.039062 -17.226562 12.917969 -17.304688 14.835938 -17.59375 C 21.542969 -18.617188 25.003906 -24.886719 24.242188 -29.882812 C 23.558594 -34.402344 20.125 -38.082031 13.757812 -37.113281 C -5.890625 -34.125 -6.367188 0.96875 12.871094 -1.957031 Z M 12.273438 -22.460938 C 10.082031 -22.125 8.859375 -23.269531 8.628906 -24.777344 C 8.347656 -26.625 9.691406 -28.859375 12.359375 -29.265625 C 14.480469 -29.589844 15.707031 -28.445312 15.9375 -26.9375 C 16.195312 -25.226562 14.945312 -22.867188 12.273438 -22.460938 Z M 12.273438 -22.460938 "/></g></g></g><g fill="#303030" fill-opacity="1"><g transform="translate(275.564031, 230.312144)"><g><path d="M 25.765625 -23.109375 C 24.707031 -20.847656 23.625 -19.210938 21.570312 -18.898438 C 18.492188 -18.429688 17.109375 -19.691406 16.816406 -21.609375 C 16.171875 -25.855469 18.675781 -29.175781 18.085938 -33.078125 C 17.523438 -36.777344 10.285156 -40.15625 3.847656 -39.179688 C 0.152344 -38.617188 -1.734375 -34.898438 -1.308594 -32.089844 C -0.933594 -29.625 0.09375 -28.871094 1.535156 -28.601562 C 0.847656 -25.273438 -0.257812 -21.042969 -1.277344 -18.996094 C -1.96875 -17.5625 1.445312 -15.839844 2.0625 -17.753906 C 2.816406 -20.179688 4.367188 -25.179688 5.183594 -28.105469 C 8.078125 -27.496094 9.226562 -25.917969 9.332031 -25.234375 C 9.832031 -21.949219 6.015625 -14.785156 6.984375 -8.417969 C 7.515625 -4.925781 9.996094 -1.519531 15.609375 -2.375 C 24.851562 -3.777344 27.488281 -17.769531 29.105469 -21.867188 C 29.660156 -23.28125 26.609375 -24.917969 25.765625 -23.109375 Z M 25.765625 -23.109375 "/></g></g></g></svg>