<svg xmlns="http://www.w3.org/2000/svg" xmlns:xlink="http://www.w3.org/1999/xlink" width="500" zoomAndPan="magnify" viewBox="0 0 375 374.999991" height="500" preserveAspectRatio="xMidYMid meet" version="1.0"><defs><g/><clipPath id="eeec6c0fd3"><path d="M 61.605469 158.863281 L 156 158.863281 L 156 181.363281 L 61.605469 181.363281 Z M 61.605469 158.863281 " clip-rule="nonzero"/></clipPath><clipPath id="9d4d07142d"><path d="M 220 153 L 317 153 L 317 169 L 220 169 Z M 220 153 " clip-rule="nonzero"/></clipPath><clipPath id="54cdccf83a"><path d="M 222.332031 145.59375 L 316.523438 153.238281 L 314.703125 175.664062 L 220.511719 168.019531 Z M 222.332031 145.59375 " clip-rule="nonzero"/></clipPath><clipPath id="fabc6e928d"><path d="M 314.835938 175.652344 L 220.644531 168.007812 L 222.464844 145.582031 L 316.652344 153.222656 Z M 314.835938 175.652344 " clip-rule="nonzero"/></clipPath><clipPath id="d5ec8139b1"><path d="M 314.835938 175.652344 L 220.644531 168.007812 L 222.464844 145.582031 L 316.652344 153.222656 Z M 314.835938 175.652344 " clip-rule="nonzero"/></clipPath></defs><rect x="-37.5" width="450" fill="#ffffff" y="-37.499999" height="449.999989" fill-opacity="1"/><rect x="-37.5" width="450" fill="#ffffff" y="-37.499999" height="449.999989" fill-opacity="1"/><g clip-path="url(#eeec6c0fd3)"><path fill="#000000" d="M 64.820312 180.542969 C 65.054688 180 64.964844 179.339844 64.582031 178.941406 C 64.542969 178.902344 64.507812 178.851562 64.460938 178.820312 C 64.386719 178.773438 64.3125 178.707031 64.226562 178.640625 C 64.226562 178.640625 64.222656 178.632812 64.222656 178.625 C 64.214844 178.625 64.214844 178.625 64.214844 178.625 C 63.875 178.300781 63.554688 177.789062 63.351562 177.40625 C 63.34375 177.179688 63.359375 176.925781 63.394531 176.632812 C 63.554688 175.132812 64.769531 173.578125 67.042969 171.9375 C 68.324219 170.984375 69.9375 170.074219 71.890625 169.207031 C 73.914062 168.335938 76.363281 167.574219 79.226562 166.941406 C 85.441406 165.621094 91.4375 165.296875 97.222656 165.972656 C 102.925781 166.65625 108.777344 167.289062 114.796875 167.859375 C 118.089844 168.238281 121.421875 168.449219 124.769531 168.492188 C 128.117188 168.539062 131.644531 168.320312 135.335938 167.839844 C 143.371094 166.800781 149.328125 164.925781 153.195312 162.21875 C 154.074219 161.585938 154.871094 161.03125 155.609375 160.535156 C 155.679688 160.261719 155.761719 159.984375 155.839844 159.710938 C 155.804688 159.429688 155.765625 159.144531 155.722656 158.863281 C 154.8125 159.496094 153.777344 160.210938 152.570312 161.039062 C 148.609375 163.671875 142.859375 165.484375 135.296875 166.46875 C 128.875 167.335938 122.75 167.34375 116.957031 166.5 C 111.082031 165.664062 105.183594 165.039062 99.269531 164.617188 C 96.066406 164.402344 92.796875 164.339844 89.464844 164.460938 C 86.140625 164.574219 82.726562 165.03125 79.222656 165.816406 C 75.800781 166.597656 72.957031 167.484375 70.695312 168.460938 C 68.527344 169.515625 66.808594 170.5625 65.535156 171.597656 C 63.074219 173.667969 61.886719 175.59375 62 177.382812 L 62.066406 177.992188 C 62.082031 178.160156 62.105469 178.308594 62.136719 178.453125 C 62.15625 178.804688 62.15625 179.167969 62.121094 179.480469 C 62.097656 179.707031 62.113281 179.941406 62.136719 180.167969 C 62.195312 180.730469 62.789062 181.273438 63.433594 181.355469 " fill-opacity="1" fill-rule="nonzero"/></g><g fill="#000000" fill-opacity="1"><g transform="translate(154.484541, 183.268332)"><g><path d="M 0.597656 -24.046875 C -1.941406 -13.441406 -1.792969 8.289062 6.648438 7.019531 C 9.710938 6.574219 15.460938 0 18.96875 -6.574219 C 25.542969 -5.078125 33.085938 -9.933594 38.761719 -17.476562 C 38.761719 -17.851562 37.566406 -17.773438 37.269531 -17.402344 C 33.308594 -11.949219 25.316406 -6.050781 19.492188 -7.691406 C 25.394531 -20.238281 24.722656 -28.605469 19.71875 -29.648438 C 10.53125 -30.546875 7.691406 -12.25 17.699219 -7.09375 C 13.816406 0.597656 8.8125 5.378906 6.648438 5.75 C 2.613281 6.421875 2.914062 -11.652344 5.976562 -24.570312 C 6.871094 -28.230469 1.570312 -28.230469 0.597656 -24.046875 Z M 18.222656 -8.214844 C 9.035156 -13.144531 12.546875 -29.203125 19.269531 -28.679688 C 24.046875 -27.78125 23.449219 -18.671875 18.222656 -8.214844 Z M 18.222656 -8.214844 "/></g></g></g><g fill="#000000" fill-opacity="1"><g transform="translate(191.452926, 183.268332)"><g><path d="M 10.304688 9.558594 C 17.027344 4.554688 26.511719 -12.171875 30.621094 -17.550781 C 30.621094 -17.925781 29.648438 -17.925781 29.351562 -17.625 C 26.140625 -13.519531 15.386719 4.929688 8.960938 9.1875 C 0.894531 14.339844 2.6875 -0.972656 3.136719 -5.152344 C 3.734375 -11.277344 4.929688 -17.699219 5.675781 -20.761719 C 30.097656 -48.171875 27.183594 -62.660156 19.640625 -62.660156 C 10.457031 -62.660156 3.660156 -44.363281 0.671875 -25.617188 C -0.523438 -18.074219 -1.046875 -10.382812 -0.894531 -3.882812 C -0.820312 -0.222656 -0.820312 11.726562 5.152344 11.726562 C 6.574219 11.726562 8.289062 11.054688 10.304688 9.558594 Z M 5.898438 -22.703125 C 7.765625 -39.730469 13.890625 -60.71875 19.269531 -61.539062 C 25.617188 -62.0625 28.304688 -49.441406 5.898438 -22.703125 Z M 5.898438 -22.703125 "/></g></g></g><g clip-path="url(#9d4d07142d)"><g clip-path="url(#54cdccf83a)"><g clip-path="url(#fabc6e928d)"><g clip-path="url(#d5ec8139b1)"><path fill="#000000" d="M 313.382812 153.78125 C 313.105469 154.300781 313.144531 154.96875 313.492188 155.398438 C 313.527344 155.4375 313.558594 155.492188 313.601562 155.527344 C 313.675781 155.578125 313.742188 155.652344 313.820312 155.726562 C 313.820312 155.726562 313.828125 155.734375 313.828125 155.742188 C 313.832031 155.742188 313.832031 155.742188 313.832031 155.742188 C 314.144531 156.09375 314.425781 156.628906 314.59375 157.027344 C 314.585938 157.253906 314.550781 157.507812 314.488281 157.796875 C 314.210938 159.273438 312.871094 160.726562 310.472656 162.179688 C 309.117188 163.027344 307.4375 163.804688 305.421875 164.507812 C 303.332031 165.214844 300.832031 165.773438 297.921875 166.171875 C 291.625 166.988281 285.621094 166.824219 279.910156 165.683594 C 274.28125 164.539062 268.5 163.4375 262.546875 162.378906 C 259.292969 161.738281 255.988281 161.257812 252.65625 160.945312 C 249.324219 160.628906 245.792969 160.558594 242.074219 160.742188 C 233.980469 161.125 227.890625 162.511719 223.816406 164.898438 C 222.890625 165.457031 222.050781 165.945312 221.277344 166.378906 C 221.179688 166.648438 221.078125 166.917969 220.976562 167.183594 C 220.992188 167.46875 221.007812 167.753906 221.023438 168.039062 C 221.984375 167.480469 223.074219 166.851562 224.34375 166.125 C 228.503906 163.820312 234.382812 162.480469 242 162.109375 C 248.472656 161.765625 254.574219 162.253906 260.28125 163.5625 C 266.070312 164.871094 271.898438 165.96875 277.757812 166.867188 C 280.933594 167.34375 284.191406 167.667969 287.519531 167.816406 C 290.84375 167.972656 294.285156 167.792969 297.839844 167.296875 C 301.3125 166.792969 304.21875 166.136719 306.550781 165.347656 C 308.796875 164.472656 310.59375 163.570312 311.949219 162.636719 C 314.570312 160.773438 315.90625 158.953125 315.941406 157.15625 L 315.921875 156.546875 C 315.921875 156.378906 315.910156 156.226562 315.890625 156.082031 C 315.898438 155.730469 315.925781 155.367188 315.988281 155.058594 C 316.03125 154.832031 316.035156 154.601562 316.03125 154.375 C 316.015625 153.804688 315.46875 153.21875 314.832031 153.082031 " fill-opacity="1" fill-rule="nonzero"/></g></g></g></g><g fill="#000000" fill-opacity="1"><g transform="translate(91.953127, 224.18096)"><g><path d="M 14.921875 -13.9375 C 14.960938 -13.9375 14.984375 -13.890625 14.984375 -13.796875 C 14.984375 -13.710938 14.960938 -13.671875 14.921875 -13.671875 C 14.410156 -13.671875 13.96875 -13.535156 13.59375 -13.265625 C 13.226562 -12.992188 12.921875 -12.539062 12.671875 -11.90625 L 7.921875 -0.015625 C 7.898438 0.0351562 7.816406 0.0625 7.671875 0.0625 C 7.546875 0.0625 7.460938 0.0351562 7.421875 -0.015625 L 1.875 -12.078125 C 1.625 -12.660156 1.351562 -13.070312 1.0625 -13.3125 C 0.78125 -13.550781 0.421875 -13.671875 -0.015625 -13.671875 C -0.0664062 -13.671875 -0.09375 -13.710938 -0.09375 -13.796875 C -0.09375 -13.890625 -0.0664062 -13.9375 -0.015625 -13.9375 L 0.828125 -13.90625 C 1.242188 -13.882812 1.578125 -13.875 1.828125 -13.875 C 2.421875 -13.875 3.0625 -13.882812 3.75 -13.90625 L 4.65625 -13.9375 C 4.707031 -13.9375 4.734375 -13.890625 4.734375 -13.796875 C 4.734375 -13.710938 4.707031 -13.671875 4.65625 -13.671875 C 3.738281 -13.671875 3.28125 -13.410156 3.28125 -12.890625 C 3.28125 -12.710938 3.347656 -12.472656 3.484375 -12.171875 L 8.140625 -1.96875 L 12.15625 -12.015625 C 12.269531 -12.328125 12.328125 -12.570312 12.328125 -12.75 C 12.328125 -13.0625 12.1875 -13.289062 11.90625 -13.4375 C 11.625 -13.59375 11.1875 -13.671875 10.59375 -13.671875 C 10.550781 -13.671875 10.53125 -13.710938 10.53125 -13.796875 C 10.53125 -13.890625 10.550781 -13.9375 10.59375 -13.9375 L 11.546875 -13.90625 C 12.054688 -13.882812 12.519531 -13.875 12.9375 -13.875 C 13.25 -13.875 13.597656 -13.882812 13.984375 -13.90625 Z M 14.921875 -13.9375 "/></g></g></g><g fill="#000000" fill-opacity="1"><g transform="translate(109.741229, 224.18096)"><g><path d="M 4.4375 -1.8125 C 4.4375 -1.363281 4.476562 -1.03125 4.5625 -0.8125 C 4.65625 -0.59375 4.832031 -0.445312 5.09375 -0.375 C 5.351562 -0.300781 5.765625 -0.265625 6.328125 -0.265625 C 6.378906 -0.265625 6.40625 -0.21875 6.40625 -0.125 C 6.40625 -0.0390625 6.378906 0 6.328125 0 C 5.878906 0 5.523438 -0.00390625 5.265625 -0.015625 L 3.671875 -0.046875 L 2.140625 -0.015625 C 1.867188 -0.00390625 1.503906 0 1.046875 0 C 1.003906 0 0.984375 -0.0390625 0.984375 -0.125 C 0.984375 -0.21875 1.003906 -0.265625 1.046875 -0.265625 C 1.609375 -0.265625 2.019531 -0.300781 2.28125 -0.375 C 2.539062 -0.445312 2.71875 -0.59375 2.8125 -0.8125 C 2.914062 -1.03125 2.96875 -1.363281 2.96875 -1.8125 L 2.96875 -12.125 C 2.96875 -12.570312 2.914062 -12.898438 2.8125 -13.109375 C 2.71875 -13.316406 2.539062 -13.460938 2.28125 -13.546875 C 2.019531 -13.628906 1.609375 -13.671875 1.046875 -13.671875 C 1.003906 -13.671875 0.984375 -13.710938 0.984375 -13.796875 C 0.984375 -13.890625 1.003906 -13.9375 1.046875 -13.9375 L 2.140625 -13.90625 C 2.765625 -13.882812 3.273438 -13.875 3.671875 -13.875 C 4.117188 -13.875 4.65625 -13.882812 5.28125 -13.90625 L 6.328125 -13.9375 C 6.378906 -13.9375 6.40625 -13.890625 6.40625 -13.796875 C 6.40625 -13.710938 6.378906 -13.671875 6.328125 -13.671875 C 5.773438 -13.671875 5.367188 -13.625 5.109375 -13.53125 C 4.859375 -13.445312 4.679688 -13.296875 4.578125 -13.078125 C 4.484375 -12.859375 4.4375 -12.523438 4.4375 -12.078125 Z M 4.4375 -1.8125 "/></g></g></g><g fill="#000000" fill-opacity="1"><g transform="translate(120.084468, 224.18096)"><g><path d="M 8.15625 0.265625 C 6.78125 0.265625 5.550781 -0.0546875 4.46875 -0.703125 C 3.394531 -1.347656 2.5625 -2.222656 1.96875 -3.328125 C 1.382812 -4.441406 1.09375 -5.648438 1.09375 -6.953125 C 1.09375 -8.484375 1.476562 -9.796875 2.25 -10.890625 C 3.019531 -11.984375 4.007812 -12.804688 5.21875 -13.359375 C 6.4375 -13.910156 7.675781 -14.1875 8.9375 -14.1875 C 10.351562 -14.1875 11.59375 -13.851562 12.65625 -13.1875 C 13.726562 -12.53125 14.550781 -11.65625 15.125 -10.5625 C 15.695312 -9.476562 15.984375 -8.328125 15.984375 -7.109375 C 15.984375 -5.753906 15.625 -4.507812 14.90625 -3.375 C 14.195312 -2.25 13.242188 -1.359375 12.046875 -0.703125 C 10.847656 -0.0546875 9.550781 0.265625 8.15625 0.265625 Z M 8.9375 -0.203125 C 9.945312 -0.203125 10.859375 -0.445312 11.671875 -0.9375 C 12.484375 -1.425781 13.125 -2.144531 13.59375 -3.09375 C 14.0625 -4.050781 14.296875 -5.179688 14.296875 -6.484375 C 14.296875 -7.878906 14.035156 -9.117188 13.515625 -10.203125 C 12.992188 -11.296875 12.257812 -12.144531 11.3125 -12.75 C 10.375 -13.363281 9.269531 -13.671875 8 -13.671875 C 6.363281 -13.671875 5.082031 -13.140625 4.15625 -12.078125 C 3.238281 -11.023438 2.78125 -9.578125 2.78125 -7.734375 C 2.78125 -6.335938 3.039062 -5.0625 3.5625 -3.90625 C 4.082031 -2.757812 4.8125 -1.851562 5.75 -1.1875 C 6.6875 -0.53125 7.75 -0.203125 8.9375 -0.203125 Z M 8.9375 -0.203125 "/></g></g></g><g fill="#000000" fill-opacity="1"><g transform="translate(140.101564, 224.18096)"><g><path d="M 4.125 -1.890625 C 4.125 -1.460938 4.164062 -1.148438 4.25 -0.953125 C 4.34375 -0.765625 4.507812 -0.632812 4.75 -0.5625 C 4.988281 -0.5 5.375 -0.46875 5.90625 -0.46875 L 8.34375 -0.46875 C 9.1875 -0.46875 9.859375 -0.726562 10.359375 -1.25 C 10.867188 -1.769531 11.207031 -2.488281 11.375 -3.40625 C 11.375 -3.457031 11.410156 -3.476562 11.484375 -3.46875 C 11.566406 -3.457031 11.609375 -3.429688 11.609375 -3.390625 C 11.484375 -2.148438 11.421875 -1.128906 11.421875 -0.328125 C 11.421875 -0.210938 11.394531 -0.128906 11.34375 -0.078125 C 11.300781 -0.0234375 11.210938 0 11.078125 0 L 0.78125 0 C 0.75 0 0.734375 -0.0390625 0.734375 -0.125 C 0.734375 -0.21875 0.75 -0.265625 0.78125 -0.265625 C 1.34375 -0.265625 1.753906 -0.300781 2.015625 -0.375 C 2.273438 -0.445312 2.445312 -0.59375 2.53125 -0.8125 C 2.625 -1.03125 2.671875 -1.363281 2.671875 -1.8125 L 2.671875 -12.125 C 2.671875 -12.570312 2.625 -12.898438 2.53125 -13.109375 C 2.445312 -13.316406 2.273438 -13.460938 2.015625 -13.546875 C 1.753906 -13.628906 1.34375 -13.671875 0.78125 -13.671875 C 0.75 -13.671875 0.734375 -13.710938 0.734375 -13.796875 C 0.734375 -13.890625 0.75 -13.9375 0.78125 -13.9375 L 1.875 -13.90625 C 2.5 -13.882812 3.003906 -13.875 3.390625 -13.875 C 3.804688 -13.875 4.328125 -13.882812 4.953125 -13.90625 L 6.015625 -13.9375 C 6.066406 -13.9375 6.09375 -13.890625 6.09375 -13.796875 C 6.09375 -13.710938 6.066406 -13.671875 6.015625 -13.671875 C 5.460938 -13.671875 5.054688 -13.628906 4.796875 -13.546875 C 4.546875 -13.460938 4.367188 -13.3125 4.265625 -13.09375 C 4.171875 -12.882812 4.125 -12.554688 4.125 -12.109375 Z M 4.125 -1.890625 "/></g></g></g><g fill="#000000" fill-opacity="1"><g transform="translate(154.925089, 224.18096)"><g><path d="M 15.578125 -0.265625 C 15.640625 -0.265625 15.671875 -0.21875 15.671875 -0.125 C 15.671875 -0.0390625 15.640625 0 15.578125 0 C 15.296875 0 14.859375 -0.015625 14.265625 -0.046875 C 13.671875 -0.078125 13.242188 -0.09375 12.984375 -0.09375 C 12.648438 -0.09375 12.234375 -0.078125 11.734375 -0.046875 C 11.253906 -0.015625 10.890625 0 10.640625 0 C 10.578125 0 10.546875 -0.0390625 10.546875 -0.125 C 10.546875 -0.21875 10.578125 -0.265625 10.640625 -0.265625 C 11.179688 -0.265625 11.578125 -0.316406 11.828125 -0.421875 C 12.085938 -0.523438 12.21875 -0.703125 12.21875 -0.953125 C 12.21875 -1.160156 12.117188 -1.484375 11.921875 -1.921875 L 9.9375 -6.125 L 4.640625 -6.125 L 3.234375 -2.828125 C 3.023438 -2.328125 2.921875 -1.921875 2.921875 -1.609375 C 2.921875 -1.148438 3.101562 -0.8125 3.46875 -0.59375 C 3.832031 -0.375 4.378906 -0.265625 5.109375 -0.265625 C 5.179688 -0.265625 5.21875 -0.21875 5.21875 -0.125 C 5.21875 -0.0390625 5.179688 0 5.109375 0 C 4.835938 0 4.453125 -0.015625 3.953125 -0.046875 C 3.378906 -0.078125 2.882812 -0.09375 2.46875 -0.09375 C 2.082031 -0.09375 1.640625 -0.078125 1.140625 -0.046875 C 0.691406 -0.015625 0.316406 0 0.015625 0 C -0.0546875 0 -0.09375 -0.0390625 -0.09375 -0.125 C -0.09375 -0.21875 -0.0546875 -0.265625 0.015625 -0.265625 C 0.429688 -0.265625 0.785156 -0.34375 1.078125 -0.5 C 1.367188 -0.65625 1.644531 -0.929688 1.90625 -1.328125 C 2.164062 -1.722656 2.453125 -2.289062 2.765625 -3.03125 L 7.46875 -14.140625 C 7.5 -14.179688 7.550781 -14.203125 7.625 -14.203125 C 7.695312 -14.203125 7.742188 -14.179688 7.765625 -14.140625 L 13.015625 -3.046875 C 13.523438 -1.953125 13.957031 -1.210938 14.3125 -0.828125 C 14.664062 -0.453125 15.085938 -0.265625 15.578125 -0.265625 Z M 4.8125 -6.578125 L 9.75 -6.578125 L 7.140625 -12.078125 Z M 4.8125 -6.578125 "/></g></g></g><g fill="#000000" fill-opacity="1"><g transform="translate(173.515622, 224.18096)"><g/></g></g><g fill="#000000" fill-opacity="1"><g transform="translate(181.674437, 224.18096)"><g><path d="M 15.546875 -0.265625 C 15.597656 -0.253906 15.617188 -0.207031 15.609375 -0.125 C 15.609375 -0.0390625 15.585938 0 15.546875 0 L 13.140625 0 C 12.460938 0 11.441406 -0.523438 10.078125 -1.578125 C 8.867188 -0.347656 7.367188 0.265625 5.578125 0.265625 C 4.648438 0.265625 3.878906 0.109375 3.265625 -0.203125 C 2.648438 -0.515625 2.1875 -0.921875 1.875 -1.421875 C 1.570312 -1.929688 1.421875 -2.472656 1.421875 -3.046875 C 1.421875 -3.898438 1.6875 -4.640625 2.21875 -5.265625 C 2.75 -5.898438 3.507812 -6.582031 4.5 -7.3125 C 4.238281 -7.71875 4.023438 -8.085938 3.859375 -8.421875 C 3.421875 -9.378906 3.203125 -10.191406 3.203125 -10.859375 C 3.203125 -11.492188 3.359375 -12.082031 3.671875 -12.625 C 3.984375 -13.164062 4.421875 -13.597656 4.984375 -13.921875 C 5.554688 -14.242188 6.195312 -14.40625 6.90625 -14.40625 C 7.625 -14.40625 8.238281 -14.234375 8.75 -13.890625 C 9.257812 -13.546875 9.515625 -12.984375 9.515625 -12.203125 C 9.515625 -11.617188 9.367188 -11.09375 9.078125 -10.625 C 8.796875 -10.164062 8.441406 -9.757812 8.015625 -9.40625 C 7.585938 -9.0625 7.019531 -8.65625 6.3125 -8.1875 C 6.207031 -8.125 6.050781 -8.019531 5.84375 -7.875 C 6.863281 -6.21875 8.445312 -4.5625 10.59375 -2.90625 C 11.113281 -3.8125 11.375 -4.8125 11.375 -5.90625 C 11.375 -6.445312 11.265625 -6.847656 11.046875 -7.109375 C 10.828125 -7.378906 10.40625 -7.515625 9.78125 -7.515625 C 9.738281 -7.515625 9.710938 -7.554688 9.703125 -7.640625 C 9.703125 -7.734375 9.726562 -7.78125 9.78125 -7.78125 L 14.453125 -7.796875 C 14.503906 -7.796875 14.53125 -7.75 14.53125 -7.65625 C 14.53125 -7.570312 14.503906 -7.53125 14.453125 -7.53125 C 13.941406 -7.53125 13.5625 -7.484375 13.3125 -7.390625 C 13.0625 -7.296875 12.882812 -7.164062 12.78125 -7 C 12.675781 -6.832031 12.570312 -6.570312 12.46875 -6.21875 C 12.03125 -4.75 11.515625 -3.5625 10.921875 -2.65625 C 11.796875 -2.007812 12.640625 -1.476562 13.453125 -1.0625 C 14.273438 -0.65625 14.972656 -0.390625 15.546875 -0.265625 Z M 4.5 -11.8125 C 4.5 -10.65625 4.882812 -9.429688 5.65625 -8.140625 C 6.476562 -8.742188 7.109375 -9.332031 7.546875 -9.90625 C 7.984375 -10.476562 8.203125 -11.125 8.203125 -11.84375 C 8.203125 -12.5 8.023438 -13.007812 7.671875 -13.375 C 7.328125 -13.75 6.859375 -13.9375 6.265625 -13.9375 C 5.085938 -13.9375 4.5 -13.226562 4.5 -11.8125 Z M 6.578125 -0.40625 C 7.828125 -0.40625 8.894531 -0.875 9.78125 -1.8125 L 9.390625 -2.140625 C 8.492188 -2.835938 7.632812 -3.613281 6.8125 -4.46875 C 5.988281 -5.320312 5.28125 -6.175781 4.6875 -7.03125 C 4.101562 -6.5625 3.648438 -6.070312 3.328125 -5.5625 C 3.015625 -5.050781 2.859375 -4.472656 2.859375 -3.828125 C 2.859375 -3.210938 3.015625 -2.640625 3.328125 -2.109375 C 3.648438 -1.578125 4.097656 -1.160156 4.671875 -0.859375 C 5.242188 -0.554688 5.878906 -0.40625 6.578125 -0.40625 Z M 6.578125 -0.40625 "/></g></g></g><g fill="#000000" fill-opacity="1"><g transform="translate(200.153527, 224.18096)"><g/></g></g><g fill="#000000" fill-opacity="1"><g transform="translate(208.312349, 224.18096)"><g><path d="M 4.125 -1.890625 C 4.125 -1.460938 4.164062 -1.148438 4.25 -0.953125 C 4.34375 -0.765625 4.507812 -0.632812 4.75 -0.5625 C 4.988281 -0.5 5.375 -0.46875 5.90625 -0.46875 L 8.34375 -0.46875 C 9.1875 -0.46875 9.859375 -0.726562 10.359375 -1.25 C 10.867188 -1.769531 11.207031 -2.488281 11.375 -3.40625 C 11.375 -3.457031 11.410156 -3.476562 11.484375 -3.46875 C 11.566406 -3.457031 11.609375 -3.429688 11.609375 -3.390625 C 11.484375 -2.148438 11.421875 -1.128906 11.421875 -0.328125 C 11.421875 -0.210938 11.394531 -0.128906 11.34375 -0.078125 C 11.300781 -0.0234375 11.210938 0 11.078125 0 L 0.78125 0 C 0.75 0 0.734375 -0.0390625 0.734375 -0.125 C 0.734375 -0.21875 0.75 -0.265625 0.78125 -0.265625 C 1.34375 -0.265625 1.753906 -0.300781 2.015625 -0.375 C 2.273438 -0.445312 2.445312 -0.59375 2.53125 -0.8125 C 2.625 -1.03125 2.671875 -1.363281 2.671875 -1.8125 L 2.671875 -12.125 C 2.671875 -12.570312 2.625 -12.898438 2.53125 -13.109375 C 2.445312 -13.316406 2.273438 -13.460938 2.015625 -13.546875 C 1.753906 -13.628906 1.34375 -13.671875 0.78125 -13.671875 C 0.75 -13.671875 0.734375 -13.710938 0.734375 -13.796875 C 0.734375 -13.890625 0.75 -13.9375 0.78125 -13.9375 L 1.875 -13.90625 C 2.5 -13.882812 3.003906 -13.875 3.390625 -13.875 C 3.804688 -13.875 4.328125 -13.882812 4.953125 -13.90625 L 6.015625 -13.9375 C 6.066406 -13.9375 6.09375 -13.890625 6.09375 -13.796875 C 6.09375 -13.710938 6.066406 -13.671875 6.015625 -13.671875 C 5.460938 -13.671875 5.054688 -13.628906 4.796875 -13.546875 C 4.546875 -13.460938 4.367188 -13.3125 4.265625 -13.09375 C 4.171875 -12.882812 4.125 -12.554688 4.125 -12.109375 Z M 4.125 -1.890625 "/></g></g></g><g fill="#000000" fill-opacity="1"><g transform="translate(223.135873, 224.18096)"><g><path d="M 10.59375 -3.328125 C 10.59375 -3.347656 10.625 -3.359375 10.6875 -3.359375 C 10.726562 -3.359375 10.765625 -3.351562 10.796875 -3.34375 C 10.835938 -3.332031 10.859375 -3.3125 10.859375 -3.28125 C 10.722656 -2.34375 10.65625 -1.359375 10.65625 -0.328125 C 10.65625 -0.210938 10.628906 -0.128906 10.578125 -0.078125 C 10.523438 -0.0234375 10.429688 0 10.296875 0 L 0.953125 0 C 0.929688 0 0.921875 -0.0390625 0.921875 -0.125 C 0.921875 -0.21875 0.929688 -0.265625 0.953125 -0.265625 C 1.523438 -0.265625 1.941406 -0.300781 2.203125 -0.375 C 2.460938 -0.445312 2.640625 -0.59375 2.734375 -0.8125 C 2.828125 -1.03125 2.875 -1.363281 2.875 -1.8125 L 2.875 -12.125 C 2.875 -12.570312 2.828125 -12.898438 2.734375 -13.109375 C 2.640625 -13.316406 2.460938 -13.460938 2.203125 -13.546875 C 1.941406 -13.628906 1.523438 -13.671875 0.953125 -13.671875 C 0.929688 -13.671875 0.921875 -13.710938 0.921875 -13.796875 C 0.921875 -13.890625 0.929688 -13.9375 0.953125 -13.9375 L 9.921875 -13.9375 C 10.054688 -13.9375 10.125 -13.867188 10.125 -13.734375 L 10.171875 -11 C 10.171875 -10.945312 10.128906 -10.914062 10.046875 -10.90625 C 9.972656 -10.90625 9.929688 -10.925781 9.921875 -10.96875 C 9.878906 -11.757812 9.640625 -12.375 9.203125 -12.8125 C 8.773438 -13.25 8.203125 -13.46875 7.484375 -13.46875 L 6.125 -13.46875 C 5.601562 -13.46875 5.21875 -13.425781 4.96875 -13.34375 C 4.726562 -13.257812 4.5625 -13.117188 4.46875 -12.921875 C 4.375 -12.722656 4.328125 -12.421875 4.328125 -12.015625 L 4.328125 -7.484375 L 7.046875 -7.484375 C 7.753906 -7.484375 8.257812 -7.601562 8.5625 -7.84375 C 8.875 -8.082031 9.03125 -8.484375 9.03125 -9.046875 C 9.03125 -9.078125 9.070312 -9.09375 9.15625 -9.09375 C 9.25 -9.09375 9.296875 -9.078125 9.296875 -9.046875 L 9.28125 -7.25 C 9.28125 -6.8125 9.285156 -6.484375 9.296875 -6.265625 L 9.3125 -5.1875 C 9.3125 -5.164062 9.265625 -5.15625 9.171875 -5.15625 C 9.085938 -5.15625 9.046875 -5.164062 9.046875 -5.1875 C 9.046875 -5.84375 8.882812 -6.3125 8.5625 -6.59375 C 8.25 -6.882812 7.722656 -7.03125 6.984375 -7.03125 L 4.328125 -7.03125 L 4.328125 -1.890625 C 4.328125 -1.472656 4.367188 -1.164062 4.453125 -0.96875 C 4.546875 -0.78125 4.710938 -0.648438 4.953125 -0.578125 C 5.191406 -0.503906 5.5625 -0.46875 6.0625 -0.46875 L 7.84375 -0.46875 C 8.5625 -0.46875 9.15625 -0.71875 9.625 -1.21875 C 10.101562 -1.726562 10.425781 -2.429688 10.59375 -3.328125 Z M 10.59375 -3.328125 "/></g></g></g><g fill="#000000" fill-opacity="1"><g transform="translate(238.048564, 224.18096)"><g><path d="M 20.828125 -13.9375 C 20.867188 -13.9375 20.890625 -13.890625 20.890625 -13.796875 C 20.890625 -13.710938 20.867188 -13.671875 20.828125 -13.671875 C 20.335938 -13.671875 19.90625 -13.535156 19.53125 -13.265625 C 19.15625 -12.992188 18.835938 -12.539062 18.578125 -11.90625 L 13.828125 -0.015625 C 13.804688 0.0351562 13.722656 0.0625 13.578125 0.0625 C 13.460938 0.0625 13.378906 0.0351562 13.328125 -0.015625 L 10.4375 -6.328125 L 7.921875 -0.015625 C 7.898438 0.0351562 7.816406 0.0625 7.671875 0.0625 C 7.546875 0.0625 7.460938 0.0351562 7.421875 -0.015625 L 1.875 -12.078125 C 1.601562 -12.679688 1.332031 -13.097656 1.0625 -13.328125 C 0.800781 -13.554688 0.441406 -13.671875 -0.015625 -13.671875 C -0.0664062 -13.671875 -0.09375 -13.710938 -0.09375 -13.796875 C -0.09375 -13.890625 -0.0664062 -13.9375 -0.015625 -13.9375 L 0.828125 -13.90625 C 1.242188 -13.882812 1.578125 -13.875 1.828125 -13.875 C 2.359375 -13.875 2.9375 -13.882812 3.5625 -13.90625 L 4.484375 -13.9375 C 4.523438 -13.9375 4.546875 -13.890625 4.546875 -13.796875 C 4.546875 -13.710938 4.523438 -13.671875 4.484375 -13.671875 C 4.035156 -13.671875 3.703125 -13.617188 3.484375 -13.515625 C 3.273438 -13.410156 3.171875 -13.234375 3.171875 -12.984375 C 3.171875 -12.753906 3.242188 -12.484375 3.390625 -12.171875 L 8.140625 -1.984375 L 10.140625 -6.953125 L 7.78125 -12.078125 C 7.53125 -12.648438 7.269531 -13.054688 7 -13.296875 C 6.726562 -13.546875 6.378906 -13.671875 5.953125 -13.671875 C 5.910156 -13.671875 5.890625 -13.710938 5.890625 -13.796875 C 5.890625 -13.890625 5.910156 -13.9375 5.953125 -13.9375 L 6.78125 -13.90625 C 7.195312 -13.882812 7.515625 -13.875 7.734375 -13.875 C 8.171875 -13.875 8.609375 -13.882812 9.046875 -13.90625 L 9.671875 -13.9375 C 9.722656 -13.9375 9.75 -13.890625 9.75 -13.796875 C 9.75 -13.710938 9.722656 -13.671875 9.671875 -13.671875 C 9.390625 -13.671875 9.191406 -13.644531 9.078125 -13.59375 C 8.972656 -13.550781 8.921875 -13.460938 8.921875 -13.328125 C 8.921875 -13.140625 9.050781 -12.753906 9.3125 -12.171875 L 10.953125 -8.703125 L 12.265625 -12.015625 C 12.429688 -12.460938 12.515625 -12.796875 12.515625 -13.015625 C 12.515625 -13.242188 12.4375 -13.410156 12.28125 -13.515625 C 12.132812 -13.617188 11.898438 -13.671875 11.578125 -13.671875 C 11.523438 -13.671875 11.5 -13.710938 11.5 -13.796875 C 11.5 -13.890625 11.523438 -13.9375 11.578125 -13.9375 L 12.078125 -13.90625 C 12.378906 -13.882812 12.691406 -13.875 13.015625 -13.875 C 13.316406 -13.875 13.660156 -13.882812 14.046875 -13.90625 L 14.96875 -13.9375 C 14.988281 -13.9375 15 -13.890625 15 -13.796875 C 15 -13.710938 14.988281 -13.671875 14.96875 -13.671875 C 14.457031 -13.671875 14.023438 -13.539062 13.671875 -13.28125 C 13.316406 -13.019531 13.007812 -12.5625 12.75 -11.90625 L 11.234375 -8.09375 L 14.0625 -1.984375 L 18.0625 -11.96875 C 18.175781 -12.28125 18.234375 -12.539062 18.234375 -12.75 C 18.234375 -13.0625 18.097656 -13.289062 17.828125 -13.4375 C 17.566406 -13.59375 17.144531 -13.671875 16.5625 -13.671875 C 16.519531 -13.671875 16.5 -13.710938 16.5 -13.796875 C 16.5 -13.890625 16.519531 -13.9375 16.5625 -13.9375 L 17.5 -13.90625 C 17.976562 -13.882812 18.425781 -13.875 18.84375 -13.875 C 19.15625 -13.875 19.503906 -13.882812 19.890625 -13.90625 Z M 20.828125 -13.9375 "/></g></g></g><g fill="#000000" fill-opacity="1"><g transform="translate(261.743512, 224.18096)"><g><path d="M 4.4375 -1.8125 C 4.4375 -1.363281 4.476562 -1.03125 4.5625 -0.8125 C 4.65625 -0.59375 4.832031 -0.445312 5.09375 -0.375 C 5.351562 -0.300781 5.765625 -0.265625 6.328125 -0.265625 C 6.378906 -0.265625 6.40625 -0.21875 6.40625 -0.125 C 6.40625 -0.0390625 6.378906 0 6.328125 0 C 5.878906 0 5.523438 -0.00390625 5.265625 -0.015625 L 3.671875 -0.046875 L 2.140625 -0.015625 C 1.867188 -0.00390625 1.503906 0 1.046875 0 C 1.003906 0 0.984375 -0.0390625 0.984375 -0.125 C 0.984375 -0.21875 1.003906 -0.265625 1.046875 -0.265625 C 1.609375 -0.265625 2.019531 -0.300781 2.28125 -0.375 C 2.539062 -0.445312 2.71875 -0.59375 2.8125 -0.8125 C 2.914062 -1.03125 2.96875 -1.363281 2.96875 -1.8125 L 2.96875 -12.125 C 2.96875 -12.570312 2.914062 -12.898438 2.8125 -13.109375 C 2.71875 -13.316406 2.539062 -13.460938 2.28125 -13.546875 C 2.019531 -13.628906 1.609375 -13.671875 1.046875 -13.671875 C 1.003906 -13.671875 0.984375 -13.710938 0.984375 -13.796875 C 0.984375 -13.890625 1.003906 -13.9375 1.046875 -13.9375 L 2.140625 -13.90625 C 2.765625 -13.882812 3.273438 -13.875 3.671875 -13.875 C 4.117188 -13.875 4.65625 -13.882812 5.28125 -13.90625 L 6.328125 -13.9375 C 6.378906 -13.9375 6.40625 -13.890625 6.40625 -13.796875 C 6.40625 -13.710938 6.378906 -13.671875 6.328125 -13.671875 C 5.773438 -13.671875 5.367188 -13.625 5.109375 -13.53125 C 4.859375 -13.445312 4.679688 -13.296875 4.578125 -13.078125 C 4.484375 -12.859375 4.4375 -12.523438 4.4375 -12.078125 Z M 4.4375 -1.8125 "/></g></g></g><g fill="#000000" fill-opacity="1"><g transform="translate(272.086749, 224.18096)"><g><path d="M 3.234375 -11.328125 C 3.234375 -10.742188 3.375 -10.234375 3.65625 -9.796875 C 3.9375 -9.367188 4.28125 -9.007812 4.6875 -8.71875 C 5.101562 -8.4375 5.664062 -8.078125 6.375 -7.640625 C 7.164062 -7.171875 7.769531 -6.78125 8.1875 -6.46875 C 8.613281 -6.15625 8.976562 -5.753906 9.28125 -5.265625 C 9.59375 -4.785156 9.75 -4.210938 9.75 -3.546875 C 9.75 -2.828125 9.566406 -2.175781 9.203125 -1.59375 C 8.847656 -1.019531 8.320312 -0.566406 7.625 -0.234375 C 6.9375 0.0976562 6.113281 0.265625 5.15625 0.265625 C 4.007812 0.265625 2.957031 0.00390625 2 -0.515625 C 1.925781 -0.554688 1.878906 -0.609375 1.859375 -0.671875 C 1.835938 -0.734375 1.820312 -0.820312 1.8125 -0.9375 L 1.515625 -3.96875 C 1.503906 -4.03125 1.535156 -4.066406 1.609375 -4.078125 C 1.691406 -4.097656 1.742188 -4.078125 1.765625 -4.015625 C 2.003906 -2.941406 2.445312 -2.019531 3.09375 -1.25 C 3.738281 -0.476562 4.59375 -0.09375 5.65625 -0.09375 C 6.40625 -0.09375 7.035156 -0.296875 7.546875 -0.703125 C 8.054688 -1.109375 8.3125 -1.757812 8.3125 -2.65625 C 8.3125 -3.320312 8.160156 -3.898438 7.859375 -4.390625 C 7.566406 -4.878906 7.207031 -5.285156 6.78125 -5.609375 C 6.363281 -5.929688 5.789062 -6.304688 5.0625 -6.734375 C 4.34375 -7.160156 3.78125 -7.53125 3.375 -7.84375 C 2.96875 -8.15625 2.625 -8.550781 2.34375 -9.03125 C 2.0625 -9.507812 1.921875 -10.066406 1.921875 -10.703125 C 1.921875 -11.441406 2.113281 -12.078125 2.5 -12.609375 C 2.894531 -13.140625 3.410156 -13.535156 4.046875 -13.796875 C 4.679688 -14.054688 5.351562 -14.1875 6.0625 -14.1875 C 6.9375 -14.1875 7.804688 -14.003906 8.671875 -13.640625 C 8.898438 -13.566406 9.015625 -13.441406 9.015625 -13.265625 L 9.15625 -10.703125 C 9.15625 -10.640625 9.117188 -10.609375 9.046875 -10.609375 C 8.972656 -10.609375 8.929688 -10.640625 8.921875 -10.703125 C 8.796875 -11.472656 8.472656 -12.1875 7.953125 -12.84375 C 7.429688 -13.507812 6.679688 -13.84375 5.703125 -13.84375 C 4.867188 -13.84375 4.25 -13.597656 3.84375 -13.109375 C 3.4375 -12.628906 3.234375 -12.035156 3.234375 -11.328125 Z M 3.234375 -11.328125 "/></g></g></g><g fill="#000000" fill-opacity="1"><g transform="translate(152.680754, 249.285664)"><g><path d="M 3.890625 -2.65625 C 3.890625 -1.5625 3.9375 -0.910156 4.03125 -0.703125 C 4.082031 -0.597656 4.132812 -0.5 4.1875 -0.40625 C 4.25 -0.320312 4.335938 -0.265625 4.453125 -0.234375 C 4.671875 -0.171875 4.945312 -0.140625 5.28125 -0.140625 L 5.296875 0 L 1.671875 0 L 1.6875 -0.140625 C 1.925781 -0.140625 2.113281 -0.144531 2.25 -0.15625 C 2.382812 -0.175781 2.507812 -0.222656 2.625 -0.296875 C 2.738281 -0.367188 2.820312 -0.445312 2.875 -0.53125 C 2.925781 -0.625 2.96875 -0.78125 3 -1 C 3.050781 -1.3125 3.078125 -1.863281 3.078125 -2.65625 L 3.078125 -5.75 C 3.078125 -6.28125 2.90625 -6.546875 2.5625 -6.546875 C 2.3125 -6.546875 1.867188 -6.40625 1.234375 -6.125 L 1.140625 -6.34375 C 2.492188 -6.957031 3.367188 -7.398438 3.765625 -7.671875 L 3.890625 -7.609375 Z M 3.890625 -2.65625 "/></g></g></g><g fill="#000000" fill-opacity="1"><g transform="translate(160.680895, 249.285664)"><g><path d="M 5.4375 -1.671875 L 5.578125 -1.671875 L 5.578125 0 L 0.875 0 L 0.875 -0.15625 C 1.988281 -1.257812 2.875 -2.316406 3.53125 -3.328125 C 4.1875 -4.347656 4.515625 -5.195312 4.515625 -5.875 C 4.515625 -6.3125 4.398438 -6.664062 4.171875 -6.9375 C 3.953125 -7.21875 3.628906 -7.359375 3.203125 -7.359375 C 2.929688 -7.359375 2.695312 -7.296875 2.5 -7.171875 C 2.3125 -7.046875 2.171875 -6.90625 2.078125 -6.75 C 1.984375 -6.601562 1.878906 -6.46875 1.765625 -6.34375 C 1.648438 -6.21875 1.535156 -6.15625 1.421875 -6.15625 C 1.304688 -6.15625 1.207031 -6.191406 1.125 -6.265625 C 1.050781 -6.347656 1.015625 -6.441406 1.015625 -6.546875 C 1.015625 -6.847656 1.226562 -7.109375 1.65625 -7.328125 C 2.09375 -7.546875 2.613281 -7.65625 3.21875 -7.65625 C 3.820312 -7.65625 4.332031 -7.507812 4.75 -7.21875 C 5.175781 -6.9375 5.390625 -6.472656 5.390625 -5.828125 C 5.390625 -5.097656 5.015625 -4.265625 4.265625 -3.328125 C 3.867188 -2.835938 3.488281 -2.398438 3.125 -2.015625 C 2.769531 -1.628906 2.269531 -1.113281 1.625 -0.46875 C 2.894531 -0.46875 3.847656 -0.550781 4.484375 -0.71875 C 5.117188 -0.882812 5.4375 -1.203125 5.4375 -1.671875 Z M 5.4375 -1.671875 "/></g></g></g><g fill="#000000" fill-opacity="1"><g transform="translate(168.681036, 249.285664)"><g><path d="M 0.40625 -0.5 C 0.40625 -0.675781 0.460938 -0.820312 0.578125 -0.9375 C 0.703125 -1.0625 0.847656 -1.125 1.015625 -1.125 C 1.191406 -1.125 1.335938 -1.0625 1.453125 -0.9375 C 1.566406 -0.820312 1.625 -0.675781 1.625 -0.5 C 1.625 -0.320312 1.5625 -0.171875 1.4375 -0.046875 C 1.320312 0.0664062 1.179688 0.125 1.015625 0.125 C 0.847656 0.125 0.703125 0.0664062 0.578125 -0.046875 C 0.460938 -0.171875 0.40625 -0.320312 0.40625 -0.5 Z M 0.40625 -0.5 "/></g></g></g><g fill="#000000" fill-opacity="1"><g transform="translate(172.259209, 249.285664)"><g><path d="M 3.890625 -2.65625 C 3.890625 -1.5625 3.9375 -0.910156 4.03125 -0.703125 C 4.082031 -0.597656 4.132812 -0.5 4.1875 -0.40625 C 4.25 -0.320312 4.335938 -0.265625 4.453125 -0.234375 C 4.671875 -0.171875 4.945312 -0.140625 5.28125 -0.140625 L 5.296875 0 L 1.671875 0 L 1.6875 -0.140625 C 1.925781 -0.140625 2.113281 -0.144531 2.25 -0.15625 C 2.382812 -0.175781 2.507812 -0.222656 2.625 -0.296875 C 2.738281 -0.367188 2.820312 -0.445312 2.875 -0.53125 C 2.925781 -0.625 2.96875 -0.78125 3 -1 C 3.050781 -1.3125 3.078125 -1.863281 3.078125 -2.65625 L 3.078125 -5.75 C 3.078125 -6.28125 2.90625 -6.546875 2.5625 -6.546875 C 2.3125 -6.546875 1.867188 -6.40625 1.234375 -6.125 L 1.140625 -6.34375 C 2.492188 -6.957031 3.367188 -7.398438 3.765625 -7.671875 L 3.890625 -7.609375 Z M 3.890625 -2.65625 "/></g></g></g><g fill="#000000" fill-opacity="1"><g transform="translate(180.25935, 249.285664)"><g><path d="M 0.546875 -3.75 C 0.546875 -4.96875 0.796875 -5.921875 1.296875 -6.609375 C 1.796875 -7.304688 2.441406 -7.65625 3.234375 -7.65625 C 4.023438 -7.65625 4.671875 -7.304688 5.171875 -6.609375 C 5.671875 -5.921875 5.921875 -4.96875 5.921875 -3.75 C 5.921875 -2.53125 5.671875 -1.578125 5.171875 -0.890625 C 4.679688 -0.210938 4.035156 0.125 3.234375 0.125 C 2.441406 0.125 1.796875 -0.210938 1.296875 -0.890625 C 0.796875 -1.578125 0.546875 -2.53125 0.546875 -3.75 Z M 1.390625 -3.75 C 1.390625 -2.707031 1.566406 -1.859375 1.921875 -1.203125 C 2.273438 -0.546875 2.710938 -0.21875 3.234375 -0.21875 C 3.765625 -0.21875 4.203125 -0.539062 4.546875 -1.1875 C 4.890625 -1.84375 5.0625 -2.695312 5.0625 -3.75 C 5.0625 -4.800781 4.890625 -5.664062 4.546875 -6.34375 C 4.203125 -7.019531 3.765625 -7.359375 3.234375 -7.359375 C 2.710938 -7.359375 2.273438 -7.019531 1.921875 -6.34375 C 1.566406 -5.664062 1.390625 -4.800781 1.390625 -3.75 Z M 1.390625 -3.75 "/></g></g></g><g fill="#000000" fill-opacity="1"><g transform="translate(188.25949, 249.285664)"><g><path d="M 0.40625 -0.5 C 0.40625 -0.675781 0.460938 -0.820312 0.578125 -0.9375 C 0.703125 -1.0625 0.847656 -1.125 1.015625 -1.125 C 1.191406 -1.125 1.335938 -1.0625 1.453125 -0.9375 C 1.566406 -0.820312 1.625 -0.675781 1.625 -0.5 C 1.625 -0.320312 1.5625 -0.171875 1.4375 -0.046875 C 1.320312 0.0664062 1.179688 0.125 1.015625 0.125 C 0.847656 0.125 0.703125 0.0664062 0.578125 -0.046875 C 0.460938 -0.171875 0.40625 -0.320312 0.40625 -0.5 Z M 0.40625 -0.5 "/></g></g></g><g fill="#000000" fill-opacity="1"><g transform="translate(191.837664, 249.285664)"><g><path d="M 5.4375 -1.671875 L 5.578125 -1.671875 L 5.578125 0 L 0.875 0 L 0.875 -0.15625 C 1.988281 -1.257812 2.875 -2.316406 3.53125 -3.328125 C 4.1875 -4.347656 4.515625 -5.195312 4.515625 -5.875 C 4.515625 -6.3125 4.398438 -6.664062 4.171875 -6.9375 C 3.953125 -7.21875 3.628906 -7.359375 3.203125 -7.359375 C 2.929688 -7.359375 2.695312 -7.296875 2.5 -7.171875 C 2.3125 -7.046875 2.171875 -6.90625 2.078125 -6.75 C 1.984375 -6.601562 1.878906 -6.46875 1.765625 -6.34375 C 1.648438 -6.21875 1.535156 -6.15625 1.421875 -6.15625 C 1.304688 -6.15625 1.207031 -6.191406 1.125 -6.265625 C 1.050781 -6.347656 1.015625 -6.441406 1.015625 -6.546875 C 1.015625 -6.847656 1.226562 -7.109375 1.65625 -7.328125 C 2.09375 -7.546875 2.613281 -7.65625 3.21875 -7.65625 C 3.820312 -7.65625 4.332031 -7.507812 4.75 -7.21875 C 5.175781 -6.9375 5.390625 -6.472656 5.390625 -5.828125 C 5.390625 -5.097656 5.015625 -4.265625 4.265625 -3.328125 C 3.867188 -2.835938 3.488281 -2.398438 3.125 -2.015625 C 2.769531 -1.628906 2.269531 -1.113281 1.625 -0.46875 C 2.894531 -0.46875 3.847656 -0.550781 4.484375 -0.71875 C 5.117188 -0.882812 5.4375 -1.203125 5.4375 -1.671875 Z M 5.4375 -1.671875 "/></g></g></g><g fill="#000000" fill-opacity="1"><g transform="translate(199.837804, 249.285664)"><g><path d="M 0.546875 -3.75 C 0.546875 -4.96875 0.796875 -5.921875 1.296875 -6.609375 C 1.796875 -7.304688 2.441406 -7.65625 3.234375 -7.65625 C 4.023438 -7.65625 4.671875 -7.304688 5.171875 -6.609375 C 5.671875 -5.921875 5.921875 -4.96875 5.921875 -3.75 C 5.921875 -2.53125 5.671875 -1.578125 5.171875 -0.890625 C 4.679688 -0.210938 4.035156 0.125 3.234375 0.125 C 2.441406 0.125 1.796875 -0.210938 1.296875 -0.890625 C 0.796875 -1.578125 0.546875 -2.53125 0.546875 -3.75 Z M 1.390625 -3.75 C 1.390625 -2.707031 1.566406 -1.859375 1.921875 -1.203125 C 2.273438 -0.546875 2.710938 -0.21875 3.234375 -0.21875 C 3.765625 -0.21875 4.203125 -0.539062 4.546875 -1.1875 C 4.890625 -1.84375 5.0625 -2.695312 5.0625 -3.75 C 5.0625 -4.800781 4.890625 -5.664062 4.546875 -6.34375 C 4.203125 -7.019531 3.765625 -7.359375 3.234375 -7.359375 C 2.710938 -7.359375 2.273438 -7.019531 1.921875 -6.34375 C 1.566406 -5.664062 1.390625 -4.800781 1.390625 -3.75 Z M 1.390625 -3.75 "/></g></g></g><g fill="#000000" fill-opacity="1"><g transform="translate(207.837945, 249.285664)"><g><path d="M 5.4375 -1.671875 L 5.578125 -1.671875 L 5.578125 0 L 0.875 0 L 0.875 -0.15625 C 1.988281 -1.257812 2.875 -2.316406 3.53125 -3.328125 C 4.1875 -4.347656 4.515625 -5.195312 4.515625 -5.875 C 4.515625 -6.3125 4.398438 -6.664062 4.171875 -6.9375 C 3.953125 -7.21875 3.628906 -7.359375 3.203125 -7.359375 C 2.929688 -7.359375 2.695312 -7.296875 2.5 -7.171875 C 2.3125 -7.046875 2.171875 -6.90625 2.078125 -6.75 C 1.984375 -6.601562 1.878906 -6.46875 1.765625 -6.34375 C 1.648438 -6.21875 1.535156 -6.15625 1.421875 -6.15625 C 1.304688 -6.15625 1.207031 -6.191406 1.125 -6.265625 C 1.050781 -6.347656 1.015625 -6.441406 1.015625 -6.546875 C 1.015625 -6.847656 1.226562 -7.109375 1.65625 -7.328125 C 2.09375 -7.546875 2.613281 -7.65625 3.21875 -7.65625 C 3.820312 -7.65625 4.332031 -7.507812 4.75 -7.21875 C 5.175781 -6.9375 5.390625 -6.472656 5.390625 -5.828125 C 5.390625 -5.097656 5.015625 -4.265625 4.265625 -3.328125 C 3.867188 -2.835938 3.488281 -2.398438 3.125 -2.015625 C 2.769531 -1.628906 2.269531 -1.113281 1.625 -0.46875 C 2.894531 -0.46875 3.847656 -0.550781 4.484375 -0.71875 C 5.117188 -0.882812 5.4375 -1.203125 5.4375 -1.671875 Z M 5.4375 -1.671875 "/></g></g></g><g fill="#000000" fill-opacity="1"><g transform="translate(215.83809, 249.285664)"><g><path d="M 5.4375 -1.671875 L 5.578125 -1.671875 L 5.578125 0 L 0.875 0 L 0.875 -0.15625 C 1.988281 -1.257812 2.875 -2.316406 3.53125 -3.328125 C 4.1875 -4.347656 4.515625 -5.195312 4.515625 -5.875 C 4.515625 -6.3125 4.398438 -6.664062 4.171875 -6.9375 C 3.953125 -7.21875 3.628906 -7.359375 3.203125 -7.359375 C 2.929688 -7.359375 2.695312 -7.296875 2.5 -7.171875 C 2.3125 -7.046875 2.171875 -6.90625 2.078125 -6.75 C 1.984375 -6.601562 1.878906 -6.46875 1.765625 -6.34375 C 1.648438 -6.21875 1.535156 -6.15625 1.421875 -6.15625 C 1.304688 -6.15625 1.207031 -6.191406 1.125 -6.265625 C 1.050781 -6.347656 1.015625 -6.441406 1.015625 -6.546875 C 1.015625 -6.847656 1.226562 -7.109375 1.65625 -7.328125 C 2.09375 -7.546875 2.613281 -7.65625 3.21875 -7.65625 C 3.820312 -7.65625 4.332031 -7.507812 4.75 -7.21875 C 5.175781 -6.9375 5.390625 -6.472656 5.390625 -5.828125 C 5.390625 -5.097656 5.015625 -4.265625 4.265625 -3.328125 C 3.867188 -2.835938 3.488281 -2.398438 3.125 -2.015625 C 2.769531 -1.628906 2.269531 -1.113281 1.625 -0.46875 C 2.894531 -0.46875 3.847656 -0.550781 4.484375 -0.71875 C 5.117188 -0.882812 5.4375 -1.203125 5.4375 -1.671875 Z M 5.4375 -1.671875 "/></g></g></g></svg>