<svg xmlns="http://www.w3.org/2000/svg" xmlns:xlink="http://www.w3.org/1999/xlink" width="500" zoomAndPan="magnify" viewBox="0 0 375 374.999991" height="500" preserveAspectRatio="xMidYMid meet" version="1.0"><defs><g/><clipPath id="5eb71bac60"><path d="M 250 131 L 349 131 L 349 250 L 250 250 Z M 250 131 " clip-rule="nonzero"/></clipPath><clipPath id="834f3a9f98"><path d="M 202.421875 165.898438 L 312.105469 97.996094 L 366.980469 186.636719 L 257.296875 254.539062 Z M 202.421875 165.898438 " clip-rule="nonzero"/></clipPath><clipPath id="78bc8f8e30"><path d="M 202.421875 165.898438 L 312.105469 97.996094 L 366.980469 186.636719 L 257.296875 254.539062 Z M 202.421875 165.898438 " clip-rule="nonzero"/></clipPath><clipPath id="fcced9f9f8"><path d="M 40 136 L 147 136 L 147 243 L 40 243 Z M 40 136 " clip-rule="nonzero"/></clipPath><clipPath id="45c120d3f4"><path d="M 19.011719 139.371094 L 146.726562 112.554688 L 172.621094 235.863281 L 44.90625 262.683594 Z M 19.011719 139.371094 " clip-rule="nonzero"/></clipPath><clipPath id="e2a8c43b47"><path d="M 19.011719 139.371094 L 146.726562 112.554688 L 172.621094 235.863281 L 44.90625 262.683594 Z M 19.011719 139.371094 " clip-rule="nonzero"/></clipPath><clipPath id="cc49c41969"><path d="M 19.011719 139.371094 L 146.726562 112.554688 L 172.621094 235.863281 L 44.90625 262.683594 Z M 19.011719 139.371094 " clip-rule="nonzero"/></clipPath><clipPath id="e6fcb5af4d"><path d="M 35 131 L 152 131 L 152 249 L 35 249 Z M 35 131 " clip-rule="nonzero"/></clipPath><clipPath id="5f73735ee0"><path d="M 19.011719 139.371094 L 146.726562 112.554688 L 172.621094 235.863281 L 44.90625 262.683594 Z M 19.011719 139.371094 " clip-rule="nonzero"/></clipPath><clipPath id="5d703acf49"><path d="M 19.011719 139.371094 L 146.726562 112.554688 L 172.621094 235.863281 L 44.90625 262.683594 Z M 19.011719 139.371094 " clip-rule="nonzero"/></clipPath><clipPath id="7734784b33"><path d="M 19.011719 139.371094 L 146.726562 112.554688 L 172.621094 235.863281 L 44.90625 262.683594 Z M 19.011719 139.371094 " clip-rule="nonzero"/></clipPath><clipPath id="a5475397fa"><path d="M 29 125 L 158 125 L 158 254 L 29 254 Z M 29 125 " clip-rule="nonzero"/></clipPath><clipPath id="7ab91837b3"><path d="M 19.011719 139.371094 L 146.726562 112.554688 L 172.621094 235.863281 L 44.90625 262.683594 Z M 19.011719 139.371094 " clip-rule="nonzero"/></clipPath><clipPath id="212d1f8f30"><path d="M 19.011719 139.371094 L 146.726562 112.554688 L 172.621094 235.863281 L 44.90625 262.683594 Z M 19.011719 139.371094 " clip-rule="nonzero"/></clipPath><clipPath id="7c4a90b16c"><path d="M 19.011719 139.371094 L 146.726562 112.554688 L 172.621094 235.863281 L 44.90625 262.683594 Z M 19.011719 139.371094 " clip-rule="nonzero"/></clipPath><clipPath id="de6881857b"><path d="M 31 127 L 156 127 L 156 253 L 31 253 Z M 31 127 " clip-rule="nonzero"/></clipPath><clipPath id="22a6afc759"><path d="M 19.011719 139.371094 L 146.726562 112.554688 L 172.621094 235.863281 L 44.90625 262.683594 Z M 19.011719 139.371094 " clip-rule="nonzero"/></clipPath><clipPath id="a4d53fbdd0"><path d="M 19.011719 139.371094 L 146.726562 112.554688 L 172.621094 235.863281 L 44.90625 262.683594 Z M 19.011719 139.371094 " clip-rule="nonzero"/></clipPath><clipPath id="9cad476ac7"><path d="M 19.011719 139.371094 L 146.726562 112.554688 L 172.621094 235.863281 L 44.90625 262.683594 Z M 19.011719 139.371094 " clip-rule="nonzero"/></clipPath><clipPath id="a827bdc496"><path d="M 40 136 L 147 136 L 147 243 L 40 243 Z M 40 136 " clip-rule="nonzero"/></clipPath><clipPath id="a288b1ddf6"><path d="M 19.011719 139.371094 L 146.726562 112.554688 L 172.621094 235.863281 L 44.90625 262.683594 Z M 19.011719 139.371094 " clip-rule="nonzero"/></clipPath><clipPath id="14b89179a6"><path d="M 19.011719 139.371094 L 146.726562 112.554688 L 172.621094 235.863281 L 44.90625 262.683594 Z M 19.011719 139.371094 " clip-rule="nonzero"/></clipPath><clipPath id="b4cdda03af"><path d="M 19.011719 139.371094 L 146.726562 112.554688 L 172.621094 235.863281 L 44.90625 262.683594 Z M 19.011719 139.371094 " clip-rule="nonzero"/></clipPath><clipPath id="368db2533d"><path d="M 35 131 L 152 131 L 152 249 L 35 249 Z M 35 131 " clip-rule="nonzero"/></clipPath><clipPath id="d73836d64c"><path d="M 19.011719 139.371094 L 146.726562 112.554688 L 172.621094 235.863281 L 44.90625 262.683594 Z M 19.011719 139.371094 " clip-rule="nonzero"/></clipPath><clipPath id="81eefbe3b2"><path d="M 19.011719 139.371094 L 146.726562 112.554688 L 172.621094 235.863281 L 44.90625 262.683594 Z M 19.011719 139.371094 " clip-rule="nonzero"/></clipPath><clipPath id="a2e6c73344"><path d="M 19.011719 139.371094 L 146.726562 112.554688 L 172.621094 235.863281 L 44.90625 262.683594 Z M 19.011719 139.371094 " clip-rule="nonzero"/></clipPath><clipPath id="05d0034eb3"><path d="M 29 125 L 158 125 L 158 254 L 29 254 Z M 29 125 " clip-rule="nonzero"/></clipPath><clipPath id="e24c29a4dd"><path d="M 19.011719 139.371094 L 146.726562 112.554688 L 172.621094 235.863281 L 44.90625 262.683594 Z M 19.011719 139.371094 " clip-rule="nonzero"/></clipPath><clipPath id="8c3fe8c907"><path d="M 19.011719 139.371094 L 146.726562 112.554688 L 172.621094 235.863281 L 44.90625 262.683594 Z M 19.011719 139.371094 " clip-rule="nonzero"/></clipPath><clipPath id="5c602f214e"><path d="M 19.011719 139.371094 L 146.726562 112.554688 L 172.621094 235.863281 L 44.90625 262.683594 Z M 19.011719 139.371094 " clip-rule="nonzero"/></clipPath><clipPath id="e1a8435626"><path d="M 31 127 L 156 127 L 156 253 L 31 253 Z M 31 127 " clip-rule="nonzero"/></clipPath><clipPath id="96300cb3d1"><path d="M 19.011719 139.371094 L 146.726562 112.554688 L 172.621094 235.863281 L 44.90625 262.683594 Z M 19.011719 139.371094 " clip-rule="nonzero"/></clipPath><clipPath id="2a8b35afb4"><path d="M 19.011719 139.371094 L 146.726562 112.554688 L 172.621094 235.863281 L 44.90625 262.683594 Z M 19.011719 139.371094 " clip-rule="nonzero"/></clipPath><clipPath id="36fe256574"><path d="M 19.011719 139.371094 L 146.726562 112.554688 L 172.621094 235.863281 L 44.90625 262.683594 Z M 19.011719 139.371094 " clip-rule="nonzero"/></clipPath></defs><rect x="-37.5" width="450" fill="#ffffff" y="-37.499999" height="449.999989" fill-opacity="1"/><rect x="-37.5" width="450" fill="#f2e3e6" y="-37.499999" height="449.999989" fill-opacity="1"/><g clip-path="url(#5eb71bac60)"><g clip-path="url(#834f3a9f98)"><g clip-path="url(#78bc8f8e30)"><path fill="#ec297b" d="M 293.222656 231.957031 C 280.25 239.984375 267.125 245.996094 254.875 249.859375 C 262.847656 246.457031 271.003906 242.230469 279.101562 237.21875 C 319.683594 212.09375 343.3125 176.742188 331.867188 158.257812 C 324.085938 145.683594 302.074219 144.164062 276.007812 152.378906 C 307.980469 138.703125 336.832031 138.199219 345.996094 153.003906 C 357.433594 171.480469 333.808594 206.832031 293.222656 231.957031 Z M 250.765625 160.328125 L 250.597656 160.058594 C 266.800781 150.027344 266.347656 146.671875 257.210938 131.914062 L 257.484375 131.746094 C 266.617188 146.503906 269.429688 148.398438 285.632812 138.371094 L 285.796875 138.640625 C 269.597656 148.671875 270.035156 152.023438 279.171875 166.78125 L 278.902344 166.949219 C 269.765625 152.191406 266.96875 150.296875 250.765625 160.328125 " fill-opacity="1" fill-rule="evenodd"/></g></g></g><g clip-path="url(#fcced9f9f8)"><g clip-path="url(#45c120d3f4)"><g clip-path="url(#e2a8c43b47)"><g clip-path="url(#cc49c41969)"><path fill="#f2e3e6" d="M 139.261719 231.613281 C 136.777344 232.136719 132.863281 230.394531 131.558594 229.828125 L 131.390625 229.75 C 125.84375 227.320312 117.503906 224.292969 105.136719 220.277344 C 104.234375 219.96875 103.273438 219.941406 102.359375 220.132812 C 101.445312 220.324219 100.585938 220.773438 99.84375 221.425781 C 91.730469 228.75 86.269531 233.988281 82.574219 238.011719 L 82.449219 238.152344 C 81.484375 239.195312 78.566406 242.371094 76.117188 242.886719 C 75.824219 242.945312 75.5625 242.964844 75.328125 242.9375 C 75.050781 242.878906 74.726562 242.796875 74.503906 242.652344 C 73.746094 242.121094 72.820312 240.441406 72.644531 235.433594 L 72.660156 235.316406 C 72.453125 229.433594 71.851562 220.386719 71.066406 209.195312 C 70.9375 207.503906 70.039062 205.933594 68.585938 205.015625 C 59.097656 198.902344 52.410156 194.839844 47.484375 192.28125 L 47.316406 192.203125 C 42.21875 189.566406 40.984375 187.683594 40.828125 186.570312 C 40.789062 186.195312 40.863281 185.835938 40.878906 185.71875 C 41.148438 184.820312 42.503906 183.464844 47.34375 181.988281 L 47.453125 181.96875 C 53.257812 180.175781 62.222656 177.070312 72.488281 173.460938 C 74.160156 172.878906 75.472656 171.496094 75.917969 169.796875 C 78.945312 158.417969 80.835938 150.527344 81.800781 144.9375 L 81.84375 144.773438 C 82.824219 139.101562 84.25 137.351562 85.257812 136.871094 C 85.394531 136.804688 85.578125 136.765625 85.722656 136.734375 C 85.796875 136.71875 85.941406 136.6875 86.097656 136.695312 C 87.019531 136.730469 88.691406 137.601562 91.582031 141.734375 L 91.640625 141.839844 C 95.035156 146.746094 100.679688 154.351562 107.113281 163.015625 C 108.226562 164.503906 110.046875 165.34375 111.882812 165.1875 C 122.726562 164.324219 132.21875 163.554688 138.109375 162.894531 L 138.21875 162.871094 C 143.25 162.308594 145 163.011719 145.636719 163.683594 C 145.734375 163.777344 145.949219 164.074219 146.023438 164.441406 C 146.328125 165.523438 145.964844 167.78125 142.359375 172.246094 L 142.238281 172.386719 C 139.089844 176.296875 134.964844 182.09375 129.597656 190.140625 C 128.636719 191.5625 128.445312 193.363281 129.007812 194.964844 C 133.300781 206.871094 136.984375 217.144531 139.417969 223.285156 L 139.441406 223.394531 C 141.296875 228.050781 141.125 229.960938 140.644531 230.75 C 140.527344 230.925781 140.273438 231.171875 140.003906 231.34375 C 139.800781 231.460938 139.554688 231.550781 139.261719 231.613281 Z M 139.261719 231.613281 " fill-opacity="1" fill-rule="nonzero"/></g></g></g></g><g clip-path="url(#e6fcb5af4d)"><g clip-path="url(#5f73735ee0)"><g clip-path="url(#5d703acf49)"><g clip-path="url(#7734784b33)"><path fill="#ed83b5" d="M 87.308594 145.003906 C 90.761719 150.011719 96.390625 157.546875 102.824219 166.210938 C 105.058594 169.21875 108.644531 170.839844 112.359375 170.554688 C 123.542969 169.660156 132.625 168.9375 138.585938 168.257812 C 138.46875 168.4375 138.3125 168.585938 138.160156 168.769531 L 138.035156 168.910156 C 134.738281 173.003906 130.640625 178.757812 125.101562 187.070312 C 123.179688 189.917969 122.753906 193.527344 123.929688 196.757812 C 128.179688 208.632812 131.855469 218.871094 134.347656 225.113281 C 134.140625 225.042969 133.929688 224.933594 133.722656 224.863281 L 133.554688 224.785156 C 127.839844 222.277344 119.332031 219.207031 106.796875 215.113281 C 104.953125 214.503906 103.035156 214.449219 101.246094 214.824219 C 99.417969 215.207031 97.652344 216.074219 96.210938 217.375 C 87.964844 224.800781 82.378906 230.179688 78.589844 234.300781 L 78.464844 234.441406 C 78.3125 234.625 78.152344 234.773438 77.996094 234.921875 C 77.773438 228.964844 77.171875 219.917969 76.402344 208.804688 C 76.175781 205.371094 74.34375 202.277344 71.476562 200.433594 C 61.851562 194.195312 54.996094 190.09375 49.902344 187.453125 L 49.734375 187.375 C 49.519531 187.265625 49.34375 187.152344 49.136719 187.078125 C 55.007812 185.234375 63.972656 182.128906 74.210938 178.566406 C 77.589844 177.398438 80.140625 174.644531 81.09375 171.195312 C 84.253906 159.714844 86.1875 151.660156 87.183594 145.871094 L 87.226562 145.707031 C 87.210938 145.445312 87.238281 145.210938 87.308594 145.003906 M 84.636719 131.382812 C 84.125 131.488281 83.550781 131.648438 82.960938 131.925781 C 78.066406 134.253906 76.886719 141.535156 76.488281 143.988281 C 75.511719 149.699219 73.484375 157.847656 70.636719 168.269531 C 59.726562 172.089844 51.257812 175.011719 45.777344 176.699219 C 43.308594 177.484375 37.167969 179.308594 35.660156 183.945312 C 35.570312 184.234375 35.15625 185.542969 35.394531 187.214844 C 36.140625 192.601562 42.753906 195.914062 44.929688 197.023438 C 49.9375 199.605469 56.855469 203.847656 65.597656 209.503906 C 66.386719 220.882812 66.988281 229.742188 67.191406 235.433594 C 67.273438 238.015625 67.441406 244.441406 71.546875 247.09375 C 71.8125 247.269531 72.953125 247.984375 74.605469 248.210938 C 75.507812 248.328125 76.371094 248.261719 77.210938 248.085938 C 81.484375 247.1875 85.164062 243.089844 86.5625 241.570312 C 90.289062 237.5 95.984375 232.101562 103.449219 225.332031 C 114.839844 229.058594 123.535156 232.125 129.214844 234.640625 C 131.105469 235.46875 136.085938 237.746094 140.359375 236.851562 C 141.199219 236.671875 142.054688 236.378906 142.832031 235.910156 C 144.253906 235.039062 145.011719 233.921875 145.183594 233.65625 C 147.839844 229.582031 145.40625 223.632812 144.472656 221.191406 C 142.128906 215.300781 138.648438 205.632812 134.136719 193.046875 C 139.152344 185.496094 143.269531 179.660156 146.480469 175.699219 C 148.023438 173.769531 152.742188 168.078125 151.269531 162.882812 C 150.8125 161.257812 149.910156 160.222656 149.707031 159.996094 C 146.464844 156.359375 140.101562 157.121094 137.53125 157.433594 C 131.835938 158.09375 122.941406 158.8125 111.5 159.726562 C 104.648438 150.539062 99.367188 143.386719 96.128906 138.679688 C 94.648438 136.542969 91.058594 131.257812 86.167969 131.214844 C 85.941406 131.222656 85.367188 131.226562 84.636719 131.382812 Z M 84.636719 131.382812 " fill-opacity="1" fill-rule="nonzero"/></g></g></g></g><g clip-path="url(#a5475397fa)"><g clip-path="url(#7ab91837b3)"><g clip-path="url(#212d1f8f30)"><g clip-path="url(#7c4a90b16c)"><path fill="#fff48b" d="M 84.636719 131.382812 C 85.40625 131.21875 85.976562 131.214844 86.167969 131.214844 C 91.058594 131.257812 94.65625 136.578125 96.128906 138.679688 C 99.367188 143.386719 104.683594 150.53125 111.492188 159.691406 C 122.9375 158.777344 131.828125 158.058594 137.53125 157.433594 C 140.101562 157.121094 146.464844 156.359375 149.707031 159.996094 C 149.910156 160.222656 150.8125 161.257812 151.269531 162.882812 C 152.75 168.113281 148.03125 173.808594 146.480469 175.699219 C 143.269531 179.660156 139.160156 185.53125 134.136719 193.046875 C 138.648438 205.632812 142.128906 215.300781 144.472656 221.191406 C 145.433594 223.589844 147.867188 229.539062 145.183594 233.65625 C 145.011719 233.921875 144.253906 235.039062 142.832031 235.910156 C 142.054688 236.378906 141.238281 236.664062 140.359375 236.851562 C 136.085938 237.746094 131.066406 235.476562 129.214844 234.640625 C 123.535156 232.125 114.839844 229.058594 103.449219 225.332031 C 95.976562 232.0625 90.289062 237.5 86.5625 241.570312 C 85.164062 243.089844 81.523438 247.179688 77.210938 248.085938 C 76.371094 248.261719 75.46875 248.335938 74.605469 248.210938 C 72.953125 247.984375 71.804688 247.230469 71.546875 247.09375 C 67.476562 244.433594 67.308594 238.007812 67.191406 235.433594 C 66.988281 229.742188 66.386719 220.882812 65.597656 209.503906 C 56.855469 203.847656 49.945312 199.640625 44.929688 197.023438 C 42.746094 195.878906 36.136719 192.5625 35.394531 187.214844 C 35.15625 185.542969 35.570312 184.234375 35.660156 183.945312 C 37.167969 179.308594 43.300781 177.449219 45.777344 176.699219 C 51.25 174.976562 59.71875 172.050781 70.636719 168.269531 C 73.484375 157.847656 75.511719 149.699219 76.488281 143.988281 C 76.886719 141.535156 78.066406 134.253906 82.960938 131.925781 C 83.550781 131.648438 84.125 131.488281 84.636719 131.382812 M 83.484375 125.890625 C 82.460938 126.105469 81.5 126.421875 80.59375 126.839844 C 73.167969 130.351562 71.554688 139.75 71.019531 142.84375 L 70.976562 143.003906 C 70.175781 147.722656 68.523438 154.566406 66.023438 163.921875 C 57.023438 167.035156 49.238281 169.742188 44.109375 171.316406 L 44 171.339844 C 40.921875 172.292969 32.722656 174.855469 30.332031 182.199219 C 29.976562 183.230469 29.472656 185.359375 29.828125 187.960938 C 30.925781 196.101562 39.398438 200.480469 42.183594 201.921875 L 42.351562 202 C 46.503906 204.148438 52.351562 207.660156 60.195312 212.664062 C 60.878906 222.460938 61.390625 230.34375 61.574219 235.578125 L 61.558594 235.695312 C 61.664062 238.925781 61.984375 247.535156 68.445312 251.761719 C 68.445312 251.761719 68.488281 251.789062 68.488281 251.789062 C 70.117188 252.824219 71.941406 253.511719 73.859375 253.757812 C 75.347656 253.941406 76.863281 253.890625 78.363281 253.578125 C 84.28125 252.332031 88.660156 247.554688 90.558594 245.511719 L 90.679688 245.371094 C 93.722656 242.054688 98.351562 237.566406 104.824219 231.695312 C 115.15625 235.109375 122.265625 237.707031 127.007812 239.769531 L 127.179688 239.847656 C 129.699219 240.960938 135.667969 243.570312 141.585938 242.328125 C 143.121094 242.003906 144.527344 241.441406 145.78125 240.679688 C 147.847656 239.445312 149.152344 237.832031 149.910156 236.71875 C 149.910156 236.71875 149.9375 236.671875 149.9375 236.671875 C 154.152344 230.207031 150.945312 222.203125 149.777344 219.199219 L 149.71875 219.097656 C 147.53125 213.59375 144.242188 204.457031 140.398438 193.796875 C 144.824219 187.246094 148.242188 182.441406 150.875 179.171875 L 150.996094 179.03125 C 151.964844 177.835938 153.714844 175.632812 155.144531 172.808594 C 157.183594 168.710938 157.703125 164.816406 156.6875 161.246094 C 155.964844 158.722656 154.652344 157.011719 153.902344 156.171875 C 148.761719 150.410156 140.226562 151.363281 137.023438 151.730469 L 136.914062 151.75 C 131.734375 152.34375 123.597656 153.019531 114.140625 153.78125 C 108.515625 146.246094 103.703125 139.6875 100.738281 135.378906 L 100.679688 135.277344 C 98.820312 132.609375 93.941406 125.527344 86.21875 125.46875 C 86.21875 125.46875 86.183594 125.476562 86.183594 125.476562 C 85.253906 125.59375 84.363281 125.707031 83.484375 125.890625 Z M 83.484375 125.890625 " fill-opacity="1" fill-rule="nonzero"/></g></g></g></g><g clip-path="url(#de6881857b)"><g clip-path="url(#22a6afc759)"><g clip-path="url(#a4d53fbdd0)"><g clip-path="url(#9cad476ac7)"><path fill="#ec297b" d="M 141.144531 240.773438 C 135.773438 241.902344 130.183594 239.445312 127.785156 238.382812 L 127.617188 238.300781 C 122.695312 236.125 115.265625 233.441406 104.359375 229.84375 C 97.507812 236.101562 92.589844 240.839844 89.425781 244.296875 L 89.300781 244.4375 C 87.128906 246.804688 81.316406 253.109375 74.058594 252.148438 C 72.40625 251.921875 70.796875 251.34375 69.390625 250.453125 C 69.390625 250.453125 69.390625 250.453125 69.34375 250.425781 C 63.632812 246.652344 63.332031 238.6875 63.238281 235.6875 L 63.25 235.570312 C 63.074219 230.179688 62.523438 221.925781 61.835938 211.746094 C 53.585938 206.445312 47.433594 202.765625 43.148438 200.53125 L 42.980469 200.453125 C 40.109375 198.953125 32.496094 195.046875 31.539062 187.753906 C 31.214844 185.492188 31.667969 183.636719 31.972656 182.734375 C 34.074219 176.214844 41.667969 173.855469 44.539062 172.984375 L 44.648438 172.960938 C 49.949219 171.3125 58.054688 168.5 67.441406 165.230469 C 70.105469 155.382812 71.84375 148.214844 72.679688 143.296875 L 72.722656 143.136719 C 73.277344 139.960938 74.699219 131.480469 81.371094 128.359375 C 82.867188 127.664062 84.574219 127.265625 86.214844 127.265625 C 93.09375 127.3125 97.632812 133.851562 99.335938 136.324219 L 99.394531 136.425781 C 102.507812 140.894531 107.527344 147.714844 113.382812 155.621094 C 123.253906 154.847656 131.765625 154.132812 137.136719 153.539062 L 137.246094 153.515625 C 140.230469 153.195312 148.128906 152.300781 152.671875 157.386719 C 153.277344 158.101562 154.429688 159.582031 155.078125 161.773438 C 157.097656 168.84375 151.707031 175.519531 149.710938 178.003906 L 149.589844 178.144531 C 146.832031 181.550781 143.207031 186.632812 138.558594 193.570312 C 142.515625 204.589844 145.910156 214.046875 148.171875 219.726562 L 148.230469 219.828125 C 149.351562 222.613281 152.28125 230.027344 148.566406 235.777344 C 148.566406 235.777344 148.566406 235.777344 148.539062 235.820312 C 147.902344 236.796875 146.746094 238.183594 144.945312 239.25 C 143.664062 240.054688 142.425781 240.507812 141.144531 240.773438 Z M 102.621094 221.570312 C 103.28125 221.429688 103.976562 221.476562 104.628906 221.683594 C 116.960938 225.707031 125.257812 228.707031 130.761719 231.105469 L 130.929688 231.183594 C 137.992188 234.289062 140.085938 233.007812 140.765625 232.597656 C 141.375 232.238281 141.730469 231.746094 141.875 231.523438 C 143.367188 229.183594 141.519531 224.566406 140.84375 222.796875 L 140.78125 222.691406 C 138.355469 216.589844 134.671875 206.316406 130.386719 194.445312 C 129.953125 193.277344 130.136719 191.976562 130.800781 190.957031 C 136.140625 182.957031 140.226562 177.164062 143.34375 173.300781 L 143.46875 173.160156 C 148.316406 167.171875 147.625 164.792969 147.425781 164.03125 C 147.183594 163.242188 146.734375 162.726562 146.726562 162.6875 C 144.875 160.59375 139.882812 161.179688 138.019531 161.382812 L 137.910156 161.40625 C 132.019531 162.070312 122.984375 162.820312 111.757812 163.6875 C 110.402344 163.777344 109.101562 163.210938 108.300781 162.117188 C 101.863281 153.453125 96.230469 145.882812 92.832031 140.976562 L 92.773438 140.875 C 91.691406 139.34375 88.835938 135.203125 86.082031 135.167969 C 85.929688 135.164062 85.285156 135.183594 84.589844 135.519531 C 81.640625 136.90625 80.671875 142.652344 80.339844 144.519531 L 80.296875 144.679688 C 79.324219 150.234375 77.464844 158.082031 74.367188 169.320312 C 74.019531 170.578125 73.085938 171.578125 71.875 171.984375 C 61.597656 175.554688 52.636719 178.660156 46.867188 180.445312 L 46.757812 180.46875 C 44.96875 181.035156 40.164062 182.503906 39.3125 185.167969 C 39.285156 185.210938 39.078125 185.867188 39.210938 186.679688 C 39.660156 189.910156 44.800781 192.578125 46.507812 193.441406 L 46.675781 193.523438 C 51.558594 196.054688 58.238281 200.078125 67.679688 206.160156 C 68.734375 206.820312 69.390625 207.941406 69.460938 209.191406 C 70.246094 220.378906 70.84375 229.390625 71.039062 235.234375 L 71.0625 235.34375 C 71.117188 237.246094 71.320312 242.210938 73.628906 243.753906 C 74.0625 244.003906 74.5625 244.207031 75.078125 244.289062 C 78.296875 244.722656 82.210938 240.460938 83.511719 239.039062 L 83.636719 238.898438 C 87.265625 234.925781 92.730469 229.6875 100.816406 222.40625 C 101.34375 222.027344 101.964844 221.707031 102.621094 221.570312 Z M 146.453125 175.742188 Z M 146.453125 175.742188 " fill-opacity="1" fill-rule="nonzero"/></g></g></g></g><g clip-path="url(#a827bdc496)"><g clip-path="url(#a288b1ddf6)"><g clip-path="url(#14b89179a6)"><g clip-path="url(#b4cdda03af)"><path fill="#f2e3e6" d="M 139.261719 231.613281 C 136.777344 232.136719 132.863281 230.394531 131.558594 229.828125 L 131.390625 229.75 C 125.84375 227.320312 117.503906 224.292969 105.136719 220.277344 C 104.234375 219.96875 103.273438 219.941406 102.359375 220.132812 C 101.445312 220.324219 100.585938 220.773438 99.84375 221.425781 C 91.730469 228.75 86.269531 233.988281 82.574219 238.011719 L 82.449219 238.152344 C 81.484375 239.195312 78.566406 242.371094 76.117188 242.886719 C 75.824219 242.945312 75.5625 242.964844 75.328125 242.9375 C 75.050781 242.878906 74.726562 242.796875 74.503906 242.652344 C 73.746094 242.121094 72.820312 240.441406 72.644531 235.433594 L 72.660156 235.316406 C 72.453125 229.433594 71.851562 220.386719 71.066406 209.195312 C 70.9375 207.503906 70.039062 205.933594 68.585938 205.015625 C 59.097656 198.902344 52.410156 194.839844 47.484375 192.28125 L 47.316406 192.203125 C 42.21875 189.566406 40.984375 187.683594 40.828125 186.570312 C 40.789062 186.195312 40.863281 185.835938 40.878906 185.71875 C 41.148438 184.820312 42.503906 183.464844 47.34375 181.988281 L 47.453125 181.96875 C 53.257812 180.175781 62.222656 177.070312 72.488281 173.460938 C 74.160156 172.878906 75.472656 171.496094 75.917969 169.796875 C 78.945312 158.417969 80.835938 150.527344 81.800781 144.9375 L 81.84375 144.773438 C 82.824219 139.101562 84.25 137.351562 85.257812 136.871094 C 85.394531 136.804688 85.578125 136.765625 85.722656 136.734375 C 85.796875 136.71875 85.941406 136.6875 86.097656 136.695312 C 87.019531 136.730469 88.691406 137.601562 91.582031 141.734375 L 91.640625 141.839844 C 95.035156 146.746094 100.679688 154.351562 107.113281 163.015625 C 108.226562 164.503906 110.046875 165.34375 111.882812 165.1875 C 122.726562 164.324219 132.21875 163.554688 138.109375 162.894531 L 138.21875 162.871094 C 143.25 162.308594 145 163.011719 145.636719 163.683594 C 145.734375 163.777344 145.949219 164.074219 146.023438 164.441406 C 146.328125 165.523438 145.964844 167.78125 142.359375 172.246094 L 142.238281 172.386719 C 139.089844 176.296875 134.964844 182.09375 129.597656 190.140625 C 128.636719 191.5625 128.445312 193.363281 129.007812 194.964844 C 133.300781 206.871094 136.984375 217.144531 139.417969 223.285156 L 139.441406 223.394531 C 141.296875 228.050781 141.125 229.960938 140.644531 230.75 C 140.527344 230.925781 140.273438 231.171875 140.003906 231.34375 C 139.800781 231.460938 139.554688 231.550781 139.261719 231.613281 Z M 139.261719 231.613281 " fill-opacity="1" fill-rule="nonzero"/></g></g></g></g><g clip-path="url(#368db2533d)"><g clip-path="url(#d73836d64c)"><g clip-path="url(#81eefbe3b2)"><g clip-path="url(#a2e6c73344)"><path fill="#ed83b5" d="M 87.308594 145.003906 C 90.761719 150.011719 96.390625 157.546875 102.824219 166.210938 C 105.058594 169.21875 108.644531 170.839844 112.359375 170.554688 C 123.542969 169.660156 132.625 168.9375 138.585938 168.257812 C 138.46875 168.4375 138.3125 168.585938 138.160156 168.769531 L 138.035156 168.910156 C 134.738281 173.003906 130.640625 178.757812 125.101562 187.070312 C 123.179688 189.917969 122.753906 193.527344 123.929688 196.757812 C 128.179688 208.632812 131.855469 218.871094 134.347656 225.113281 C 134.140625 225.042969 133.929688 224.933594 133.722656 224.863281 L 133.554688 224.785156 C 127.839844 222.277344 119.332031 219.207031 106.796875 215.113281 C 104.953125 214.503906 103.035156 214.449219 101.246094 214.824219 C 99.417969 215.207031 97.652344 216.074219 96.210938 217.375 C 87.964844 224.800781 82.378906 230.179688 78.589844 234.300781 L 78.464844 234.441406 C 78.3125 234.625 78.152344 234.773438 77.996094 234.921875 C 77.773438 228.964844 77.171875 219.917969 76.402344 208.804688 C 76.175781 205.371094 74.34375 202.277344 71.476562 200.433594 C 61.851562 194.195312 54.996094 190.09375 49.902344 187.453125 L 49.734375 187.375 C 49.519531 187.265625 49.34375 187.152344 49.136719 187.078125 C 55.007812 185.234375 63.972656 182.128906 74.210938 178.566406 C 77.589844 177.398438 80.140625 174.644531 81.09375 171.195312 C 84.253906 159.714844 86.1875 151.660156 87.183594 145.871094 L 87.226562 145.707031 C 87.210938 145.445312 87.238281 145.210938 87.308594 145.003906 M 84.636719 131.382812 C 84.125 131.488281 83.550781 131.648438 82.960938 131.925781 C 78.066406 134.253906 76.886719 141.535156 76.488281 143.988281 C 75.511719 149.699219 73.484375 157.847656 70.636719 168.269531 C 59.726562 172.089844 51.257812 175.011719 45.777344 176.699219 C 43.308594 177.484375 37.167969 179.308594 35.660156 183.945312 C 35.570312 184.234375 35.15625 185.542969 35.394531 187.214844 C 36.140625 192.601562 42.753906 195.914062 44.929688 197.023438 C 49.9375 199.605469 56.855469 203.847656 65.597656 209.503906 C 66.386719 220.882812 66.988281 229.742188 67.191406 235.433594 C 67.273438 238.015625 67.441406 244.441406 71.546875 247.09375 C 71.8125 247.269531 72.953125 247.984375 74.605469 248.210938 C 75.507812 248.328125 76.371094 248.261719 77.210938 248.085938 C 81.484375 247.1875 85.164062 243.089844 86.5625 241.570312 C 90.289062 237.5 95.984375 232.101562 103.449219 225.332031 C 114.839844 229.058594 123.535156 232.125 129.214844 234.640625 C 131.105469 235.46875 136.085938 237.746094 140.359375 236.851562 C 141.199219 236.671875 142.054688 236.378906 142.832031 235.910156 C 144.253906 235.039062 145.011719 233.921875 145.183594 233.65625 C 147.839844 229.582031 145.40625 223.632812 144.472656 221.191406 C 142.128906 215.300781 138.648438 205.632812 134.136719 193.046875 C 139.152344 185.496094 143.269531 179.660156 146.480469 175.699219 C 148.023438 173.769531 152.742188 168.078125 151.269531 162.882812 C 150.8125 161.257812 149.910156 160.222656 149.707031 159.996094 C 146.464844 156.359375 140.101562 157.121094 137.53125 157.433594 C 131.835938 158.09375 122.941406 158.8125 111.5 159.726562 C 104.648438 150.539062 99.367188 143.386719 96.128906 138.679688 C 94.648438 136.542969 91.058594 131.257812 86.167969 131.214844 C 85.941406 131.222656 85.367188 131.226562 84.636719 131.382812 Z M 84.636719 131.382812 " fill-opacity="1" fill-rule="nonzero"/></g></g></g></g><g clip-path="url(#05d0034eb3)"><g clip-path="url(#e24c29a4dd)"><g clip-path="url(#8c3fe8c907)"><g clip-path="url(#5c602f214e)"><path fill="#fff48b" d="M 84.636719 131.382812 C 85.40625 131.21875 85.976562 131.214844 86.167969 131.214844 C 91.058594 131.257812 94.65625 136.578125 96.128906 138.679688 C 99.367188 143.386719 104.683594 150.53125 111.492188 159.691406 C 122.9375 158.777344 131.828125 158.058594 137.53125 157.433594 C 140.101562 157.121094 146.464844 156.359375 149.707031 159.996094 C 149.910156 160.222656 150.8125 161.257812 151.269531 162.882812 C 152.75 168.113281 148.03125 173.808594 146.480469 175.699219 C 143.269531 179.660156 139.160156 185.53125 134.136719 193.046875 C 138.648438 205.632812 142.128906 215.300781 144.472656 221.191406 C 145.433594 223.589844 147.867188 229.539062 145.183594 233.65625 C 145.011719 233.921875 144.253906 235.039062 142.832031 235.910156 C 142.054688 236.378906 141.238281 236.664062 140.359375 236.851562 C 136.085938 237.746094 131.066406 235.476562 129.214844 234.640625 C 123.535156 232.125 114.839844 229.058594 103.449219 225.332031 C 95.976562 232.0625 90.289062 237.5 86.5625 241.570312 C 85.164062 243.089844 81.523438 247.179688 77.210938 248.085938 C 76.371094 248.261719 75.46875 248.335938 74.605469 248.210938 C 72.953125 247.984375 71.804688 247.230469 71.546875 247.09375 C 67.476562 244.433594 67.308594 238.007812 67.191406 235.433594 C 66.988281 229.742188 66.386719 220.882812 65.597656 209.503906 C 56.855469 203.847656 49.945312 199.640625 44.929688 197.023438 C 42.746094 195.878906 36.136719 192.5625 35.394531 187.214844 C 35.15625 185.542969 35.570312 184.234375 35.660156 183.945312 C 37.167969 179.308594 43.300781 177.449219 45.777344 176.699219 C 51.25 174.976562 59.71875 172.050781 70.636719 168.269531 C 73.484375 157.847656 75.511719 149.699219 76.488281 143.988281 C 76.886719 141.535156 78.066406 134.253906 82.960938 131.925781 C 83.550781 131.648438 84.125 131.488281 84.636719 131.382812 M 83.484375 125.890625 C 82.460938 126.105469 81.5 126.421875 80.59375 126.839844 C 73.167969 130.351562 71.554688 139.75 71.019531 142.84375 L 70.976562 143.003906 C 70.175781 147.722656 68.523438 154.566406 66.023438 163.921875 C 57.023438 167.035156 49.238281 169.742188 44.109375 171.316406 L 44 171.339844 C 40.921875 172.292969 32.722656 174.855469 30.332031 182.199219 C 29.976562 183.230469 29.472656 185.359375 29.828125 187.960938 C 30.925781 196.101562 39.398438 200.480469 42.183594 201.921875 L 42.351562 202 C 46.503906 204.148438 52.351562 207.660156 60.195312 212.664062 C 60.878906 222.460938 61.390625 230.34375 61.574219 235.578125 L 61.558594 235.695312 C 61.664062 238.925781 61.984375 247.535156 68.445312 251.761719 C 68.445312 251.761719 68.488281 251.789062 68.488281 251.789062 C 70.117188 252.824219 71.941406 253.511719 73.859375 253.757812 C 75.347656 253.941406 76.863281 253.890625 78.363281 253.578125 C 84.28125 252.332031 88.660156 247.554688 90.558594 245.511719 L 90.679688 245.371094 C 93.722656 242.054688 98.351562 237.566406 104.824219 231.695312 C 115.15625 235.109375 122.265625 237.707031 127.007812 239.769531 L 127.179688 239.847656 C 129.699219 240.960938 135.667969 243.570312 141.585938 242.328125 C 143.121094 242.003906 144.527344 241.441406 145.78125 240.679688 C 147.847656 239.445312 149.152344 237.832031 149.910156 236.71875 C 149.910156 236.71875 149.9375 236.671875 149.9375 236.671875 C 154.152344 230.207031 150.945312 222.203125 149.777344 219.199219 L 149.71875 219.097656 C 147.53125 213.59375 144.242188 204.457031 140.398438 193.796875 C 144.824219 187.246094 148.242188 182.441406 150.875 179.171875 L 150.996094 179.03125 C 151.964844 177.835938 153.714844 175.632812 155.144531 172.808594 C 157.183594 168.710938 157.703125 164.816406 156.6875 161.246094 C 155.964844 158.722656 154.652344 157.011719 153.902344 156.171875 C 148.761719 150.410156 140.226562 151.363281 137.023438 151.730469 L 136.914062 151.75 C 131.734375 152.34375 123.597656 153.019531 114.140625 153.78125 C 108.515625 146.246094 103.703125 139.6875 100.738281 135.378906 L 100.679688 135.277344 C 98.820312 132.609375 93.941406 125.527344 86.21875 125.46875 C 86.21875 125.46875 86.183594 125.476562 86.183594 125.476562 C 85.253906 125.59375 84.363281 125.707031 83.484375 125.890625 Z M 83.484375 125.890625 " fill-opacity="1" fill-rule="nonzero"/></g></g></g></g><g clip-path="url(#e1a8435626)"><g clip-path="url(#96300cb3d1)"><g clip-path="url(#2a8b35afb4)"><g clip-path="url(#36fe256574)"><path fill="#ec297b" d="M 141.144531 240.773438 C 135.773438 241.902344 130.183594 239.445312 127.785156 238.382812 L 127.617188 238.300781 C 122.695312 236.125 115.265625 233.441406 104.359375 229.84375 C 97.507812 236.101562 92.589844 240.839844 89.425781 244.296875 L 89.300781 244.4375 C 87.128906 246.804688 81.316406 253.109375 74.058594 252.148438 C 72.40625 251.921875 70.796875 251.34375 69.390625 250.453125 C 69.390625 250.453125 69.390625 250.453125 69.34375 250.425781 C 63.632812 246.652344 63.332031 238.6875 63.238281 235.6875 L 63.25 235.570312 C 63.074219 230.179688 62.523438 221.925781 61.835938 211.746094 C 53.585938 206.445312 47.433594 202.765625 43.148438 200.53125 L 42.980469 200.453125 C 40.109375 198.953125 32.496094 195.046875 31.539062 187.753906 C 31.214844 185.492188 31.667969 183.636719 31.972656 182.734375 C 34.074219 176.214844 41.667969 173.855469 44.539062 172.984375 L 44.648438 172.960938 C 49.949219 171.3125 58.054688 168.5 67.441406 165.230469 C 70.105469 155.382812 71.84375 148.214844 72.679688 143.296875 L 72.722656 143.136719 C 73.277344 139.960938 74.699219 131.480469 81.371094 128.359375 C 82.867188 127.664062 84.574219 127.265625 86.214844 127.265625 C 93.09375 127.3125 97.632812 133.851562 99.335938 136.324219 L 99.394531 136.425781 C 102.507812 140.894531 107.527344 147.714844 113.382812 155.621094 C 123.253906 154.847656 131.765625 154.132812 137.136719 153.539062 L 137.246094 153.515625 C 140.230469 153.195312 148.128906 152.300781 152.671875 157.386719 C 153.277344 158.101562 154.429688 159.582031 155.078125 161.773438 C 157.097656 168.84375 151.707031 175.519531 149.710938 178.003906 L 149.589844 178.144531 C 146.832031 181.550781 143.207031 186.632812 138.558594 193.570312 C 142.515625 204.589844 145.910156 214.046875 148.171875 219.726562 L 148.230469 219.828125 C 149.351562 222.613281 152.28125 230.027344 148.566406 235.777344 C 148.566406 235.777344 148.566406 235.777344 148.539062 235.820312 C 147.902344 236.796875 146.746094 238.183594 144.945312 239.25 C 143.664062 240.054688 142.425781 240.507812 141.144531 240.773438 Z M 102.621094 221.570312 C 103.28125 221.429688 103.976562 221.476562 104.628906 221.683594 C 116.960938 225.707031 125.257812 228.707031 130.761719 231.105469 L 130.929688 231.183594 C 137.992188 234.289062 140.085938 233.007812 140.765625 232.597656 C 141.375 232.238281 141.730469 231.746094 141.875 231.523438 C 143.367188 229.183594 141.519531 224.566406 140.84375 222.796875 L 140.78125 222.691406 C 138.355469 216.589844 134.671875 206.316406 130.386719 194.445312 C 129.953125 193.277344 130.136719 191.976562 130.800781 190.957031 C 136.140625 182.957031 140.226562 177.164062 143.34375 173.300781 L 143.46875 173.160156 C 148.316406 167.171875 147.625 164.792969 147.425781 164.03125 C 147.183594 163.242188 146.734375 162.726562 146.726562 162.6875 C 144.875 160.59375 139.882812 161.179688 138.019531 161.382812 L 137.910156 161.40625 C 132.019531 162.070312 122.984375 162.820312 111.757812 163.6875 C 110.402344 163.777344 109.101562 163.210938 108.300781 162.117188 C 101.863281 153.453125 96.230469 145.882812 92.832031 140.976562 L 92.773438 140.875 C 91.691406 139.34375 88.835938 135.203125 86.082031 135.167969 C 85.929688 135.164062 85.285156 135.183594 84.589844 135.519531 C 81.640625 136.90625 80.671875 142.652344 80.339844 144.519531 L 80.296875 144.679688 C 79.324219 150.234375 77.464844 158.082031 74.367188 169.320312 C 74.019531 170.578125 73.085938 171.578125 71.875 171.984375 C 61.597656 175.554688 52.636719 178.660156 46.867188 180.445312 L 46.757812 180.46875 C 44.96875 181.035156 40.164062 182.503906 39.3125 185.167969 C 39.285156 185.210938 39.078125 185.867188 39.210938 186.679688 C 39.660156 189.910156 44.800781 192.578125 46.507812 193.441406 L 46.675781 193.523438 C 51.558594 196.054688 58.238281 200.078125 67.679688 206.160156 C 68.734375 206.820312 69.390625 207.941406 69.460938 209.191406 C 70.246094 220.378906 70.84375 229.390625 71.039062 235.234375 L 71.0625 235.34375 C 71.117188 237.246094 71.320312 242.210938 73.628906 243.753906 C 74.0625 244.003906 74.5625 244.207031 75.078125 244.289062 C 78.296875 244.722656 82.210938 240.460938 83.511719 239.039062 L 83.636719 238.898438 C 87.265625 234.925781 92.730469 229.6875 100.816406 222.40625 C 101.34375 222.027344 101.964844 221.707031 102.621094 221.570312 Z M 146.453125 175.742188 Z M 146.453125 175.742188 " fill-opacity="1" fill-rule="nonzero"/></g></g></g></g><path stroke-linecap="butt" transform="matrix(0.75, 0, 0, 0.75, 77.995744, 159.464829)" fill="none" stroke-linejoin="miter" d="M 24.016093 70.000025 L 40.24526 70.000025 C 41.156719 70.000025 41.870261 69.218775 41.870261 68.312525 L 41.870261 57.937524 C 41.870261 57.031274 42.589011 56.312524 43.510886 56.312524 L 70.297346 56.312524 C 71.203596 56.312524 71.917137 55.598982 71.917137 54.671899 L 71.917137 40.333356 C 71.917137 39.427106 71.141096 38.708356 70.234846 38.708356 L 43.510886 38.708356 C 42.589011 38.708356 41.870261 37.994814 41.870261 37.088564 C 41.870261 36.161481 42.589011 35.447939 43.510886 35.447939 L 72.906721 35.447939 C 73.812971 35.447939 74.531721 34.729189 74.531721 33.822939 L 74.531721 19.484396 C 74.531721 18.562521 73.812971 17.843771 72.906721 17.843771 L 23.948384 17.843771 C 23.026509 17.843771 22.312968 18.562521 22.312968 19.484396 L 22.312968 68.375025 C 22.312968 69.281275 23.104634 70.000025 24.016093 70.000025 Z M 79.490055 70.000025 L 95.724431 70.000025 C 96.630681 70.000025 97.344222 69.281275 97.344222 68.375025 L 97.344222 59.239607 C 97.344222 58.333357 98.062973 57.619815 98.984848 57.619815 C 99.891098 57.619815 100.609848 58.395857 100.609848 59.307316 L 100.609848 68.375025 C 100.609848 69.281275 101.385889 70.000025 102.297348 70.000025 L 118.531724 70.000025 C 119.453599 70.000025 120.167141 69.281275 120.167141 68.375025 L 120.167141 31.151064 C 120.167141 23.447938 114.568182 17.843771 106.865056 17.843771 L 91.089014 17.843771 C 83.401513 17.843771 77.78693 23.447938 77.78693 31.151064 L 77.78693 68.375025 C 77.78693 69.281275 78.578596 70.000025 79.490055 70.000025 Z M 98.984848 41.973981 C 98.062973 41.973981 97.344222 41.255231 97.344222 40.333356 L 97.344222 35.130231 C 97.344222 34.208356 98.062973 33.489606 98.984848 33.489606 C 99.891098 33.489606 100.609848 34.208356 100.609848 35.130231 L 100.609848 40.333356 C 100.609848 41.255231 99.891098 41.973981 98.984848 41.973981 Z M 136.724433 70.000025 L 152.495268 70.000025 C 160.198393 70.000025 165.797352 64.395858 165.797352 56.692732 L 165.797352 19.484396 C 165.797352 18.562521 165.08381 17.843771 164.161935 17.843771 L 147.927559 17.843771 C 147.021309 17.843771 146.240059 18.562521 146.240059 19.484396 L 146.240059 50.776065 C 146.240059 51.682315 145.521309 52.395857 144.615059 52.395857 C 143.693184 52.395857 142.974434 51.682315 142.974434 50.776065 L 142.974434 19.484396 C 142.974434 18.562521 142.260892 17.843771 141.354642 17.843771 L 125.120266 17.843771 C 124.214016 17.843771 123.417141 18.562521 123.417141 19.484396 L 123.417141 56.692732 C 123.417141 64.395858 129.036933 70.000025 136.724433 70.000025 Z M 182.354645 70.000025 L 209.792147 70.000025 C 210.651522 70.000025 211.432772 69.218775 211.432772 68.312525 L 211.495272 40.333356 C 211.495272 39.427106 210.714022 38.708356 209.792147 38.708356 L 193.55777 38.708356 C 192.71402 38.708356 191.93277 39.489606 191.93277 40.395856 L 191.87027 50.776065 C 191.87027 51.682315 191.08902 52.395857 190.24527 52.395857 C 189.323395 52.395857 188.609853 51.682315 188.609853 50.776065 L 188.609853 37.088564 C 188.609853 36.161481 189.323395 35.447939 190.24527 35.447939 L 209.792147 35.447939 C 210.714022 35.447939 211.432772 34.666689 211.432772 33.760439 L 211.432772 19.484396 C 211.432772 18.562521 210.714022 17.843771 209.792147 17.843771 L 182.354645 17.843771 C 174.667144 17.843771 169.047352 23.447938 169.047352 31.151064 L 169.047352 56.692732 C 169.047352 64.395858 174.667144 70.000025 182.354645 70.000025 Z M 216.448397 70.000025 L 265.339025 70.000025 C 266.245275 70.000025 266.964025 69.281275 266.964025 68.375025 L 266.964025 55.97919 C 266.964025 55.07294 266.182775 54.35419 265.276525 54.35419 L 235.94319 54.35419 C 235.021315 54.35419 234.302565 53.640649 234.302565 52.72919 C 234.302565 51.807315 235.021315 51.093773 235.94319 51.093773 L 262.72965 51.093773 C 263.6359 51.093773 264.35465 50.375023 264.35465 49.468773 L 264.35465 38.375023 C 264.35465 37.468772 263.5734 36.750022 262.66715 36.750022 L 235.94319 36.750022 C 235.021315 36.750022 234.302565 36.036481 234.302565 35.130231 C 234.302565 34.208356 235.021315 33.489606 235.94319 33.489606 L 265.339025 33.489606 C 266.245275 33.489606 266.964025 32.776064 266.964025 31.864605 L 266.964025 19.484396 C 266.964025 18.562521 266.245275 17.843771 265.339025 17.843771 L 216.385897 17.843771 C 215.458814 17.843771 214.745272 18.562521 214.745272 19.484396 L 214.745272 68.375025 C 214.745272 69.281275 215.542147 70.000025 216.448397 70.000025 Z M 281.755693 70.000025 L 297.990069 70.000025 C 298.911944 70.000025 299.630694 69.218775 299.630694 68.312525 L 299.630694 37.088564 C 299.630694 36.161481 300.411944 35.447939 301.318194 35.447939 L 307.844236 35.447939 C 308.750486 35.447939 309.464028 34.729189 309.464028 33.822939 L 309.464028 19.484396 C 309.464028 18.625021 308.750486 17.843771 307.844236 17.843771 L 271.859859 17.781271 C 270.932776 17.781271 270.219234 18.494813 270.219234 19.421896 L 270.219234 33.822939 C 270.219234 34.729189 270.932776 35.447939 271.859859 35.447939 L 278.365068 35.447939 C 279.292151 35.447939 280.068193 36.161481 280.068193 37.088564 L 280.068193 68.375025 C 280.068193 69.281275 280.849443 70.000025 281.755693 70.000025 Z M 281.755693 70.000025 " stroke="#fff48b" stroke-width="9.453347" stroke-opacity="1" stroke-miterlimit="4"/><g fill="#ec297b" fill-opacity="1"><g transform="translate(93.511368, 211.964825)"><g><path d="M 2.492188 0 L 14.667969 0 C 15.351562 0 15.890625 -0.585938 15.890625 -1.269531 L 15.890625 -9.046875 C 15.890625 -9.730469 16.429688 -10.265625 17.113281 -10.265625 L 37.207031 -10.265625 C 37.890625 -10.265625 38.429688 -10.804688 38.429688 -11.488281 L 38.429688 -22.246094 C 38.429688 -22.929688 37.84375 -23.46875 37.160156 -23.46875 L 17.113281 -23.46875 C 16.429688 -23.46875 15.890625 -24.007812 15.890625 -24.691406 C 15.890625 -25.375 16.429688 -25.914062 17.113281 -25.914062 L 39.164062 -25.914062 C 39.847656 -25.914062 40.386719 -26.449219 40.386719 -27.136719 L 40.386719 -37.890625 C 40.386719 -38.578125 39.847656 -39.113281 39.164062 -39.113281 L 2.445312 -39.113281 C 1.761719 -39.113281 1.222656 -38.578125 1.222656 -37.890625 L 1.222656 -1.222656 C 1.222656 -0.539062 1.808594 0 2.492188 0 Z M 2.492188 0 "/></g></g></g><g fill="#ec297b" fill-opacity="1"><g transform="translate(135.117254, 211.964825)"><g><path d="M 2.492188 0 L 14.667969 0 C 15.351562 0 15.890625 -0.539062 15.890625 -1.222656 L 15.890625 -8.066406 C 15.890625 -8.75 16.429688 -9.289062 17.113281 -9.289062 C 17.796875 -9.289062 18.335938 -8.703125 18.335938 -8.019531 L 18.335938 -1.222656 C 18.335938 -0.539062 18.921875 0 19.605469 0 L 31.78125 0 C 32.464844 0 33.003906 -0.539062 33.003906 -1.222656 L 33.003906 -29.140625 C 33.003906 -34.910156 28.796875 -39.113281 23.027344 -39.113281 L 11.195312 -39.113281 C 5.425781 -39.113281 1.222656 -34.910156 1.222656 -29.140625 L 1.222656 -1.222656 C 1.222656 -0.539062 1.808594 0 2.492188 0 Z M 17.113281 -21.023438 C 16.429688 -21.023438 15.890625 -21.5625 15.890625 -22.246094 L 15.890625 -26.15625 C 15.890625 -26.84375 16.429688 -27.378906 17.113281 -27.378906 C 17.796875 -27.378906 18.335938 -26.84375 18.335938 -26.15625 L 18.335938 -22.246094 C 18.335938 -21.5625 17.796875 -21.023438 17.113281 -21.023438 Z M 17.113281 -21.023438 "/></g></g></g><g fill="#ec297b" fill-opacity="1"><g transform="translate(169.340671, 211.964825)"><g><path d="M 11.195312 0 L 23.027344 0 C 28.796875 0 33.003906 -4.203125 33.003906 -9.972656 L 33.003906 -37.890625 C 33.003906 -38.578125 32.464844 -39.113281 31.78125 -39.113281 L 19.605469 -39.113281 C 18.921875 -39.113281 18.335938 -38.578125 18.335938 -37.890625 L 18.335938 -14.421875 C 18.335938 -13.738281 17.796875 -13.199219 17.113281 -13.199219 C 16.429688 -13.199219 15.890625 -13.738281 15.890625 -14.421875 L 15.890625 -37.890625 C 15.890625 -38.578125 15.351562 -39.113281 14.667969 -39.113281 L 2.492188 -39.113281 C 1.808594 -39.113281 1.222656 -38.578125 1.222656 -37.890625 L 1.222656 -9.972656 C 1.222656 -4.203125 5.425781 0 11.195312 0 Z M 11.195312 0 "/></g></g></g><g fill="#ec297b" fill-opacity="1"><g transform="translate(203.564088, 211.964825)"><g><path d="M 11.195312 0 L 31.78125 0 C 32.414062 0 33.003906 -0.585938 33.003906 -1.269531 L 33.050781 -22.246094 C 33.050781 -22.929688 32.464844 -23.46875 31.78125 -23.46875 L 19.605469 -23.46875 C 18.96875 -23.46875 18.382812 -22.882812 18.382812 -22.195312 L 18.335938 -14.421875 C 18.335938 -13.738281 17.746094 -13.199219 17.113281 -13.199219 C 16.429688 -13.199219 15.890625 -13.738281 15.890625 -14.421875 L 15.890625 -24.691406 C 15.890625 -25.375 16.429688 -25.914062 17.113281 -25.914062 L 31.78125 -25.914062 C 32.464844 -25.914062 33.003906 -26.5 33.003906 -27.183594 L 33.003906 -37.890625 C 33.003906 -38.578125 32.464844 -39.113281 31.78125 -39.113281 L 11.195312 -39.113281 C 5.425781 -39.113281 1.222656 -34.910156 1.222656 -29.140625 L 1.222656 -9.972656 C 1.222656 -4.203125 5.425781 0 11.195312 0 Z M 11.195312 0 "/></g></g></g><g fill="#ec297b" fill-opacity="1"><g transform="translate(237.836394, 211.964825)"><g><path d="M 2.492188 0 L 39.164062 0 C 39.847656 0 40.386719 -0.539062 40.386719 -1.222656 L 40.386719 -10.511719 C 40.386719 -11.195312 39.796875 -11.734375 39.113281 -11.734375 L 17.113281 -11.734375 C 16.429688 -11.734375 15.890625 -12.273438 15.890625 -12.957031 C 15.890625 -13.640625 16.429688 -14.179688 17.113281 -14.179688 L 37.207031 -14.179688 C 37.890625 -14.179688 38.429688 -14.714844 38.429688 -15.402344 L 38.429688 -23.710938 C 38.429688 -24.398438 37.84375 -24.933594 37.160156 -24.933594 L 17.113281 -24.933594 C 16.429688 -24.933594 15.890625 -25.472656 15.890625 -26.15625 C 15.890625 -26.84375 16.429688 -27.378906 17.113281 -27.378906 L 39.164062 -27.378906 C 39.847656 -27.378906 40.386719 -27.917969 40.386719 -28.601562 L 40.386719 -37.890625 C 40.386719 -38.578125 39.847656 -39.113281 39.164062 -39.113281 L 2.445312 -39.113281 C 1.761719 -39.113281 1.222656 -38.578125 1.222656 -37.890625 L 1.222656 -1.222656 C 1.222656 -0.539062 1.808594 0 2.492188 0 Z M 2.492188 0 "/></g></g></g><g fill="#ec297b" fill-opacity="1"><g transform="translate(279.44228, 211.964825)"><g><path d="M 9.875 0 L 22.050781 0 C 22.734375 0 23.273438 -0.585938 23.273438 -1.269531 L 23.273438 -24.691406 C 23.273438 -25.375 23.859375 -25.914062 24.542969 -25.914062 L 29.433594 -25.914062 C 30.117188 -25.914062 30.65625 -26.449219 30.65625 -27.136719 L 30.65625 -37.890625 C 30.65625 -38.527344 30.117188 -39.113281 29.433594 -39.113281 L 2.445312 -39.164062 C 1.761719 -39.164062 1.222656 -38.625 1.222656 -37.941406 L 1.222656 -27.136719 C 1.222656 -26.449219 1.761719 -25.914062 2.445312 -25.914062 L 7.332031 -25.914062 C 8.019531 -25.914062 8.605469 -25.375 8.605469 -24.691406 L 8.605469 -1.222656 C 8.605469 -0.539062 9.191406 0 9.875 0 Z M 9.875 0 "/></g></g></g><path stroke-linecap="butt" transform="matrix(0.75, 0, 0, 0.75, 151.887271, 219.776074)" fill="none" stroke-linejoin="miter" d="M 1.296139 8.631902 L 1.160723 9.579819 C 1.004473 10.637111 0.895098 11.324611 0.843014 11.668361 L 0.843014 11.980861 C 0.843014 12.407944 0.947181 12.699611 1.108639 12.876694 C 1.322181 13.064194 1.660723 13.199611 2.191973 13.251694 C 2.504473 13.277736 3.035723 13.303778 3.749265 13.303778 L 10.212807 13.303778 C 10.186765 13.543361 10.160723 13.694403 10.134682 13.803778 C 10.134682 13.933986 10.082598 14.043361 10.025307 14.121486 C 9.973223 14.17357 9.895098 14.225653 9.790932 14.251695 C 9.707598 14.251695 9.504473 14.277736 9.181557 14.277736 L 0.504473 14.277736 C 0.343014 15.444403 0.264889 16.178778 0.264889 16.54857 C 0.264889 16.944403 0.316973 17.230861 0.452389 17.444403 C 0.603431 17.631903 0.843014 17.762111 1.160723 17.871486 C 1.535723 17.92357 2.379473 17.975653 3.749265 17.975653 L 9.556557 17.975653 C 10.900307 17.975653 11.770098 17.92357 12.13989 17.871486 C 12.535723 17.762111 12.82739 17.605861 13.035723 17.39232 C 13.197182 17.183986 13.29614 16.918361 13.405515 16.574611 C 13.509682 16.20482 13.67114 15.444403 13.82739 14.277736 L 13.962807 13.303778 C 14.093015 12.246486 14.176349 11.564194 14.176349 11.241278 L 14.176349 11.085028 C 14.176349 10.611069 14.093015 10.267319 13.910724 10.053778 C 13.723224 9.845444 13.35864 9.689194 12.770098 9.637111 C 12.45239 9.579819 11.770098 9.579819 10.712807 9.579819 L 4.910723 9.579819 C 4.962806 9.288153 4.988848 9.111069 4.988848 9.022528 C 5.01489 8.923569 5.035723 8.845444 5.098223 8.788152 C 5.150306 8.710027 5.249265 8.657944 5.353431 8.657944 C 5.462806 8.631902 5.728431 8.631902 6.093015 8.631902 L 11.270098 8.631902 C 12.113848 8.631902 12.718015 8.605861 13.035723 8.553777 C 13.405515 8.496486 13.67114 8.444402 13.879474 8.340236 C 14.249265 8.152736 14.51489 7.814194 14.67114 7.308986 C 14.806557 6.944402 14.962807 6.126694 15.119057 4.907944 L 5.32739 4.907944 C 4.379473 4.907944 3.723223 4.907944 3.348223 4.965236 C 2.874264 5.017319 2.530514 5.121486 2.296139 5.308986 C 2.030514 5.522527 1.822181 5.861069 1.686764 6.392319 C 1.582598 6.756902 1.447181 7.496486 1.296139 8.631902 Z M 20.285724 -0.472265 L 19.546141 4.933986 L 18.988849 4.933986 C 18.197182 4.933986 17.645099 4.933986 17.301349 4.991277 C 16.775307 5.043361 16.405515 5.199611 16.13989 5.413152 C 15.905515 5.647527 15.718015 6.100652 15.561765 6.756902 C 15.509682 7.074611 15.400307 7.710027 15.270099 8.657944 L 19.014891 8.657944 L 18.884682 9.605861 L 18.358641 13.329819 L 18.228432 14.308986 C 18.066974 15.282945 17.968015 15.944403 17.905515 16.288153 L 17.905515 16.678778 C 17.905515 16.996486 17.968015 17.256903 18.066974 17.444403 C 18.254474 17.710028 18.676349 17.897528 19.363849 17.975653 C 19.728432 17.975653 20.363849 18.001695 21.290932 18.001695 L 23.686766 18.001695 C 24.718016 18.001695 25.405516 17.975653 25.749266 17.949611 C 26.275308 17.871486 26.671141 17.73607 26.910724 17.522528 C 27.119058 17.319403 27.306558 16.944403 27.436766 16.465236 C 27.540933 16.100653 27.650308 15.381903 27.780516 14.308986 L 21.973224 14.308986 L 22.108641 13.329819 L 22.634682 9.605861 L 22.764891 8.657944 L 24.827391 8.657944 C 25.936766 8.657944 26.645099 8.631902 26.983641 8.605861 C 27.514891 8.527736 27.910724 8.392319 28.150308 8.230861 C 28.389891 8.027736 28.572183 7.710027 28.7076 7.282944 C 28.806558 6.918361 28.941975 6.152736 29.098225 4.933986 L 23.296141 4.933986 L 23.530516 3.246485 C 23.686766 2.32461 23.770099 1.746485 23.770099 1.506902 C 23.822183 1.267319 23.822183 1.079819 23.822183 0.928777 C 23.822183 0.63711 23.796141 0.397527 23.718016 0.236069 C 23.556558 -0.128515 23.134682 -0.342056 22.400307 -0.39414 C 21.999266 -0.446223 21.290932 -0.472265 20.285724 -0.472265 Z M 29.780516 8.631902 L 28.4576 18.001695 C 29.879475 18.001695 30.775308 17.949611 31.150308 17.871486 C 31.5201 17.762111 31.780516 17.605861 31.968016 17.39232 C 32.17635 17.157945 32.311766 16.788153 32.415933 16.314195 C 32.499266 15.970445 32.603433 15.308986 32.733641 14.308986 L 33.369058 9.741278 C 33.421141 9.397528 33.473225 9.183986 33.494058 9.085028 C 33.546142 8.923569 33.603433 8.819402 33.7076 8.762111 C 33.785725 8.710027 33.8951 8.657944 34.025308 8.657944 C 34.160725 8.631902 34.42635 8.631902 34.816975 8.631902 L 39.30135 8.631902 C 40.410725 8.631902 41.124267 8.605861 41.468017 8.579819 C 42.0201 8.527736 42.421142 8.392319 42.660725 8.178777 C 42.921142 7.975652 43.103434 7.600652 43.23885 7.100652 C 43.343017 6.730861 43.441975 6.017319 43.603434 4.933986 L 33.473225 4.933986 C 32.577391 4.933986 31.968016 4.965236 31.598225 5.017319 C 31.17635 5.069402 30.837808 5.230861 30.624266 5.460027 C 30.410725 5.673569 30.223225 6.074611 30.093016 6.652736 C 30.040933 6.970444 29.931558 7.626694 29.780516 8.631902 Z M 48.322184 4.907944 C 47.108642 4.907944 46.311767 4.933986 45.947184 4.991277 C 45.468017 5.043361 45.103434 5.199611 44.837809 5.433986 C 44.598226 5.647527 44.410726 6.100652 44.285726 6.730861 C 44.233642 7.048569 44.124267 7.652736 43.968017 8.605861 L 43.17635 14.251695 C 43.040934 15.308986 42.962809 15.996486 42.936767 16.36107 L 42.936767 16.54857 C 42.936767 16.918361 42.98885 17.183986 43.098225 17.366278 C 43.254475 17.605861 43.514892 17.762111 43.884684 17.871486 C 44.259684 17.92357 44.941976 17.975653 45.999267 17.975653 L 55.973226 17.975653 L 55.973226 17.54857 C 55.973226 16.756903 55.973226 16.23607 55.921143 15.913153 C 55.895101 15.335028 55.790935 14.965236 55.577393 14.751695 C 55.415935 14.538153 55.129476 14.413153 54.707601 14.36107 C 54.421143 14.308986 53.754476 14.277736 52.728434 14.277736 L 46.921142 14.277736 C 46.978434 13.986069 47.004476 13.803778 47.004476 13.720444 C 47.030517 13.569403 47.056559 13.460028 47.108642 13.407944 C 47.155517 13.355861 47.238851 13.329819 47.316976 13.329819 C 47.395101 13.303778 47.530517 13.303778 47.712809 13.303778 L 53.254476 13.303778 C 54.18156 13.303778 54.811768 13.277736 55.155518 13.225653 C 55.68156 13.168361 56.05656 13.012111 56.296143 12.798569 C 56.499268 12.564194 56.686768 12.194403 56.790935 11.694403 C 56.90031 11.350653 57.004476 10.663153 57.139893 9.605861 L 57.290935 8.605861 C 57.40031 7.762111 57.478435 7.210027 57.504476 6.918361 C 57.530518 6.678777 57.530518 6.491277 57.530518 6.340236 C 57.530518 5.808986 57.426351 5.433986 57.165935 5.256902 C 56.952393 5.095444 56.551351 4.991277 55.973226 4.933986 C 55.655518 4.907944 55.02531 4.907944 54.072185 4.907944 Z M 48.374267 8.631902 L 53.514893 8.631902 C 53.488851 8.923569 53.462809 9.137111 53.441976 9.236069 C 53.441976 9.345444 53.415934 9.397528 53.363851 9.449611 C 53.311768 9.501694 53.202393 9.553778 53.046143 9.579819 L 47.582601 9.579819 C 47.634684 9.262111 47.660726 9.085028 47.660726 9.001694 C 47.712809 8.897527 47.738851 8.819402 47.770101 8.762111 C 47.822184 8.710027 47.874267 8.657944 47.926351 8.657944 C 47.978434 8.631902 48.134684 8.631902 48.374267 8.631902 Z M 62.645102 4.907944 C 61.426352 4.907944 60.634685 4.933986 60.270102 4.991277 C 59.790935 5.043361 59.421143 5.199611 59.160727 5.433986 C 58.921143 5.647527 58.733643 6.100652 58.603435 6.730861 C 58.551351 7.048569 58.441976 7.652736 58.290935 8.605861 L 57.499268 14.251695 C 57.363851 15.308986 57.285726 15.996486 57.259685 16.36107 L 57.259685 16.54857 C 57.259685 16.918361 57.311768 17.183986 57.421143 17.366278 C 57.572185 17.605861 57.83781 17.762111 58.207601 17.871486 C 58.577393 17.92357 59.264893 17.975653 60.316977 17.975653 L 70.290936 17.975653 L 70.290936 17.54857 C 70.290936 16.756903 70.290936 16.23607 70.238852 15.913153 C 70.212811 15.335028 70.113852 14.965236 69.900311 14.751695 C 69.738852 14.538153 69.447186 14.413153 69.030519 14.36107 C 68.738852 14.308986 68.077394 14.277736 67.051352 14.277736 L 61.238852 14.277736 C 61.296143 13.986069 61.322185 13.803778 61.322185 13.720444 C 61.348227 13.569403 61.374268 13.460028 61.426352 13.407944 C 61.478435 13.355861 61.561768 13.329819 61.639893 13.329819 C 61.718018 13.303778 61.853435 13.303778 62.030518 13.303778 L 67.572185 13.303778 C 68.499269 13.303778 69.134686 13.277736 69.473227 13.225653 C 70.004477 13.168361 70.374269 13.012111 70.613852 12.798569 C 70.822186 12.564194 71.009686 12.194403 71.108644 11.694403 C 71.218019 11.350653 71.322186 10.663153 71.457602 9.605861 L 71.613852 8.605861 C 71.723227 7.762111 71.801352 7.210027 71.827394 6.918361 C 71.853436 6.678777 71.853436 6.491277 71.853436 6.340236 C 71.853436 5.808986 71.749269 5.433986 71.483644 5.256902 C 71.270102 5.095444 70.874269 4.991277 70.290936 4.933986 C 69.978436 4.907944 69.343019 4.907944 68.389894 4.907944 Z M 62.697185 8.631902 L 67.83781 8.631902 C 67.811769 8.923569 67.785727 9.137111 67.759685 9.236069 C 67.759685 9.345444 67.733644 9.397528 67.68156 9.449611 C 67.629477 9.501694 67.520102 9.553778 67.36906 9.579819 L 61.905518 9.579819 C 61.957602 9.262111 61.983643 9.085028 61.983643 9.001694 C 62.030518 8.897527 62.05656 8.819402 62.093018 8.762111 C 62.139893 8.710027 62.191977 8.657944 62.24406 8.657944 C 62.296143 8.631902 62.457602 8.631902 62.697185 8.631902 Z M 77.384686 -0.472265 L 76.645103 4.933986 L 76.087811 4.933986 C 75.296144 4.933986 74.744061 4.933986 74.400311 4.991277 C 73.874269 5.043361 73.504477 5.199611 73.244061 5.413152 C 73.004477 5.647527 72.816977 6.100652 72.660727 6.756902 C 72.608644 7.074611 72.499269 7.710027 72.374269 8.657944 L 76.113853 8.657944 L 75.988853 9.605861 L 75.457603 13.329819 L 75.327394 14.308986 C 75.171144 15.282945 75.066978 15.944403 75.009686 16.288153 L 75.009686 16.678778 C 75.009686 16.996486 75.066978 17.256903 75.171144 17.444403 C 75.353436 17.710028 75.775311 17.897528 76.462811 17.975653 C 76.832603 17.975653 77.462811 18.001695 78.389894 18.001695 L 80.785728 18.001695 C 81.816978 18.001695 82.504478 17.975653 82.848228 17.949611 C 83.37427 17.871486 83.770103 17.73607 84.009686 17.522528 C 84.223228 17.319403 84.40552 16.944403 84.535728 16.465236 C 84.639895 16.100653 84.74927 15.381903 84.879478 14.308986 L 79.072186 14.308986 L 79.207603 13.329819 L 79.738853 9.605861 L 79.863853 8.657944 L 81.926353 8.657944 C 83.035728 8.657944 83.744061 8.631902 84.087811 8.605861 C 84.613853 8.527736 85.014895 8.392319 85.24927 8.230861 C 85.488853 8.027736 85.671145 7.710027 85.806562 7.282944 C 85.910728 6.918361 86.046145 6.152736 86.197187 4.933986 L 80.395103 4.933986 L 80.634686 3.246485 C 80.785728 2.32461 80.869061 1.746485 80.869061 1.506902 C 80.921145 1.267319 80.921145 1.079819 80.921145 0.928777 C 80.921145 0.63711 80.895103 0.397527 80.816978 0.236069 C 80.65552 -0.128515 80.233645 -0.342056 79.49927 -0.39414 C 79.098228 -0.446223 78.389894 -0.472265 77.384686 -0.472265 Z M 87.119062 4.907944 L 86.587812 8.605861 L 85.796145 14.277736 C 85.660728 15.335028 85.582603 16.04857 85.556562 16.413153 L 85.556562 16.54857 C 85.556562 16.89232 85.608645 17.157945 85.68677 17.366278 C 85.848228 17.631903 86.165937 17.814195 86.639895 17.897528 C 87.009687 17.949611 87.801353 18.001695 89.020103 18.001695 L 94.848229 18.001695 C 96.035729 18.001695 96.801354 17.975653 97.165937 17.92357 C 97.749271 17.840236 98.145104 17.657945 98.384687 17.366278 C 98.540937 17.131903 98.676354 16.788153 98.780521 16.340236 C 98.884687 15.996486 98.994062 15.308986 99.119062 14.277736 L 99.910729 8.631902 C 100.072188 7.522527 100.150313 6.808986 100.150313 6.491277 L 100.150313 6.340236 C 100.150313 5.913152 100.098229 5.621486 99.936771 5.433986 C 99.785729 5.199611 99.468021 5.043361 98.968021 4.991277 C 98.619062 4.933986 97.858646 4.907944 96.665937 4.907944 L 96.113854 8.949611 L 95.353437 14.277736 C 95.004479 14.277736 94.764896 14.251695 94.660729 14.251695 C 94.556562 14.225653 94.473229 14.17357 94.421145 14.095445 C 94.400312 14.043361 94.400312 13.933986 94.400312 13.803778 C 94.400312 13.694403 94.421145 13.543361 94.447187 13.303778 L 95.113854 8.605861 C 95.218021 7.710027 95.290937 7.126694 95.290937 6.808986 C 95.316979 6.652736 95.316979 6.517319 95.316979 6.413152 C 95.316979 6.048569 95.270104 5.751694 95.165937 5.543361 C 95.004479 5.230861 94.660729 5.043361 94.134687 4.991277 C 93.790937 4.933986 93.051354 4.907944 91.889895 4.907944 L 91.259687 9.236069 L 90.572187 14.277736 C 90.202395 14.277736 89.988854 14.251695 89.889895 14.251695 C 89.78052 14.225653 89.728437 14.17357 89.676354 14.121486 C 89.650312 14.069403 89.62427 13.986069 89.62427 13.881903 C 89.62427 13.777736 89.650312 13.595444 89.676354 13.329819 L 90.332604 8.605861 C 90.46802 7.814194 90.546145 7.262111 90.546145 6.970444 C 90.598229 6.704819 90.598229 6.491277 90.598229 6.340236 C 90.598229 5.861069 90.546145 5.569402 90.332604 5.361069 C 90.150312 5.147527 89.806562 5.017319 89.306562 4.965236 C 88.957603 4.907944 88.223228 4.907944 87.119062 4.907944 Z M 105.264896 4.907944 C 104.046146 4.907944 103.254479 4.933986 102.889896 4.991277 C 102.410729 5.043361 102.046146 5.199611 101.780521 5.433986 C 101.540938 5.647527 101.353438 6.100652 101.228438 6.730861 C 101.176354 7.048569 101.066979 7.652736 100.910729 8.605861 L 100.119063 14.251695 C 99.983646 15.308986 99.905521 15.996486 99.879479 16.36107 L 99.879479 16.54857 C 99.879479 16.918361 99.931563 17.183986 100.040938 17.366278 C 100.197188 17.605861 100.457604 17.762111 100.827396 17.871486 C 101.202396 17.92357 101.884688 17.975653 102.941979 17.975653 L 112.915938 17.975653 L 112.915938 17.54857 C 112.915938 16.756903 112.915938 16.23607 112.863855 15.913153 C 112.837813 15.335028 112.733647 14.965236 112.520105 14.751695 C 112.358647 14.538153 112.06698 14.413153 111.650313 14.36107 C 111.358647 14.308986 110.697188 14.277736 109.671147 14.277736 L 103.858646 14.277736 C 103.921146 13.986069 103.947188 13.803778 103.947188 13.720444 C 103.973229 13.569403 103.994063 13.460028 104.046146 13.407944 C 104.098229 13.355861 104.181563 13.329819 104.259688 13.329819 C 104.337813 13.303778 104.473229 13.303778 104.655521 13.303778 L 110.19198 13.303778 C 111.124272 13.303778 111.75448 13.277736 112.093022 13.225653 C 112.624272 13.168361 112.999272 13.012111 113.233647 12.798569 C 113.44198 12.564194 113.62948 12.194403 113.733647 11.694403 C 113.843022 11.350653 113.94198 10.663153 114.077397 9.605861 L 114.233647 8.605861 C 114.343022 7.762111 114.421147 7.210027 114.447188 6.918361 C 114.47323 6.678777 114.47323 6.491277 114.47323 6.340236 C 114.47323 5.808986 114.369063 5.433986 114.103438 5.256902 C 113.895105 5.095444 113.494063 4.991277 112.915938 4.933986 C 112.59823 4.907944 111.968022 4.907944 111.014897 4.907944 Z M 105.31698 8.631902 L 110.457605 8.631902 C 110.431563 8.923569 110.405522 9.137111 110.37948 9.236069 C 110.37948 9.345444 110.353438 9.397528 110.306563 9.449611 C 110.25448 9.501694 110.145105 9.553778 109.988855 9.579819 L 104.525313 9.579819 C 104.577396 9.262111 104.603438 9.085028 104.603438 9.001694 C 104.655521 8.897527 104.681563 8.819402 104.712813 8.762111 C 104.764896 8.710027 104.81698 8.657944 104.863855 8.657944 C 104.915938 8.631902 105.077396 8.631902 105.31698 8.631902 Z M 125.973231 4.907944 L 115.759689 4.907944 L 115.759689 5.361069 C 115.759689 6.048569 115.78573 6.569402 115.78573 6.892319 C 115.837814 7.470444 115.94198 7.866277 116.103439 8.105861 C 116.28573 8.340236 116.603439 8.496486 117.072189 8.579819 C 117.395105 8.605861 118.051355 8.631902 118.999272 8.631902 L 124.811772 8.631902 C 124.780522 8.923569 124.754481 9.111069 124.728439 9.210028 C 124.728439 9.314194 124.702397 9.397528 124.650314 9.449611 C 124.598231 9.501694 124.514897 9.553778 124.410731 9.579819 C 124.358647 9.579819 124.202397 9.605861 123.994064 9.605861 L 118.478439 9.605861 C 117.499272 9.605861 116.811772 9.637111 116.44198 9.689194 C 115.994064 9.741278 115.650314 9.902736 115.41073 10.131903 C 115.207605 10.345444 115.020105 10.772528 114.884689 11.402736 C 114.832605 11.720444 114.728438 12.350653 114.593022 13.303778 L 114.436772 14.277736 C 114.301355 15.335028 114.228438 16.04857 114.202397 16.413153 L 114.202397 16.574611 C 114.202397 16.996486 114.25448 17.282945 114.41073 17.496486 C 114.56698 17.683986 114.832605 17.814195 115.207605 17.897528 C 115.572189 17.949611 116.389897 18.001695 117.66073 18.001695 L 123.379481 18.001695 C 124.702397 18.001695 125.546148 17.949611 125.921148 17.897528 C 126.285731 17.814195 126.577398 17.710028 126.790939 17.54857 C 127.030523 17.366278 127.207606 17.07982 127.316981 16.70482 C 127.447189 16.340236 127.608648 15.543361 127.764898 14.277736 L 128.134689 11.590236 L 128.556564 8.631902 C 128.691981 7.678777 128.770106 7.048569 128.770106 6.730861 C 128.796148 6.569402 128.796148 6.465236 128.796148 6.366277 C 128.796148 5.808986 128.665939 5.433986 128.400314 5.256902 C 128.238856 5.121486 127.973231 5.043361 127.608648 4.991277 C 127.290939 4.933986 126.738856 4.907944 125.973231 4.907944 Z M 118.947189 13.303778 L 124.150314 13.303778 C 124.124272 13.595444 124.098231 13.777736 124.072189 13.881903 C 124.046147 13.986069 124.020106 14.095445 123.962814 14.147528 C 123.936772 14.199611 123.884689 14.225653 123.780522 14.251695 C 123.728439 14.251695 123.566981 14.277736 123.353439 14.277736 L 118.181564 14.277736 C 118.238855 14.069403 118.264897 13.907944 118.264897 13.829819 C 118.290939 13.616278 118.31698 13.491278 118.369064 13.433986 C 118.421147 13.381903 118.478439 13.329819 118.556564 13.329819 C 118.608647 13.303778 118.738855 13.303778 118.947189 13.303778 Z M 129.843023 8.631902 L 128.520106 18.001695 C 129.947189 18.001695 130.843023 17.949611 131.212815 17.871486 C 131.582606 17.762111 131.848231 17.605861 132.035731 17.39232 C 132.238856 17.157945 132.374273 16.788153 132.47844 16.314195 C 132.561773 15.970445 132.66594 15.308986 132.801356 14.308986 L 133.431565 9.741278 C 133.483648 9.397528 133.535731 9.183986 133.561773 9.085028 C 133.613856 8.923569 133.671148 8.819402 133.775315 8.762111 C 133.848231 8.710027 133.957606 8.657944 134.087815 8.657944 C 134.223231 8.631902 134.488856 8.631902 134.879481 8.631902 L 139.363857 8.631902 C 140.473232 8.631902 141.186774 8.605861 141.530524 8.579819 C 142.082607 8.527736 142.483649 8.392319 142.723232 8.178777 C 142.983649 7.975652 143.16594 7.600652 143.301357 7.100652 C 143.405524 6.730861 143.50969 6.017319 143.671149 4.933986 L 133.535731 4.933986 C 132.639898 4.933986 132.035731 4.965236 131.660731 5.017319 C 131.238856 5.069402 130.900315 5.230861 130.686773 5.460027 C 130.473231 5.673569 130.285731 6.074611 130.160731 6.652736 C 130.108648 6.970444 129.999273 7.626694 129.843023 8.631902 Z M 129.843023 8.631902 " stroke="#fff48b" stroke-width="6.92769" stroke-opacity="1" stroke-miterlimit="4"/><g fill="#ec297b" fill-opacity="1"><g transform="translate(151.887271, 233.276073)"><g><path d="M 0.96875 -7.027344 L 0.871094 -6.3125 C 0.753906 -5.523438 0.671875 -5.007812 0.632812 -4.75 L 0.632812 -4.511719 C 0.632812 -4.195312 0.710938 -3.976562 0.832031 -3.839844 C 0.988281 -3.703125 1.246094 -3.601562 1.644531 -3.5625 C 1.878906 -3.542969 2.277344 -3.523438 2.808594 -3.523438 L 7.660156 -3.523438 C 7.640625 -3.34375 7.621094 -3.226562 7.601562 -3.148438 C 7.601562 -3.046875 7.5625 -2.96875 7.519531 -2.910156 C 7.480469 -2.871094 7.421875 -2.832031 7.34375 -2.808594 C 7.285156 -2.808594 7.125 -2.789062 6.886719 -2.789062 L 0.375 -2.789062 C 0.257812 -1.917969 0.199219 -1.367188 0.199219 -1.089844 C 0.199219 -0.792969 0.238281 -0.574219 0.335938 -0.414062 C 0.457031 -0.277344 0.632812 -0.179688 0.871094 -0.0976562 C 1.148438 -0.0585938 1.78125 -0.0195312 2.808594 -0.0195312 L 7.164062 -0.0195312 C 8.175781 -0.0195312 8.828125 -0.0585938 9.105469 -0.0976562 C 9.402344 -0.179688 9.621094 -0.296875 9.777344 -0.457031 C 9.894531 -0.613281 9.976562 -0.8125 10.054688 -1.070312 C 10.132812 -1.347656 10.253906 -1.917969 10.371094 -2.789062 L 10.46875 -3.523438 C 10.570312 -4.316406 10.628906 -4.828125 10.628906 -5.066406 L 10.628906 -5.1875 C 10.628906 -5.542969 10.570312 -5.800781 10.429688 -5.957031 C 10.292969 -6.117188 10.015625 -6.234375 9.578125 -6.273438 C 9.34375 -6.3125 8.828125 -6.3125 8.035156 -6.3125 L 3.679688 -6.3125 C 3.722656 -6.53125 3.742188 -6.671875 3.742188 -6.730469 C 3.761719 -6.808594 3.78125 -6.867188 3.820312 -6.90625 C 3.859375 -6.96875 3.9375 -7.007812 4.019531 -7.007812 C 4.097656 -7.027344 4.296875 -7.027344 4.570312 -7.027344 L 8.453125 -7.027344 C 9.085938 -7.027344 9.539062 -7.046875 9.777344 -7.085938 C 10.054688 -7.125 10.253906 -7.164062 10.410156 -7.242188 C 10.6875 -7.382812 10.886719 -7.640625 11.003906 -8.015625 C 11.105469 -8.292969 11.222656 -8.90625 11.339844 -9.816406 L 4 -9.816406 C 3.285156 -9.816406 2.789062 -9.816406 2.511719 -9.777344 C 2.15625 -9.738281 1.898438 -9.660156 1.722656 -9.519531 C 1.523438 -9.363281 1.367188 -9.105469 1.265625 -8.707031 C 1.1875 -8.429688 1.089844 -7.878906 0.96875 -7.027344 Z M 0.96875 -7.027344 "/></g></g></g><g fill="#ec297b" fill-opacity="1"><g transform="translate(162.549036, 233.276073)"><g><path d="M 4.550781 -13.855469 L 4 -9.796875 L 3.582031 -9.796875 C 2.988281 -9.796875 2.574219 -9.796875 2.316406 -9.757812 C 1.917969 -9.71875 1.644531 -9.597656 1.445312 -9.441406 C 1.265625 -9.261719 1.128906 -8.925781 1.007812 -8.429688 C 0.96875 -8.195312 0.890625 -7.71875 0.792969 -7.007812 L 3.601562 -7.007812 L 3.503906 -6.292969 L 3.109375 -3.503906 L 3.007812 -2.769531 C 2.890625 -2.039062 2.808594 -1.542969 2.769531 -1.285156 L 2.769531 -0.988281 C 2.769531 -0.753906 2.808594 -0.554688 2.890625 -0.414062 C 3.027344 -0.21875 3.34375 -0.078125 3.859375 -0.0195312 C 4.136719 -0.0195312 4.613281 0 5.304688 0 L 7.105469 0 C 7.878906 0 8.390625 -0.0195312 8.648438 -0.0390625 C 9.046875 -0.0976562 9.34375 -0.199219 9.519531 -0.355469 C 9.679688 -0.515625 9.816406 -0.792969 9.917969 -1.148438 C 9.996094 -1.425781 10.074219 -1.960938 10.171875 -2.769531 L 5.820312 -2.769531 L 5.917969 -3.503906 L 6.3125 -6.292969 L 6.414062 -7.007812 L 7.957031 -7.007812 C 8.789062 -7.007812 9.324219 -7.027344 9.578125 -7.046875 C 9.976562 -7.105469 10.273438 -7.203125 10.449219 -7.324219 C 10.628906 -7.480469 10.765625 -7.71875 10.867188 -8.035156 C 10.945312 -8.3125 11.042969 -8.886719 11.164062 -9.796875 L 6.808594 -9.796875 L 6.988281 -11.0625 C 7.105469 -11.757812 7.164062 -12.191406 7.164062 -12.371094 C 7.203125 -12.546875 7.203125 -12.6875 7.203125 -12.804688 C 7.203125 -13.023438 7.183594 -13.203125 7.125 -13.320312 C 7.007812 -13.597656 6.691406 -13.753906 6.136719 -13.796875 C 5.839844 -13.835938 5.304688 -13.855469 4.550781 -13.855469 Z M 4.550781 -13.855469 "/></g></g></g><g fill="#ec297b" fill-opacity="1"><g transform="translate(173.032766, 233.276073)"><g><path d="M 1.1875 -7.027344 L 0.199219 0 C 1.265625 0 1.941406 -0.0390625 2.214844 -0.0976562 C 2.492188 -0.179688 2.691406 -0.296875 2.832031 -0.457031 C 2.988281 -0.632812 3.085938 -0.910156 3.167969 -1.265625 C 3.226562 -1.523438 3.304688 -2.019531 3.40625 -2.769531 L 3.878906 -6.195312 C 3.917969 -6.453125 3.957031 -6.609375 3.976562 -6.691406 C 4.019531 -6.808594 4.058594 -6.886719 4.136719 -6.925781 C 4.195312 -6.96875 4.273438 -7.007812 4.375 -7.007812 C 4.472656 -7.027344 4.671875 -7.027344 4.96875 -7.027344 L 8.332031 -7.027344 C 9.164062 -7.027344 9.699219 -7.046875 9.957031 -7.066406 C 10.371094 -7.105469 10.667969 -7.203125 10.847656 -7.363281 C 11.042969 -7.519531 11.183594 -7.796875 11.28125 -8.175781 C 11.359375 -8.453125 11.441406 -8.984375 11.558594 -9.796875 L 3.957031 -9.796875 C 3.285156 -9.796875 2.832031 -9.777344 2.554688 -9.738281 C 2.238281 -9.699219 1.980469 -9.578125 1.820312 -9.402344 C 1.664062 -9.242188 1.523438 -8.945312 1.425781 -8.511719 C 1.386719 -8.273438 1.304688 -7.777344 1.1875 -7.027344 Z M 1.1875 -7.027344 "/></g></g></g><g fill="#ec297b" fill-opacity="1"><g transform="translate(183.892342, 233.276073)"><g><path d="M 4.234375 -9.816406 C 3.324219 -9.816406 2.730469 -9.796875 2.453125 -9.757812 C 2.097656 -9.71875 1.820312 -9.597656 1.621094 -9.421875 C 1.445312 -9.261719 1.304688 -8.925781 1.207031 -8.453125 C 1.167969 -8.214844 1.089844 -7.757812 0.96875 -7.046875 L 0.375 -2.808594 C 0.277344 -2.019531 0.21875 -1.503906 0.199219 -1.226562 L 0.199219 -1.089844 C 0.199219 -0.8125 0.238281 -0.613281 0.316406 -0.476562 C 0.433594 -0.296875 0.632812 -0.179688 0.910156 -0.0976562 C 1.1875 -0.0585938 1.703125 -0.0195312 2.492188 -0.0195312 L 9.976562 -0.0195312 L 9.976562 -0.335938 C 9.976562 -0.929688 9.976562 -1.324219 9.9375 -1.5625 C 9.917969 -2 9.835938 -2.277344 9.679688 -2.433594 C 9.558594 -2.59375 9.34375 -2.691406 9.023438 -2.730469 C 8.808594 -2.769531 8.3125 -2.789062 7.539062 -2.789062 L 3.1875 -2.789062 C 3.226562 -3.007812 3.246094 -3.148438 3.246094 -3.207031 C 3.265625 -3.324219 3.285156 -3.40625 3.324219 -3.445312 C 3.363281 -3.484375 3.425781 -3.503906 3.484375 -3.503906 C 3.542969 -3.523438 3.640625 -3.523438 3.78125 -3.523438 L 7.9375 -3.523438 C 8.628906 -3.523438 9.105469 -3.542969 9.363281 -3.582031 C 9.757812 -3.621094 10.035156 -3.742188 10.214844 -3.898438 C 10.371094 -4.078125 10.511719 -4.355469 10.589844 -4.730469 C 10.667969 -4.988281 10.746094 -5.503906 10.847656 -6.292969 L 10.964844 -7.046875 C 11.042969 -7.679688 11.105469 -8.09375 11.125 -8.3125 C 11.144531 -8.492188 11.144531 -8.628906 11.144531 -8.75 C 11.144531 -9.144531 11.0625 -9.421875 10.867188 -9.558594 C 10.707031 -9.679688 10.410156 -9.757812 9.976562 -9.796875 C 9.738281 -9.816406 9.261719 -9.816406 8.550781 -9.816406 Z M 4.273438 -7.027344 L 8.132812 -7.027344 C 8.113281 -6.808594 8.09375 -6.648438 8.074219 -6.570312 C 8.074219 -6.492188 8.054688 -6.453125 8.015625 -6.414062 C 7.976562 -6.375 7.898438 -6.332031 7.777344 -6.3125 L 3.679688 -6.3125 C 3.722656 -6.550781 3.742188 -6.691406 3.742188 -6.75 C 3.78125 -6.828125 3.800781 -6.886719 3.820312 -6.925781 C 3.859375 -6.96875 3.898438 -7.007812 3.9375 -7.007812 C 3.976562 -7.027344 4.097656 -7.027344 4.273438 -7.027344 Z M 4.273438 -7.027344 "/></g></g></g><g fill="#ec297b" fill-opacity="1"><g transform="translate(194.633234, 233.276073)"><g><path d="M 4.234375 -9.816406 C 3.324219 -9.816406 2.730469 -9.796875 2.453125 -9.757812 C 2.097656 -9.71875 1.820312 -9.597656 1.621094 -9.421875 C 1.445312 -9.261719 1.304688 -8.925781 1.207031 -8.453125 C 1.167969 -8.214844 1.089844 -7.757812 0.96875 -7.046875 L 0.375 -2.808594 C 0.277344 -2.019531 0.21875 -1.503906 0.199219 -1.226562 L 0.199219 -1.089844 C 0.199219 -0.8125 0.238281 -0.613281 0.316406 -0.476562 C 0.433594 -0.296875 0.632812 -0.179688 0.910156 -0.0976562 C 1.1875 -0.0585938 1.703125 -0.0195312 2.492188 -0.0195312 L 9.976562 -0.0195312 L 9.976562 -0.335938 C 9.976562 -0.929688 9.976562 -1.324219 9.9375 -1.5625 C 9.917969 -2 9.835938 -2.277344 9.679688 -2.433594 C 9.558594 -2.59375 9.34375 -2.691406 9.023438 -2.730469 C 8.808594 -2.769531 8.3125 -2.789062 7.539062 -2.789062 L 3.1875 -2.789062 C 3.226562 -3.007812 3.246094 -3.148438 3.246094 -3.207031 C 3.265625 -3.324219 3.285156 -3.40625 3.324219 -3.445312 C 3.363281 -3.484375 3.425781 -3.503906 3.484375 -3.503906 C 3.542969 -3.523438 3.640625 -3.523438 3.78125 -3.523438 L 7.9375 -3.523438 C 8.628906 -3.523438 9.105469 -3.542969 9.363281 -3.582031 C 9.757812 -3.621094 10.035156 -3.742188 10.214844 -3.898438 C 10.371094 -4.078125 10.511719 -4.355469 10.589844 -4.730469 C 10.667969 -4.988281 10.746094 -5.503906 10.847656 -6.292969 L 10.964844 -7.046875 C 11.042969 -7.679688 11.105469 -8.09375 11.125 -8.3125 C 11.144531 -8.492188 11.144531 -8.628906 11.144531 -8.75 C 11.144531 -9.144531 11.0625 -9.421875 10.867188 -9.558594 C 10.707031 -9.679688 10.410156 -9.757812 9.976562 -9.796875 C 9.738281 -9.816406 9.261719 -9.816406 8.550781 -9.816406 Z M 4.273438 -7.027344 L 8.132812 -7.027344 C 8.113281 -6.808594 8.09375 -6.648438 8.074219 -6.570312 C 8.074219 -6.492188 8.054688 -6.453125 8.015625 -6.414062 C 7.976562 -6.375 7.898438 -6.332031 7.777344 -6.3125 L 3.679688 -6.3125 C 3.722656 -6.550781 3.742188 -6.691406 3.742188 -6.75 C 3.78125 -6.828125 3.800781 -6.886719 3.820312 -6.925781 C 3.859375 -6.96875 3.898438 -7.007812 3.9375 -7.007812 C 3.976562 -7.027344 4.097656 -7.027344 4.273438 -7.027344 Z M 4.273438 -7.027344 "/></g></g></g><g fill="#ec297b" fill-opacity="1"><g transform="translate(205.374125, 233.276073)"><g><path d="M 4.550781 -13.855469 L 4 -9.796875 L 3.582031 -9.796875 C 2.988281 -9.796875 2.574219 -9.796875 2.316406 -9.757812 C 1.917969 -9.71875 1.644531 -9.597656 1.445312 -9.441406 C 1.265625 -9.261719 1.128906 -8.925781 1.007812 -8.429688 C 0.96875 -8.195312 0.890625 -7.71875 0.792969 -7.007812 L 3.601562 -7.007812 L 3.503906 -6.292969 L 3.109375 -3.503906 L 3.007812 -2.769531 C 2.890625 -2.039062 2.808594 -1.542969 2.769531 -1.285156 L 2.769531 -0.988281 C 2.769531 -0.753906 2.808594 -0.554688 2.890625 -0.414062 C 3.027344 -0.21875 3.34375 -0.078125 3.859375 -0.0195312 C 4.136719 -0.0195312 4.613281 0 5.304688 0 L 7.105469 0 C 7.878906 0 8.390625 -0.0195312 8.648438 -0.0390625 C 9.046875 -0.0976562 9.34375 -0.199219 9.519531 -0.355469 C 9.679688 -0.515625 9.816406 -0.792969 9.917969 -1.148438 C 9.996094 -1.425781 10.074219 -1.960938 10.171875 -2.769531 L 5.820312 -2.769531 L 5.917969 -3.503906 L 6.3125 -6.292969 L 6.414062 -7.007812 L 7.957031 -7.007812 C 8.789062 -7.007812 9.324219 -7.027344 9.578125 -7.046875 C 9.976562 -7.105469 10.273438 -7.203125 10.449219 -7.324219 C 10.628906 -7.480469 10.765625 -7.71875 10.867188 -8.035156 C 10.945312 -8.3125 11.042969 -8.886719 11.164062 -9.796875 L 6.808594 -9.796875 L 6.988281 -11.0625 C 7.105469 -11.757812 7.164062 -12.191406 7.164062 -12.371094 C 7.203125 -12.546875 7.203125 -12.6875 7.203125 -12.804688 C 7.203125 -13.023438 7.183594 -13.203125 7.125 -13.320312 C 7.007812 -13.597656 6.691406 -13.753906 6.136719 -13.796875 C 5.839844 -13.835938 5.304688 -13.855469 4.550781 -13.855469 Z M 4.550781 -13.855469 "/></g></g></g><g fill="#ec297b" fill-opacity="1"><g transform="translate(215.857857, 233.276073)"><g><path d="M 1.367188 -9.816406 L 0.96875 -7.046875 L 0.375 -2.789062 C 0.277344 -2 0.21875 -1.464844 0.199219 -1.1875 L 0.199219 -1.089844 C 0.199219 -0.832031 0.238281 -0.632812 0.296875 -0.476562 C 0.414062 -0.277344 0.652344 -0.136719 1.007812 -0.078125 C 1.285156 -0.0390625 1.878906 0 2.789062 0 L 7.164062 0 C 8.054688 0 8.628906 -0.0195312 8.90625 -0.0585938 C 9.34375 -0.117188 9.640625 -0.257812 9.816406 -0.476562 C 9.9375 -0.652344 10.035156 -0.910156 10.113281 -1.246094 C 10.191406 -1.503906 10.273438 -2.019531 10.371094 -2.789062 L 10.964844 -7.027344 C 11.082031 -7.859375 11.144531 -8.390625 11.144531 -8.628906 L 11.144531 -8.75 C 11.144531 -9.066406 11.105469 -9.28125 10.984375 -9.421875 C 10.867188 -9.597656 10.628906 -9.71875 10.253906 -9.757812 C 9.996094 -9.796875 9.421875 -9.816406 8.53125 -9.816406 L 8.113281 -6.789062 L 7.539062 -2.789062 C 7.285156 -2.789062 7.105469 -2.808594 7.027344 -2.808594 C 6.945312 -2.832031 6.886719 -2.871094 6.847656 -2.929688 C 6.828125 -2.96875 6.828125 -3.046875 6.828125 -3.148438 C 6.828125 -3.226562 6.847656 -3.34375 6.867188 -3.523438 L 7.363281 -7.046875 C 7.441406 -7.71875 7.5 -8.15625 7.5 -8.390625 C 7.519531 -8.511719 7.519531 -8.609375 7.519531 -8.6875 C 7.519531 -8.964844 7.480469 -9.183594 7.402344 -9.34375 C 7.285156 -9.578125 7.027344 -9.71875 6.628906 -9.757812 C 6.375 -9.796875 5.820312 -9.816406 4.949219 -9.816406 L 4.472656 -6.570312 L 3.957031 -2.789062 C 3.679688 -2.789062 3.523438 -2.808594 3.445312 -2.808594 C 3.363281 -2.832031 3.324219 -2.871094 3.285156 -2.910156 C 3.265625 -2.949219 3.246094 -3.007812 3.246094 -3.085938 C 3.246094 -3.167969 3.265625 -3.304688 3.285156 -3.503906 L 3.78125 -7.046875 C 3.878906 -7.640625 3.9375 -8.054688 3.9375 -8.273438 C 3.976562 -8.472656 3.976562 -8.628906 3.976562 -8.75 C 3.976562 -9.105469 3.9375 -9.324219 3.78125 -9.480469 C 3.640625 -9.640625 3.382812 -9.738281 3.007812 -9.777344 C 2.75 -9.816406 2.195312 -9.816406 1.367188 -9.816406 Z M 1.367188 -9.816406 "/></g></g></g><g fill="#ec297b" fill-opacity="1"><g transform="translate(226.598749, 233.276073)"><g><path d="M 4.234375 -9.816406 C 3.324219 -9.816406 2.730469 -9.796875 2.453125 -9.757812 C 2.097656 -9.71875 1.820312 -9.597656 1.621094 -9.421875 C 1.445312 -9.261719 1.304688 -8.925781 1.207031 -8.453125 C 1.167969 -8.214844 1.089844 -7.757812 0.96875 -7.046875 L 0.375 -2.808594 C 0.277344 -2.019531 0.21875 -1.503906 0.199219 -1.226562 L 0.199219 -1.089844 C 0.199219 -0.8125 0.238281 -0.613281 0.316406 -0.476562 C 0.433594 -0.296875 0.632812 -0.179688 0.910156 -0.0976562 C 1.1875 -0.0585938 1.703125 -0.0195312 2.492188 -0.0195312 L 9.976562 -0.0195312 L 9.976562 -0.335938 C 9.976562 -0.929688 9.976562 -1.324219 9.9375 -1.5625 C 9.917969 -2 9.835938 -2.277344 9.679688 -2.433594 C 9.558594 -2.59375 9.34375 -2.691406 9.023438 -2.730469 C 8.808594 -2.769531 8.3125 -2.789062 7.539062 -2.789062 L 3.1875 -2.789062 C 3.226562 -3.007812 3.246094 -3.148438 3.246094 -3.207031 C 3.265625 -3.324219 3.285156 -3.40625 3.324219 -3.445312 C 3.363281 -3.484375 3.425781 -3.503906 3.484375 -3.503906 C 3.542969 -3.523438 3.640625 -3.523438 3.78125 -3.523438 L 7.9375 -3.523438 C 8.628906 -3.523438 9.105469 -3.542969 9.363281 -3.582031 C 9.757812 -3.621094 10.035156 -3.742188 10.214844 -3.898438 C 10.371094 -4.078125 10.511719 -4.355469 10.589844 -4.730469 C 10.667969 -4.988281 10.746094 -5.503906 10.847656 -6.292969 L 10.964844 -7.046875 C 11.042969 -7.679688 11.105469 -8.09375 11.125 -8.3125 C 11.144531 -8.492188 11.144531 -8.628906 11.144531 -8.75 C 11.144531 -9.144531 11.0625 -9.421875 10.867188 -9.558594 C 10.707031 -9.679688 10.410156 -9.757812 9.976562 -9.796875 C 9.738281 -9.816406 9.261719 -9.816406 8.550781 -9.816406 Z M 4.273438 -7.027344 L 8.132812 -7.027344 C 8.113281 -6.808594 8.09375 -6.648438 8.074219 -6.570312 C 8.074219 -6.492188 8.054688 -6.453125 8.015625 -6.414062 C 7.976562 -6.375 7.898438 -6.332031 7.777344 -6.3125 L 3.679688 -6.3125 C 3.722656 -6.550781 3.742188 -6.691406 3.742188 -6.75 C 3.78125 -6.828125 3.800781 -6.886719 3.820312 -6.925781 C 3.859375 -6.96875 3.898438 -7.007812 3.9375 -7.007812 C 3.976562 -7.027344 4.097656 -7.027344 4.273438 -7.027344 Z M 4.273438 -7.027344 "/></g></g></g><g fill="#ec297b" fill-opacity="1"><g transform="translate(237.33964, 233.276073)"><g><path d="M 9.023438 -9.816406 L 1.367188 -9.816406 L 1.367188 -9.480469 C 1.367188 -8.964844 1.386719 -8.570312 1.386719 -8.332031 C 1.425781 -7.898438 1.503906 -7.601562 1.621094 -7.421875 C 1.761719 -7.242188 2 -7.125 2.355469 -7.066406 C 2.59375 -7.046875 3.085938 -7.027344 3.800781 -7.027344 L 8.15625 -7.027344 C 8.132812 -6.808594 8.113281 -6.671875 8.09375 -6.589844 C 8.09375 -6.511719 8.074219 -6.453125 8.035156 -6.414062 C 7.996094 -6.375 7.9375 -6.332031 7.859375 -6.3125 C 7.816406 -6.3125 7.699219 -6.292969 7.539062 -6.292969 L 3.40625 -6.292969 C 2.671875 -6.292969 2.15625 -6.273438 1.878906 -6.234375 C 1.542969 -6.195312 1.285156 -6.078125 1.109375 -5.898438 C 0.949219 -5.738281 0.8125 -5.421875 0.710938 -4.949219 C 0.671875 -4.710938 0.59375 -4.234375 0.496094 -3.523438 L 0.375 -2.789062 C 0.277344 -2 0.21875 -1.464844 0.199219 -1.1875 L 0.199219 -1.070312 C 0.199219 -0.753906 0.238281 -0.535156 0.355469 -0.375 C 0.476562 -0.238281 0.671875 -0.136719 0.949219 -0.078125 C 1.226562 -0.0390625 1.839844 0 2.789062 0 L 7.085938 0 C 8.074219 0 8.707031 -0.0390625 8.984375 -0.078125 C 9.261719 -0.136719 9.480469 -0.21875 9.640625 -0.335938 C 9.816406 -0.476562 9.957031 -0.691406 10.035156 -0.96875 C 10.132812 -1.246094 10.253906 -1.839844 10.371094 -2.789062 L 10.648438 -4.808594 L 10.964844 -7.027344 C 11.0625 -7.738281 11.125 -8.214844 11.125 -8.453125 C 11.144531 -8.570312 11.144531 -8.648438 11.144531 -8.726562 C 11.144531 -9.144531 11.042969 -9.421875 10.847656 -9.558594 C 10.726562 -9.660156 10.53125 -9.71875 10.253906 -9.757812 C 10.015625 -9.796875 9.597656 -9.816406 9.023438 -9.816406 Z M 3.761719 -3.523438 L 7.660156 -3.523438 C 7.640625 -3.304688 7.621094 -3.167969 7.601562 -3.085938 C 7.582031 -3.007812 7.5625 -2.929688 7.519531 -2.890625 C 7.5 -2.851562 7.460938 -2.832031 7.382812 -2.808594 C 7.34375 -2.808594 7.222656 -2.789062 7.066406 -2.789062 L 3.1875 -2.789062 C 3.226562 -2.949219 3.246094 -3.066406 3.246094 -3.128906 C 3.265625 -3.285156 3.285156 -3.382812 3.324219 -3.425781 C 3.363281 -3.464844 3.40625 -3.503906 3.464844 -3.503906 C 3.503906 -3.523438 3.601562 -3.523438 3.761719 -3.523438 Z M 3.761719 -3.523438 "/></g></g></g><g fill="#ec297b" fill-opacity="1"><g transform="translate(248.080532, 233.276073)"><g><path d="M 1.1875 -7.027344 L 0.199219 0 C 1.265625 0 1.941406 -0.0390625 2.214844 -0.0976562 C 2.492188 -0.179688 2.691406 -0.296875 2.832031 -0.457031 C 2.988281 -0.632812 3.085938 -0.910156 3.167969 -1.265625 C 3.226562 -1.523438 3.304688 -2.019531 3.40625 -2.769531 L 3.878906 -6.195312 C 3.917969 -6.453125 3.957031 -6.609375 3.976562 -6.691406 C 4.019531 -6.808594 4.058594 -6.886719 4.136719 -6.925781 C 4.195312 -6.96875 4.273438 -7.007812 4.375 -7.007812 C 4.472656 -7.027344 4.671875 -7.027344 4.96875 -7.027344 L 8.332031 -7.027344 C 9.164062 -7.027344 9.699219 -7.046875 9.957031 -7.066406 C 10.371094 -7.105469 10.667969 -7.203125 10.847656 -7.363281 C 11.042969 -7.519531 11.183594 -7.796875 11.28125 -8.175781 C 11.359375 -8.453125 11.441406 -8.984375 11.558594 -9.796875 L 3.957031 -9.796875 C 3.285156 -9.796875 2.832031 -9.777344 2.554688 -9.738281 C 2.238281 -9.699219 1.980469 -9.578125 1.820312 -9.402344 C 1.664062 -9.242188 1.523438 -8.945312 1.425781 -8.511719 C 1.386719 -8.273438 1.304688 -7.777344 1.1875 -7.027344 Z M 1.1875 -7.027344 "/></g></g></g></svg>