<svg xmlns="http://www.w3.org/2000/svg" xmlns:xlink="http://www.w3.org/1999/xlink" width="500" zoomAndPan="magnify" viewBox="0 0 375 374.999991" height="500" preserveAspectRatio="xMidYMid meet" version="1.0"><defs><g/></defs><rect x="-37.5" width="450" fill="#ffffff" y="-37.499999" height="449.999989" fill-opacity="1"/><rect x="-37.5" width="450" fill="#000000" y="-37.499999" height="449.999989" fill-opacity="1"/><path fill="#ffcc00" d="M 149.085938 220.691406 L 189.648438 182.851562 C 184.355469 170.847656 189.550781 152.863281 203.367188 139.042969 L 228.960938 113.429688 L 222.238281 106.699219 L 179.5 146.570312 C 184.789062 158.574219 179.589844 176.554688 165.773438 190.375 C 156.214844 199.941406 144.660156 205.367188 134.46875 206.0625 Z M 149.085938 220.691406 " fill-opacity="1" fill-rule="nonzero"/><path fill="#5bd2bc" d="M 205.6875 155.027344 C 207.410156 156.75 210.207031 156.75 211.933594 155.027344 L 241.234375 125.707031 L 234.984375 119.457031 L 205.6875 148.777344 C 203.960938 150.5 203.960938 153.300781 205.6875 155.027344 Z M 205.6875 155.027344 " fill-opacity="1" fill-rule="nonzero"/><path fill="#5bd2bc" d="M 228.171875 171.277344 C 226.445312 173.003906 226.445312 175.804688 228.171875 177.53125 C 229.898438 179.257812 232.695312 179.257812 234.417969 177.53125 L 263.683594 148.246094 C 263.453125 148 263.246094 147.738281 263.007812 147.5 L 257.472656 141.960938 Z M 228.171875 171.277344 " fill-opacity="1" fill-rule="nonzero"/><path fill="#ff5900" d="M 125.464844 150.035156 C 139.277344 136.210938 157.242188 131.011719 169.238281 136.300781 L 209.082031 93.535156 L 205.65625 90.109375 C 195.664062 80.109375 179.464844 80.109375 169.476562 90.109375 L 112.121094 147.5 C 102.984375 156.640625 102.234375 170.964844 109.804688 180.996094 C 110.605469 170.886719 116.019531 159.488281 125.464844 150.035156 Z M 125.464844 150.035156 " fill-opacity="1" fill-rule="nonzero"/><path fill="#5bd2bc" d="M 223.320312 166.421875 L 252.617188 137.101562 L 246.371094 130.851562 L 217.070312 160.171875 C 215.347656 161.898438 215.347656 164.695312 217.070312 166.421875 C 218.796875 168.148438 221.59375 168.148438 223.320312 166.421875 Z M 223.320312 166.421875 " fill-opacity="1" fill-rule="nonzero"/><path fill="#5bd2bc" d="M 243.679688 179.378906 C 229.863281 193.207031 211.898438 198.402344 199.902344 193.109375 L 162.085938 233.699219 L 169.476562 241.097656 C 179.46875 251.09375 195.667969 251.09375 205.65625 241.097656 L 263.007812 183.703125 C 270.792969 175.914062 272.484375 164.363281 268.136719 154.90625 Z M 243.679688 179.378906 " fill-opacity="1" fill-rule="nonzero"/><g fill="#ffffff" fill-opacity="1"><g transform="translate(106.821076, 282.581173)"><g><path d="M 15.296875 -11.171875 C 16.921875 -10.867188 18.175781 -10.226562 19.0625 -9.25 C 19.945312 -8.269531 20.390625 -7.128906 20.390625 -5.828125 C 20.390625 -4.097656 19.644531 -2.707031 18.15625 -1.65625 C 16.675781 -0.613281 14.65625 -0.0625 12.09375 0 L 1.03125 0 L 0.828125 -1.03125 C 1.453125 -1.425781 2.359375 -1.863281 3.546875 -2.34375 L 3.546875 -19.140625 L 1.28125 -19.421875 L 1.3125 -21.0625 C 4.425781 -21.226562 7.753906 -21.3125 11.296875 -21.3125 C 13.722656 -21.3125 15.671875 -20.804688 17.140625 -19.796875 C 18.617188 -18.796875 19.359375 -17.5 19.359375 -15.90625 C 19.359375 -14.832031 19.007812 -13.835938 18.3125 -12.921875 C 17.625 -12.003906 16.617188 -11.421875 15.296875 -11.171875 Z M 8.421875 -18.34375 L 8.421875 -12.03125 L 9.890625 -12.03125 C 11.398438 -12.03125 12.535156 -12.351562 13.296875 -13 C 14.054688 -13.65625 14.4375 -14.453125 14.4375 -15.390625 C 14.4375 -16.160156 14.191406 -16.878906 13.703125 -17.546875 C 13.222656 -18.222656 12.625 -18.644531 11.90625 -18.8125 Z M 10.96875 -2.46875 L 11.515625 -2.4375 C 12.710938 -2.4375 13.628906 -2.773438 14.265625 -3.453125 C 14.910156 -4.140625 15.234375 -4.953125 15.234375 -5.890625 C 15.234375 -6.972656 14.84375 -7.910156 14.0625 -8.703125 C 13.28125 -9.492188 12.304688 -9.898438 11.140625 -9.921875 L 8.421875 -9.921875 L 8.421875 -2.71875 Z M 10.96875 -2.46875 "/></g></g></g><g fill="#ffffff" fill-opacity="1"><g transform="translate(128.191818, 282.581173)"><g><path d="M 10.6875 -21.703125 C 13.738281 -21.703125 16.242188 -20.640625 18.203125 -18.515625 C 20.171875 -16.390625 21.15625 -13.628906 21.15625 -10.234375 C 21.15625 -6.972656 20.195312 -4.34375 18.28125 -2.34375 C 16.375 -0.351562 13.925781 0.640625 10.9375 0.640625 C 7.875 0.640625 5.359375 -0.367188 3.390625 -2.390625 C 1.429688 -4.421875 0.453125 -7.09375 0.453125 -10.40625 C 0.453125 -13.726562 1.414062 -16.441406 3.34375 -18.546875 C 5.269531 -20.648438 7.71875 -21.703125 10.6875 -21.703125 Z M 7.9375 -18.4375 C 7.226562 -17.832031 6.65625 -16.859375 6.21875 -15.515625 C 5.78125 -14.171875 5.5625 -12.65625 5.5625 -10.96875 C 5.5625 -8.394531 6.070312 -6.285156 7.09375 -4.640625 C 8.125 -2.992188 9.585938 -2.171875 11.484375 -2.171875 C 11.972656 -2.171875 12.582031 -2.269531 13.3125 -2.46875 C 14.125 -3.101562 14.773438 -4.113281 15.265625 -5.5 C 15.753906 -6.882812 16 -8.429688 16 -10.140625 C 16 -12.722656 15.472656 -14.820312 14.421875 -16.4375 C 13.378906 -18.0625 11.992188 -18.875 10.265625 -18.875 C 9.546875 -18.875 8.769531 -18.726562 7.9375 -18.4375 Z M 7.9375 -18.4375 "/></g></g></g><g fill="#ffffff" fill-opacity="1"><g transform="translate(149.786509, 282.581173)"><g><path d="M 21.859375 -1.625 L 21.828125 0 L 15.421875 0 L 11.078125 -8.15625 L 8.421875 -8.125 L 8.421875 -2.046875 L 11.296875 -1.625 L 11.265625 0 L 1.03125 0 L 0.828125 -1.03125 C 1.453125 -1.425781 2.359375 -1.863281 3.546875 -2.34375 L 3.546875 -19.140625 L 1.1875 -19.421875 L 1.21875 -21.0625 L 11.421875 -21.3125 C 13.878906 -21.3125 15.890625 -20.691406 17.453125 -19.453125 C 19.023438 -18.210938 19.8125 -16.664062 19.8125 -14.8125 C 19.8125 -13.550781 19.425781 -12.382812 18.65625 -11.3125 C 17.882812 -10.238281 16.835938 -9.421875 15.515625 -8.859375 L 19.8125 -1.890625 Z M 8.421875 -10.8125 C 9.140625 -10.664062 9.832031 -10.59375 10.5 -10.59375 C 12.007812 -10.59375 13.097656 -10.972656 13.765625 -11.734375 C 14.441406 -12.503906 14.78125 -13.5 14.78125 -14.71875 C 14.78125 -16.59375 14.140625 -17.957031 12.859375 -18.8125 L 8.421875 -18.34375 Z M 8.421875 -10.8125 "/></g></g></g><g fill="#ffffff" fill-opacity="1"><g transform="translate(171.925069, 282.581173)"><g><path d="M 18.234375 -2.296875 L 11.6875 0.515625 C 9.0625 0.597656 6.898438 0.128906 5.203125 -0.890625 C 3.503906 -1.921875 2.269531 -3.257812 1.5 -4.90625 C 0.738281 -6.5625 0.359375 -8.347656 0.359375 -10.265625 C 0.359375 -12.234375 0.757812 -14.09375 1.5625 -15.84375 C 2.375 -17.59375 3.585938 -19.003906 5.203125 -20.078125 C 6.828125 -21.160156 8.796875 -21.703125 11.109375 -21.703125 C 13.578125 -21.703125 15.773438 -21.03125 17.703125 -19.6875 C 17.742188 -19 17.695312 -18.078125 17.5625 -16.921875 C 17.4375 -15.773438 17.242188 -14.773438 16.984375 -13.921875 L 14.046875 -13.921875 L 13.28125 -17.921875 C 11.8125 -18.554688 10.203125 -18.875 8.453125 -18.875 C 7.398438 -18.09375 6.613281 -16.984375 6.09375 -15.546875 C 5.570312 -14.117188 5.3125 -12.617188 5.3125 -11.046875 C 5.3125 -8.503906 5.929688 -6.484375 7.171875 -4.984375 C 8.410156 -3.492188 10.082031 -2.78125 12.1875 -2.84375 L 17.46875 -4.578125 Z M 18.234375 -2.296875 "/></g></g></g><g fill="#ffffff" fill-opacity="1"><g transform="translate(190.54449, 282.581173)"><g><path d="M 18.140625 -6.375 C 18.179688 -4.28125 18.054688 -2.15625 17.765625 0 L 1.03125 0 L 0.828125 -1.03125 C 1.453125 -1.425781 2.359375 -1.863281 3.546875 -2.34375 L 3.546875 -19.140625 L 1.1875 -19.421875 L 1.21875 -21.0625 L 17.921875 -21.0625 C 18.023438 -19.3125 17.851562 -17.28125 17.40625 -14.96875 L 14.71875 -14.96875 L 14.171875 -18.140625 L 8.421875 -18.5625 L 8.421875 -11.6875 L 15.296875 -12.21875 L 15.296875 -8.984375 L 8.421875 -9.28125 L 8.421875 -2.65625 L 14.40625 -3.078125 L 15.453125 -6.5625 Z M 18.140625 -6.375 "/></g></g></g><g fill="#ffffff" fill-opacity="1"><g transform="translate(210.283636, 282.581173)"><g><path d="M 18.84375 -6.203125 C 18.84375 -3.648438 18.707031 -1.582031 18.4375 0 L 1.03125 0 L 0.828125 -1.03125 C 1.453125 -1.425781 2.359375 -1.863281 3.546875 -2.34375 L 3.546875 -19.078125 L 1.09375 -19.421875 L 1.125 -21.0625 L 10.90625 -21.0625 L 11.109375 -20.03125 C 10.316406 -19.5625 9.421875 -19.125 8.421875 -18.71875 L 8.421875 -2.6875 L 14.8125 -3.203125 L 16.0625 -7.609375 L 18.84375 -7.359375 Z M 18.84375 -6.203125 "/></g></g></g><g fill="#ffffff" fill-opacity="1"><g transform="translate(229.350945, 282.581173)"><g><path d="M 18.84375 -6.203125 C 18.84375 -3.648438 18.707031 -1.582031 18.4375 0 L 1.03125 0 L 0.828125 -1.03125 C 1.453125 -1.425781 2.359375 -1.863281 3.546875 -2.34375 L 3.546875 -19.078125 L 1.09375 -19.421875 L 1.125 -21.0625 L 10.90625 -21.0625 L 11.109375 -20.03125 C 10.316406 -19.5625 9.421875 -19.125 8.421875 -18.71875 L 8.421875 -2.6875 L 14.8125 -3.203125 L 16.0625 -7.609375 L 18.84375 -7.359375 Z M 18.84375 -6.203125 "/></g></g></g><g fill="#ffffff" fill-opacity="1"><g transform="translate(248.418254, 282.581173)"><g><path d="M 18.140625 -6.375 C 18.179688 -4.28125 18.054688 -2.15625 17.765625 0 L 1.03125 0 L 0.828125 -1.03125 C 1.453125 -1.425781 2.359375 -1.863281 3.546875 -2.34375 L 3.546875 -19.140625 L 1.1875 -19.421875 L 1.21875 -21.0625 L 17.921875 -21.0625 C 18.023438 -19.3125 17.851562 -17.28125 17.40625 -14.96875 L 14.71875 -14.96875 L 14.171875 -18.140625 L 8.421875 -18.5625 L 8.421875 -11.6875 L 15.296875 -12.21875 L 15.296875 -8.984375 L 8.421875 -9.28125 L 8.421875 -2.65625 L 14.40625 -3.078125 L 15.453125 -6.5625 Z M 18.140625 -6.375 "/></g></g></g><g fill="#ffffff" fill-opacity="1"><g transform="translate(135.557403, 296.381169)"><g><path d="M 5.46875 -0.40625 L 5.453125 0 L 3.859375 0 L 2.765625 -2.046875 L 2.109375 -2.03125 L 2.109375 -0.515625 L 2.828125 -0.40625 L 2.8125 0 L 0.25 0 L 0.203125 -0.25 C 0.359375 -0.351562 0.585938 -0.460938 0.890625 -0.578125 L 0.890625 -4.78125 L 0.296875 -4.859375 L 0.296875 -5.265625 L 2.859375 -5.328125 C 3.472656 -5.328125 3.972656 -5.171875 4.359375 -4.859375 C 4.753906 -4.554688 4.953125 -4.171875 4.953125 -3.703125 C 4.953125 -3.390625 4.851562 -3.097656 4.65625 -2.828125 C 4.46875 -2.554688 4.207031 -2.351562 3.875 -2.21875 L 4.953125 -0.46875 Z M 2.109375 -2.703125 C 2.285156 -2.660156 2.457031 -2.640625 2.625 -2.640625 C 3 -2.640625 3.269531 -2.734375 3.4375 -2.921875 C 3.613281 -3.117188 3.703125 -3.375 3.703125 -3.6875 C 3.703125 -4.15625 3.539062 -4.492188 3.21875 -4.703125 L 2.109375 -4.578125 Z M 2.109375 -2.703125 "/></g></g></g><g fill="#ffffff" fill-opacity="1"><g transform="translate(143.397468, 296.381169)"><g><path d="M 3.265625 -1.90625 L 1.21875 -1.921875 C 1.238281 -1.535156 1.359375 -1.234375 1.578125 -1.015625 C 1.804688 -0.796875 2.097656 -0.6875 2.453125 -0.6875 C 2.734375 -0.6875 3.070312 -0.78125 3.46875 -0.96875 L 3.640625 -0.546875 L 2.390625 0.109375 L 2.125 0.125 C 1.539062 0.125 1.054688 -0.0546875 0.671875 -0.421875 C 0.296875 -0.796875 0.109375 -1.269531 0.109375 -1.84375 C 0.109375 -2.445312 0.300781 -2.953125 0.6875 -3.359375 C 1.070312 -3.765625 1.539062 -3.96875 2.09375 -3.96875 C 2.570312 -3.96875 2.960938 -3.816406 3.265625 -3.515625 C 3.578125 -3.222656 3.734375 -2.84375 3.734375 -2.375 Z M 1.8125 -3.359375 C 1.53125 -3.203125 1.347656 -2.910156 1.265625 -2.484375 L 2.65625 -2.546875 C 2.613281 -2.773438 2.515625 -2.96875 2.359375 -3.125 C 2.203125 -3.28125 2.019531 -3.359375 1.8125 -3.359375 Z M 1.8125 -3.359375 "/></g></g></g><g fill="#ffffff" fill-opacity="1"><g transform="translate(149.573516, 296.381169)"><g><path d="M 1.34375 -3.015625 C 1.34375 -2.898438 1.378906 -2.800781 1.453125 -2.71875 C 1.535156 -2.632812 1.785156 -2.488281 2.203125 -2.28125 C 2.628906 -2.070312 2.914062 -1.875 3.0625 -1.6875 C 3.21875 -1.507812 3.296875 -1.300781 3.296875 -1.0625 C 3.296875 -0.695312 3.148438 -0.398438 2.859375 -0.171875 C 2.578125 0.046875 2.207031 0.15625 1.75 0.15625 C 1.21875 0.15625 0.6875 0.015625 0.15625 -0.265625 L 0.5625 -1.203125 C 1.050781 -0.835938 1.546875 -0.585938 2.046875 -0.453125 C 2.160156 -0.546875 2.21875 -0.664062 2.21875 -0.8125 C 2.21875 -0.9375 2.164062 -1.039062 2.0625 -1.125 C 1.96875 -1.21875 1.71875 -1.363281 1.3125 -1.5625 C 0.914062 -1.757812 0.644531 -1.945312 0.5 -2.125 C 0.351562 -2.3125 0.28125 -2.519531 0.28125 -2.75 C 0.28125 -3.113281 0.4375 -3.40625 0.75 -3.625 C 1.070312 -3.851562 1.476562 -3.96875 1.96875 -3.96875 C 2.425781 -3.96875 2.816406 -3.882812 3.140625 -3.71875 L 3.140625 -3.484375 C 3.140625 -3.179688 3.097656 -2.894531 3.015625 -2.625 L 2.390625 -2.625 L 2.203125 -3.328125 C 1.992188 -3.378906 1.804688 -3.398438 1.640625 -3.390625 C 1.441406 -3.316406 1.34375 -3.191406 1.34375 -3.015625 Z M 1.34375 -3.015625 "/></g></g></g><g fill="#ffffff" fill-opacity="1"><g transform="translate(155.445557, 296.381169)"><g><path d="M 2.109375 -0.78125 C 2.253906 -0.78125 2.476562 -0.8125 2.78125 -0.875 L 2.859375 -0.484375 L 1.625 0.125 C 1.394531 0.132812 1.175781 0.0546875 0.96875 -0.109375 C 0.757812 -0.273438 0.65625 -0.457031 0.65625 -0.65625 L 0.65625 -2.96875 L 0.09375 -2.96875 L 0.0625 -3.390625 C 0.269531 -3.523438 0.488281 -3.648438 0.71875 -3.765625 L 1.109375 -4.8125 L 1.65625 -4.8125 L 1.796875 -3.765625 L 2.890625 -3.765625 L 2.90625 -3.421875 L 2.515625 -2.953125 L 1.8125 -2.953125 L 1.8125 -1.140625 C 1.8125 -1.003906 1.832031 -0.910156 1.875 -0.859375 C 1.914062 -0.804688 1.992188 -0.78125 2.109375 -0.78125 Z M 2.109375 -0.78125 "/></g></g></g><g fill="#ffffff" fill-opacity="1"><g transform="translate(160.805594, 296.381169)"><g><path d="M 4.28125 -0.390625 L 3.296875 0.125 C 3.171875 0.125 3.039062 0.0703125 2.90625 -0.03125 C 2.769531 -0.144531 2.660156 -0.285156 2.578125 -0.453125 L 1.703125 0.109375 L 1.453125 0.125 C 1.117188 0.125 0.84375 0.0234375 0.625 -0.171875 C 0.40625 -0.367188 0.296875 -0.609375 0.296875 -0.890625 C 0.296875 -1.273438 0.503906 -1.578125 0.921875 -1.796875 L 2.453125 -1.84375 L 2.453125 -2.546875 C 2.453125 -2.972656 2.328125 -3.25 2.078125 -3.375 C 1.828125 -3.351562 1.625 -3.316406 1.46875 -3.265625 L 1.328125 -2.40625 L 0.65625 -2.375 C 0.539062 -2.664062 0.484375 -2.988281 0.484375 -3.34375 L 0.484375 -3.5 C 0.773438 -3.632812 1.125 -3.75 1.53125 -3.84375 C 1.945312 -3.9375 2.265625 -3.984375 2.484375 -3.984375 C 2.679688 -3.984375 2.875 -3.929688 3.0625 -3.828125 C 3.25 -3.722656 3.398438 -3.585938 3.515625 -3.421875 C 3.578125 -3.316406 3.609375 -3.113281 3.609375 -2.8125 L 3.609375 -0.890625 C 3.609375 -0.765625 3.675781 -0.703125 3.8125 -0.703125 L 4.203125 -0.75 Z M 1.625 -0.59375 C 1.832031 -0.59375 2.109375 -0.660156 2.453125 -0.796875 L 2.453125 -1.375 L 2.25 -1.375 C 1.71875 -1.375 1.453125 -1.226562 1.453125 -0.9375 C 1.453125 -0.800781 1.507812 -0.6875 1.625 -0.59375 Z M 1.625 -0.59375 "/></g></g></g><g fill="#ffffff" fill-opacity="1"><g transform="translate(167.461645, 296.381169)"><g><path d="M 4.84375 -0.390625 L 3.859375 0.125 C 3.722656 0.125 3.582031 0.0625 3.4375 -0.0625 C 3.289062 -0.195312 3.179688 -0.351562 3.109375 -0.53125 C 2.640625 -0.207031 2.1875 0.0078125 1.75 0.125 C 1.582031 0.113281 1.40625 0.0625 1.21875 -0.03125 C 1.03125 -0.132812 0.882812 -0.269531 0.78125 -0.4375 C 0.695312 -0.550781 0.65625 -0.800781 0.65625 -1.1875 L 0.65625 -3.21875 L 0.0625 -3.28125 L 0 -3.671875 C 0.457031 -3.847656 0.929688 -3.941406 1.421875 -3.953125 L 1.8125 -3.59375 L 1.8125 -1.40625 C 1.8125 -0.945312 1.984375 -0.71875 2.328125 -0.71875 C 2.515625 -0.71875 2.742188 -0.78125 3.015625 -0.90625 L 3.015625 -3.21875 L 2.515625 -3.296875 L 2.453125 -3.6875 C 2.847656 -3.84375 3.289062 -3.929688 3.78125 -3.953125 L 4.171875 -3.59375 L 4.171875 -0.90625 C 4.171875 -0.769531 4.238281 -0.703125 4.375 -0.703125 L 4.78125 -0.75 Z M 4.84375 -0.390625 "/></g></g></g><g fill="#ffffff" fill-opacity="1"><g transform="translate(174.661705, 296.381169)"><g><path d="M 2.6875 -3.84375 C 2.8125 -3.882812 2.945312 -3.90625 3.09375 -3.90625 C 3.363281 -3.90625 3.585938 -3.828125 3.765625 -3.671875 C 3.734375 -3.085938 3.632812 -2.582031 3.46875 -2.15625 L 2.859375 -2.15625 L 2.703125 -3.0625 C 2.398438 -2.84375 2.128906 -2.582031 1.890625 -2.28125 L 1.890625 -0.65625 C 2.265625 -0.582031 2.550781 -0.492188 2.75 -0.390625 L 2.71875 0 L 0.15625 0 L 0.140625 -0.265625 C 0.285156 -0.359375 0.484375 -0.445312 0.734375 -0.53125 L 0.734375 -3.21875 L 0.125 -3.28125 L 0.078125 -3.671875 C 0.535156 -3.847656 1.007812 -3.941406 1.5 -3.953125 L 1.890625 -3.59375 L 1.890625 -2.9375 Z M 2.6875 -3.84375 "/></g></g></g><g fill="#ffffff" fill-opacity="1"><g transform="translate(180.741753, 296.381169)"><g><path d="M 4.28125 -0.390625 L 3.296875 0.125 C 3.171875 0.125 3.039062 0.0703125 2.90625 -0.03125 C 2.769531 -0.144531 2.660156 -0.285156 2.578125 -0.453125 L 1.703125 0.109375 L 1.453125 0.125 C 1.117188 0.125 0.84375 0.0234375 0.625 -0.171875 C 0.40625 -0.367188 0.296875 -0.609375 0.296875 -0.890625 C 0.296875 -1.273438 0.503906 -1.578125 0.921875 -1.796875 L 2.453125 -1.84375 L 2.453125 -2.546875 C 2.453125 -2.972656 2.328125 -3.25 2.078125 -3.375 C 1.828125 -3.351562 1.625 -3.316406 1.46875 -3.265625 L 1.328125 -2.40625 L 0.65625 -2.375 C 0.539062 -2.664062 0.484375 -2.988281 0.484375 -3.34375 L 0.484375 -3.5 C 0.773438 -3.632812 1.125 -3.75 1.53125 -3.84375 C 1.945312 -3.9375 2.265625 -3.984375 2.484375 -3.984375 C 2.679688 -3.984375 2.875 -3.929688 3.0625 -3.828125 C 3.25 -3.722656 3.398438 -3.585938 3.515625 -3.421875 C 3.578125 -3.316406 3.609375 -3.113281 3.609375 -2.8125 L 3.609375 -0.890625 C 3.609375 -0.765625 3.675781 -0.703125 3.8125 -0.703125 L 4.203125 -0.75 Z M 1.625 -0.59375 C 1.832031 -0.59375 2.109375 -0.660156 2.453125 -0.796875 L 2.453125 -1.375 L 2.25 -1.375 C 1.71875 -1.375 1.453125 -1.226562 1.453125 -0.9375 C 1.453125 -0.800781 1.507812 -0.6875 1.625 -0.59375 Z M 1.625 -0.59375 "/></g></g></g><g fill="#ffffff" fill-opacity="1"><g transform="translate(187.397804, 296.381169)"><g><path d="M 4.3125 -0.625 C 4.582031 -0.539062 4.773438 -0.460938 4.890625 -0.390625 L 4.859375 0 L 2.75 0 L 2.71875 -0.265625 L 3.15625 -0.46875 L 3.15625 -2.3125 C 3.15625 -2.832031 2.984375 -3.09375 2.640625 -3.09375 C 2.472656 -3.09375 2.222656 -3 1.890625 -2.8125 L 1.890625 -0.609375 C 2.078125 -0.546875 2.238281 -0.472656 2.375 -0.390625 L 2.34375 0 L 0.171875 0 L 0.140625 -0.265625 C 0.285156 -0.347656 0.484375 -0.4375 0.734375 -0.53125 L 0.734375 -3.21875 L 0.125 -3.28125 L 0.078125 -3.671875 C 0.535156 -3.847656 1.007812 -3.941406 1.5 -3.953125 L 1.890625 -3.5625 L 1.890625 -3.203125 C 2.429688 -3.597656 2.878906 -3.835938 3.234375 -3.921875 C 3.484375 -3.910156 3.710938 -3.828125 3.921875 -3.671875 C 4.140625 -3.523438 4.265625 -3.335938 4.296875 -3.109375 L 4.3125 -2.640625 Z M 4.3125 -0.625 "/></g></g></g><g fill="#ffffff" fill-opacity="1"><g transform="translate(194.685866, 296.381169)"><g><path d="M 2.109375 -0.78125 C 2.253906 -0.78125 2.476562 -0.8125 2.78125 -0.875 L 2.859375 -0.484375 L 1.625 0.125 C 1.394531 0.132812 1.175781 0.0546875 0.96875 -0.109375 C 0.757812 -0.273438 0.65625 -0.457031 0.65625 -0.65625 L 0.65625 -2.96875 L 0.09375 -2.96875 L 0.0625 -3.390625 C 0.269531 -3.523438 0.488281 -3.648438 0.71875 -3.765625 L 1.109375 -4.8125 L 1.65625 -4.8125 L 1.796875 -3.765625 L 2.890625 -3.765625 L 2.90625 -3.421875 L 2.515625 -2.953125 L 1.8125 -2.953125 L 1.8125 -1.140625 C 1.8125 -1.003906 1.832031 -0.910156 1.875 -0.859375 C 1.914062 -0.804688 1.992188 -0.78125 2.109375 -0.78125 Z M 2.109375 -0.78125 "/></g></g></g><g fill="#ffffff" fill-opacity="1"><g transform="translate(200.045903, 296.381169)"><g/></g></g><g fill="#ffffff" fill-opacity="1"><g transform="translate(204.469933, 296.381169)"><g><path d="M 5.484375 -2.53125 C 5.085938 -2.769531 4.753906 -2.894531 4.484375 -2.90625 C 4.671875 -2.550781 4.765625 -2.175781 4.765625 -1.78125 C 4.765625 -1.1875 4.550781 -0.703125 4.125 -0.328125 C 3.707031 0.0351562 3.15625 0.21875 2.46875 0.21875 C 1.789062 0.21875 1.226562 0.046875 0.78125 -0.296875 C 0.34375 -0.640625 0.125 -1.070312 0.125 -1.59375 C 0.125 -1.90625 0.203125 -2.175781 0.359375 -2.40625 C 0.523438 -2.632812 0.738281 -2.804688 1 -2.921875 C 0.53125 -3.160156 0.296875 -3.515625 0.296875 -3.984375 C 0.296875 -4.367188 0.460938 -4.691406 0.796875 -4.953125 C 1.140625 -5.210938 1.585938 -5.34375 2.140625 -5.34375 C 2.679688 -5.34375 3.21875 -5.234375 3.75 -5.015625 L 3.390625 -4.046875 L 1.890625 -4.625 C 1.734375 -4.550781 1.609375 -4.441406 1.515625 -4.296875 C 1.429688 -4.148438 1.390625 -3.992188 1.390625 -3.828125 C 1.390625 -3.566406 1.476562 -3.347656 1.65625 -3.171875 L 2.5 -2.890625 L 2.390625 -2.375 C 2.035156 -2.375 1.753906 -2.28125 1.546875 -2.09375 C 1.335938 -1.914062 1.234375 -1.691406 1.234375 -1.421875 C 1.234375 -1.117188 1.347656 -0.882812 1.578125 -0.71875 C 1.816406 -0.550781 2.109375 -0.46875 2.453125 -0.46875 C 2.753906 -0.46875 3.023438 -0.523438 3.265625 -0.640625 C 3.597656 -0.878906 3.765625 -1.238281 3.765625 -1.71875 C 3.765625 -2.039062 3.679688 -2.347656 3.515625 -2.640625 L 3.03125 -2.359375 L 2.75 -2.859375 C 3.738281 -3.453125 4.472656 -3.75 4.953125 -3.75 C 5.253906 -3.75 5.523438 -3.644531 5.765625 -3.4375 Z M 5.484375 -2.53125 "/></g></g></g><g fill="#ffffff" fill-opacity="1"><g transform="translate(212.285991, 296.381169)"><g/></g></g><g fill="#ffffff" fill-opacity="1"><g transform="translate(216.710021, 296.381169)"><g><path d="M 4.5625 -0.578125 L 2.921875 0.125 C 2.265625 0.144531 1.722656 0.03125 1.296875 -0.21875 C 0.867188 -0.476562 0.5625 -0.8125 0.375 -1.21875 C 0.1875 -1.632812 0.09375 -2.082031 0.09375 -2.5625 C 0.09375 -3.050781 0.191406 -3.515625 0.390625 -3.953125 C 0.597656 -4.390625 0.898438 -4.742188 1.296875 -5.015625 C 1.703125 -5.285156 2.195312 -5.421875 2.78125 -5.421875 C 3.394531 -5.421875 3.941406 -5.253906 4.421875 -4.921875 C 4.429688 -4.742188 4.421875 -4.507812 4.390625 -4.21875 C 4.359375 -3.9375 4.3125 -3.691406 4.25 -3.484375 L 3.515625 -3.484375 L 3.3125 -4.484375 C 2.945312 -4.640625 2.546875 -4.71875 2.109375 -4.71875 C 1.847656 -4.519531 1.648438 -4.242188 1.515625 -3.890625 C 1.390625 -3.535156 1.328125 -3.160156 1.328125 -2.765625 C 1.328125 -2.128906 1.476562 -1.625 1.78125 -1.25 C 2.09375 -0.875 2.515625 -0.695312 3.046875 -0.71875 L 4.375 -1.140625 Z M 4.5625 -0.578125 "/></g></g></g><g fill="#ffffff" fill-opacity="1"><g transform="translate(223.670074, 296.381169)"><g><path d="M 4.28125 -0.390625 L 3.296875 0.125 C 3.171875 0.125 3.039062 0.0703125 2.90625 -0.03125 C 2.769531 -0.144531 2.660156 -0.285156 2.578125 -0.453125 L 1.703125 0.109375 L 1.453125 0.125 C 1.117188 0.125 0.84375 0.0234375 0.625 -0.171875 C 0.40625 -0.367188 0.296875 -0.609375 0.296875 -0.890625 C 0.296875 -1.273438 0.503906 -1.578125 0.921875 -1.796875 L 2.453125 -1.84375 L 2.453125 -2.546875 C 2.453125 -2.972656 2.328125 -3.25 2.078125 -3.375 C 1.828125 -3.351562 1.625 -3.316406 1.46875 -3.265625 L 1.328125 -2.40625 L 0.65625 -2.375 C 0.539062 -2.664062 0.484375 -2.988281 0.484375 -3.34375 L 0.484375 -3.5 C 0.773438 -3.632812 1.125 -3.75 1.53125 -3.84375 C 1.945312 -3.9375 2.265625 -3.984375 2.484375 -3.984375 C 2.679688 -3.984375 2.875 -3.929688 3.0625 -3.828125 C 3.25 -3.722656 3.398438 -3.585938 3.515625 -3.421875 C 3.578125 -3.316406 3.609375 -3.113281 3.609375 -2.8125 L 3.609375 -0.890625 C 3.609375 -0.765625 3.675781 -0.703125 3.8125 -0.703125 L 4.203125 -0.75 Z M 1.625 -0.59375 C 1.832031 -0.59375 2.109375 -0.660156 2.453125 -0.796875 L 2.453125 -1.375 L 2.25 -1.375 C 1.71875 -1.375 1.453125 -1.226562 1.453125 -0.9375 C 1.453125 -0.800781 1.507812 -0.6875 1.625 -0.59375 Z M 1.625 -0.59375 "/></g></g></g><g fill="#ffffff" fill-opacity="1"><g transform="translate(230.32612, 296.381169)"><g><path d="M 1.828125 -2.953125 L 1.828125 -0.65625 C 2.117188 -0.582031 2.359375 -0.492188 2.546875 -0.390625 L 2.515625 0 L 0.140625 0 L 0.125 -0.265625 C 0.25 -0.347656 0.425781 -0.429688 0.65625 -0.515625 L 0.65625 -2.96875 L 0.109375 -2.96875 L 0.078125 -3.390625 C 0.265625 -3.503906 0.457031 -3.601562 0.65625 -3.6875 L 0.65625 -4.375 C 0.65625 -4.84375 0.800781 -5.234375 1.09375 -5.546875 C 1.394531 -5.859375 1.757812 -6.015625 2.1875 -6.015625 C 2.582031 -6.015625 2.945312 -5.878906 3.28125 -5.609375 L 2.640625 -4.59375 C 2.296875 -4.9375 1.898438 -5.132812 1.453125 -5.1875 L 1.828125 -3.765625 L 2.71875 -3.765625 L 2.734375 -3.4375 L 2.328125 -2.953125 Z M 1.828125 -2.953125 "/></g></g></g><g fill="#ffffff" fill-opacity="1"><g transform="translate(235.55815, 296.381169)"><g><path d="M 3.265625 -1.90625 L 1.21875 -1.921875 C 1.238281 -1.535156 1.359375 -1.234375 1.578125 -1.015625 C 1.804688 -0.796875 2.097656 -0.6875 2.453125 -0.6875 C 2.734375 -0.6875 3.070312 -0.78125 3.46875 -0.96875 L 3.640625 -0.546875 L 2.390625 0.109375 L 2.125 0.125 C 1.539062 0.125 1.054688 -0.0546875 0.671875 -0.421875 C 0.296875 -0.796875 0.109375 -1.269531 0.109375 -1.84375 C 0.109375 -2.445312 0.300781 -2.953125 0.6875 -3.359375 C 1.070312 -3.765625 1.539062 -3.96875 2.09375 -3.96875 C 2.570312 -3.96875 2.960938 -3.816406 3.265625 -3.515625 C 3.578125 -3.222656 3.734375 -2.84375 3.734375 -2.375 Z M 1.8125 -3.359375 C 1.53125 -3.203125 1.347656 -2.910156 1.265625 -2.484375 L 2.65625 -2.546875 C 2.613281 -2.773438 2.515625 -2.96875 2.359375 -3.125 C 2.203125 -3.28125 2.019531 -3.359375 1.8125 -3.359375 Z M 1.8125 -3.359375 "/></g></g></g></svg>