<svg xmlns="http://www.w3.org/2000/svg" xmlns:xlink="http://www.w3.org/1999/xlink" width="500" zoomAndPan="magnify" viewBox="0 0 375 374.999991" height="500" preserveAspectRatio="xMidYMid meet" version="1.0"><defs><g/><clipPath id="65388673c6"><path d="M 96.363281 99.742188 L 235.113281 99.742188 L 235.113281 209.992188 L 96.363281 209.992188 Z M 96.363281 99.742188 " clip-rule="nonzero"/></clipPath></defs><rect x="-37.5" width="450" fill="#ffffff" y="-37.499999" height="449.999989" fill-opacity="1"/><rect x="-37.5" width="450" fill="#ffffff" y="-37.499999" height="449.999989" fill-opacity="1"/><g clip-path="url(#65388673c6)"><path fill="#442a00" d="M 123.449219 131.308594 C 120 131.570312 111.582031 132.726562 105.105469 137.933594 C 100.253906 141.832031 96.394531 147.90625 96.363281 157.441406 C 96.335938 166.691406 100.460938 172.496094 105.59375 176.175781 C 111.398438 180.34375 118.644531 181.601562 122.4375 181.980469 C 123.1875 184.535156 123.703125 187.75 123.914062 191.246094 C 124.144531 195.046875 124.007812 199.171875 123.351562 203.15625 L 122.265625 209.773438 L 128.367188 206.996094 C 135.007812 203.9375 147.414062 201.40625 160.441406 201.558594 C 163.710938 201.597656 167.015625 201.828125 170.304688 202.167969 C 172.503906 202.390625 174.675781 202.632812 176.847656 202.96875 C 179.636719 203.402344 182.324219 203.910156 185.003906 204.621094 C 187.835938 205.371094 190.492188 206.152344 193.125 207.355469 C 191.101562 205.316406 188.996094 203.535156 186.554688 201.957031 C 184.144531 200.402344 181.574219 199.175781 178.855469 198.109375 C 176.714844 197.269531 174.515625 196.609375 172.257812 196.082031 C 170.769531 195.730469 169.257812 195.480469 167.738281 195.277344 C 161.980469 194.5 156.148438 194.496094 150.652344 194.871094 C 143.226562 195.382812 136.40625 196.730469 131.078125 198.375 C 131.230469 195.800781 131.222656 193.246094 131.074219 190.808594 C 130.742188 185.378906 129.707031 180.519531 128.328125 177.203125 L 127.414062 174.996094 L 125.027344 174.996094 C 125.027344 174.996094 116.226562 175.042969 109.703125 170.414062 C 106.140625 167.882812 103.351562 163.84375 103.332031 157.441406 C 103.308594 150.554688 105.933594 146.09375 109.414062 143.253906 C 114.234375 139.324219 120.464844 138.289062 123.382812 138.015625 C 123.464844 138.980469 123.585938 139.9375 123.746094 140.875 C 125.039062 148.394531 128.660156 154.789062 133.867188 157.953125 C 129.640625 154.132812 127.527344 147.671875 127.460938 140.542969 C 127.40625 134.71875 128.871094 128.539062 132.015625 123.035156 C 133.714844 120.058594 135.957031 117.351562 138.71875 114.992188 C 144.085938 110.410156 151.589844 107.371094 161.753906 107.488281 C 172.761719 107.558594 180.121094 110.890625 184.996094 115.441406 C 194.59375 124.394531 194.59375 137.707031 194.59375 137.707031 L 194.59375 142.113281 L 198.972656 141.589844 C 198.972656 141.589844 210.464844 140.136719 219.15625 144.898438 C 224.003906 147.550781 227.828125 152.339844 227.863281 160.738281 C 227.925781 168.765625 225.054688 173.402344 221.089844 175.949219 C 217.828125 178.042969 213.984375 178.765625 210.726562 179.074219 C 207.621094 179.367188 205.003906 179.273438 203.792969 179.199219 C 203.972656 178.953125 204.140625 178.695312 204.300781 178.4375 C 205.164062 177.035156 205.839844 175.527344 206.28125 173.910156 C 206.601562 172.734375 206.839844 171.558594 206.898438 170.308594 C 207.023438 167.664062 206.632812 165.054688 205.621094 162.257812 C 205.527344 163.828125 205.25 165.210938 204.894531 166.625 C 204.363281 168.753906 203.488281 170.566406 202.464844 172.347656 C 201.796875 173.503906 201.015625 174.546875 200.207031 175.578125 C 199.671875 176.261719 199.101562 176.914062 198.539062 177.570312 C 197.082031 179.269531 195.535156 180.851562 193.703125 182.15625 C 190.761719 184.25 187.558594 185.835938 183.921875 186.433594 C 187.855469 187.082031 191.746094 186.714844 195.414062 185.375 C 196.710938 184.898438 197.925781 184.277344 199.082031 183.542969 C 198.554688 185.9375 198.28125 188.402344 198.328125 190.96875 C 198.40625 195.628906 199.308594 200.355469 200.410156 205.277344 C 200.683594 200.398438 201.222656 195.785156 202.238281 191.378906 C 202.722656 189.28125 203.332031 187.296875 204.148438 185.417969 C 205.816406 185.691406 208.296875 185.976562 211.140625 185.898438 C 215.460938 185.785156 220.542969 184.714844 224.910156 182.042969 C 230.640625 178.535156 235.300781 172.183594 235.390625 160.738281 C 235.433594 151.476562 232.023438 145.347656 227.34375 141.246094 C 219.6875 134.535156 208.132812 133.613281 202.074219 133.640625 C 201.289062 127.972656 198.722656 117.511719 190.328125 109.710938 C 184.316406 104.128906 175.328125 99.808594 161.785156 99.777344 C 151.433594 99.785156 143.320312 102.464844 137.253906 106.765625 C 135.28125 108.160156 133.515625 109.714844 131.984375 111.425781 C 129.601562 114.089844 127.710938 117.046875 126.347656 120.191406 C 124.789062 123.777344 123.828125 127.558594 123.449219 131.308594 Z M 123.449219 131.308594 " fill-opacity="1" fill-rule="evenodd"/></g><g fill="#442a00" fill-opacity="1"><g transform="translate(110.05823, 248.34265)"><g/></g></g><g fill="#442a00" fill-opacity="1"><g transform="translate(118.981799, 248.34265)"><g><path d="M 16.703125 -30.640625 C 16.316406 -30.640625 15.859375 -30.5625 15.328125 -30.40625 C 14.804688 -30.25 14.273438 -29.945312 13.734375 -29.5 C 13.191406 -29.0625 12.660156 -28.441406 12.140625 -27.640625 C 11.617188 -26.847656 11.148438 -25.816406 10.734375 -24.546875 C 10.316406 -23.273438 9.984375 -21.734375 9.734375 -19.921875 C 9.484375 -18.109375 9.359375 -15.96875 9.359375 -13.5 C 9.359375 -11.15625 9.484375 -9.117188 9.734375 -7.390625 C 9.984375 -5.671875 10.320312 -4.203125 10.75 -2.984375 C 11.175781 -1.773438 11.664062 -0.785156 12.21875 -0.015625 C 12.769531 0.742188 13.347656 1.335938 13.953125 1.765625 C 14.566406 2.203125 15.175781 2.5 15.78125 2.65625 C 16.394531 2.8125 16.972656 2.890625 17.515625 2.890625 C 18.078125 2.890625 18.644531 2.816406 19.21875 2.671875 C 19.800781 2.523438 20.367188 2.3125 20.921875 2.03125 C 21.484375 1.757812 22.019531 1.425781 22.53125 1.03125 C 23.050781 0.644531 23.53125 0.203125 23.96875 -0.296875 L 24.953125 0.671875 C 24.515625 1.210938 23.988281 1.757812 23.375 2.3125 C 22.769531 2.875 22.066406 3.382812 21.265625 3.84375 C 20.460938 4.300781 19.554688 4.671875 18.546875 4.953125 C 17.546875 5.242188 16.4375 5.390625 15.21875 5.390625 C 13.320312 5.390625 11.554688 5.023438 9.921875 4.296875 C 8.296875 3.578125 6.875 2.453125 5.65625 0.921875 C 4.445312 -0.609375 3.5 -2.566406 2.8125 -4.953125 C 2.125 -7.347656 1.78125 -10.210938 1.78125 -13.546875 C 1.78125 -16.679688 2.140625 -19.429688 2.859375 -21.796875 C 3.585938 -24.160156 4.578125 -26.132812 5.828125 -27.71875 C 7.078125 -29.3125 8.539062 -30.507812 10.21875 -31.3125 C 11.90625 -32.113281 13.695312 -32.515625 15.59375 -32.515625 C 16.851562 -32.515625 18 -32.394531 19.03125 -32.15625 C 20.070312 -31.914062 20.96875 -31.566406 21.71875 -31.109375 C 22.476562 -30.660156 23.0625 -30.097656 23.46875 -29.421875 C 23.882812 -28.742188 24.09375 -27.976562 24.09375 -27.125 C 24.09375 -26.726562 24.023438 -26.316406 23.890625 -25.890625 C 23.765625 -25.460938 23.566406 -25.070312 23.296875 -24.71875 C 23.035156 -24.363281 22.707031 -24.070312 22.3125 -23.84375 C 21.925781 -23.625 21.472656 -23.515625 20.953125 -23.515625 C 20.484375 -23.515625 20.117188 -23.613281 19.859375 -23.8125 C 19.609375 -24.019531 19.421875 -24.289062 19.296875 -24.625 C 19.179688 -24.957031 19.101562 -25.335938 19.0625 -25.765625 C 19.03125 -26.191406 19.003906 -26.628906 18.984375 -27.078125 C 18.972656 -27.523438 18.941406 -27.960938 18.890625 -28.390625 C 18.835938 -28.816406 18.734375 -29.195312 18.578125 -29.53125 C 18.429688 -29.863281 18.210938 -30.128906 17.921875 -30.328125 C 17.628906 -30.535156 17.222656 -30.640625 16.703125 -30.640625 Z M 16.703125 -30.640625 "/></g></g></g><g fill="#442a00" fill-opacity="1"><g transform="translate(142.137389, 248.34265)"><g><path d="M 1.328125 -11.140625 C 1.328125 -13.035156 1.601562 -14.695312 2.15625 -16.125 C 2.707031 -17.550781 3.441406 -18.742188 4.359375 -19.703125 C 5.285156 -20.660156 6.351562 -21.378906 7.5625 -21.859375 C 8.78125 -22.335938 10.054688 -22.578125 11.390625 -22.578125 C 12.734375 -22.578125 14.007812 -22.351562 15.21875 -21.90625 C 16.4375 -21.46875 17.503906 -20.789062 18.421875 -19.875 C 19.347656 -18.96875 20.085938 -17.8125 20.640625 -16.40625 C 21.191406 -15.007812 21.46875 -13.351562 21.46875 -11.4375 C 21.46875 -9.539062 21.191406 -7.859375 20.640625 -6.390625 C 20.085938 -4.929688 19.347656 -3.703125 18.421875 -2.703125 C 17.503906 -1.703125 16.4375 -0.941406 15.21875 -0.421875 C 14.007812 0.0859375 12.734375 0.34375 11.390625 0.34375 C 10.054688 0.34375 8.78125 0.101562 7.5625 -0.375 C 6.351562 -0.863281 5.285156 -1.585938 4.359375 -2.546875 C 3.441406 -3.503906 2.707031 -4.695312 2.15625 -6.125 C 1.601562 -7.5625 1.328125 -9.234375 1.328125 -11.140625 Z M 14.703125 -11.359375 C 14.703125 -12.515625 14.660156 -13.628906 14.578125 -14.703125 C 14.503906 -15.785156 14.347656 -16.75 14.109375 -17.59375 C 13.878906 -18.4375 13.546875 -19.109375 13.109375 -19.609375 C 12.679688 -20.109375 12.109375 -20.359375 11.390625 -20.359375 C 10.679688 -20.359375 10.109375 -20.09375 9.671875 -19.5625 C 9.242188 -19.03125 8.910156 -18.332031 8.671875 -17.46875 C 8.441406 -16.613281 8.289062 -15.632812 8.21875 -14.53125 C 8.144531 -13.425781 8.109375 -12.296875 8.109375 -11.140625 C 8.109375 -9.972656 8.144531 -8.832031 8.21875 -7.71875 C 8.289062 -6.613281 8.441406 -5.625 8.671875 -4.75 C 8.910156 -3.882812 9.242188 -3.1875 9.671875 -2.65625 C 10.109375 -2.132812 10.679688 -1.875 11.390625 -1.875 C 12.109375 -1.875 12.679688 -2.148438 13.109375 -2.703125 C 13.546875 -3.253906 13.878906 -3.976562 14.109375 -4.875 C 14.347656 -5.769531 14.503906 -6.78125 14.578125 -7.90625 C 14.660156 -9.039062 14.703125 -10.191406 14.703125 -11.359375 Z M 14.703125 -11.359375 "/></g></g></g><g fill="#442a00" fill-opacity="1"><g transform="translate(163.835943, 248.34265)"><g><path d="M 1.328125 -11.140625 C 1.328125 -13.035156 1.601562 -14.695312 2.15625 -16.125 C 2.707031 -17.550781 3.441406 -18.742188 4.359375 -19.703125 C 5.285156 -20.660156 6.351562 -21.378906 7.5625 -21.859375 C 8.78125 -22.335938 10.054688 -22.578125 11.390625 -22.578125 C 12.734375 -22.578125 14.007812 -22.351562 15.21875 -21.90625 C 16.4375 -21.46875 17.503906 -20.789062 18.421875 -19.875 C 19.347656 -18.96875 20.085938 -17.8125 20.640625 -16.40625 C 21.191406 -15.007812 21.46875 -13.351562 21.46875 -11.4375 C 21.46875 -9.539062 21.191406 -7.859375 20.640625 -6.390625 C 20.085938 -4.929688 19.347656 -3.703125 18.421875 -2.703125 C 17.503906 -1.703125 16.4375 -0.941406 15.21875 -0.421875 C 14.007812 0.0859375 12.734375 0.34375 11.390625 0.34375 C 10.054688 0.34375 8.78125 0.101562 7.5625 -0.375 C 6.351562 -0.863281 5.285156 -1.585938 4.359375 -2.546875 C 3.441406 -3.503906 2.707031 -4.695312 2.15625 -6.125 C 1.601562 -7.5625 1.328125 -9.234375 1.328125 -11.140625 Z M 14.703125 -11.359375 C 14.703125 -12.515625 14.660156 -13.628906 14.578125 -14.703125 C 14.503906 -15.785156 14.347656 -16.75 14.109375 -17.59375 C 13.878906 -18.4375 13.546875 -19.109375 13.109375 -19.609375 C 12.679688 -20.109375 12.109375 -20.359375 11.390625 -20.359375 C 10.679688 -20.359375 10.109375 -20.09375 9.671875 -19.5625 C 9.242188 -19.03125 8.910156 -18.332031 8.671875 -17.46875 C 8.441406 -16.613281 8.289062 -15.632812 8.21875 -14.53125 C 8.144531 -13.425781 8.109375 -12.296875 8.109375 -11.140625 C 8.109375 -9.972656 8.144531 -8.832031 8.21875 -7.71875 C 8.289062 -6.613281 8.441406 -5.625 8.671875 -4.75 C 8.910156 -3.882812 9.242188 -3.1875 9.671875 -2.65625 C 10.109375 -2.132812 10.679688 -1.875 11.390625 -1.875 C 12.109375 -1.875 12.679688 -2.148438 13.109375 -2.703125 C 13.546875 -3.253906 13.878906 -3.976562 14.109375 -4.875 C 14.347656 -5.769531 14.503906 -6.78125 14.578125 -7.90625 C 14.660156 -9.039062 14.703125 -10.191406 14.703125 -11.359375 Z M 14.703125 -11.359375 "/></g></g></g><g fill="#442a00" fill-opacity="1"><g transform="translate(185.534496, 248.34265)"><g><path d="M 9.4375 -16.65625 C 9.945312 -17.34375 10.488281 -18.035156 11.0625 -18.734375 C 11.644531 -19.441406 12.269531 -20.078125 12.9375 -20.640625 C 13.601562 -21.203125 14.328125 -21.664062 15.109375 -22.03125 C 15.898438 -22.394531 16.757812 -22.578125 17.6875 -22.578125 C 18.507812 -22.578125 19.195312 -22.410156 19.75 -22.078125 C 20.300781 -21.753906 20.742188 -21.363281 21.078125 -20.90625 C 21.421875 -20.457031 21.660156 -19.984375 21.796875 -19.484375 C 21.941406 -18.992188 22.015625 -18.578125 22.015625 -18.234375 C 22.015625 -17.585938 21.929688 -16.921875 21.765625 -16.234375 C 21.597656 -15.546875 21.3125 -14.863281 20.90625 -14.1875 C 20.507812 -13.519531 19.976562 -12.867188 19.3125 -12.234375 C 18.644531 -11.597656 17.804688 -11.019531 16.796875 -10.5 C 18.160156 -7.613281 19.484375 -5.128906 20.765625 -3.046875 C 22.054688 -0.972656 23.300781 0.734375 24.5 2.078125 C 25.695312 3.421875 26.847656 4.410156 27.953125 5.046875 C 29.054688 5.679688 30.109375 6 31.109375 6 C 31.273438 6 31.445312 5.976562 31.625 5.9375 C 31.800781 5.894531 31.960938 5.84375 32.109375 5.78125 C 32.265625 5.726562 32.429688 5.65625 32.609375 5.5625 L 33.015625 6.328125 C 32.628906 6.546875 32.234375 6.753906 31.828125 6.953125 C 31.421875 7.148438 30.953125 7.316406 30.421875 7.453125 C 29.898438 7.597656 29.300781 7.710938 28.625 7.796875 C 27.945312 7.890625 27.132812 7.9375 26.1875 7.9375 C 25.332031 7.9375 24.488281 7.832031 23.65625 7.625 C 22.820312 7.425781 21.984375 7.066406 21.140625 6.546875 C 20.296875 6.023438 19.441406 5.328125 18.578125 4.453125 C 17.722656 3.585938 16.84375 2.488281 15.9375 1.15625 C 15.03125 -0.175781 14.097656 -1.765625 13.140625 -3.609375 C 12.179688 -5.453125 11.1875 -7.609375 10.15625 -10.078125 C 11.550781 -11.097656 12.644531 -12.046875 13.4375 -12.921875 C 14.238281 -13.804688 14.84375 -14.601562 15.25 -15.3125 C 15.65625 -16.019531 15.90625 -16.648438 16 -17.203125 C 16.101562 -17.753906 16.15625 -18.226562 16.15625 -18.625 C 16.15625 -18.675781 16.148438 -18.769531 16.140625 -18.90625 C 16.128906 -19.050781 16.082031 -19.1875 16 -19.3125 C 15.914062 -19.445312 15.796875 -19.5625 15.640625 -19.65625 C 15.492188 -19.757812 15.285156 -19.8125 15.015625 -19.8125 C 14.472656 -19.8125 13.925781 -19.582031 13.375 -19.125 C 12.820312 -18.664062 12.296875 -18.097656 11.796875 -17.421875 C 11.296875 -16.753906 10.84375 -16.03125 10.4375 -15.25 C 10.03125 -14.476562 9.695312 -13.773438 9.4375 -13.140625 L 9.4375 -1.921875 C 9.4375 -1.722656 9.40625 -1.492188 9.34375 -1.234375 C 9.28125 -0.972656 9.128906 -0.726562 8.890625 -0.5 C 8.648438 -0.269531 8.300781 -0.0703125 7.84375 0.09375 C 7.382812 0.257812 6.769531 0.34375 6 0.34375 C 5.226562 0.34375 4.625 0.25 4.1875 0.0625 C 3.757812 -0.113281 3.441406 -0.320312 3.234375 -0.5625 C 3.023438 -0.8125 2.894531 -1.066406 2.84375 -1.328125 C 2.789062 -1.585938 2.765625 -1.796875 2.765625 -1.953125 L 2.765625 -30.015625 C 2.765625 -30.429688 2.664062 -30.796875 2.46875 -31.109375 C 2.269531 -31.421875 1.941406 -31.578125 1.484375 -31.578125 C 1.234375 -31.578125 1.015625 -31.535156 0.828125 -31.453125 C 0.648438 -31.378906 0.460938 -31.265625 0.265625 -31.109375 L -0.171875 -31.625 C 0.160156 -31.90625 0.53125 -32.175781 0.9375 -32.4375 C 1.34375 -32.707031 1.785156 -32.941406 2.265625 -33.140625 C 2.753906 -33.347656 3.273438 -33.515625 3.828125 -33.640625 C 4.378906 -33.773438 4.957031 -33.84375 5.5625 -33.84375 C 6.507812 -33.84375 7.242188 -33.710938 7.765625 -33.453125 C 8.285156 -33.203125 8.664062 -32.890625 8.90625 -32.515625 C 9.15625 -32.148438 9.304688 -31.757812 9.359375 -31.34375 C 9.410156 -30.9375 9.4375 -30.570312 9.4375 -30.25 Z M 9.4375 -16.65625 "/></g></g></g><g fill="#442a00" fill-opacity="1"><g transform="translate(208.059429, 248.34265)"><g><path d="M 9.65625 -1.953125 C 9.65625 -1.765625 9.625 -1.535156 9.5625 -1.265625 C 9.5 -1.003906 9.347656 -0.753906 9.109375 -0.515625 C 8.867188 -0.273438 8.519531 -0.0703125 8.0625 0.09375 C 7.613281 0.257812 7.007812 0.34375 6.25 0.34375 C 5.476562 0.34375 4.875 0.25 4.4375 0.0625 C 4 -0.113281 3.671875 -0.320312 3.453125 -0.5625 C 3.234375 -0.8125 3.097656 -1.066406 3.046875 -1.328125 C 3.003906 -1.585938 2.984375 -1.796875 2.984375 -1.953125 L 2.984375 -18.75 C 2.984375 -19.164062 2.882812 -19.53125 2.6875 -19.84375 C 2.488281 -20.15625 2.160156 -20.3125 1.703125 -20.3125 C 1.453125 -20.3125 1.238281 -20.269531 1.0625 -20.1875 C 0.894531 -20.101562 0.707031 -19.976562 0.5 -19.8125 L 0.046875 -20.359375 C 0.378906 -20.628906 0.75 -20.898438 1.15625 -21.171875 C 1.570312 -21.441406 2.019531 -21.675781 2.5 -21.875 C 2.976562 -22.082031 3.492188 -22.25 4.046875 -22.375 C 4.597656 -22.507812 5.175781 -22.578125 5.78125 -22.578125 C 6.726562 -22.578125 7.460938 -22.445312 7.984375 -22.1875 C 8.503906 -21.9375 8.882812 -21.625 9.125 -21.25 C 9.375 -20.882812 9.523438 -20.492188 9.578125 -20.078125 C 9.628906 -19.660156 9.65625 -19.289062 9.65625 -18.96875 Z M 2.3125 -27.53125 C 2.3125 -27.9375 2.398438 -28.320312 2.578125 -28.6875 C 2.753906 -29.0625 3.003906 -29.382812 3.328125 -29.65625 C 3.660156 -29.9375 4.039062 -30.15625 4.46875 -30.3125 C 4.894531 -30.476562 5.363281 -30.5625 5.875 -30.5625 C 6.363281 -30.5625 6.820312 -30.476562 7.25 -30.3125 C 7.675781 -30.15625 8.050781 -29.9375 8.375 -29.65625 C 8.695312 -29.382812 8.945312 -29.0625 9.125 -28.6875 C 9.300781 -28.320312 9.390625 -27.9375 9.390625 -27.53125 C 9.390625 -27.113281 9.300781 -26.722656 9.125 -26.359375 C 8.945312 -25.992188 8.695312 -25.675781 8.375 -25.40625 C 8.050781 -25.144531 7.675781 -24.929688 7.25 -24.765625 C 6.820312 -24.609375 6.363281 -24.53125 5.875 -24.53125 C 5.363281 -24.53125 4.894531 -24.609375 4.46875 -24.765625 C 4.039062 -24.929688 3.660156 -25.144531 3.328125 -25.40625 C 3.003906 -25.675781 2.753906 -25.992188 2.578125 -26.359375 C 2.398438 -26.722656 2.3125 -27.113281 2.3125 -27.53125 Z M 2.3125 -27.53125 "/></g></g></g><g fill="#442a00" fill-opacity="1"><g transform="translate(219.36301, 248.34265)"><g><path d="M 15.515625 -10.828125 C 15.515625 -12.660156 15.429688 -14.125 15.265625 -15.21875 C 15.097656 -16.3125 14.875 -17.144531 14.59375 -17.71875 C 14.320312 -18.289062 14.019531 -18.664062 13.6875 -18.84375 C 13.351562 -19.03125 13.007812 -19.125 12.65625 -19.125 C 12.238281 -19.125 11.863281 -19.007812 11.53125 -18.78125 C 11.207031 -18.550781 10.925781 -18.289062 10.6875 -18 C 10.445312 -17.71875 10.242188 -17.429688 10.078125 -17.140625 C 9.910156 -16.847656 9.769531 -16.628906 9.65625 -16.484375 L 9.65625 -1.953125 C 9.65625 -1.765625 9.625 -1.535156 9.5625 -1.265625 C 9.507812 -1.003906 9.367188 -0.753906 9.140625 -0.515625 C 8.921875 -0.273438 8.585938 -0.0703125 8.140625 0.09375 C 7.703125 0.257812 7.097656 0.34375 6.328125 0.34375 C 5.554688 0.34375 4.945312 0.25 4.5 0.0625 C 4.0625 -0.113281 3.726562 -0.320312 3.5 -0.5625 C 3.269531 -0.8125 3.125 -1.066406 3.0625 -1.328125 C 3.007812 -1.585938 2.984375 -1.796875 2.984375 -1.953125 L 2.984375 -18.75 C 2.984375 -19.164062 2.882812 -19.53125 2.6875 -19.84375 C 2.488281 -20.15625 2.160156 -20.3125 1.703125 -20.3125 C 1.453125 -20.3125 1.238281 -20.269531 1.0625 -20.1875 C 0.894531 -20.101562 0.707031 -19.976562 0.5 -19.8125 L 0.046875 -20.359375 C 0.378906 -20.628906 0.75 -20.898438 1.15625 -21.171875 C 1.570312 -21.441406 2.019531 -21.675781 2.5 -21.875 C 2.976562 -22.082031 3.492188 -22.25 4.046875 -22.375 C 4.597656 -22.507812 5.175781 -22.578125 5.78125 -22.578125 C 6.726562 -22.578125 7.460938 -22.421875 7.984375 -22.109375 C 8.503906 -21.796875 8.882812 -21.421875 9.125 -20.984375 C 9.375 -20.554688 9.523438 -20.101562 9.578125 -19.625 C 9.628906 -19.15625 9.65625 -18.757812 9.65625 -18.4375 C 10.195312 -19.207031 10.804688 -19.898438 11.484375 -20.515625 C 11.753906 -20.773438 12.0625 -21.023438 12.40625 -21.265625 C 12.75 -21.515625 13.113281 -21.738281 13.5 -21.9375 C 13.882812 -22.132812 14.289062 -22.289062 14.71875 -22.40625 C 15.144531 -22.519531 15.582031 -22.578125 16.03125 -22.578125 C 17.019531 -22.578125 17.894531 -22.390625 18.65625 -22.015625 C 19.414062 -21.640625 20.054688 -21.007812 20.578125 -20.125 C 21.097656 -19.238281 21.492188 -18.066406 21.765625 -16.609375 C 22.046875 -15.148438 22.1875 -13.34375 22.1875 -11.1875 C 22.1875 -9.082031 22 -7.253906 21.625 -5.703125 C 21.25 -4.148438 20.753906 -2.828125 20.140625 -1.734375 C 19.535156 -0.648438 18.847656 0.234375 18.078125 0.921875 C 17.304688 1.609375 16.53125 2.144531 15.75 2.53125 C 14.96875 2.925781 14.21875 3.203125 13.5 3.359375 C 12.78125 3.515625 12.160156 3.597656 11.640625 3.609375 L 11.390625 2.71875 C 11.828125 2.613281 12.226562 2.453125 12.59375 2.234375 C 12.96875 2.023438 13.304688 1.707031 13.609375 1.28125 C 13.921875 0.863281 14.191406 0.332031 14.421875 -0.3125 C 14.648438 -0.957031 14.847656 -1.765625 15.015625 -2.734375 C 15.179688 -3.710938 15.304688 -4.863281 15.390625 -6.1875 C 15.472656 -7.507812 15.515625 -9.054688 15.515625 -10.828125 Z M 15.515625 -10.828125 "/></g></g></g><g fill="#442a00" fill-opacity="1"><g transform="translate(242.214144, 248.34265)"><g><path d="M 1.78125 -13.6875 C 1.78125 -15.164062 2.035156 -16.457031 2.546875 -17.5625 C 3.066406 -18.675781 3.757812 -19.601562 4.625 -20.34375 C 5.5 -21.09375 6.507812 -21.648438 7.65625 -22.015625 C 8.800781 -22.390625 10.003906 -22.578125 11.265625 -22.578125 C 12.523438 -22.578125 13.71875 -22.410156 14.84375 -22.078125 C 15.976562 -21.742188 16.984375 -21.226562 17.859375 -20.53125 C 18.128906 -20.957031 18.351562 -21.398438 18.53125 -21.859375 C 18.707031 -22.328125 18.796875 -22.789062 18.796875 -23.25 C 18.796875 -23.863281 18.628906 -24.347656 18.296875 -24.703125 C 17.972656 -25.066406 17.554688 -25.25 17.046875 -25.25 L 17.046875 -25.890625 C 17.367188 -25.984375 17.648438 -26.070312 17.890625 -26.15625 C 18.140625 -26.238281 18.363281 -26.300781 18.5625 -26.34375 C 18.769531 -26.382812 18.972656 -26.414062 19.171875 -26.4375 C 19.378906 -26.457031 19.609375 -26.46875 19.859375 -26.46875 C 20.535156 -26.46875 21.054688 -26.253906 21.421875 -25.828125 C 21.785156 -25.410156 21.96875 -24.832031 21.96875 -24.09375 C 21.96875 -23.664062 21.863281 -23.238281 21.65625 -22.8125 C 21.457031 -22.382812 21.207031 -21.972656 20.90625 -21.578125 C 20.601562 -21.179688 20.265625 -20.8125 19.890625 -20.46875 C 19.523438 -20.125 19.175781 -19.816406 18.84375 -19.546875 C 19.445312 -18.859375 19.914062 -18.046875 20.25 -17.109375 C 20.582031 -16.179688 20.75 -15.125 20.75 -13.9375 C 20.75 -12.445312 20.488281 -11.128906 19.96875 -9.984375 C 19.457031 -8.835938 18.765625 -7.875 17.890625 -7.09375 C 17.023438 -6.3125 16.019531 -5.71875 14.875 -5.3125 C 13.726562 -4.914062 12.523438 -4.71875 11.265625 -4.71875 C 10.523438 -4.71875 9.800781 -4.78125 9.09375 -4.90625 C 8.382812 -5.039062 7.71875 -5.234375 7.09375 -5.484375 C 6.863281 -5.304688 6.664062 -5.085938 6.5 -4.828125 C 6.332031 -4.566406 6.25 -4.273438 6.25 -3.953125 C 6.25 -3.421875 6.476562 -3.023438 6.9375 -2.765625 C 7.40625 -2.503906 8.019531 -2.3125 8.78125 -2.1875 C 9.550781 -2.070312 10.421875 -2 11.390625 -1.96875 C 12.367188 -1.945312 13.367188 -1.898438 14.390625 -1.828125 C 15.410156 -1.765625 16.40625 -1.644531 17.375 -1.46875 C 18.351562 -1.289062 19.222656 -0.992188 19.984375 -0.578125 C 20.753906 -0.160156 21.367188 0.398438 21.828125 1.109375 C 22.296875 1.816406 22.53125 2.738281 22.53125 3.875 C 22.53125 4.695312 22.351562 5.4375 22 6.09375 C 21.65625 6.757812 21.191406 7.34375 20.609375 7.84375 C 20.023438 8.34375 19.34375 8.769531 18.5625 9.125 C 17.789062 9.476562 16.972656 9.765625 16.109375 9.984375 C 15.242188 10.210938 14.363281 10.378906 13.46875 10.484375 C 12.582031 10.585938 11.734375 10.640625 10.921875 10.640625 C 9.441406 10.640625 8.109375 10.5625 6.921875 10.40625 C 5.742188 10.25 4.738281 10.007812 3.90625 9.6875 C 3.082031 9.375 2.445312 8.960938 2 8.453125 C 1.550781 7.953125 1.328125 7.347656 1.328125 6.640625 C 1.328125 6.128906 1.441406 5.660156 1.671875 5.234375 C 1.898438 4.804688 2.207031 4.414062 2.59375 4.0625 C 2.976562 3.707031 3.410156 3.382812 3.890625 3.09375 C 4.367188 2.8125 4.851562 2.550781 5.34375 2.3125 C 4.625 2 4.019531 1.535156 3.53125 0.921875 C 3.050781 0.304688 2.8125 -0.503906 2.8125 -1.515625 C 2.8125 -2.054688 2.90625 -2.554688 3.09375 -3.015625 C 3.28125 -3.472656 3.519531 -3.890625 3.8125 -4.265625 C 4.113281 -4.648438 4.441406 -5 4.796875 -5.3125 C 5.148438 -5.625 5.492188 -5.890625 5.828125 -6.109375 C 5.234375 -6.460938 4.6875 -6.890625 4.1875 -7.390625 C 3.6875 -7.890625 3.257812 -8.453125 2.90625 -9.078125 C 2.550781 -9.710938 2.273438 -10.410156 2.078125 -11.171875 C 1.878906 -11.941406 1.78125 -12.78125 1.78125 -13.6875 Z M 14.203125 -13.859375 C 14.203125 -14.703125 14.15625 -15.519531 14.0625 -16.3125 C 13.976562 -17.113281 13.828125 -17.820312 13.609375 -18.4375 C 13.398438 -19.0625 13.101562 -19.566406 12.71875 -19.953125 C 12.34375 -20.335938 11.859375 -20.53125 11.265625 -20.53125 C 10.671875 -20.53125 10.1875 -20.332031 9.8125 -19.9375 C 9.4375 -19.539062 9.140625 -19.019531 8.921875 -18.375 C 8.703125 -17.726562 8.546875 -16.992188 8.453125 -16.171875 C 8.367188 -15.347656 8.328125 -14.519531 8.328125 -13.6875 C 8.328125 -12.820312 8.367188 -11.976562 8.453125 -11.15625 C 8.546875 -10.332031 8.703125 -9.59375 8.921875 -8.9375 C 9.140625 -8.289062 9.4375 -7.765625 9.8125 -7.359375 C 10.1875 -6.960938 10.671875 -6.765625 11.265625 -6.765625 C 11.859375 -6.765625 12.34375 -6.972656 12.71875 -7.390625 C 13.101562 -7.816406 13.398438 -8.363281 13.609375 -9.03125 C 13.828125 -9.707031 13.976562 -10.46875 14.0625 -11.3125 C 14.15625 -12.15625 14.203125 -13.003906 14.203125 -13.859375 Z M 17.515625 5.609375 C 17.515625 5.148438 17.332031 4.769531 16.96875 4.46875 C 16.601562 4.175781 16.125 3.9375 15.53125 3.75 C 14.945312 3.570312 14.28125 3.4375 13.53125 3.34375 C 12.789062 3.25 12.035156 3.175781 11.265625 3.125 C 10.492188 3.070312 9.742188 3.023438 9.015625 2.984375 C 8.296875 2.941406 7.671875 2.882812 7.140625 2.8125 C 6.828125 3.019531 6.53125 3.25 6.25 3.5 C 5.96875 3.757812 5.722656 4.03125 5.515625 4.3125 C 5.304688 4.59375 5.132812 4.890625 5 5.203125 C 4.875 5.515625 4.8125 5.832031 4.8125 6.15625 C 4.8125 6.707031 4.96875 7.164062 5.28125 7.53125 C 5.601562 7.90625 6.035156 8.203125 6.578125 8.421875 C 7.117188 8.640625 7.75 8.789062 8.46875 8.875 C 9.1875 8.957031 9.945312 9 10.75 9 C 11.800781 9 12.75 8.910156 13.59375 8.734375 C 14.4375 8.554688 15.144531 8.3125 15.71875 8 C 16.300781 7.6875 16.742188 7.328125 17.046875 6.921875 C 17.359375 6.515625 17.515625 6.078125 17.515625 5.609375 Z M 17.515625 5.609375 "/></g></g></g><g fill="#c25700" fill-opacity="1"><g transform="translate(133.703657, 271.082239)"><g><path d="M 0.644531 0 L 2.902344 0 L 2.902344 -3.65625 L 7.457031 -3.65625 L 7.457031 0 L 9.714844 0 L 9.714844 -8.644531 L 7.457031 -8.644531 L 7.457031 -5.34375 L 2.902344 -5.34375 L 2.902344 -8.644531 L 0.644531 -8.644531 Z M 0.644531 0 "/></g></g></g><g fill="#c25700" fill-opacity="1"><g transform="translate(145.359737, 271.082239)"><g><path d="M 0.644531 0 L 8.234375 0 L 8.234375 -1.628906 L 2.828125 -1.628906 L 2.828125 -3.703125 L 7.625 -3.703125 L 7.625 -5.148438 L 2.828125 -5.148438 L 2.828125 -7.019531 L 8.113281 -7.019531 L 8.113281 -8.644531 L 0.644531 -8.644531 Z M 0.644531 0 "/></g></g></g><g fill="#c25700" fill-opacity="1"><g transform="translate(155.158245, 271.082239)"><g><path d="M 0.046875 0 L 2.390625 0 L 3.085938 -1.699219 L 7.175781 -1.699219 L 7.871094 0 L 10.226562 0 L 6.507812 -8.644531 L 3.8125 -8.644531 Z M 3.546875 -3.167969 L 5.136719 -7.03125 L 5.160156 -7.03125 L 6.714844 -3.167969 Z M 3.546875 -3.167969 "/></g></g></g><g fill="#c25700" fill-opacity="1"><g transform="translate(166.729335, 271.082239)"><g><path d="M 0.644531 0 L 7.394531 0 L 7.394531 -1.808594 L 2.902344 -1.808594 L 2.902344 -8.644531 L 0.644531 -8.644531 Z M 0.644531 0 "/></g></g></g><g fill="#c25700" fill-opacity="1"><g transform="translate(175.592994, 271.082239)"><g><path d="M 3.242188 0 L 5.5 0 L 5.5 -6.875 L 8.609375 -6.875 L 8.609375 -8.644531 L 0.132812 -8.644531 L 0.132812 -6.875 L 3.242188 -6.875 Z M 3.242188 0 "/></g></g></g><g fill="#c25700" fill-opacity="1"><g transform="translate(185.634324, 271.082239)"><g><path d="M 0.644531 0 L 2.902344 0 L 2.902344 -3.65625 L 7.457031 -3.65625 L 7.457031 0 L 9.714844 0 L 9.714844 -8.644531 L 7.457031 -8.644531 L 7.457031 -5.34375 L 2.902344 -5.34375 L 2.902344 -8.644531 L 0.644531 -8.644531 Z M 0.644531 0 "/></g></g></g><g fill="#c25700" fill-opacity="1"><g transform="translate(197.290402, 271.082239)"><g><path d="M 3.667969 0 L 5.925781 0 L 5.925781 -3.046875 L 9.507812 -8.644531 L 7.066406 -8.644531 L 4.808594 -4.796875 L 4.796875 -4.796875 L 2.441406 -8.644531 L 0.0234375 -8.644531 L 3.667969 -3.046875 Z M 3.667969 0 "/></g></g></g><g fill="#c25700" fill-opacity="1"><g transform="translate(208.133034, 271.082239)"><g/></g></g><g fill="#c25700" fill-opacity="1"><g transform="translate(212.358829, 271.082239)"><g><path d="M 0.644531 0 L 2.902344 0 L 2.902344 -3.289062 L 7.226562 -3.289062 L 7.226562 -4.832031 L 2.902344 -4.832031 L 2.902344 -6.875 L 7.953125 -6.875 L 7.953125 -8.644531 L 0.644531 -8.644531 Z M 0.644531 0 "/></g></g></g><g fill="#c25700" fill-opacity="1"><g transform="translate(221.817395, 271.082239)"><g><path d="M 5.878906 0.304688 C 9.179688 0.304688 11.378906 -1.542969 11.378906 -4.324219 C 11.378906 -7.105469 9.179688 -8.949219 5.878906 -8.949219 C 2.585938 -8.949219 0.402344 -7.105469 0.402344 -4.324219 C 0.402344 -1.542969 2.585938 0.304688 5.878906 0.304688 Z M 5.878906 -1.46875 C 3.945312 -1.46875 2.660156 -2.625 2.660156 -4.324219 C 2.660156 -6.035156 3.945312 -7.175781 5.878906 -7.175781 C 7.820312 -7.175781 9.109375 -6.035156 9.109375 -4.324219 C 9.109375 -2.625 7.820312 -1.46875 5.878906 -1.46875 Z M 5.878906 -1.46875 "/></g></g></g><g fill="#c25700" fill-opacity="1"><g transform="translate(234.881828, 271.082239)"><g><path d="M 5.878906 0.304688 C 9.179688 0.304688 11.378906 -1.542969 11.378906 -4.324219 C 11.378906 -7.105469 9.179688 -8.949219 5.878906 -8.949219 C 2.585938 -8.949219 0.402344 -7.105469 0.402344 -4.324219 C 0.402344 -1.542969 2.585938 0.304688 5.878906 0.304688 Z M 5.878906 -1.46875 C 3.945312 -1.46875 2.660156 -2.625 2.660156 -4.324219 C 2.660156 -6.035156 3.945312 -7.175781 5.878906 -7.175781 C 7.820312 -7.175781 9.109375 -6.035156 9.109375 -4.324219 C 9.109375 -2.625 7.820312 -1.46875 5.878906 -1.46875 Z M 5.878906 -1.46875 "/></g></g></g><g fill="#c25700" fill-opacity="1"><g transform="translate(247.946261, 271.082239)"><g><path d="M 0.644531 0 L 5.320312 0 C 8.476562 0 10.238281 -1.542969 10.238281 -4.324219 C 10.238281 -7.105469 8.476562 -8.644531 5.320312 -8.644531 L 0.644531 -8.644531 Z M 2.839844 -1.6875 L 2.839844 -6.957031 L 5.160156 -6.957031 C 6.984375 -6.957031 8.003906 -6.023438 8.003906 -4.324219 C 8.003906 -2.636719 6.984375 -1.6875 5.160156 -1.6875 Z M 2.839844 -1.6875 "/></g></g></g></svg>