<svg xmlns="http://www.w3.org/2000/svg" xmlns:xlink="http://www.w3.org/1999/xlink" width="500" zoomAndPan="magnify" viewBox="0 0 375 374.999991" height="500" preserveAspectRatio="xMidYMid meet" version="1.0"><defs><filter x="0%" y="0%" width="100%" height="100%" id="b6ffa3f9e4"><feColorMatrix values="0 0 0 0 1 0 0 0 0 1 0 0 0 0 1 0 0 0 1 0" color-interpolation-filters="sRGB"/></filter><g/><clipPath id="b1f034bbc5"><path d="M 88 154.738281 L 99 154.738281 L 99 219.988281 L 88 219.988281 Z M 88 154.738281 " clip-rule="nonzero"/></clipPath><clipPath id="d6aa97df1f"><path d="M 102 154.738281 L 117 154.738281 L 117 219.988281 L 102 219.988281 Z M 102 154.738281 " clip-rule="nonzero"/></clipPath><mask id="5f96402cc4"><g filter="url(#b6ffa3f9e4)"><rect x="-37.5" width="450" fill="#000000" y="-37.499999" height="449.999989" fill-opacity="0.3"/></g></mask><clipPath id="e206ecbf05"><path d="M 0.28125 0.761719 L 0.761719 0.761719 L 0.761719 1.480469 L 0.28125 1.480469 Z M 0.28125 0.761719 " clip-rule="nonzero"/></clipPath><clipPath id="76812827c0"><rect x="0" width="1" y="0" height="2"/></clipPath><mask id="51ae088daf"><g filter="url(#b6ffa3f9e4)"><rect x="-37.5" width="450" fill="#000000" y="-37.499999" height="449.999989" fill-opacity="0.3"/></g></mask><clipPath id="a4fe2b5b8d"><path d="M 0.71875 0.71875 L 6 0.71875 L 6 14.878906 L 0.71875 14.878906 Z M 0.71875 0.71875 " clip-rule="nonzero"/></clipPath><clipPath id="8d2c66df2f"><rect x="0" width="6" y="0" height="15"/></clipPath><mask id="d4fc16e76a"><g filter="url(#b6ffa3f9e4)"><rect x="-37.5" width="450" fill="#000000" y="-37.499999" height="449.999989" fill-opacity="0.3"/></g></mask><clipPath id="eab856b16f"><path d="M 0.28125 0.71875 L 5.558594 0.71875 L 5.558594 14.878906 L 0.28125 14.878906 Z M 0.28125 0.71875 " clip-rule="nonzero"/></clipPath><clipPath id="c311bf3c28"><rect x="0" width="6" y="0" height="15"/></clipPath><clipPath id="131e8fd4ff"><path d="M 68.851562 187.5 L 118.351562 187.5 L 118.351562 204.75 L 68.851562 204.75 Z M 68.851562 187.5 " clip-rule="nonzero"/></clipPath><clipPath id="f2e468b891"><path d="M 111 189 L 118.351562 189 L 118.351562 193 L 111 193 Z M 111 189 " clip-rule="nonzero"/></clipPath><clipPath id="f20c59cf70"><path d="M 68.851562 198 L 77 198 L 77 202 L 68.851562 202 Z M 68.851562 198 " clip-rule="nonzero"/></clipPath></defs><rect x="-37.5" width="450" fill="#ffffff" y="-37.499999" height="449.999989" fill-opacity="1"/><rect x="-37.5" width="450" fill="#f6f5f4" y="-37.499999" height="449.999989" fill-opacity="1"/><g clip-path="url(#b1f034bbc5)"><path fill="#4d433a" d="M 91.980469 181.851562 C 91.980469 185.179688 88.785156 208.339844 90.59375 216.75 C 91.351562 220.265625 95.300781 219.808594 95.957031 216.75 C 97.628906 208.992188 94.636719 201.847656 94.636719 181.667969 C 94.636719 178.90625 96.769531 178.835938 97.921875 175.269531 C 98.953125 172.089844 97.5 154.949219 97.03125 154.949219 C 96.496094 154.949219 96.757812 169.792969 95.742188 169.792969 C 94.722656 169.792969 95.238281 155.148438 94.59375 154.949219 C 93.945312 154.746094 94.417969 169.792969 93.222656 169.792969 C 92.015625 169.792969 92.800781 154.949219 92.152344 154.949219 C 91.507812 154.949219 91.6875 169.792969 90.703125 169.792969 C 89.617188 169.792969 90.199219 154.949219 89.714844 154.949219 C 88.890625 154.949219 87.925781 171.066406 88.4375 174.472656 C 88.953125 177.878906 91.980469 178.523438 91.980469 181.851562 Z M 91.980469 181.851562 " fill-opacity="1" fill-rule="nonzero"/></g><g clip-path="url(#d6aa97df1f)"><path fill="#4d433a" d="M 108.378906 181.136719 C 108.378906 201.402344 105.125 209.640625 106.996094 216.792969 C 107.886719 220.203125 111.699219 219.800781 112.359375 216.792969 C 113.871094 209.863281 111.039062 200.992188 111.039062 181.136719 C 111.039062 178.828125 116.8125 179.222656 116.8125 171.324219 C 116.8125 161.4375 113.136719 154.894531 109.636719 154.894531 C 106.367188 154.894531 102.816406 162.070312 102.816406 171.324219 C 102.816406 178.742188 108.378906 179.234375 108.378906 181.136719 Z M 108.378906 181.136719 " fill-opacity="1" fill-rule="nonzero"/></g><path fill="#4d433a" d="M 77.695312 189.261719 C 77.695312 205.351562 74.4375 210.984375 76.308594 216.667969 C 77.199219 219.375 81.015625 219.054688 81.671875 216.667969 C 83.1875 211.164062 80.351562 207.125 80.351562 189.476562 C 80.351562 187.320312 83.527344 184.308594 83.527344 178.746094 C 83.527344 168.855469 82.085938 155.414062 78.949219 155.414062 C 75.941406 155.414062 76.628906 172.742188 76.628906 182.222656 C 76.628906 186.292969 77.695312 187.351562 77.695312 189.261719 Z M 77.695312 189.261719 " fill-opacity="1" fill-rule="nonzero"/><g mask="url(#5f96402cc4)"><g transform="matrix(1, 0, 0, 1, 89, 167)"><g clip-path="url(#76812827c0)"><g clip-path="url(#e206ecbf05)"><path fill="#4d433a" d="M 0.515625 1.203125 C 0.507812 1.308594 0.460938 1.382812 0.40625 1.371094 C 0.351562 1.355469 0.3125 1.261719 0.320312 1.15625 C 0.328125 1.054688 0.375 0.980469 0.429688 0.992188 C 0.484375 1.003906 0.523438 1.101562 0.515625 1.203125 Z M 0.515625 1.203125 " fill-opacity="0.777" fill-rule="nonzero"/></g></g></g></g><g mask="url(#51ae088daf)"><g transform="matrix(1, 0, 0, 1, 90, 204)"><g clip-path="url(#8d2c66df2f)"><g clip-path="url(#a4fe2b5b8d)"><path fill="#4d433a" d="M 0.960938 12.640625 C 1.285156 14.097656 2.65625 15.121094 4.070312 14.457031 C 5.640625 13.722656 5.867188 11.289062 5.878906 9.972656 C 5.898438 7.632812 5.652344 5.902344 5.371094 3.613281 C 5.28125 2.902344 5.140625 1.578125 4.996094 0.925781 C 4.992188 2.769531 5.28125 4.558594 4.9375 6.394531 C 4.425781 8.117188 4.992188 11.269531 3.34375 12.425781 C 2.523438 12.996094 1.054688 11.863281 0.960938 12.640625 Z M 0.960938 12.640625 " fill-opacity="1" fill-rule="nonzero"/></g></g></g></g><g mask="url(#d4fc16e76a)"><g transform="matrix(1, 0, 0, 1, 107, 204)"><g clip-path="url(#c311bf3c28)"><g clip-path="url(#eab856b16f)"><path fill="#4d433a" d="M 0.46875 12.640625 C 0.792969 14.097656 2.164062 15.121094 3.578125 14.457031 C 5.148438 13.722656 5.375 11.289062 5.386719 9.972656 C 5.402344 7.632812 5.160156 5.902344 4.878906 3.613281 C 4.789062 2.902344 4.648438 1.578125 4.503906 0.925781 C 4.5 2.769531 4.789062 4.558594 4.441406 6.394531 C 3.929688 8.117188 4.5 11.269531 2.851562 12.425781 C 2.03125 12.996094 0.558594 11.863281 0.46875 12.640625 Z M 0.46875 12.640625 " fill-opacity="1" fill-rule="nonzero"/></g></g></g></g><g clip-path="url(#131e8fd4ff)"><path fill="#ebb22f" d="M 78.398438 187.523438 C 76.90625 187.523438 75.40625 187.613281 73.9375 187.785156 C 73.828125 187.8125 73.621094 187.851562 73.378906 187.890625 C 71.894531 188.148438 69.195312 188.617188 69.007812 190.519531 C 68.933594 193.933594 68.894531 195.84375 68.859375 199.101562 C 68.890625 199.085938 68.921875 199.070312 68.953125 199.054688 C 69.011719 199.023438 69.046875 199.007812 69.078125 198.992188 C 70.613281 198.300781 73.582031 198.15625 75.800781 198.15625 C 76.234375 198.15625 76.496094 198.160156 76.496094 198.160156 L 76.910156 198.171875 L 76.910156 198.175781 C 83.308594 198.285156 88.375 199.878906 93.277344 201.421875 C 98.308594 203.003906 103.511719 204.640625 110.101562 204.640625 C 110.988281 204.640625 111.890625 204.609375 112.789062 204.550781 C 114.8125 204.3125 117.757812 203.402344 117.929688 202.140625 L 117.957031 198.890625 C 117.976562 196.9375 117.996094 194.929688 118.03125 192.808594 C 117.132812 193.226562 115.515625 193.4375 113.203125 193.4375 C 112.027344 193.4375 111.050781 193.382812 110.777344 193.363281 L 110.382812 193.335938 L 110.382812 193.277344 C 105.011719 192.976562 100.113281 191.671875 95.375 190.414062 C 90.023438 188.992188 84.492188 187.523438 78.398438 187.523438 " fill-opacity="1" fill-rule="nonzero"/></g><path fill="#ebb22f" d="M 114.628906 189.773438 L 114.59375 188.101562 C 114.269531 188.085938 113.960938 188.074219 113.675781 188.074219 C 111.773438 188.074219 111.234375 188.511719 111.195312 188.628906 C 111.191406 188.667969 111.195312 188.71875 111.199219 188.773438 C 111.214844 188.882812 111.519531 189.316406 114.628906 189.773438 " fill-opacity="1" fill-rule="nonzero"/><path fill="#ebb22f" d="M 72.652344 202.011719 L 72.625 203.574219 C 75.011719 203.558594 75.691406 203.113281 75.875 202.917969 C 75.90625 202.882812 75.921875 202.855469 75.929688 202.839844 C 75.929688 202.816406 75.925781 202.796875 75.917969 202.769531 C 75.859375 202.632812 75.472656 202.253906 72.652344 202.011719 " fill-opacity="1" fill-rule="nonzero"/><g clip-path="url(#f2e468b891)"><path fill="#ebb22f" d="M 113.203125 192.609375 C 116.476562 192.609375 117.859375 192.171875 118.066406 191.765625 C 117.976562 191.636719 117.570312 191.101562 115.234375 190.707031 C 115.105469 190.683594 114.964844 190.660156 114.820312 190.640625 L 114.703125 190.621094 C 113.363281 190.429688 112.386719 190.230469 111.714844 190.015625 C 111.515625 189.949219 111.34375 189.882812 111.191406 189.8125 L 111.207031 192.558594 C 111.613281 192.578125 112.355469 192.609375 113.203125 192.609375 " fill-opacity="1" fill-rule="nonzero"/></g><g clip-path="url(#f20c59cf70)"><path fill="#ebb22f" d="M 71.222656 199.316406 C 70.207031 199.488281 69.058594 199.679688 68.863281 200.230469 L 68.875 200.25 C 68.945312 200.359375 69.425781 200.902344 72.058594 201.128906 L 72.289062 201.148438 C 74.148438 201.289062 75.316406 201.484375 75.972656 201.777344 L 76.058594 198.996094 C 74.574219 199.003906 73.078125 199.089844 71.574219 199.253906 L 71.222656 199.316406 " fill-opacity="1" fill-rule="nonzero"/></g><g fill="#ebb22f" fill-opacity="1"><g transform="translate(122.540292, 192.754188)"><g><path d="M 19.9375 -8.683594 C 20.417969 -9.640625 23.210938 -13.394531 24.128906 -14.835938 C 26.703125 -19.066406 29.84375 -25.523438 29.058594 -30.410156 C 28.664062 -32.722656 27.53125 -33.855469 26.132812 -33.855469 C 22.6875 -33.855469 18.324219 -27.09375 16.492188 -24.039062 C 14.050781 -19.503906 11.824219 -14.355469 10.339844 -9.378906 L 9.730469 -7.417969 C 9.554688 -6.851562 9.425781 -5.976562 9.03125 -5.453125 C 9.03125 -6.152344 9.164062 -6.632812 9.292969 -7.375 L 9.949219 -13 C 10.339844 -15.621094 10.734375 -18.105469 10.863281 -20.722656 C 10.996094 -22.121094 11.167969 -23.167969 11.167969 -24.652344 C 11.167969 -27.007812 11.476562 -30.148438 9.992188 -31.980469 C 9.597656 -32.503906 9.164062 -32.722656 8.683594 -32.722656 C 6.632812 -32.722656 4.363281 -28.230469 3.753906 -26.917969 L 2.398438 -23.953125 C 1.394531 -21.246094 0.480469 -18.410156 0.175781 -15.488281 C -0.0429688 -13.65625 -0.175781 -11.5625 0.566406 -9.859375 C 1.003906 -8.988281 1.527344 -8.550781 2.441406 -8.550781 C 2.75 -8.550781 3.140625 -8.59375 3.535156 -8.683594 C 3.925781 -10.425781 2.398438 -8.945312 1.746094 -10.644531 C 1.265625 -12.042969 1.441406 -14.355469 1.65625 -15.925781 C 2.3125 -20.375 4.144531 -25.132812 6.589844 -28.796875 C 7.023438 -29.582031 7.679688 -30.804688 8.640625 -30.890625 C 8.855469 -30.0625 8.988281 -29.40625 9.164062 -28.445312 C 9.25 -27.617188 9.164062 -26.265625 9.164062 -25.347656 C 9.164062 -23.558594 8.945312 -21.640625 8.640625 -19.851562 C 7.898438 -12.566406 6.71875 -5.453125 6.066406 1.917969 L 5.234375 10.121094 C 5.148438 11.257812 4.972656 11.867188 6.066406 12.085938 C 6.71875 11.78125 6.761719 11.691406 6.9375 10.953125 L 7.765625 5.410156 C 8.203125 3.054688 8.855469 1.003906 9.425781 -1.265625 C 11.605469 -9.902344 16.363281 -23.734375 22.511719 -29.886719 C 23.296875 -30.671875 24.824219 -32.199219 25.917969 -32.199219 C 26.484375 -32.199219 26.964844 -31.761719 27.183594 -30.628906 C 27.96875 -26.703125 25 -20.15625 23.648438 -17.714844 C 21.554688 -14.136719 19.152344 -11.082031 16.839844 -7.722656 C 16.535156 -7.328125 16.316406 -6.980469 16.011719 -6.542969 C 15.53125 -5.976562 14.265625 -4.277344 15.707031 -4.015625 C 15.835938 -4.015625 15.925781 -3.96875 16.011719 -3.96875 C 16.273438 -3.96875 16.316406 -4.101562 16.492188 -4.1875 C 18.457031 -5.453125 18.804688 -6.632812 22.425781 -7.808594 C 22.949219 -7.984375 23.472656 -8.070312 23.910156 -8.070312 C 28.011719 -8.070312 28.230469 -1.179688 27.707031 2.179688 L 27.707031 2.3125 C 27.488281 3.097656 26.789062 3.273438 25.480469 4.015625 C 20.8125 6.71875 16.753906 8.769531 12.390625 12.171875 C 10.472656 13.65625 8.59375 15.664062 7.460938 17.84375 C 4.972656 22.644531 7.503906 26.308594 11.78125 26.308594 C 14.398438 26.308594 17.671875 24.957031 20.855469 21.773438 C 25.304688 17.320312 28.054688 11.519531 29.1875 5.367188 C 29.710938 2.792969 29.1875 3.839844 32.375 1.484375 C 33.070312 0.960938 33.726562 0.480469 34.335938 -0.132812 L 38.003906 -3.535156 C 38.351562 -3.796875 38.570312 -4.015625 38.832031 -4.363281 C 39.265625 -4.710938 39.355469 -4.929688 39.660156 -5.367188 C 40.050781 -5.671875 40.226562 -5.933594 40.53125 -6.371094 C 40.96875 -6.9375 40.925781 -7.023438 40.75 -7.722656 C 40.664062 -7.722656 40.578125 -7.722656 40.488281 -7.722656 C 39.355469 -7.722656 39.398438 -7.199219 38.613281 -6.328125 C 37.566406 -5.234375 35.863281 -3.445312 34.773438 -2.53125 L 32.679688 -0.785156 C 32.066406 -0.304688 30.453125 1.132812 29.710938 1.308594 C 29.710938 -3.402344 29.449219 -9.378906 24.300781 -9.773438 C 24.171875 -9.773438 24.039062 -9.816406 23.910156 -9.816406 C 22.46875 -9.816406 21.203125 -8.988281 19.9375 -8.683594 Z M 11.691406 24.824219 C 8.027344 24.824219 6.589844 21.246094 10.121094 16.710938 C 10.953125 15.664062 12.476562 14.179688 13.480469 13.394531 L 17.320312 10.601562 L 27.3125 4.886719 C 27.3125 6.238281 25.917969 10.382812 25.347656 11.691406 C 23.167969 16.578125 20.246094 21.335938 15.3125 23.820312 C 14.441406 24.257812 12.957031 24.824219 11.691406 24.824219 Z M 11.691406 24.824219 "/></g></g></g><g fill="#ebb22f" fill-opacity="1"><g transform="translate(161.586202, 192.754188)"><g><path d="M 2.179688 -1.003906 C 1.222656 -3.011719 3.230469 -6.9375 3.535156 -8.203125 C 5.0625 -7.199219 3.96875 -1.484375 2.179688 -1.003906 Z M 0 -2.488281 C 0 -0.21875 0.960938 0.917969 2.09375 0.917969 C 3.402344 0.917969 5.015625 -0.609375 5.671875 -3.621094 C 6.632812 -8.117188 4.539062 -8.855469 4.320312 -9.6875 C 4.539062 -10.035156 4.929688 -10.296875 5.0625 -10.601562 C 5.191406 -10.953125 4.929688 -11.648438 4.363281 -11.648438 C 2.226562 -11.648438 0 -4.449219 0 -2.488281 Z M 0 -2.488281 "/></g></g></g><g fill="#ebb22f" fill-opacity="1"><g transform="translate(169.264512, 192.754188)"><g><path d="M 0.609375 -0.175781 C 1.964844 -0.175781 1.441406 -1.65625 1.703125 -2.792969 C 1.875 -3.839844 2.269531 -4.710938 2.707031 -5.453125 C 3.402344 -6.589844 3.621094 -6.589844 5.277344 -6.589844 C 5.757812 -6.589844 6.414062 -6.542969 6.980469 -6.542969 C 7.851562 -6.542969 8.550781 -6.632812 8.550781 -7.242188 C 8.550781 -7.808594 7.199219 -7.898438 5.933594 -7.898438 C 5.191406 -7.898438 4.449219 -7.851562 4.058594 -7.851562 C 2.707031 -7.851562 2.441406 -7.023438 1.789062 -6.589844 C 1.789062 -7.15625 1.875 -7.113281 1.875 -7.722656 C 1.875 -8.160156 1.875 -8.683594 1.917969 -9.117188 C 2.050781 -10.339844 2.269531 -11.167969 1.089844 -11.167969 C 0.132812 -11.167969 0.0429688 -6.632812 0.0429688 -5.847656 C 0.0859375 -4.753906 0.0429688 -3.664062 0.0859375 -2.617188 C 0.0859375 -2.3125 -0.261719 -0.175781 0.609375 -0.175781 Z M 0.609375 -0.175781 "/></g></g></g><g fill="#ebb22f" fill-opacity="1"><g transform="translate(176.375668, 192.754188)"><g><path d="M 0 -5.976562 C 0 -3.230469 1.222656 -0.65625 4.230469 -0.65625 C 7.328125 -0.65625 10.078125 -3.664062 11.867188 -5.933594 C 12.085938 -6.195312 12.390625 -6.589844 12.523438 -6.894531 C 12.785156 -7.460938 12.566406 -7.941406 12.171875 -7.941406 C 11.953125 -7.941406 11.605469 -7.722656 11.300781 -7.285156 C 9.6875 -5.105469 7.285156 -2.09375 4.277344 -2.09375 C 3.230469 -2.09375 2.75 -2.660156 2.441406 -3.445312 C 1.394531 -5.585938 2.921875 -9.425781 4.449219 -10.472656 C 4.539062 -9.730469 4.886719 -9.335938 5.234375 -9.335938 C 5.542969 -9.335938 5.804688 -9.6875 5.804688 -10.472656 C 5.804688 -11.605469 5.277344 -12.214844 4.40625 -12.214844 C 1.875 -12.214844 0 -8.027344 0 -5.976562 Z M 0 -5.976562 "/></g></g></g><g fill="#ebb22f" fill-opacity="1"><g transform="translate(186.933337, 192.754188)"><g><path d="M 2.007812 -7.898438 C 2.3125 -8.988281 3.753906 -10.6875 4.929688 -10.90625 C 4.800781 -9.511719 3.097656 -8.464844 2.007812 -7.898438 Z M 0.0429688 -6.851562 C 0.0429688 -5.628906 0 -4.539062 1.046875 -3.492188 C 1.789062 -2.75 2.660156 -2.441406 3.578125 -2.441406 C 6.238281 -2.441406 9.25 -5.105469 10.863281 -6.71875 C 11.257812 -7.199219 11.257812 -7.242188 11.125 -7.898438 C 9.816406 -7.898438 10.515625 -7.722656 8.726562 -6.328125 C 8.421875 -6.109375 8.289062 -5.933594 7.941406 -5.671875 C 7.066406 -5.015625 5.234375 -3.753906 3.707031 -3.753906 C 3.183594 -3.753906 2.660156 -3.925781 2.269531 -4.320312 C 1.527344 -5.0625 1.613281 -5.757812 1.613281 -6.675781 C 2.96875 -6.761719 4.539062 -8.027344 5.234375 -8.8125 C 6.589844 -10.515625 6.589844 -12.261719 4.667969 -12.261719 C 2.574219 -12.261719 0.0429688 -9.03125 0.0429688 -6.851562 Z M 0.0429688 -6.851562 "/></g></g></g><g fill="#ebb22f" fill-opacity="1"><g transform="translate(196.40033, 192.754188)"><g><path d="M 0.0859375 -3.359375 C 0.0859375 -0.523438 0.175781 4.84375 2.53125 4.84375 C 3.621094 4.84375 4.449219 3.183594 4.929688 2.441406 C 5.890625 0.828125 7.066406 -2.226562 7.984375 -4.101562 C 8.203125 -4.539062 9.554688 -7.066406 9.554688 -7.328125 C 9.554688 -7.546875 9.378906 -7.808594 9.164062 -7.808594 C 8.945312 -7.808594 8.683594 -7.636719 8.421875 -7.113281 C 7.023438 -4.625 5.757812 -1.570312 4.449219 0.960938 C 3.96875 1.964844 3.359375 3.140625 2.398438 3.664062 C 0.4375 -0.0859375 2.878906 -13.65625 4.101562 -18.0625 C 4.230469 -18.5 5.367188 -21.03125 3.925781 -21.03125 C 2.792969 -21.03125 2.398438 -18.847656 2.007812 -17.582031 C 0.917969 -13.570312 0.0859375 -7.679688 0.0859375 -3.359375 Z M 0.0859375 -3.359375 "/></g></g></g><g fill="#ebb22f" fill-opacity="1"><g transform="translate(204.07864, 192.754188)"><g><path d="M 0.0859375 -3.359375 C 0.0859375 -0.523438 0.175781 4.84375 2.53125 4.84375 C 3.621094 4.84375 4.449219 3.183594 4.929688 2.441406 C 5.890625 0.828125 7.066406 -2.226562 7.984375 -4.101562 C 8.203125 -4.539062 9.554688 -7.066406 9.554688 -7.328125 C 9.554688 -7.546875 9.378906 -7.808594 9.164062 -7.808594 C 8.945312 -7.808594 8.683594 -7.636719 8.421875 -7.113281 C 7.023438 -4.625 5.757812 -1.570312 4.449219 0.960938 C 3.96875 1.964844 3.359375 3.140625 2.398438 3.664062 C 0.4375 -0.0859375 2.878906 -13.65625 4.101562 -18.0625 C 4.230469 -18.5 5.367188 -21.03125 3.925781 -21.03125 C 2.792969 -21.03125 2.398438 -18.847656 2.007812 -17.582031 C 0.917969 -13.570312 0.0859375 -7.679688 0.0859375 -3.359375 Z M 0.0859375 -3.359375 "/></g></g></g><g fill="#ebb22f" fill-opacity="1"><g transform="translate(211.756949, 192.754188)"><g><path d="M 2.007812 -7.898438 C 2.3125 -8.988281 3.753906 -10.6875 4.929688 -10.90625 C 4.800781 -9.511719 3.097656 -8.464844 2.007812 -7.898438 Z M 0.0429688 -6.851562 C 0.0429688 -5.628906 0 -4.539062 1.046875 -3.492188 C 1.789062 -2.75 2.660156 -2.441406 3.578125 -2.441406 C 6.238281 -2.441406 9.25 -5.105469 10.863281 -6.71875 C 11.257812 -7.199219 11.257812 -7.242188 11.125 -7.898438 C 9.816406 -7.898438 10.515625 -7.722656 8.726562 -6.328125 C 8.421875 -6.109375 8.289062 -5.933594 7.941406 -5.671875 C 7.066406 -5.015625 5.234375 -3.753906 3.707031 -3.753906 C 3.183594 -3.753906 2.660156 -3.925781 2.269531 -4.320312 C 1.527344 -5.0625 1.613281 -5.757812 1.613281 -6.675781 C 2.96875 -6.761719 4.539062 -8.027344 5.234375 -8.8125 C 6.589844 -10.515625 6.589844 -12.261719 4.667969 -12.261719 C 2.574219 -12.261719 0.0429688 -9.03125 0.0429688 -6.851562 Z M 0.0429688 -6.851562 "/></g></g></g><g fill="#ebb22f" fill-opacity="1"><g transform="translate(221.223942, 192.754188)"><g/></g></g><g fill="#ebb22f" fill-opacity="1"><g transform="translate(232.523263, 192.754188)"><g><path d="M 0 -3.316406 L 0 0.394531 C 0 1.222656 0.0859375 1.351562 0.132812 2.007812 C 0.21875 3.097656 -0.175781 4.582031 1.003906 4.582031 C 1.875 4.582031 2.136719 2.09375 2.792969 0.175781 L 4.710938 -4.015625 C 5.191406 -2.007812 5.496094 0 6.152344 1.917969 C 6.5 2.96875 6.980469 4.972656 8.070312 5.496094 C 8.203125 5.542969 8.332031 5.585938 8.421875 5.585938 C 8.769531 5.585938 8.988281 5.277344 9.207031 5.015625 C 9.074219 4.449219 8.683594 4.058594 8.246094 2.96875 C 7.589844 1.222656 6.675781 -2.660156 6.5 -4.492188 C 6.238281 -6.980469 6.195312 -6.9375 6.980469 -8.246094 C 7.199219 -8.59375 7.417969 -8.902344 7.636719 -9.25 C 8.902344 -11.386719 10.644531 -12.828125 8.769531 -12.828125 C 7.328125 -12.828125 1.964844 -1.570312 1.703125 -1.308594 C 1.703125 -7.503906 2.488281 -16.097656 3.664062 -22.558594 C 4.015625 -24.519531 4.84375 -26.046875 3.140625 -26.046875 C 1.613281 -26.046875 0.699219 -16.667969 0.566406 -15.664062 C 0.21875 -11.78125 0 -7.503906 0 -3.316406 Z M 0 -3.316406 "/></g></g></g><g fill="#ebb22f" fill-opacity="1"><g transform="translate(242.426529, 192.754188)"><g><path d="M 3.621094 0.175781 C 5.671875 0.175781 7.328125 -1.746094 8.378906 -2.835938 C 9.074219 -3.535156 11.691406 -6.457031 11.691406 -7.285156 C 11.691406 -7.679688 11.5625 -7.808594 11.386719 -7.808594 C 10.558594 -7.808594 8.246094 -4.710938 8.070312 -4.492188 C 7.417969 -3.664062 5.148438 -1.351562 3.753906 -1.351562 C 2.574219 -1.351562 2.09375 -3.925781 2.09375 -5.234375 C 2.09375 -9.6875 3.839844 -11.648438 1.832031 -11.648438 C 0.960938 -11.648438 0.523438 -9.6875 0.394531 -8.769531 C -0.0859375 -6.542969 0 -3.535156 1.046875 -1.570312 C 1.527344 -0.742188 2.441406 0.175781 3.621094 0.175781 Z M 2.226562 -17.148438 C 2.226562 -16.1875 2.792969 -15.75 3.402344 -15.75 C 4.277344 -15.75 5.191406 -16.710938 4.363281 -18.324219 C 4.101562 -18.804688 3.796875 -18.980469 3.492188 -18.980469 C 2.835938 -18.980469 2.226562 -18.148438 2.226562 -17.148438 Z M 2.226562 -17.148438 "/></g></g></g><g fill="#ebb22f" fill-opacity="1"><g transform="translate(252.373427, 192.754188)"><g><path d="M -12.261719 -19.460938 C -12.261719 -18.847656 -11.824219 -18.71875 -11.34375 -18.71875 C -11.082031 -18.71875 -10.820312 -18.761719 -10.601562 -18.804688 C -10.210938 -19.632812 -10.644531 -19.460938 -9.554688 -19.894531 C -9.03125 -20.113281 -8.640625 -20.417969 -8.117188 -20.636719 C -5.410156 -21.683594 -2.921875 -22.425781 -0.0429688 -23.125 C 0.394531 -23.253906 1.394531 -23.429688 1.65625 -23.515625 L 1.265625 -19.460938 C 1.222656 -18.890625 1.179688 -17.933594 1.089844 -17.363281 C 0.871094 -16.097656 0.828125 -10.210938 0.828125 -8.550781 L 0.699219 -6.5 C 0.699219 -3.316406 0.566406 1.875 0.828125 5.015625 C 0.828125 6.066406 0.871094 7.636719 2.007812 7.636719 C 3.140625 7.636719 2.488281 4.625 2.488281 3.621094 C 2.398438 1.703125 2.441406 -7.023438 2.574219 -8.332031 C 2.660156 -9.25 2.574219 -11.214844 2.574219 -12.476562 C 2.574219 -13.089844 2.707031 -13.089844 2.707031 -13.65625 C 2.707031 -14.09375 2.660156 -14.617188 2.707031 -15.007812 L 3.578125 -23.953125 C 4.625 -24.171875 11.257812 -25.4375 13.65625 -25.4375 C 13.960938 -25.4375 14.179688 -25.4375 14.355469 -25.394531 C 14.878906 -25.261719 14.746094 -25.4375 14.878906 -25 C 16.535156 -25 16.011719 -26.746094 13.960938 -26.746094 C 11.300781 -26.746094 8.726562 -26.308594 6.195312 -25.828125 C 5.542969 -25.742188 4.625 -25.480469 3.925781 -25.480469 C 3.925781 -26.875 4.800781 -25.742188 4.800781 -26.875 C 4.800781 -27.136719 4.753906 -27.3125 4.753906 -27.445312 C 4.710938 -27.878906 4.800781 -27.53125 4.800781 -28.054688 C 4.800781 -28.753906 4.449219 -29.320312 3.96875 -29.320312 C 3.402344 -29.320312 2.707031 -28.535156 2.269531 -26.179688 C 1.964844 -24.695312 2.09375 -25.085938 0.261719 -24.609375 C -2.226562 -23.910156 -12.261719 -21.421875 -12.261719 -19.460938 Z M -12.261719 -19.460938 "/></g></g></g><g fill="#ebb22f" fill-opacity="1"><g transform="translate(257.434125, 192.754188)"><g><path d="M 0 -5.976562 C 0 -3.230469 1.222656 -0.65625 4.230469 -0.65625 C 7.328125 -0.65625 10.078125 -3.664062 11.867188 -5.933594 C 12.085938 -6.195312 12.390625 -6.589844 12.523438 -6.894531 C 12.785156 -7.460938 12.566406 -7.941406 12.171875 -7.941406 C 11.953125 -7.941406 11.605469 -7.722656 11.300781 -7.285156 C 9.6875 -5.105469 7.285156 -2.09375 4.277344 -2.09375 C 3.230469 -2.09375 2.75 -2.660156 2.441406 -3.445312 C 1.394531 -5.585938 2.921875 -9.425781 4.449219 -10.472656 C 4.539062 -9.730469 4.886719 -9.335938 5.234375 -9.335938 C 5.542969 -9.335938 5.804688 -9.6875 5.804688 -10.472656 C 5.804688 -11.605469 5.277344 -12.214844 4.40625 -12.214844 C 1.875 -12.214844 0 -8.027344 0 -5.976562 Z M 0 -5.976562 "/></g></g></g><g fill="#ebb22f" fill-opacity="1"><g transform="translate(267.991794, 192.754188)"><g><path d="M -0.261719 -3.621094 C -0.261719 -2.3125 -0.132812 5.714844 1.441406 5.714844 C 2.269531 5.714844 2.53125 5.542969 2.835938 4.625 C 3.359375 3.011719 3.707031 1.179688 4.40625 -0.65625 C 4.929688 -1.964844 6.589844 -6.109375 7.417969 -6.71875 C 7.417969 -5.496094 7.460938 -3.535156 7.636719 -2.574219 C 7.941406 -0.785156 8.59375 0 9.511719 0 C 11.5625 0 13.570312 -3.664062 14.441406 -5.234375 C 14.878906 -6.109375 15.445312 -6.589844 15.183594 -7.636719 C 15.007812 -7.679688 14.835938 -7.722656 14.703125 -7.722656 C 14.355469 -7.722656 14.09375 -7.417969 13.570312 -6.5 C 13.21875 -5.804688 12.871094 -5.191406 12.476562 -4.539062 C 11.738281 -3.492188 10.820312 -1.703125 9.511719 -1.394531 C 8.945312 -2.488281 8.945312 -3.492188 8.945312 -5.148438 C 8.945312 -5.933594 8.945312 -8.59375 7.984375 -8.59375 C 6.675781 -8.59375 6.28125 -7.679688 5.628906 -6.5 C 3.753906 -3.097656 3.359375 -1.789062 2.179688 1.703125 L 1.832031 2.53125 L 1.703125 -2.355469 C 1.703125 -6.71875 2.136719 -11.867188 2.792969 -15.882812 C 3.011719 -17.363281 3.664062 -19.414062 3.359375 -20.769531 C 3.054688 -20.8125 2.835938 -20.855469 2.660156 -20.855469 C 2.226562 -20.855469 2.09375 -20.550781 1.703125 -19.414062 C 1.003906 -16.625 0.304688 -13.789062 0.175781 -10.863281 C 0.132812 -10.210938 0.0429688 -9.207031 0 -8.550781 Z M -0.261719 -3.621094 "/></g></g></g><g fill="#ebb22f" fill-opacity="1"><g transform="translate(281.297941, 192.754188)"><g><path d="M 2.007812 -7.898438 C 2.3125 -8.988281 3.753906 -10.6875 4.929688 -10.90625 C 4.800781 -9.511719 3.097656 -8.464844 2.007812 -7.898438 Z M 0.0429688 -6.851562 C 0.0429688 -5.628906 0 -4.539062 1.046875 -3.492188 C 1.789062 -2.75 2.660156 -2.441406 3.578125 -2.441406 C 6.238281 -2.441406 9.25 -5.105469 10.863281 -6.71875 C 11.257812 -7.199219 11.257812 -7.242188 11.125 -7.898438 C 9.816406 -7.898438 10.515625 -7.722656 8.726562 -6.328125 C 8.421875 -6.109375 8.289062 -5.933594 7.941406 -5.671875 C 7.066406 -5.015625 5.234375 -3.753906 3.707031 -3.753906 C 3.183594 -3.753906 2.660156 -3.925781 2.269531 -4.320312 C 1.527344 -5.0625 1.613281 -5.757812 1.613281 -6.675781 C 2.96875 -6.761719 4.539062 -8.027344 5.234375 -8.8125 C 6.589844 -10.515625 6.589844 -12.261719 4.667969 -12.261719 C 2.574219 -12.261719 0.0429688 -9.03125 0.0429688 -6.851562 Z M 0.0429688 -6.851562 "/></g></g></g><g fill="#ebb22f" fill-opacity="1"><g transform="translate(290.764934, 192.754188)"><g><path d="M 1.222656 -2.269531 C 2.921875 -2.269531 4.667969 -7.851562 6.109375 -8.8125 C 6.5 -7.984375 5.890625 -6.238281 6.761719 -3.621094 C 7.15625 -2.441406 7.898438 -1.265625 9.25 -1.265625 C 9.511719 -1.265625 9.773438 -1.308594 10.078125 -1.394531 C 11.082031 -1.65625 12.476562 -3.402344 13.089844 -4.1875 C 13.351562 -4.539062 15.925781 -7.765625 14.222656 -7.765625 C 13.4375 -7.765625 11.125 -2.574219 9.378906 -2.574219 C 7.765625 -2.574219 7.679688 -6.457031 7.679688 -7.546875 L 7.417969 -9.992188 C 7.199219 -10.472656 6.894531 -10.6875 6.589844 -10.6875 C 5.542969 -10.6875 4.230469 -8.464844 3.96875 -7.984375 L 1.875 -4.800781 C 1.875 -8.203125 4.710938 -12.304688 2.792969 -12.304688 C 1.132812 -12.304688 -1.570312 -2.269531 1.222656 -2.269531 Z M 1.222656 -2.269531 "/></g></g></g><g fill="#4d433a" fill-opacity="1"><g transform="translate(155.80383, 209.614596)"><g><path d="M 6.90625 -1.765625 C 6.90625 -1.398438 6.832031 -1.101562 6.6875 -0.875 C 6.550781 -0.644531 6.359375 -0.460938 6.109375 -0.328125 C 5.867188 -0.203125 5.582031 -0.113281 5.25 -0.0625 C 4.914062 -0.0195312 4.554688 0 4.171875 0 L 1.046875 0 C 0.984375 0 0.9375 -0.015625 0.90625 -0.046875 C 0.875 -0.0859375 0.859375 -0.132812 0.859375 -0.1875 L 0.859375 -5.828125 C 0.859375 -5.890625 0.878906 -5.9375 0.921875 -5.96875 C 0.960938 -6.007812 1.015625 -6.03125 1.078125 -6.03125 L 3.546875 -6.03125 C 3.804688 -6.03125 4.0625 -6.023438 4.3125 -6.015625 C 4.570312 -6.015625 4.8125 -6 5.03125 -5.96875 C 5.257812 -5.9375 5.46875 -5.890625 5.65625 -5.828125 C 5.84375 -5.765625 6.003906 -5.675781 6.140625 -5.5625 C 6.285156 -5.445312 6.394531 -5.304688 6.46875 -5.140625 C 6.550781 -4.972656 6.59375 -4.765625 6.59375 -4.515625 C 6.59375 -4.304688 6.5625 -4.128906 6.5 -3.984375 C 6.445312 -3.847656 6.375 -3.726562 6.28125 -3.625 C 6.195312 -3.53125 6.097656 -3.453125 5.984375 -3.390625 C 5.878906 -3.335938 5.773438 -3.296875 5.671875 -3.265625 C 5.578125 -3.242188 5.488281 -3.226562 5.40625 -3.21875 C 5.320312 -3.21875 5.257812 -3.21875 5.21875 -3.21875 L 5.1875 -3.21875 C 5.40625 -3.195312 5.613281 -3.15625 5.8125 -3.09375 C 6.019531 -3.039062 6.203125 -2.957031 6.359375 -2.84375 C 6.523438 -2.738281 6.65625 -2.597656 6.75 -2.421875 C 6.851562 -2.242188 6.90625 -2.023438 6.90625 -1.765625 Z M 6.140625 -4.515625 C 6.140625 -4.703125 6.109375 -4.863281 6.046875 -5 C 5.984375 -5.144531 5.863281 -5.265625 5.6875 -5.359375 C 5.519531 -5.460938 5.28125 -5.539062 4.96875 -5.59375 C 4.65625 -5.644531 4.25 -5.671875 3.75 -5.671875 L 1.328125 -5.671875 L 1.328125 -3.34375 L 3.890625 -3.34375 C 4.273438 -3.34375 4.609375 -3.359375 4.890625 -3.390625 C 5.171875 -3.421875 5.40625 -3.476562 5.59375 -3.5625 C 5.78125 -3.65625 5.914062 -3.773438 6 -3.921875 C 6.09375 -4.078125 6.140625 -4.273438 6.140625 -4.515625 Z M 6.453125 -1.765625 C 6.453125 -2.015625 6.390625 -2.222656 6.265625 -2.390625 C 6.148438 -2.554688 5.976562 -2.6875 5.75 -2.78125 C 5.53125 -2.875 5.257812 -2.941406 4.9375 -2.984375 C 4.625 -3.023438 4.273438 -3.046875 3.890625 -3.046875 L 1.328125 -3.046875 L 1.328125 -0.359375 L 4.375 -0.359375 C 4.851562 -0.359375 5.234375 -0.394531 5.515625 -0.46875 C 5.796875 -0.550781 6.003906 -0.65625 6.140625 -0.78125 C 6.273438 -0.914062 6.359375 -1.066406 6.390625 -1.234375 C 6.429688 -1.410156 6.453125 -1.585938 6.453125 -1.765625 Z M 6.453125 -1.765625 "/></g></g></g><g fill="#4d433a" fill-opacity="1"><g transform="translate(163.420988, 209.614596)"><g><path d="M 3.25 -3.9375 C 2.914062 -3.9375 2.617188 -3.90625 2.359375 -3.84375 C 2.097656 -3.789062 1.875 -3.695312 1.6875 -3.5625 C 1.507812 -3.4375 1.367188 -3.269531 1.265625 -3.0625 C 1.160156 -2.863281 1.101562 -2.617188 1.09375 -2.328125 L 5.171875 -2.328125 L 5.171875 -2.625 C 5.171875 -2.800781 5.132812 -2.96875 5.0625 -3.125 C 5 -3.289062 4.890625 -3.429688 4.734375 -3.546875 C 4.585938 -3.671875 4.390625 -3.765625 4.140625 -3.828125 C 3.898438 -3.898438 3.601562 -3.9375 3.25 -3.9375 Z M 2.96875 -0.265625 C 3.3125 -0.265625 3.609375 -0.285156 3.859375 -0.328125 C 4.117188 -0.367188 4.335938 -0.421875 4.515625 -0.484375 C 4.703125 -0.546875 4.851562 -0.609375 4.96875 -0.671875 C 5.09375 -0.742188 5.1875 -0.800781 5.25 -0.84375 C 5.269531 -0.84375 5.285156 -0.84375 5.296875 -0.84375 C 5.328125 -0.84375 5.359375 -0.820312 5.390625 -0.78125 C 5.429688 -0.75 5.453125 -0.710938 5.453125 -0.671875 C 5.453125 -0.628906 5.429688 -0.597656 5.390625 -0.578125 C 5.359375 -0.546875 5.289062 -0.492188 5.1875 -0.421875 C 5.082031 -0.347656 4.929688 -0.273438 4.734375 -0.203125 C 4.535156 -0.140625 4.289062 -0.0820312 4 -0.03125 C 3.707031 0.0195312 3.359375 0.046875 2.953125 0.046875 C 2.535156 0.046875 2.179688 -0.00390625 1.890625 -0.109375 C 1.597656 -0.210938 1.359375 -0.359375 1.171875 -0.546875 C 0.992188 -0.734375 0.863281 -0.957031 0.78125 -1.21875 C 0.695312 -1.476562 0.65625 -1.765625 0.65625 -2.078125 C 0.65625 -2.492188 0.722656 -2.84375 0.859375 -3.125 C 0.992188 -3.40625 1.175781 -3.628906 1.40625 -3.796875 C 1.632812 -3.960938 1.90625 -4.078125 2.21875 -4.140625 C 2.539062 -4.210938 2.882812 -4.25 3.25 -4.25 C 4 -4.25 4.554688 -4.101562 4.921875 -3.8125 C 5.296875 -3.53125 5.484375 -3.125 5.484375 -2.59375 C 5.484375 -2.539062 5.476562 -2.484375 5.46875 -2.421875 C 5.46875 -2.359375 5.460938 -2.296875 5.453125 -2.234375 C 5.441406 -2.179688 5.425781 -2.132812 5.40625 -2.09375 C 5.382812 -2.0625 5.367188 -2.046875 5.359375 -2.046875 L 3.765625 -2.046875 L 1.09375 -2.109375 C 1.09375 -1.765625 1.132812 -1.476562 1.21875 -1.25 C 1.300781 -1.019531 1.421875 -0.832031 1.578125 -0.6875 C 1.734375 -0.539062 1.925781 -0.429688 2.15625 -0.359375 C 2.382812 -0.296875 2.65625 -0.265625 2.96875 -0.265625 Z M 2.96875 -0.265625 "/></g></g></g><g fill="#4d433a" fill-opacity="1"><g transform="translate(169.534191, 209.614596)"><g><path d="M 3.234375 -4.0625 C 3.285156 -4.0625 3.320312 -4.046875 3.34375 -4.015625 C 3.375 -3.992188 3.390625 -3.96875 3.390625 -3.9375 C 3.390625 -3.90625 3.375 -3.875 3.34375 -3.84375 C 3.320312 -3.8125 3.285156 -3.796875 3.234375 -3.796875 L 1.4375 -3.796875 L 1.4375 -1.515625 C 1.4375 -1.242188 1.460938 -1.023438 1.515625 -0.859375 C 1.566406 -0.703125 1.640625 -0.578125 1.734375 -0.484375 C 1.828125 -0.398438 1.9375 -0.34375 2.0625 -0.3125 C 2.1875 -0.28125 2.316406 -0.265625 2.453125 -0.265625 C 2.628906 -0.265625 2.800781 -0.296875 2.96875 -0.359375 C 3.132812 -0.421875 3.320312 -0.507812 3.53125 -0.625 C 3.582031 -0.644531 3.625 -0.65625 3.65625 -0.65625 C 3.707031 -0.65625 3.742188 -0.640625 3.765625 -0.609375 C 3.796875 -0.585938 3.8125 -0.554688 3.8125 -0.515625 C 3.8125 -0.441406 3.769531 -0.382812 3.6875 -0.34375 C 3.539062 -0.257812 3.40625 -0.191406 3.28125 -0.140625 C 3.164062 -0.0859375 3.054688 -0.046875 2.953125 -0.015625 C 2.859375 0.00390625 2.765625 0.0195312 2.671875 0.03125 C 2.578125 0.0390625 2.476562 0.046875 2.375 0.046875 C 2.1875 0.046875 2.003906 0.0195312 1.828125 -0.03125 C 1.660156 -0.0820312 1.515625 -0.164062 1.390625 -0.28125 C 1.273438 -0.40625 1.179688 -0.566406 1.109375 -0.765625 C 1.035156 -0.972656 1 -1.222656 1 -1.515625 L 1 -3.796875 L 0.53125 -3.796875 C 0.476562 -3.796875 0.4375 -3.8125 0.40625 -3.84375 C 0.382812 -3.875 0.375 -3.90625 0.375 -3.9375 C 0.375 -3.96875 0.382812 -3.992188 0.40625 -4.015625 C 0.4375 -4.046875 0.476562 -4.0625 0.53125 -4.0625 L 1 -4.0625 L 1 -5.40625 C 1 -5.519531 1.019531 -5.59375 1.0625 -5.625 C 1.113281 -5.65625 1.164062 -5.671875 1.21875 -5.671875 C 1.28125 -5.671875 1.332031 -5.65625 1.375 -5.625 C 1.414062 -5.59375 1.4375 -5.519531 1.4375 -5.40625 L 1.4375 -4.0625 Z M 3.234375 -4.0625 "/></g></g></g><g fill="#4d433a" fill-opacity="1"><g transform="translate(173.396869, 209.614596)"><g><path d="M 3.234375 -4.0625 C 3.285156 -4.0625 3.320312 -4.046875 3.34375 -4.015625 C 3.375 -3.992188 3.390625 -3.96875 3.390625 -3.9375 C 3.390625 -3.90625 3.375 -3.875 3.34375 -3.84375 C 3.320312 -3.8125 3.285156 -3.796875 3.234375 -3.796875 L 1.4375 -3.796875 L 1.4375 -1.515625 C 1.4375 -1.242188 1.460938 -1.023438 1.515625 -0.859375 C 1.566406 -0.703125 1.640625 -0.578125 1.734375 -0.484375 C 1.828125 -0.398438 1.9375 -0.34375 2.0625 -0.3125 C 2.1875 -0.28125 2.316406 -0.265625 2.453125 -0.265625 C 2.628906 -0.265625 2.800781 -0.296875 2.96875 -0.359375 C 3.132812 -0.421875 3.320312 -0.507812 3.53125 -0.625 C 3.582031 -0.644531 3.625 -0.65625 3.65625 -0.65625 C 3.707031 -0.65625 3.742188 -0.640625 3.765625 -0.609375 C 3.796875 -0.585938 3.8125 -0.554688 3.8125 -0.515625 C 3.8125 -0.441406 3.769531 -0.382812 3.6875 -0.34375 C 3.539062 -0.257812 3.40625 -0.191406 3.28125 -0.140625 C 3.164062 -0.0859375 3.054688 -0.046875 2.953125 -0.015625 C 2.859375 0.00390625 2.765625 0.0195312 2.671875 0.03125 C 2.578125 0.0390625 2.476562 0.046875 2.375 0.046875 C 2.1875 0.046875 2.003906 0.0195312 1.828125 -0.03125 C 1.660156 -0.0820312 1.515625 -0.164062 1.390625 -0.28125 C 1.273438 -0.40625 1.179688 -0.566406 1.109375 -0.765625 C 1.035156 -0.972656 1 -1.222656 1 -1.515625 L 1 -3.796875 L 0.53125 -3.796875 C 0.476562 -3.796875 0.4375 -3.8125 0.40625 -3.84375 C 0.382812 -3.875 0.375 -3.90625 0.375 -3.9375 C 0.375 -3.96875 0.382812 -3.992188 0.40625 -4.015625 C 0.4375 -4.046875 0.476562 -4.0625 0.53125 -4.0625 L 1 -4.0625 L 1 -5.40625 C 1 -5.519531 1.019531 -5.59375 1.0625 -5.625 C 1.113281 -5.65625 1.164062 -5.671875 1.21875 -5.671875 C 1.28125 -5.671875 1.332031 -5.65625 1.375 -5.625 C 1.414062 -5.59375 1.4375 -5.519531 1.4375 -5.40625 L 1.4375 -4.0625 Z M 3.234375 -4.0625 "/></g></g></g><g fill="#4d433a" fill-opacity="1"><g transform="translate(177.259548, 209.614596)"><g><path d="M 3.25 -3.9375 C 2.914062 -3.9375 2.617188 -3.90625 2.359375 -3.84375 C 2.097656 -3.789062 1.875 -3.695312 1.6875 -3.5625 C 1.507812 -3.4375 1.367188 -3.269531 1.265625 -3.0625 C 1.160156 -2.863281 1.101562 -2.617188 1.09375 -2.328125 L 5.171875 -2.328125 L 5.171875 -2.625 C 5.171875 -2.800781 5.132812 -2.96875 5.0625 -3.125 C 5 -3.289062 4.890625 -3.429688 4.734375 -3.546875 C 4.585938 -3.671875 4.390625 -3.765625 4.140625 -3.828125 C 3.898438 -3.898438 3.601562 -3.9375 3.25 -3.9375 Z M 2.96875 -0.265625 C 3.3125 -0.265625 3.609375 -0.285156 3.859375 -0.328125 C 4.117188 -0.367188 4.335938 -0.421875 4.515625 -0.484375 C 4.703125 -0.546875 4.851562 -0.609375 4.96875 -0.671875 C 5.09375 -0.742188 5.1875 -0.800781 5.25 -0.84375 C 5.269531 -0.84375 5.285156 -0.84375 5.296875 -0.84375 C 5.328125 -0.84375 5.359375 -0.820312 5.390625 -0.78125 C 5.429688 -0.75 5.453125 -0.710938 5.453125 -0.671875 C 5.453125 -0.628906 5.429688 -0.597656 5.390625 -0.578125 C 5.359375 -0.546875 5.289062 -0.492188 5.1875 -0.421875 C 5.082031 -0.347656 4.929688 -0.273438 4.734375 -0.203125 C 4.535156 -0.140625 4.289062 -0.0820312 4 -0.03125 C 3.707031 0.0195312 3.359375 0.046875 2.953125 0.046875 C 2.535156 0.046875 2.179688 -0.00390625 1.890625 -0.109375 C 1.597656 -0.210938 1.359375 -0.359375 1.171875 -0.546875 C 0.992188 -0.734375 0.863281 -0.957031 0.78125 -1.21875 C 0.695312 -1.476562 0.65625 -1.765625 0.65625 -2.078125 C 0.65625 -2.492188 0.722656 -2.84375 0.859375 -3.125 C 0.992188 -3.40625 1.175781 -3.628906 1.40625 -3.796875 C 1.632812 -3.960938 1.90625 -4.078125 2.21875 -4.140625 C 2.539062 -4.210938 2.882812 -4.25 3.25 -4.25 C 4 -4.25 4.554688 -4.101562 4.921875 -3.8125 C 5.296875 -3.53125 5.484375 -3.125 5.484375 -2.59375 C 5.484375 -2.539062 5.476562 -2.484375 5.46875 -2.421875 C 5.46875 -2.359375 5.460938 -2.296875 5.453125 -2.234375 C 5.441406 -2.179688 5.425781 -2.132812 5.40625 -2.09375 C 5.382812 -2.0625 5.367188 -2.046875 5.359375 -2.046875 L 3.765625 -2.046875 L 1.09375 -2.109375 C 1.09375 -1.765625 1.132812 -1.476562 1.21875 -1.25 C 1.300781 -1.019531 1.421875 -0.832031 1.578125 -0.6875 C 1.734375 -0.539062 1.925781 -0.429688 2.15625 -0.359375 C 2.382812 -0.296875 2.65625 -0.265625 2.96875 -0.265625 Z M 2.96875 -0.265625 "/></g></g></g><g fill="#4d433a" fill-opacity="1"><g transform="translate(183.372751, 209.614596)"><g><path d="M 4.046875 -4.125 C 4.085938 -4.113281 4.113281 -4.09375 4.125 -4.0625 C 4.144531 -4.03125 4.15625 -3.992188 4.15625 -3.953125 C 4.15625 -3.910156 4.140625 -3.867188 4.109375 -3.828125 C 4.078125 -3.785156 4.03125 -3.765625 3.96875 -3.765625 C 3.957031 -3.765625 3.945312 -3.765625 3.9375 -3.765625 C 3.9375 -3.773438 3.925781 -3.78125 3.90625 -3.78125 C 3.769531 -3.820312 3.632812 -3.851562 3.5 -3.875 C 3.375 -3.894531 3.238281 -3.90625 3.09375 -3.90625 C 2.875 -3.90625 2.664062 -3.882812 2.46875 -3.84375 C 2.28125 -3.800781 2.109375 -3.738281 1.953125 -3.65625 C 1.796875 -3.570312 1.660156 -3.460938 1.546875 -3.328125 C 1.429688 -3.191406 1.34375 -3.035156 1.28125 -2.859375 L 1.28125 -0.375 C 1.28125 -0.28125 1.269531 -0.191406 1.25 -0.109375 C 1.226562 -0.0351562 1.171875 0 1.078125 0 C 1.023438 0 0.984375 -0.0078125 0.953125 -0.03125 C 0.921875 -0.0507812 0.894531 -0.078125 0.875 -0.109375 C 0.863281 -0.148438 0.859375 -0.191406 0.859375 -0.234375 C 0.859375 -0.285156 0.859375 -0.332031 0.859375 -0.375 L 0.859375 -3.84375 C 0.859375 -3.925781 0.867188 -3.992188 0.890625 -4.046875 C 0.921875 -4.109375 0.988281 -4.140625 1.09375 -4.140625 C 1.175781 -4.140625 1.226562 -4.109375 1.25 -4.046875 C 1.269531 -3.992188 1.28125 -3.925781 1.28125 -3.84375 L 1.28125 -3.21875 C 1.34375 -3.4375 1.441406 -3.613281 1.578125 -3.75 C 1.722656 -3.882812 1.882812 -3.988281 2.0625 -4.0625 C 2.238281 -4.132812 2.414062 -4.179688 2.59375 -4.203125 C 2.78125 -4.234375 2.945312 -4.25 3.09375 -4.25 C 3.226562 -4.25 3.34375 -4.242188 3.4375 -4.234375 C 3.539062 -4.222656 3.628906 -4.210938 3.703125 -4.203125 C 3.773438 -4.191406 3.835938 -4.175781 3.890625 -4.15625 C 3.941406 -4.144531 3.992188 -4.132812 4.046875 -4.125 Z M 4.046875 -4.125 "/></g></g></g><g fill="#4d433a" fill-opacity="1"><g transform="translate(187.749377, 209.614596)"><g/></g></g><g fill="#4d433a" fill-opacity="1"><g transform="translate(190.237938, 209.614596)"><g><path d="M 1.328125 -0.375 C 1.328125 -0.269531 1.3125 -0.179688 1.28125 -0.109375 C 1.25 -0.0351562 1.191406 0 1.109375 0 C 1.003906 0 0.9375 -0.0351562 0.90625 -0.109375 C 0.882812 -0.179688 0.875 -0.269531 0.875 -0.375 L 0.875 -5.828125 C 0.875 -5.878906 0.875 -5.914062 0.875 -5.9375 C 0.875 -5.96875 0.878906 -5.988281 0.890625 -6 C 0.898438 -6.007812 0.914062 -6.015625 0.9375 -6.015625 C 0.96875 -6.023438 1.015625 -6.03125 1.078125 -6.03125 L 6.359375 -6.03125 C 6.410156 -6.03125 6.457031 -6.023438 6.5 -6.015625 C 6.539062 -6.015625 6.570312 -6.007812 6.59375 -6 C 6.625 -5.988281 6.648438 -5.96875 6.671875 -5.9375 C 6.691406 -5.914062 6.703125 -5.882812 6.703125 -5.84375 C 6.703125 -5.757812 6.671875 -5.707031 6.609375 -5.6875 C 6.546875 -5.675781 6.460938 -5.671875 6.359375 -5.671875 L 1.328125 -5.671875 L 1.328125 -3.21875 L 5.59375 -3.21875 C 5.695312 -3.21875 5.78125 -3.207031 5.84375 -3.1875 C 5.90625 -3.175781 5.9375 -3.128906 5.9375 -3.046875 C 5.9375 -2.992188 5.925781 -2.957031 5.90625 -2.9375 C 5.894531 -2.914062 5.867188 -2.894531 5.828125 -2.875 C 5.796875 -2.863281 5.757812 -2.859375 5.71875 -2.859375 C 5.675781 -2.859375 5.632812 -2.859375 5.59375 -2.859375 L 1.328125 -2.859375 Z M 1.328125 -0.375 "/></g></g></g><g fill="#4d433a" fill-opacity="1"><g transform="translate(196.940827, 209.614596)"><g><path d="M 3.359375 0.046875 C 2.859375 0.046875 2.4375 0 2.09375 -0.09375 C 1.75 -0.195312 1.472656 -0.335938 1.265625 -0.515625 C 1.054688 -0.703125 0.90625 -0.925781 0.8125 -1.1875 C 0.71875 -1.445312 0.671875 -1.742188 0.671875 -2.078125 C 0.671875 -2.460938 0.722656 -2.789062 0.828125 -3.0625 C 0.929688 -3.332031 1.09375 -3.554688 1.3125 -3.734375 C 1.539062 -3.910156 1.820312 -4.039062 2.15625 -4.125 C 2.488281 -4.207031 2.890625 -4.25 3.359375 -4.25 C 3.816406 -4.25 4.210938 -4.207031 4.546875 -4.125 C 4.890625 -4.039062 5.171875 -3.910156 5.390625 -3.734375 C 5.609375 -3.554688 5.769531 -3.332031 5.875 -3.0625 C 5.988281 -2.789062 6.046875 -2.460938 6.046875 -2.078125 C 6.046875 -1.742188 6 -1.445312 5.90625 -1.1875 C 5.8125 -0.925781 5.65625 -0.703125 5.4375 -0.515625 C 5.226562 -0.335938 4.953125 -0.195312 4.609375 -0.09375 C 4.265625 0 3.847656 0.046875 3.359375 0.046875 Z M 3.359375 -0.265625 C 3.679688 -0.265625 3.960938 -0.285156 4.203125 -0.328125 C 4.441406 -0.378906 4.644531 -0.445312 4.8125 -0.53125 C 4.976562 -0.625 5.113281 -0.726562 5.21875 -0.84375 C 5.320312 -0.957031 5.398438 -1.082031 5.453125 -1.21875 C 5.515625 -1.351562 5.554688 -1.492188 5.578125 -1.640625 C 5.597656 -1.785156 5.609375 -1.929688 5.609375 -2.078125 C 5.609375 -2.410156 5.5625 -2.691406 5.46875 -2.921875 C 5.382812 -3.160156 5.25 -3.351562 5.0625 -3.5 C 4.882812 -3.65625 4.648438 -3.765625 4.359375 -3.828125 C 4.078125 -3.898438 3.742188 -3.9375 3.359375 -3.9375 C 2.960938 -3.9375 2.617188 -3.898438 2.328125 -3.828125 C 2.046875 -3.765625 1.8125 -3.65625 1.625 -3.5 C 1.445312 -3.351562 1.3125 -3.160156 1.21875 -2.921875 C 1.132812 -2.691406 1.09375 -2.410156 1.09375 -2.078125 C 1.09375 -1.929688 1.101562 -1.785156 1.125 -1.640625 C 1.144531 -1.492188 1.1875 -1.351562 1.25 -1.21875 C 1.3125 -1.082031 1.390625 -0.957031 1.484375 -0.84375 C 1.585938 -0.726562 1.722656 -0.625 1.890625 -0.53125 C 2.054688 -0.445312 2.257812 -0.378906 2.5 -0.328125 C 2.738281 -0.285156 3.023438 -0.265625 3.359375 -0.265625 Z M 3.359375 -0.265625 "/></g></g></g><g fill="#4d433a" fill-opacity="1"><g transform="translate(203.64912, 209.614596)"><g><path d="M 3.359375 0.046875 C 2.859375 0.046875 2.4375 0 2.09375 -0.09375 C 1.75 -0.195312 1.472656 -0.335938 1.265625 -0.515625 C 1.054688 -0.703125 0.90625 -0.925781 0.8125 -1.1875 C 0.71875 -1.445312 0.671875 -1.742188 0.671875 -2.078125 C 0.671875 -2.460938 0.722656 -2.789062 0.828125 -3.0625 C 0.929688 -3.332031 1.09375 -3.554688 1.3125 -3.734375 C 1.539062 -3.910156 1.820312 -4.039062 2.15625 -4.125 C 2.488281 -4.207031 2.890625 -4.25 3.359375 -4.25 C 3.816406 -4.25 4.210938 -4.207031 4.546875 -4.125 C 4.890625 -4.039062 5.171875 -3.910156 5.390625 -3.734375 C 5.609375 -3.554688 5.769531 -3.332031 5.875 -3.0625 C 5.988281 -2.789062 6.046875 -2.460938 6.046875 -2.078125 C 6.046875 -1.742188 6 -1.445312 5.90625 -1.1875 C 5.8125 -0.925781 5.65625 -0.703125 5.4375 -0.515625 C 5.226562 -0.335938 4.953125 -0.195312 4.609375 -0.09375 C 4.265625 0 3.847656 0.046875 3.359375 0.046875 Z M 3.359375 -0.265625 C 3.679688 -0.265625 3.960938 -0.285156 4.203125 -0.328125 C 4.441406 -0.378906 4.644531 -0.445312 4.8125 -0.53125 C 4.976562 -0.625 5.113281 -0.726562 5.21875 -0.84375 C 5.320312 -0.957031 5.398438 -1.082031 5.453125 -1.21875 C 5.515625 -1.351562 5.554688 -1.492188 5.578125 -1.640625 C 5.597656 -1.785156 5.609375 -1.929688 5.609375 -2.078125 C 5.609375 -2.410156 5.5625 -2.691406 5.46875 -2.921875 C 5.382812 -3.160156 5.25 -3.351562 5.0625 -3.5 C 4.882812 -3.65625 4.648438 -3.765625 4.359375 -3.828125 C 4.078125 -3.898438 3.742188 -3.9375 3.359375 -3.9375 C 2.960938 -3.9375 2.617188 -3.898438 2.328125 -3.828125 C 2.046875 -3.765625 1.8125 -3.65625 1.625 -3.5 C 1.445312 -3.351562 1.3125 -3.160156 1.21875 -2.921875 C 1.132812 -2.691406 1.09375 -2.410156 1.09375 -2.078125 C 1.09375 -1.929688 1.101562 -1.785156 1.125 -1.640625 C 1.144531 -1.492188 1.1875 -1.351562 1.25 -1.21875 C 1.3125 -1.082031 1.390625 -0.957031 1.484375 -0.84375 C 1.585938 -0.726562 1.722656 -0.625 1.890625 -0.53125 C 2.054688 -0.445312 2.257812 -0.378906 2.5 -0.328125 C 2.738281 -0.285156 3.023438 -0.265625 3.359375 -0.265625 Z M 3.359375 -0.265625 "/></g></g></g><g fill="#4d433a" fill-opacity="1"><g transform="translate(210.357414, 209.614596)"><g><path d="M 3.0625 0.046875 C 2.738281 0.046875 2.429688 0.015625 2.140625 -0.046875 C 1.847656 -0.109375 1.59375 -0.222656 1.375 -0.390625 C 1.15625 -0.554688 0.984375 -0.769531 0.859375 -1.03125 C 0.734375 -1.300781 0.671875 -1.644531 0.671875 -2.0625 C 0.671875 -2.457031 0.722656 -2.796875 0.828125 -3.078125 C 0.929688 -3.359375 1.082031 -3.582031 1.28125 -3.75 C 1.488281 -3.925781 1.738281 -4.050781 2.03125 -4.125 C 2.332031 -4.207031 2.675781 -4.25 3.0625 -4.25 C 3.445312 -4.25 3.773438 -4.222656 4.046875 -4.171875 C 4.316406 -4.128906 4.546875 -4.070312 4.734375 -4 C 4.929688 -3.9375 5.085938 -3.863281 5.203125 -3.78125 C 5.328125 -3.707031 5.425781 -3.632812 5.5 -3.5625 L 5.5 -5.640625 C 5.5 -5.691406 5.5 -5.738281 5.5 -5.78125 C 5.5 -5.832031 5.503906 -5.875 5.515625 -5.90625 C 5.535156 -5.945312 5.554688 -5.976562 5.578125 -6 C 5.609375 -6.019531 5.648438 -6.03125 5.703125 -6.03125 C 5.753906 -6.03125 5.796875 -6.019531 5.828125 -6 C 5.859375 -5.976562 5.878906 -5.953125 5.890625 -5.921875 C 5.910156 -5.890625 5.921875 -5.847656 5.921875 -5.796875 C 5.921875 -5.753906 5.921875 -5.707031 5.921875 -5.65625 L 5.921875 -0.296875 C 5.921875 -0.179688 5.898438 -0.101562 5.859375 -0.0625 C 5.816406 -0.0195312 5.769531 0 5.71875 0 C 5.65625 0 5.601562 -0.015625 5.5625 -0.046875 C 5.519531 -0.0859375 5.5 -0.164062 5.5 -0.28125 L 5.5 -1.03125 C 5.457031 -0.875 5.382812 -0.738281 5.28125 -0.625 C 5.1875 -0.507812 5.066406 -0.410156 4.921875 -0.328125 C 4.785156 -0.253906 4.632812 -0.191406 4.46875 -0.140625 C 4.300781 -0.0859375 4.132812 -0.046875 3.96875 -0.015625 C 3.800781 0.00390625 3.640625 0.0195312 3.484375 0.03125 C 3.328125 0.0390625 3.1875 0.046875 3.0625 0.046875 Z M 3.0625 -0.265625 C 3.28125 -0.265625 3.515625 -0.28125 3.765625 -0.3125 C 4.023438 -0.34375 4.269531 -0.394531 4.5 -0.46875 C 4.738281 -0.550781 4.945312 -0.660156 5.125 -0.796875 C 5.300781 -0.941406 5.425781 -1.128906 5.5 -1.359375 L 5.5 -3.3125 C 5.414062 -3.375 5.304688 -3.441406 5.171875 -3.515625 C 5.046875 -3.585938 4.882812 -3.65625 4.6875 -3.71875 C 4.5 -3.78125 4.269531 -3.832031 4 -3.875 C 3.738281 -3.914062 3.425781 -3.9375 3.0625 -3.9375 C 2.71875 -3.9375 2.421875 -3.898438 2.171875 -3.828125 C 1.921875 -3.753906 1.710938 -3.640625 1.546875 -3.484375 C 1.390625 -3.328125 1.273438 -3.128906 1.203125 -2.890625 C 1.128906 -2.660156 1.09375 -2.382812 1.09375 -2.0625 C 1.09375 -1.71875 1.144531 -1.429688 1.25 -1.203125 C 1.351562 -0.972656 1.492188 -0.785156 1.671875 -0.640625 C 1.847656 -0.503906 2.054688 -0.40625 2.296875 -0.34375 C 2.535156 -0.289062 2.789062 -0.265625 3.0625 -0.265625 Z M 3.0625 -0.265625 "/></g></g></g><g fill="#4d433a" fill-opacity="1"><g transform="translate(217.146862, 209.614596)"><g><path d="M 0.453125 0.46875 C 0.585938 0.46875 0.675781 0.429688 0.71875 0.359375 C 0.769531 0.296875 0.796875 0.210938 0.796875 0.109375 C 0.734375 0.0976562 0.671875 0.0625 0.609375 0 C 0.554688 -0.0625 0.53125 -0.144531 0.53125 -0.25 C 0.53125 -0.351562 0.566406 -0.429688 0.640625 -0.484375 C 0.710938 -0.535156 0.804688 -0.5625 0.921875 -0.5625 C 0.960938 -0.5625 1.003906 -0.550781 1.046875 -0.53125 C 1.085938 -0.519531 1.125 -0.5 1.15625 -0.46875 C 1.195312 -0.4375 1.226562 -0.394531 1.25 -0.34375 C 1.269531 -0.289062 1.28125 -0.234375 1.28125 -0.171875 C 1.28125 -0.078125 1.257812 0.015625 1.21875 0.109375 C 1.1875 0.210938 1.132812 0.304688 1.0625 0.390625 C 1 0.472656 0.914062 0.539062 0.8125 0.59375 C 0.71875 0.644531 0.597656 0.671875 0.453125 0.671875 Z M 0.453125 0.46875 "/></g></g></g><g fill="#4d433a" fill-opacity="1"><g transform="translate(218.89427, 209.614596)"><g/></g></g><g fill="#4d433a" fill-opacity="1"><g transform="translate(221.382831, 209.614596)"><g><path d="M 6.90625 -1.765625 C 6.90625 -1.398438 6.832031 -1.101562 6.6875 -0.875 C 6.550781 -0.644531 6.359375 -0.460938 6.109375 -0.328125 C 5.867188 -0.203125 5.582031 -0.113281 5.25 -0.0625 C 4.914062 -0.0195312 4.554688 0 4.171875 0 L 1.046875 0 C 0.984375 0 0.9375 -0.015625 0.90625 -0.046875 C 0.875 -0.0859375 0.859375 -0.132812 0.859375 -0.1875 L 0.859375 -5.828125 C 0.859375 -5.890625 0.878906 -5.9375 0.921875 -5.96875 C 0.960938 -6.007812 1.015625 -6.03125 1.078125 -6.03125 L 3.546875 -6.03125 C 3.804688 -6.03125 4.0625 -6.023438 4.3125 -6.015625 C 4.570312 -6.015625 4.8125 -6 5.03125 -5.96875 C 5.257812 -5.9375 5.46875 -5.890625 5.65625 -5.828125 C 5.84375 -5.765625 6.003906 -5.675781 6.140625 -5.5625 C 6.285156 -5.445312 6.394531 -5.304688 6.46875 -5.140625 C 6.550781 -4.972656 6.59375 -4.765625 6.59375 -4.515625 C 6.59375 -4.304688 6.5625 -4.128906 6.5 -3.984375 C 6.445312 -3.847656 6.375 -3.726562 6.28125 -3.625 C 6.195312 -3.53125 6.097656 -3.453125 5.984375 -3.390625 C 5.878906 -3.335938 5.773438 -3.296875 5.671875 -3.265625 C 5.578125 -3.242188 5.488281 -3.226562 5.40625 -3.21875 C 5.320312 -3.21875 5.257812 -3.21875 5.21875 -3.21875 L 5.1875 -3.21875 C 5.40625 -3.195312 5.613281 -3.15625 5.8125 -3.09375 C 6.019531 -3.039062 6.203125 -2.957031 6.359375 -2.84375 C 6.523438 -2.738281 6.65625 -2.597656 6.75 -2.421875 C 6.851562 -2.242188 6.90625 -2.023438 6.90625 -1.765625 Z M 6.140625 -4.515625 C 6.140625 -4.703125 6.109375 -4.863281 6.046875 -5 C 5.984375 -5.144531 5.863281 -5.265625 5.6875 -5.359375 C 5.519531 -5.460938 5.28125 -5.539062 4.96875 -5.59375 C 4.65625 -5.644531 4.25 -5.671875 3.75 -5.671875 L 1.328125 -5.671875 L 1.328125 -3.34375 L 3.890625 -3.34375 C 4.273438 -3.34375 4.609375 -3.359375 4.890625 -3.390625 C 5.171875 -3.421875 5.40625 -3.476562 5.59375 -3.5625 C 5.78125 -3.65625 5.914062 -3.773438 6 -3.921875 C 6.09375 -4.078125 6.140625 -4.273438 6.140625 -4.515625 Z M 6.453125 -1.765625 C 6.453125 -2.015625 6.390625 -2.222656 6.265625 -2.390625 C 6.148438 -2.554688 5.976562 -2.6875 5.75 -2.78125 C 5.53125 -2.875 5.257812 -2.941406 4.9375 -2.984375 C 4.625 -3.023438 4.273438 -3.046875 3.890625 -3.046875 L 1.328125 -3.046875 L 1.328125 -0.359375 L 4.375 -0.359375 C 4.851562 -0.359375 5.234375 -0.394531 5.515625 -0.46875 C 5.796875 -0.550781 6.003906 -0.65625 6.140625 -0.78125 C 6.273438 -0.914062 6.359375 -1.066406 6.390625 -1.234375 C 6.429688 -1.410156 6.453125 -1.585938 6.453125 -1.765625 Z M 6.453125 -1.765625 "/></g></g></g><g fill="#4d433a" fill-opacity="1"><g transform="translate(228.999989, 209.614596)"><g><path d="M 3.25 -3.9375 C 2.914062 -3.9375 2.617188 -3.90625 2.359375 -3.84375 C 2.097656 -3.789062 1.875 -3.695312 1.6875 -3.5625 C 1.507812 -3.4375 1.367188 -3.269531 1.265625 -3.0625 C 1.160156 -2.863281 1.101562 -2.617188 1.09375 -2.328125 L 5.171875 -2.328125 L 5.171875 -2.625 C 5.171875 -2.800781 5.132812 -2.96875 5.0625 -3.125 C 5 -3.289062 4.890625 -3.429688 4.734375 -3.546875 C 4.585938 -3.671875 4.390625 -3.765625 4.140625 -3.828125 C 3.898438 -3.898438 3.601562 -3.9375 3.25 -3.9375 Z M 2.96875 -0.265625 C 3.3125 -0.265625 3.609375 -0.285156 3.859375 -0.328125 C 4.117188 -0.367188 4.335938 -0.421875 4.515625 -0.484375 C 4.703125 -0.546875 4.851562 -0.609375 4.96875 -0.671875 C 5.09375 -0.742188 5.1875 -0.800781 5.25 -0.84375 C 5.269531 -0.84375 5.285156 -0.84375 5.296875 -0.84375 C 5.328125 -0.84375 5.359375 -0.820312 5.390625 -0.78125 C 5.429688 -0.75 5.453125 -0.710938 5.453125 -0.671875 C 5.453125 -0.628906 5.429688 -0.597656 5.390625 -0.578125 C 5.359375 -0.546875 5.289062 -0.492188 5.1875 -0.421875 C 5.082031 -0.347656 4.929688 -0.273438 4.734375 -0.203125 C 4.535156 -0.140625 4.289062 -0.0820312 4 -0.03125 C 3.707031 0.0195312 3.359375 0.046875 2.953125 0.046875 C 2.535156 0.046875 2.179688 -0.00390625 1.890625 -0.109375 C 1.597656 -0.210938 1.359375 -0.359375 1.171875 -0.546875 C 0.992188 -0.734375 0.863281 -0.957031 0.78125 -1.21875 C 0.695312 -1.476562 0.65625 -1.765625 0.65625 -2.078125 C 0.65625 -2.492188 0.722656 -2.84375 0.859375 -3.125 C 0.992188 -3.40625 1.175781 -3.628906 1.40625 -3.796875 C 1.632812 -3.960938 1.90625 -4.078125 2.21875 -4.140625 C 2.539062 -4.210938 2.882812 -4.25 3.25 -4.25 C 4 -4.25 4.554688 -4.101562 4.921875 -3.8125 C 5.296875 -3.53125 5.484375 -3.125 5.484375 -2.59375 C 5.484375 -2.539062 5.476562 -2.484375 5.46875 -2.421875 C 5.46875 -2.359375 5.460938 -2.296875 5.453125 -2.234375 C 5.441406 -2.179688 5.425781 -2.132812 5.40625 -2.09375 C 5.382812 -2.0625 5.367188 -2.046875 5.359375 -2.046875 L 3.765625 -2.046875 L 1.09375 -2.109375 C 1.09375 -1.765625 1.132812 -1.476562 1.21875 -1.25 C 1.300781 -1.019531 1.421875 -0.832031 1.578125 -0.6875 C 1.734375 -0.539062 1.925781 -0.429688 2.15625 -0.359375 C 2.382812 -0.296875 2.65625 -0.265625 2.96875 -0.265625 Z M 2.96875 -0.265625 "/></g></g></g><g fill="#4d433a" fill-opacity="1"><g transform="translate(235.113192, 209.614596)"><g><path d="M 3.234375 -4.0625 C 3.285156 -4.0625 3.320312 -4.046875 3.34375 -4.015625 C 3.375 -3.992188 3.390625 -3.96875 3.390625 -3.9375 C 3.390625 -3.90625 3.375 -3.875 3.34375 -3.84375 C 3.320312 -3.8125 3.285156 -3.796875 3.234375 -3.796875 L 1.4375 -3.796875 L 1.4375 -1.515625 C 1.4375 -1.242188 1.460938 -1.023438 1.515625 -0.859375 C 1.566406 -0.703125 1.640625 -0.578125 1.734375 -0.484375 C 1.828125 -0.398438 1.9375 -0.34375 2.0625 -0.3125 C 2.1875 -0.28125 2.316406 -0.265625 2.453125 -0.265625 C 2.628906 -0.265625 2.800781 -0.296875 2.96875 -0.359375 C 3.132812 -0.421875 3.320312 -0.507812 3.53125 -0.625 C 3.582031 -0.644531 3.625 -0.65625 3.65625 -0.65625 C 3.707031 -0.65625 3.742188 -0.640625 3.765625 -0.609375 C 3.796875 -0.585938 3.8125 -0.554688 3.8125 -0.515625 C 3.8125 -0.441406 3.769531 -0.382812 3.6875 -0.34375 C 3.539062 -0.257812 3.40625 -0.191406 3.28125 -0.140625 C 3.164062 -0.0859375 3.054688 -0.046875 2.953125 -0.015625 C 2.859375 0.00390625 2.765625 0.0195312 2.671875 0.03125 C 2.578125 0.0390625 2.476562 0.046875 2.375 0.046875 C 2.1875 0.046875 2.003906 0.0195312 1.828125 -0.03125 C 1.660156 -0.0820312 1.515625 -0.164062 1.390625 -0.28125 C 1.273438 -0.40625 1.179688 -0.566406 1.109375 -0.765625 C 1.035156 -0.972656 1 -1.222656 1 -1.515625 L 1 -3.796875 L 0.53125 -3.796875 C 0.476562 -3.796875 0.4375 -3.8125 0.40625 -3.84375 C 0.382812 -3.875 0.375 -3.90625 0.375 -3.9375 C 0.375 -3.96875 0.382812 -3.992188 0.40625 -4.015625 C 0.4375 -4.046875 0.476562 -4.0625 0.53125 -4.0625 L 1 -4.0625 L 1 -5.40625 C 1 -5.519531 1.019531 -5.59375 1.0625 -5.625 C 1.113281 -5.65625 1.164062 -5.671875 1.21875 -5.671875 C 1.28125 -5.671875 1.332031 -5.65625 1.375 -5.625 C 1.414062 -5.59375 1.4375 -5.519531 1.4375 -5.40625 L 1.4375 -4.0625 Z M 3.234375 -4.0625 "/></g></g></g><g fill="#4d433a" fill-opacity="1"><g transform="translate(238.97587, 209.614596)"><g><path d="M 3.234375 -4.0625 C 3.285156 -4.0625 3.320312 -4.046875 3.34375 -4.015625 C 3.375 -3.992188 3.390625 -3.96875 3.390625 -3.9375 C 3.390625 -3.90625 3.375 -3.875 3.34375 -3.84375 C 3.320312 -3.8125 3.285156 -3.796875 3.234375 -3.796875 L 1.4375 -3.796875 L 1.4375 -1.515625 C 1.4375 -1.242188 1.460938 -1.023438 1.515625 -0.859375 C 1.566406 -0.703125 1.640625 -0.578125 1.734375 -0.484375 C 1.828125 -0.398438 1.9375 -0.34375 2.0625 -0.3125 C 2.1875 -0.28125 2.316406 -0.265625 2.453125 -0.265625 C 2.628906 -0.265625 2.800781 -0.296875 2.96875 -0.359375 C 3.132812 -0.421875 3.320312 -0.507812 3.53125 -0.625 C 3.582031 -0.644531 3.625 -0.65625 3.65625 -0.65625 C 3.707031 -0.65625 3.742188 -0.640625 3.765625 -0.609375 C 3.796875 -0.585938 3.8125 -0.554688 3.8125 -0.515625 C 3.8125 -0.441406 3.769531 -0.382812 3.6875 -0.34375 C 3.539062 -0.257812 3.40625 -0.191406 3.28125 -0.140625 C 3.164062 -0.0859375 3.054688 -0.046875 2.953125 -0.015625 C 2.859375 0.00390625 2.765625 0.0195312 2.671875 0.03125 C 2.578125 0.0390625 2.476562 0.046875 2.375 0.046875 C 2.1875 0.046875 2.003906 0.0195312 1.828125 -0.03125 C 1.660156 -0.0820312 1.515625 -0.164062 1.390625 -0.28125 C 1.273438 -0.40625 1.179688 -0.566406 1.109375 -0.765625 C 1.035156 -0.972656 1 -1.222656 1 -1.515625 L 1 -3.796875 L 0.53125 -3.796875 C 0.476562 -3.796875 0.4375 -3.8125 0.40625 -3.84375 C 0.382812 -3.875 0.375 -3.90625 0.375 -3.9375 C 0.375 -3.96875 0.382812 -3.992188 0.40625 -4.015625 C 0.4375 -4.046875 0.476562 -4.0625 0.53125 -4.0625 L 1 -4.0625 L 1 -5.40625 C 1 -5.519531 1.019531 -5.59375 1.0625 -5.625 C 1.113281 -5.65625 1.164062 -5.671875 1.21875 -5.671875 C 1.28125 -5.671875 1.332031 -5.65625 1.375 -5.625 C 1.414062 -5.59375 1.4375 -5.519531 1.4375 -5.40625 L 1.4375 -4.0625 Z M 3.234375 -4.0625 "/></g></g></g><g fill="#4d433a" fill-opacity="1"><g transform="translate(242.838549, 209.614596)"><g><path d="M 3.25 -3.9375 C 2.914062 -3.9375 2.617188 -3.90625 2.359375 -3.84375 C 2.097656 -3.789062 1.875 -3.695312 1.6875 -3.5625 C 1.507812 -3.4375 1.367188 -3.269531 1.265625 -3.0625 C 1.160156 -2.863281 1.101562 -2.617188 1.09375 -2.328125 L 5.171875 -2.328125 L 5.171875 -2.625 C 5.171875 -2.800781 5.132812 -2.96875 5.0625 -3.125 C 5 -3.289062 4.890625 -3.429688 4.734375 -3.546875 C 4.585938 -3.671875 4.390625 -3.765625 4.140625 -3.828125 C 3.898438 -3.898438 3.601562 -3.9375 3.25 -3.9375 Z M 2.96875 -0.265625 C 3.3125 -0.265625 3.609375 -0.285156 3.859375 -0.328125 C 4.117188 -0.367188 4.335938 -0.421875 4.515625 -0.484375 C 4.703125 -0.546875 4.851562 -0.609375 4.96875 -0.671875 C 5.09375 -0.742188 5.1875 -0.800781 5.25 -0.84375 C 5.269531 -0.84375 5.285156 -0.84375 5.296875 -0.84375 C 5.328125 -0.84375 5.359375 -0.820312 5.390625 -0.78125 C 5.429688 -0.75 5.453125 -0.710938 5.453125 -0.671875 C 5.453125 -0.628906 5.429688 -0.597656 5.390625 -0.578125 C 5.359375 -0.546875 5.289062 -0.492188 5.1875 -0.421875 C 5.082031 -0.347656 4.929688 -0.273438 4.734375 -0.203125 C 4.535156 -0.140625 4.289062 -0.0820312 4 -0.03125 C 3.707031 0.0195312 3.359375 0.046875 2.953125 0.046875 C 2.535156 0.046875 2.179688 -0.00390625 1.890625 -0.109375 C 1.597656 -0.210938 1.359375 -0.359375 1.171875 -0.546875 C 0.992188 -0.734375 0.863281 -0.957031 0.78125 -1.21875 C 0.695312 -1.476562 0.65625 -1.765625 0.65625 -2.078125 C 0.65625 -2.492188 0.722656 -2.84375 0.859375 -3.125 C 0.992188 -3.40625 1.175781 -3.628906 1.40625 -3.796875 C 1.632812 -3.960938 1.90625 -4.078125 2.21875 -4.140625 C 2.539062 -4.210938 2.882812 -4.25 3.25 -4.25 C 4 -4.25 4.554688 -4.101562 4.921875 -3.8125 C 5.296875 -3.53125 5.484375 -3.125 5.484375 -2.59375 C 5.484375 -2.539062 5.476562 -2.484375 5.46875 -2.421875 C 5.46875 -2.359375 5.460938 -2.296875 5.453125 -2.234375 C 5.441406 -2.179688 5.425781 -2.132812 5.40625 -2.09375 C 5.382812 -2.0625 5.367188 -2.046875 5.359375 -2.046875 L 3.765625 -2.046875 L 1.09375 -2.109375 C 1.09375 -1.765625 1.132812 -1.476562 1.21875 -1.25 C 1.300781 -1.019531 1.421875 -0.832031 1.578125 -0.6875 C 1.734375 -0.539062 1.925781 -0.429688 2.15625 -0.359375 C 2.382812 -0.296875 2.65625 -0.265625 2.96875 -0.265625 Z M 2.96875 -0.265625 "/></g></g></g><g fill="#4d433a" fill-opacity="1"><g transform="translate(248.951752, 209.614596)"><g><path d="M 4.046875 -4.125 C 4.085938 -4.113281 4.113281 -4.09375 4.125 -4.0625 C 4.144531 -4.03125 4.15625 -3.992188 4.15625 -3.953125 C 4.15625 -3.910156 4.140625 -3.867188 4.109375 -3.828125 C 4.078125 -3.785156 4.03125 -3.765625 3.96875 -3.765625 C 3.957031 -3.765625 3.945312 -3.765625 3.9375 -3.765625 C 3.9375 -3.773438 3.925781 -3.78125 3.90625 -3.78125 C 3.769531 -3.820312 3.632812 -3.851562 3.5 -3.875 C 3.375 -3.894531 3.238281 -3.90625 3.09375 -3.90625 C 2.875 -3.90625 2.664062 -3.882812 2.46875 -3.84375 C 2.28125 -3.800781 2.109375 -3.738281 1.953125 -3.65625 C 1.796875 -3.570312 1.660156 -3.460938 1.546875 -3.328125 C 1.429688 -3.191406 1.34375 -3.035156 1.28125 -2.859375 L 1.28125 -0.375 C 1.28125 -0.28125 1.269531 -0.191406 1.25 -0.109375 C 1.226562 -0.0351562 1.171875 0 1.078125 0 C 1.023438 0 0.984375 -0.0078125 0.953125 -0.03125 C 0.921875 -0.0507812 0.894531 -0.078125 0.875 -0.109375 C 0.863281 -0.148438 0.859375 -0.191406 0.859375 -0.234375 C 0.859375 -0.285156 0.859375 -0.332031 0.859375 -0.375 L 0.859375 -3.84375 C 0.859375 -3.925781 0.867188 -3.992188 0.890625 -4.046875 C 0.921875 -4.109375 0.988281 -4.140625 1.09375 -4.140625 C 1.175781 -4.140625 1.226562 -4.109375 1.25 -4.046875 C 1.269531 -3.992188 1.28125 -3.925781 1.28125 -3.84375 L 1.28125 -3.21875 C 1.34375 -3.4375 1.441406 -3.613281 1.578125 -3.75 C 1.722656 -3.882812 1.882812 -3.988281 2.0625 -4.0625 C 2.238281 -4.132812 2.414062 -4.179688 2.59375 -4.203125 C 2.78125 -4.234375 2.945312 -4.25 3.09375 -4.25 C 3.226562 -4.25 3.34375 -4.242188 3.4375 -4.234375 C 3.539062 -4.222656 3.628906 -4.210938 3.703125 -4.203125 C 3.773438 -4.191406 3.835938 -4.175781 3.890625 -4.15625 C 3.941406 -4.144531 3.992188 -4.132812 4.046875 -4.125 Z M 4.046875 -4.125 "/></g></g></g><g fill="#4d433a" fill-opacity="1"><g transform="translate(253.328378, 209.614596)"><g/></g></g><g fill="#4d433a" fill-opacity="1"><g transform="translate(255.816939, 209.614596)"><g><path d="M 4.78125 -0.75 L 8.140625 -5.796875 C 8.191406 -5.878906 8.242188 -5.9375 8.296875 -5.96875 C 8.359375 -6.007812 8.414062 -6.03125 8.46875 -6.03125 C 8.53125 -6.03125 8.582031 -6 8.625 -5.9375 C 8.675781 -5.882812 8.703125 -5.816406 8.703125 -5.734375 L 8.703125 -0.375 C 8.703125 -0.269531 8.6875 -0.179688 8.65625 -0.109375 C 8.632812 -0.0351562 8.570312 0 8.46875 0 C 8.375 0 8.3125 -0.0351562 8.28125 -0.109375 C 8.257812 -0.179688 8.25 -0.269531 8.25 -0.375 L 8.25 -5.1875 L 5.046875 -0.46875 C 4.960938 -0.34375 4.875 -0.28125 4.78125 -0.28125 C 4.6875 -0.28125 4.597656 -0.34375 4.515625 -0.46875 L 1.3125 -5.1875 L 1.3125 -0.375 C 1.3125 -0.269531 1.296875 -0.179688 1.265625 -0.109375 C 1.242188 -0.0351562 1.1875 0 1.09375 0 C 0.988281 0 0.921875 -0.0351562 0.890625 -0.109375 C 0.867188 -0.179688 0.859375 -0.269531 0.859375 -0.375 L 0.859375 -5.734375 C 0.859375 -5.816406 0.878906 -5.882812 0.921875 -5.9375 C 0.972656 -6 1.03125 -6.03125 1.09375 -6.03125 C 1.144531 -6.03125 1.195312 -6.007812 1.25 -5.96875 C 1.3125 -5.9375 1.367188 -5.878906 1.421875 -5.796875 Z M 4.78125 -0.75 "/></g></g></g><g fill="#4d433a" fill-opacity="1"><g transform="translate(265.381666, 209.614596)"><g><path d="M 3.359375 0.046875 C 2.859375 0.046875 2.4375 0 2.09375 -0.09375 C 1.75 -0.195312 1.472656 -0.335938 1.265625 -0.515625 C 1.054688 -0.703125 0.90625 -0.925781 0.8125 -1.1875 C 0.71875 -1.445312 0.671875 -1.742188 0.671875 -2.078125 C 0.671875 -2.460938 0.722656 -2.789062 0.828125 -3.0625 C 0.929688 -3.332031 1.09375 -3.554688 1.3125 -3.734375 C 1.539062 -3.910156 1.820312 -4.039062 2.15625 -4.125 C 2.488281 -4.207031 2.890625 -4.25 3.359375 -4.25 C 3.816406 -4.25 4.210938 -4.207031 4.546875 -4.125 C 4.890625 -4.039062 5.171875 -3.910156 5.390625 -3.734375 C 5.609375 -3.554688 5.769531 -3.332031 5.875 -3.0625 C 5.988281 -2.789062 6.046875 -2.460938 6.046875 -2.078125 C 6.046875 -1.742188 6 -1.445312 5.90625 -1.1875 C 5.8125 -0.925781 5.65625 -0.703125 5.4375 -0.515625 C 5.226562 -0.335938 4.953125 -0.195312 4.609375 -0.09375 C 4.265625 0 3.847656 0.046875 3.359375 0.046875 Z M 3.359375 -0.265625 C 3.679688 -0.265625 3.960938 -0.285156 4.203125 -0.328125 C 4.441406 -0.378906 4.644531 -0.445312 4.8125 -0.53125 C 4.976562 -0.625 5.113281 -0.726562 5.21875 -0.84375 C 5.320312 -0.957031 5.398438 -1.082031 5.453125 -1.21875 C 5.515625 -1.351562 5.554688 -1.492188 5.578125 -1.640625 C 5.597656 -1.785156 5.609375 -1.929688 5.609375 -2.078125 C 5.609375 -2.410156 5.5625 -2.691406 5.46875 -2.921875 C 5.382812 -3.160156 5.25 -3.351562 5.0625 -3.5 C 4.882812 -3.65625 4.648438 -3.765625 4.359375 -3.828125 C 4.078125 -3.898438 3.742188 -3.9375 3.359375 -3.9375 C 2.960938 -3.9375 2.617188 -3.898438 2.328125 -3.828125 C 2.046875 -3.765625 1.8125 -3.65625 1.625 -3.5 C 1.445312 -3.351562 1.3125 -3.160156 1.21875 -2.921875 C 1.132812 -2.691406 1.09375 -2.410156 1.09375 -2.078125 C 1.09375 -1.929688 1.101562 -1.785156 1.125 -1.640625 C 1.144531 -1.492188 1.1875 -1.351562 1.25 -1.21875 C 1.3125 -1.082031 1.390625 -0.957031 1.484375 -0.84375 C 1.585938 -0.726562 1.722656 -0.625 1.890625 -0.53125 C 2.054688 -0.445312 2.257812 -0.378906 2.5 -0.328125 C 2.738281 -0.285156 3.023438 -0.265625 3.359375 -0.265625 Z M 3.359375 -0.265625 "/></g></g></g><g fill="#4d433a" fill-opacity="1"><g transform="translate(272.089959, 209.614596)"><g><path d="M 3.359375 0.046875 C 2.859375 0.046875 2.4375 0 2.09375 -0.09375 C 1.75 -0.195312 1.472656 -0.335938 1.265625 -0.515625 C 1.054688 -0.703125 0.90625 -0.925781 0.8125 -1.1875 C 0.71875 -1.445312 0.671875 -1.742188 0.671875 -2.078125 C 0.671875 -2.460938 0.722656 -2.789062 0.828125 -3.0625 C 0.929688 -3.332031 1.09375 -3.554688 1.3125 -3.734375 C 1.539062 -3.910156 1.820312 -4.039062 2.15625 -4.125 C 2.488281 -4.207031 2.890625 -4.25 3.359375 -4.25 C 3.816406 -4.25 4.210938 -4.207031 4.546875 -4.125 C 4.890625 -4.039062 5.171875 -3.910156 5.390625 -3.734375 C 5.609375 -3.554688 5.769531 -3.332031 5.875 -3.0625 C 5.988281 -2.789062 6.046875 -2.460938 6.046875 -2.078125 C 6.046875 -1.742188 6 -1.445312 5.90625 -1.1875 C 5.8125 -0.925781 5.65625 -0.703125 5.4375 -0.515625 C 5.226562 -0.335938 4.953125 -0.195312 4.609375 -0.09375 C 4.265625 0 3.847656 0.046875 3.359375 0.046875 Z M 3.359375 -0.265625 C 3.679688 -0.265625 3.960938 -0.285156 4.203125 -0.328125 C 4.441406 -0.378906 4.644531 -0.445312 4.8125 -0.53125 C 4.976562 -0.625 5.113281 -0.726562 5.21875 -0.84375 C 5.320312 -0.957031 5.398438 -1.082031 5.453125 -1.21875 C 5.515625 -1.351562 5.554688 -1.492188 5.578125 -1.640625 C 5.597656 -1.785156 5.609375 -1.929688 5.609375 -2.078125 C 5.609375 -2.410156 5.5625 -2.691406 5.46875 -2.921875 C 5.382812 -3.160156 5.25 -3.351562 5.0625 -3.5 C 4.882812 -3.65625 4.648438 -3.765625 4.359375 -3.828125 C 4.078125 -3.898438 3.742188 -3.9375 3.359375 -3.9375 C 2.960938 -3.9375 2.617188 -3.898438 2.328125 -3.828125 C 2.046875 -3.765625 1.8125 -3.65625 1.625 -3.5 C 1.445312 -3.351562 1.3125 -3.160156 1.21875 -2.921875 C 1.132812 -2.691406 1.09375 -2.410156 1.09375 -2.078125 C 1.09375 -1.929688 1.101562 -1.785156 1.125 -1.640625 C 1.144531 -1.492188 1.1875 -1.351562 1.25 -1.21875 C 1.3125 -1.082031 1.390625 -0.957031 1.484375 -0.84375 C 1.585938 -0.726562 1.722656 -0.625 1.890625 -0.53125 C 2.054688 -0.445312 2.257812 -0.378906 2.5 -0.328125 C 2.738281 -0.285156 3.023438 -0.265625 3.359375 -0.265625 Z M 3.359375 -0.265625 "/></g></g></g><g fill="#4d433a" fill-opacity="1"><g transform="translate(278.798253, 209.614596)"><g><path d="M 3.0625 0.046875 C 2.738281 0.046875 2.429688 0.015625 2.140625 -0.046875 C 1.847656 -0.109375 1.59375 -0.222656 1.375 -0.390625 C 1.15625 -0.554688 0.984375 -0.769531 0.859375 -1.03125 C 0.734375 -1.300781 0.671875 -1.644531 0.671875 -2.0625 C 0.671875 -2.457031 0.722656 -2.796875 0.828125 -3.078125 C 0.929688 -3.359375 1.082031 -3.582031 1.28125 -3.75 C 1.488281 -3.925781 1.738281 -4.050781 2.03125 -4.125 C 2.332031 -4.207031 2.675781 -4.25 3.0625 -4.25 C 3.445312 -4.25 3.773438 -4.222656 4.046875 -4.171875 C 4.316406 -4.128906 4.546875 -4.070312 4.734375 -4 C 4.929688 -3.9375 5.085938 -3.863281 5.203125 -3.78125 C 5.328125 -3.707031 5.425781 -3.632812 5.5 -3.5625 L 5.5 -5.640625 C 5.5 -5.691406 5.5 -5.738281 5.5 -5.78125 C 5.5 -5.832031 5.503906 -5.875 5.515625 -5.90625 C 5.535156 -5.945312 5.554688 -5.976562 5.578125 -6 C 5.609375 -6.019531 5.648438 -6.03125 5.703125 -6.03125 C 5.753906 -6.03125 5.796875 -6.019531 5.828125 -6 C 5.859375 -5.976562 5.878906 -5.953125 5.890625 -5.921875 C 5.910156 -5.890625 5.921875 -5.847656 5.921875 -5.796875 C 5.921875 -5.753906 5.921875 -5.707031 5.921875 -5.65625 L 5.921875 -0.296875 C 5.921875 -0.179688 5.898438 -0.101562 5.859375 -0.0625 C 5.816406 -0.0195312 5.769531 0 5.71875 0 C 5.65625 0 5.601562 -0.015625 5.5625 -0.046875 C 5.519531 -0.0859375 5.5 -0.164062 5.5 -0.28125 L 5.5 -1.03125 C 5.457031 -0.875 5.382812 -0.738281 5.28125 -0.625 C 5.1875 -0.507812 5.066406 -0.410156 4.921875 -0.328125 C 4.785156 -0.253906 4.632812 -0.191406 4.46875 -0.140625 C 4.300781 -0.0859375 4.132812 -0.046875 3.96875 -0.015625 C 3.800781 0.00390625 3.640625 0.0195312 3.484375 0.03125 C 3.328125 0.0390625 3.1875 0.046875 3.0625 0.046875 Z M 3.0625 -0.265625 C 3.28125 -0.265625 3.515625 -0.28125 3.765625 -0.3125 C 4.023438 -0.34375 4.269531 -0.394531 4.5 -0.46875 C 4.738281 -0.550781 4.945312 -0.660156 5.125 -0.796875 C 5.300781 -0.941406 5.425781 -1.128906 5.5 -1.359375 L 5.5 -3.3125 C 5.414062 -3.375 5.304688 -3.441406 5.171875 -3.515625 C 5.046875 -3.585938 4.882812 -3.65625 4.6875 -3.71875 C 4.5 -3.78125 4.269531 -3.832031 4 -3.875 C 3.738281 -3.914062 3.425781 -3.9375 3.0625 -3.9375 C 2.71875 -3.9375 2.421875 -3.898438 2.171875 -3.828125 C 1.921875 -3.753906 1.710938 -3.640625 1.546875 -3.484375 C 1.390625 -3.328125 1.273438 -3.128906 1.203125 -2.890625 C 1.128906 -2.660156 1.09375 -2.382812 1.09375 -2.0625 C 1.09375 -1.71875 1.144531 -1.429688 1.25 -1.203125 C 1.351562 -0.972656 1.492188 -0.785156 1.671875 -0.640625 C 1.847656 -0.503906 2.054688 -0.40625 2.296875 -0.34375 C 2.535156 -0.289062 2.789062 -0.265625 3.0625 -0.265625 Z M 3.0625 -0.265625 "/></g></g></g></svg>