<svg xmlns="http://www.w3.org/2000/svg" xmlns:xlink="http://www.w3.org/1999/xlink" width="500" zoomAndPan="magnify" viewBox="0 0 375 374.999991" height="500" preserveAspectRatio="xMidYMid meet" version="1.0"><defs><g/><clipPath id="500d935b6f"><path d="M 89 155 L 146.4375 155 L 146.4375 259.980469 L 89 259.980469 Z M 89 155 " clip-rule="nonzero"/></clipPath><clipPath id="6f53c3796b"><path d="M 28.6875 124.230469 L 86 124.230469 L 86 259.980469 L 28.6875 259.980469 Z M 28.6875 124.230469 " clip-rule="nonzero"/></clipPath></defs><rect x="-37.5" width="450" fill="#ffffff" y="-37.499999" height="449.999989" fill-opacity="1"/><rect x="-37.5" width="450" fill="#ffffff" y="-37.499999" height="449.999989" fill-opacity="1"/><g clip-path="url(#500d935b6f)"><path fill="#0b5f99" d="M 145.515625 171.320312 L 91.261719 155.199219 C 90.558594 155.039062 89.890625 155.574219 89.890625 156.292969 L 89.890625 258.835938 C 89.890625 259.457031 90.394531 259.957031 91.011719 259.957031 L 111.449219 259.957031 L 111.976562 217.695312 C 105.648438 215.734375 100.878906 206.980469 100.878906 196.46875 C 100.878906 184.515625 107.050781 174.824219 114.664062 174.824219 C 122.277344 174.824219 128.449219 184.515625 128.449219 196.46875 C 128.449219 206.980469 123.675781 215.734375 117.347656 217.695312 L 117.878906 259.957031 L 138.285156 259.957031 C 138.867188 259.957031 139.351562 259.511719 139.402344 258.933594 L 146.386719 172.511719 C 146.433594 171.953125 146.0625 171.441406 145.515625 171.320312 Z M 145.515625 171.320312 " fill-opacity="1" fill-rule="nonzero"/></g><g clip-path="url(#6f53c3796b)"><path fill="#ed1c24" d="M 83.660156 124.558594 L 29.378906 147.25 C 28.953125 147.429688 28.6875 147.839844 28.714844 148.28125 L 35.75 258.964844 C 35.785156 259.523438 36.273438 259.957031 36.867188 259.957031 L 54.925781 259.957031 L 55.671875 200.242188 C 50.675781 199.738281 46.777344 195.511719 46.777344 190.371094 L 47.851562 158.617188 C 47.863281 158.207031 48.199219 157.882812 48.609375 157.882812 L 49.070312 157.882812 C 49.488281 157.882812 49.828125 158.222656 49.828125 158.644531 L 49.828125 183.769531 C 49.828125 184.191406 50.167969 184.53125 50.585938 184.53125 L 51.59375 184.53125 C 52.011719 184.53125 52.351562 184.191406 52.351562 183.769531 L 52.351562 158.644531 C 52.351562 158.222656 52.691406 157.882812 53.109375 157.882812 L 53.910156 157.882812 C 54.332031 157.882812 54.671875 158.222656 54.671875 158.644531 L 54.671875 183.769531 C 54.671875 184.191406 55.011719 184.53125 55.429688 184.53125 L 56.433594 184.53125 C 56.855469 184.53125 57.195312 184.191406 57.195312 183.769531 L 57.195312 158.644531 C 57.195312 158.222656 57.535156 157.882812 57.953125 157.882812 L 58.753906 157.882812 C 59.171875 157.882812 59.511719 158.222656 59.511719 158.644531 L 59.511719 183.769531 C 59.511719 184.191406 59.851562 184.53125 60.273438 184.53125 L 61.277344 184.53125 C 61.695312 184.53125 62.035156 184.191406 62.035156 183.769531 L 62.035156 158.644531 C 62.035156 158.222656 62.375 157.882812 62.796875 157.882812 L 63.59375 157.882812 C 64.015625 157.882812 64.355469 158.222656 64.355469 158.644531 L 64.355469 183.769531 C 64.355469 184.191406 64.695312 184.53125 65.113281 184.53125 L 66.117188 184.53125 C 66.539062 184.53125 66.878906 184.191406 66.878906 183.769531 L 66.878906 158.644531 C 66.878906 158.222656 67.21875 157.882812 67.636719 157.882812 L 68.011719 157.882812 C 68.421875 157.882812 68.757812 158.207031 68.773438 158.617188 L 69.929688 190.371094 C 69.929688 195.511719 66.03125 199.738281 61.03125 200.242188 L 61.777344 259.957031 L 84.113281 259.957031 C 84.730469 259.957031 85.234375 259.484375 85.234375 258.902344 L 85.234375 125.523438 C 85.234375 124.757812 84.398438 124.25 83.660156 124.558594 Z M 83.660156 124.558594 " fill-opacity="1" fill-rule="nonzero"/></g><g fill="#000000" fill-opacity="1"><g transform="translate(154.811435, 205.300007)"><g><path d="M 31.109375 -10.078125 L 31.484375 0 L 21.84375 0 L 22.3125 -9.125 L 22.265625 -11.515625 L 17.09375 -11.609375 L 12.625 -11.46875 L 12.578125 -10.078125 L 12.953125 0 L 3.3125 0 L 3.796875 -9.125 L 3.3125 -31.0625 L 13.109375 -31.0625 L 12.8125 -19.296875 L 17.65625 -19.203125 L 22.078125 -19.296875 L 21.84375 -31.0625 L 31.625 -31.0625 Z M 31.109375 -10.078125 "/></g></g></g><g fill="#000000" fill-opacity="1"><g transform="translate(188.939374, 205.300007)"><g><path d="M 12.390625 -23.234375 C 15.328125 -23.234375 17.59375 -22.628906 19.1875 -21.421875 C 20.789062 -20.222656 21.59375 -18.503906 21.59375 -16.265625 C 21.59375 -15.628906 21.53125 -13.9375 21.40625 -11.1875 C 21.28125 -8.75 21.21875 -7.390625 21.21875 -7.109375 C 21.21875 -6.753906 21.269531 -6.492188 21.375 -6.328125 C 21.488281 -6.171875 21.660156 -6.09375 21.890625 -6.09375 C 22.109375 -6.09375 22.378906 -6.140625 22.703125 -6.234375 L 23.28125 -5.765625 L 22.46875 -0.953125 C 21.28125 -0.128906 19.789062 0.347656 18 0.484375 C 17.070312 0.421875 16.25 0.101562 15.53125 -0.46875 C 14.8125 -1.050781 14.257812 -1.867188 13.875 -2.921875 L 13.53125 -2.921875 C 12.125 -1.296875 10.523438 -0.144531 8.734375 0.53125 C 6.304688 0.5 4.363281 -0.175781 2.90625 -1.5 C 1.445312 -2.832031 0.71875 -4.648438 0.71875 -6.953125 C 0.71875 -10.503906 2.554688 -12.539062 6.234375 -13.0625 L 13.0625 -13.96875 L 13.0625 -14.546875 C 13.0625 -15.378906 12.890625 -15.96875 12.546875 -16.3125 C 12.210938 -16.664062 11.628906 -16.84375 10.796875 -16.84375 C 9.003906 -16.84375 6.6875 -16.078125 3.84375 -14.546875 L 3.265625 -14.921875 L 2.25 -20.828125 C 3.726562 -21.597656 5.351562 -22.191406 7.125 -22.609375 C 8.90625 -23.023438 10.660156 -23.234375 12.390625 -23.234375 Z M 10.3125 -9.5 C 9.863281 -9.4375 9.535156 -9.269531 9.328125 -9 C 9.128906 -8.726562 9.03125 -8.320312 9.03125 -7.78125 C 9.03125 -6.5 9.617188 -5.859375 10.796875 -5.859375 C 11.566406 -5.859375 12.320312 -6.113281 13.0625 -6.625 L 13.0625 -9.890625 Z M 10.3125 -9.5 "/></g></g></g><g fill="#000000" fill-opacity="1"><g transform="translate(213.083328, 205.300007)"><g><path d="M 16.84375 -22.703125 C 17.257812 -22.703125 17.628906 -22.671875 17.953125 -22.609375 L 17.953125 -14.203125 L 17.046875 -13.921875 C 16.628906 -14.171875 16.050781 -14.296875 15.3125 -14.296875 C 14.601562 -14.296875 13.859375 -14.132812 13.078125 -13.8125 C 12.296875 -13.5 11.566406 -13.054688 10.890625 -12.484375 L 10.890625 -10.078125 L 11.28125 0 L 1.921875 0 L 2.359375 -9.125 L 2.015625 -22.125 L 10.890625 -22.75 L 10.890625 -18.53125 L 11.328125 -18.53125 C 12.703125 -21.3125 14.539062 -22.703125 16.84375 -22.703125 Z M 16.84375 -22.703125 "/></g></g></g><g fill="#000000" fill-opacity="1"><g transform="translate(231.1313, 205.300007)"><g><path d="M 25.15625 -5.765625 L 24.34375 -0.953125 C 22.800781 0.0351562 21.195312 0.515625 19.53125 0.484375 C 17.675781 0.0976562 16.332031 -1.242188 15.5 -3.546875 L 14.921875 -3.546875 C 14.023438 -2.554688 13.144531 -1.75 12.28125 -1.125 C 11.414062 -0.5 10.457031 -0.03125 9.40625 0.28125 C 7.039062 0.28125 5.207031 -0.257812 3.90625 -1.34375 C 2.613281 -2.425781 1.96875 -3.992188 1.96875 -6.046875 L 2.109375 -10.984375 L 1.828125 -22.125 L 10.703125 -22.75 L 10.703125 -9.75 C 10.703125 -8.78125 10.859375 -8.097656 11.171875 -7.703125 C 11.492188 -7.304688 11.992188 -7.109375 12.671875 -7.109375 C 13.085938 -7.109375 13.445312 -7.160156 13.75 -7.265625 C 14.050781 -7.378906 14.378906 -7.566406 14.734375 -7.828125 L 14.734375 -22.125 L 23.609375 -22.75 L 23.09375 -7.109375 C 23.09375 -6.753906 23.144531 -6.492188 23.25 -6.328125 C 23.363281 -6.171875 23.535156 -6.09375 23.765625 -6.09375 C 23.984375 -6.09375 24.253906 -6.140625 24.578125 -6.234375 Z M 25.15625 -5.765625 "/></g></g></g><g fill="#000000" fill-opacity="1"><g transform="translate(256.859254, 205.300007)"><g><path d="M 27.984375 0 L 28.46875 -12.71875 C 28.46875 -14.664062 27.710938 -15.640625 26.203125 -15.640625 C 25.503906 -15.640625 24.753906 -15.4375 23.953125 -15.03125 L 23.8125 -10.078125 L 24.1875 0 L 14.921875 0 L 15.40625 -12.71875 C 15.40625 -14.664062 14.640625 -15.640625 13.109375 -15.640625 C 12.367188 -15.640625 11.597656 -15.414062 10.796875 -14.96875 L 10.796875 -10.078125 L 11.1875 0 L 1.921875 0 L 2.359375 -9.125 L 2.015625 -22.125 L 10.796875 -22.75 L 10.796875 -19.390625 L 11.140625 -19.390625 C 12.835938 -21.085938 14.707031 -22.269531 16.75 -22.9375 C 18.507812 -22.9375 19.972656 -22.632812 21.140625 -22.03125 C 22.304688 -21.425781 23.113281 -20.546875 23.5625 -19.390625 L 23.8125 -19.390625 C 25.46875 -21.023438 27.484375 -22.207031 29.859375 -22.9375 C 32.222656 -22.9375 34.03125 -22.394531 35.28125 -21.3125 C 36.53125 -20.226562 37.140625 -18.660156 37.109375 -16.609375 L 36.90625 -10.078125 L 37.25 0 Z M 27.984375 0 "/></g></g></g><g fill="#000000" fill-opacity="1"><g transform="translate(295.931189, 205.300007)"><g><path d="M 2.5 -9.125 L 2.15625 -22.125 L 11.46875 -22.75 L 11.046875 -10.078125 L 11.421875 0 L 2.0625 0 Z M 6.96875 -34.9375 C 8.375 -34.9375 9.46875 -34.535156 10.25 -33.734375 C 11.03125 -32.941406 11.421875 -31.828125 11.421875 -30.390625 C 11.421875 -28.847656 10.988281 -27.628906 10.125 -26.734375 C 9.257812 -25.835938 8.078125 -25.390625 6.578125 -25.390625 C 5.109375 -25.390625 3.988281 -25.78125 3.21875 -26.5625 C 2.445312 -27.351562 2.0625 -28.484375 2.0625 -29.953125 C 2.0625 -31.484375 2.5 -32.695312 3.375 -33.59375 C 4.257812 -34.488281 5.457031 -34.9375 6.96875 -34.9375 Z M 6.96875 -34.9375 "/></g></g></g><g fill="#000000" fill-opacity="1"><g transform="translate(156.786953, 242.242616)"><g><path d="M 20.96875 -16.375 C 23.914062 -11.757812 27.28125 -6.972656 31.0625 -2.015625 L 30.90625 -0.953125 C 27.550781 -0.222656 24.351562 0.285156 21.3125 0.578125 L 20.25 0 C 16.988281 -5.601562 14.316406 -10.351562 12.234375 -14.25 L 12.140625 -10.078125 L 12.53125 0 L 2.875 0 L 3.359375 -9.125 L 2.875 -31.0625 L 12.671875 -31.0625 L 12.34375 -18.09375 L 18.28125 -27.703125 L 19.921875 -31.0625 L 30.09375 -31.0625 Z M 20.96875 -16.375 "/></g></g></g><g fill="#000000" fill-opacity="1"><g transform="translate(186.930895, 242.242616)"><g><path d="M 2.5 -9.125 L 2.15625 -22.125 L 11.46875 -22.75 L 11.046875 -10.078125 L 11.421875 0 L 2.0625 0 Z M 6.96875 -34.9375 C 8.375 -34.9375 9.46875 -34.535156 10.25 -33.734375 C 11.03125 -32.941406 11.421875 -31.828125 11.421875 -30.390625 C 11.421875 -28.847656 10.988281 -27.628906 10.125 -26.734375 C 9.257812 -25.835938 8.078125 -25.390625 6.578125 -25.390625 C 5.109375 -25.390625 3.988281 -25.78125 3.21875 -26.5625 C 2.445312 -27.351562 2.0625 -28.484375 2.0625 -29.953125 C 2.0625 -31.484375 2.5 -32.695312 3.375 -33.59375 C 4.257812 -34.488281 5.457031 -34.9375 6.96875 -34.9375 Z M 6.96875 -34.9375 "/></g></g></g><g fill="#000000" fill-opacity="1"><g transform="translate(200.562867, 242.242616)"><g><path d="M 13.4375 -6.8125 C 14.269531 -6.8125 15.226562 -7.003906 16.3125 -7.390625 L 16.890625 -6.671875 L 16.03125 -1.484375 C 15.363281 -1.066406 14.5625 -0.691406 13.625 -0.359375 C 12.695312 -0.0234375 11.800781 0.207031 10.9375 0.34375 C 8.414062 0.34375 6.429688 -0.234375 4.984375 -1.390625 C 3.546875 -2.546875 2.828125 -4.082031 2.828125 -6 L 3.125 -10.984375 L 3.078125 -16.984375 L 0.09375 -16.984375 L -0.140625 -17.46875 L 0.234375 -22.421875 L 3.078125 -22.421875 L 3.03125 -26.5 L 11.71875 -28.796875 L 12.28125 -28.265625 L 12.046875 -22.421875 L 16.75 -22.421875 L 16.984375 -21.9375 L 16.609375 -16.984375 L 11.859375 -16.984375 L 11.5625 -8.875 C 11.5625 -8.113281 11.695312 -7.578125 11.96875 -7.265625 C 12.25 -6.960938 12.738281 -6.8125 13.4375 -6.8125 Z M 13.4375 -6.8125 "/></g></g></g><g fill="#000000" fill-opacity="1"><g transform="translate(217.890834, 242.242616)"><g><path d="M 12.484375 -23.234375 C 14.660156 -23.234375 16.613281 -22.847656 18.34375 -22.078125 L 16.84375 -14.96875 L 16.171875 -14.640625 C 15.304688 -14.992188 14.601562 -15.25 14.0625 -15.40625 C 13.519531 -15.5625 13.007812 -15.640625 12.53125 -15.640625 C 11.539062 -15.640625 10.800781 -15.34375 10.3125 -14.75 C 9.832031 -14.164062 9.59375 -13.234375 9.59375 -11.953125 C 9.59375 -10.128906 9.875 -8.800781 10.4375 -7.96875 C 11 -7.132812 11.890625 -6.71875 13.109375 -6.71875 C 14.097656 -6.71875 15.457031 -6.957031 17.1875 -7.4375 L 17.8125 -6.90625 L 16.84375 -0.046875 C 15.1875 0.367188 13.1875 0.578125 10.84375 0.578125 C 7.613281 0.578125 5.109375 -0.421875 3.328125 -2.421875 C 1.554688 -4.421875 0.671875 -7.257812 0.671875 -10.9375 C 0.671875 -14.84375 1.703125 -17.867188 3.765625 -20.015625 C 5.828125 -22.160156 8.734375 -23.234375 12.484375 -23.234375 Z M 12.484375 -23.234375 "/></g></g></g><g fill="#000000" fill-opacity="1"><g transform="translate(236.322802, 242.242616)"><g><path d="M 15.171875 0 L 15.640625 -12.671875 C 15.640625 -14.617188 14.890625 -15.59375 13.390625 -15.59375 C 12.648438 -15.59375 11.898438 -15.367188 11.140625 -14.921875 L 11.046875 -10.078125 L 11.421875 0 L 2.0625 0 L 2.5 -9.125 L 2.15625 -33.078125 L 11.46875 -33.703125 L 11.234375 -19.390625 L 11.46875 -19.390625 C 13.164062 -21.085938 15.039062 -22.269531 17.09375 -22.9375 C 19.488281 -22.9375 21.316406 -22.394531 22.578125 -21.3125 C 23.847656 -20.226562 24.453125 -18.660156 24.390625 -16.609375 L 24.1875 -10.078125 L 24.53125 0 Z M 15.171875 0 "/></g></g></g><g fill="#000000" fill-opacity="1"><g transform="translate(262.674756, 242.242616)"><g><path d="M 21.21875 -9.40625 L 9.3125 -9.3125 C 9.601562 -8.1875 10.144531 -7.359375 10.9375 -6.828125 C 11.738281 -6.304688 12.84375 -6.046875 14.25 -6.046875 C 15.820312 -6.046875 18.113281 -6.445312 21.125 -7.25 L 21.796875 -6.765625 L 20.359375 -0.4375 C 17.828125 0.238281 15.472656 0.578125 13.296875 0.578125 C 9.328125 0.578125 6.226562 -0.476562 4 -2.59375 C 1.78125 -4.707031 0.671875 -7.617188 0.671875 -11.328125 C 0.671875 -15.003906 1.726562 -17.898438 3.84375 -20.015625 C 5.957031 -22.128906 8.851562 -23.1875 12.53125 -23.1875 C 15.695312 -23.1875 18.148438 -22.351562 19.890625 -20.6875 C 21.640625 -19.019531 22.515625 -16.703125 22.515625 -13.734375 C 22.515625 -12.765625 22.414062 -11.722656 22.21875 -10.609375 Z M 14.59375 -14.6875 C 14.59375 -16.382812 13.875 -17.234375 12.4375 -17.234375 C 10.675781 -17.234375 9.601562 -16.097656 9.21875 -13.828125 L 14.5 -14.015625 Z M 14.59375 -14.6875 "/></g></g></g><g fill="#000000" fill-opacity="1"><g transform="translate(285.954715, 242.242616)"><g><path d="M 14.921875 0 L 15.40625 -12.671875 C 15.40625 -14.617188 14.65625 -15.59375 13.15625 -15.59375 C 12.414062 -15.59375 11.660156 -15.367188 10.890625 -14.921875 L 10.890625 -10.078125 L 11.28125 0 L 1.921875 0 L 2.359375 -9.125 L 2.015625 -22.125 L 10.890625 -22.75 L 10.890625 -19.390625 L 11.234375 -19.390625 C 12.898438 -21.054688 14.769531 -22.238281 16.84375 -22.9375 C 19.25 -22.9375 21.082031 -22.394531 22.34375 -21.3125 C 23.601562 -20.226562 24.203125 -18.660156 24.140625 -16.609375 L 23.953125 -10.078125 L 24.28125 0 Z M 14.921875 0 "/></g></g></g><g fill="#000000" fill-opacity="1"><g transform="translate(159.925542, 257.692615)"><g><path d="M 6.59375 -9.765625 L 6.59375 -8.71875 L 2.359375 -8.71875 L 2.359375 -5.4375 L 5.796875 -5.4375 L 5.796875 -4.390625 L 2.359375 -4.390625 L 2.359375 0 L 1.078125 0 L 1.078125 -9.765625 Z M 6.59375 -9.765625 "/></g></g></g><g fill="#000000" fill-opacity="1"><g transform="translate(166.977608, 257.692615)"><g><path d="M 4.421875 0.125 C 3.703125 0.125 3.050781 -0.0351562 2.46875 -0.359375 C 1.882812 -0.691406 1.425781 -1.15625 1.09375 -1.75 C 0.769531 -2.351562 0.609375 -3.050781 0.609375 -3.84375 C 0.609375 -4.632812 0.773438 -5.328125 1.109375 -5.921875 C 1.453125 -6.523438 1.914062 -6.988281 2.5 -7.3125 C 3.09375 -7.632812 3.753906 -7.796875 4.484375 -7.796875 C 5.210938 -7.796875 5.867188 -7.632812 6.453125 -7.3125 C 7.046875 -6.988281 7.507812 -6.53125 7.84375 -5.9375 C 8.1875 -5.34375 8.359375 -4.644531 8.359375 -3.84375 C 8.359375 -3.050781 8.179688 -2.351562 7.828125 -1.75 C 7.484375 -1.15625 7.007812 -0.691406 6.40625 -0.359375 C 5.8125 -0.0351562 5.148438 0.125 4.421875 0.125 Z M 4.421875 -1 C 4.878906 -1 5.304688 -1.101562 5.703125 -1.3125 C 6.109375 -1.53125 6.4375 -1.851562 6.6875 -2.28125 C 6.9375 -2.707031 7.0625 -3.226562 7.0625 -3.84375 C 7.0625 -4.46875 6.9375 -4.992188 6.6875 -5.421875 C 6.445312 -5.847656 6.128906 -6.164062 5.734375 -6.375 C 5.347656 -6.582031 4.925781 -6.6875 4.46875 -6.6875 C 4 -6.6875 3.570312 -6.582031 3.1875 -6.375 C 2.800781 -6.164062 2.488281 -5.847656 2.25 -5.421875 C 2.019531 -4.992188 1.90625 -4.46875 1.90625 -3.84375 C 1.90625 -3.21875 2.019531 -2.691406 2.25 -2.265625 C 2.476562 -1.835938 2.78125 -1.519531 3.15625 -1.3125 C 3.539062 -1.101562 3.960938 -1 4.421875 -1 Z M 4.421875 -1 "/></g></g></g><g fill="#000000" fill-opacity="1"><g transform="translate(175.932609, 257.692615)"><g><path d="M 4.421875 0.125 C 3.703125 0.125 3.050781 -0.0351562 2.46875 -0.359375 C 1.882812 -0.691406 1.425781 -1.15625 1.09375 -1.75 C 0.769531 -2.351562 0.609375 -3.050781 0.609375 -3.84375 C 0.609375 -4.632812 0.773438 -5.328125 1.109375 -5.921875 C 1.453125 -6.523438 1.914062 -6.988281 2.5 -7.3125 C 3.09375 -7.632812 3.753906 -7.796875 4.484375 -7.796875 C 5.210938 -7.796875 5.867188 -7.632812 6.453125 -7.3125 C 7.046875 -6.988281 7.507812 -6.53125 7.84375 -5.9375 C 8.1875 -5.34375 8.359375 -4.644531 8.359375 -3.84375 C 8.359375 -3.050781 8.179688 -2.351562 7.828125 -1.75 C 7.484375 -1.15625 7.007812 -0.691406 6.40625 -0.359375 C 5.8125 -0.0351562 5.148438 0.125 4.421875 0.125 Z M 4.421875 -1 C 4.878906 -1 5.304688 -1.101562 5.703125 -1.3125 C 6.109375 -1.53125 6.4375 -1.851562 6.6875 -2.28125 C 6.9375 -2.707031 7.0625 -3.226562 7.0625 -3.84375 C 7.0625 -4.46875 6.9375 -4.992188 6.6875 -5.421875 C 6.445312 -5.847656 6.128906 -6.164062 5.734375 -6.375 C 5.347656 -6.582031 4.925781 -6.6875 4.46875 -6.6875 C 4 -6.6875 3.570312 -6.582031 3.1875 -6.375 C 2.800781 -6.164062 2.488281 -5.847656 2.25 -5.421875 C 2.019531 -4.992188 1.90625 -4.46875 1.90625 -3.84375 C 1.90625 -3.21875 2.019531 -2.691406 2.25 -2.265625 C 2.476562 -1.835938 2.78125 -1.519531 3.15625 -1.3125 C 3.539062 -1.101562 3.960938 -1 4.421875 -1 Z M 4.421875 -1 "/></g></g></g><g fill="#000000" fill-opacity="1"><g transform="translate(184.88761, 257.692615)"><g><path d="M 0.609375 -3.859375 C 0.609375 -4.648438 0.765625 -5.335938 1.078125 -5.921875 C 1.390625 -6.515625 1.820312 -6.972656 2.375 -7.296875 C 2.9375 -7.628906 3.5625 -7.796875 4.25 -7.796875 C 4.851562 -7.796875 5.410156 -7.65625 5.921875 -7.375 C 6.429688 -7.101562 6.820312 -6.742188 7.09375 -6.296875 L 7.09375 -10.359375 L 8.390625 -10.359375 L 8.390625 0 L 7.09375 0 L 7.09375 -1.4375 C 6.84375 -0.976562 6.46875 -0.601562 5.96875 -0.3125 C 5.476562 -0.0195312 4.898438 0.125 4.234375 0.125 C 3.554688 0.125 2.9375 -0.0390625 2.375 -0.375 C 1.820312 -0.707031 1.390625 -1.175781 1.078125 -1.78125 C 0.765625 -2.394531 0.609375 -3.085938 0.609375 -3.859375 Z M 7.09375 -3.84375 C 7.09375 -4.425781 6.972656 -4.929688 6.734375 -5.359375 C 6.503906 -5.785156 6.191406 -6.113281 5.796875 -6.34375 C 5.398438 -6.570312 4.96875 -6.6875 4.5 -6.6875 C 4.019531 -6.6875 3.582031 -6.570312 3.1875 -6.34375 C 2.800781 -6.125 2.488281 -5.800781 2.25 -5.375 C 2.019531 -4.945312 1.90625 -4.441406 1.90625 -3.859375 C 1.90625 -3.273438 2.019531 -2.765625 2.25 -2.328125 C 2.488281 -1.898438 2.800781 -1.570312 3.1875 -1.34375 C 3.582031 -1.113281 4.019531 -1 4.5 -1 C 4.96875 -1 5.398438 -1.113281 5.796875 -1.34375 C 6.191406 -1.570312 6.503906 -1.898438 6.734375 -2.328125 C 6.972656 -2.765625 7.09375 -3.269531 7.09375 -3.84375 Z M 7.09375 -3.84375 "/></g></g></g><g fill="#000000" fill-opacity="1"><g transform="translate(194.346335, 257.692615)"><g/></g></g><g fill="#000000" fill-opacity="1"><g transform="translate(198.082247, 257.692615)"><g><path d="M 0.609375 -4.890625 C 0.609375 -5.835938 0.820312 -6.691406 1.25 -7.453125 C 1.675781 -8.210938 2.257812 -8.804688 3 -9.234375 C 3.738281 -9.671875 4.5625 -9.890625 5.46875 -9.890625 C 6.53125 -9.890625 7.457031 -9.628906 8.25 -9.109375 C 9.050781 -8.597656 9.632812 -7.875 10 -6.9375 L 8.46875 -6.9375 C 8.195312 -7.519531 7.804688 -7.96875 7.296875 -8.28125 C 6.785156 -8.601562 6.175781 -8.765625 5.46875 -8.765625 C 4.789062 -8.765625 4.179688 -8.601562 3.640625 -8.28125 C 3.097656 -7.96875 2.671875 -7.519531 2.359375 -6.9375 C 2.054688 -6.351562 1.90625 -5.671875 1.90625 -4.890625 C 1.90625 -4.109375 2.054688 -3.425781 2.359375 -2.84375 C 2.671875 -2.257812 3.097656 -1.804688 3.640625 -1.484375 C 4.179688 -1.171875 4.789062 -1.015625 5.46875 -1.015625 C 6.175781 -1.015625 6.785156 -1.171875 7.296875 -1.484375 C 7.804688 -1.796875 8.195312 -2.25 8.46875 -2.84375 L 10 -2.84375 C 9.632812 -1.90625 9.050781 -1.179688 8.25 -0.671875 C 7.457031 -0.171875 6.53125 0.078125 5.46875 0.078125 C 4.5625 0.078125 3.738281 -0.128906 3 -0.546875 C 2.257812 -0.972656 1.675781 -1.5625 1.25 -2.3125 C 0.820312 -3.070312 0.609375 -3.929688 0.609375 -4.890625 Z M 0.609375 -4.890625 "/></g></g></g><g fill="#000000" fill-opacity="1"><g transform="translate(208.884221, 257.692615)"><g><path d="M 0.609375 -3.859375 C 0.609375 -4.648438 0.765625 -5.335938 1.078125 -5.921875 C 1.390625 -6.515625 1.820312 -6.972656 2.375 -7.296875 C 2.9375 -7.628906 3.554688 -7.796875 4.234375 -7.796875 C 4.910156 -7.796875 5.492188 -7.648438 5.984375 -7.359375 C 6.484375 -7.078125 6.851562 -6.710938 7.09375 -6.265625 L 7.09375 -7.671875 L 8.390625 -7.671875 L 8.390625 0 L 7.09375 0 L 7.09375 -1.421875 C 6.84375 -0.972656 6.46875 -0.601562 5.96875 -0.3125 C 5.46875 -0.0195312 4.890625 0.125 4.234375 0.125 C 3.546875 0.125 2.925781 -0.0390625 2.375 -0.375 C 1.820312 -0.707031 1.390625 -1.175781 1.078125 -1.78125 C 0.765625 -2.394531 0.609375 -3.085938 0.609375 -3.859375 Z M 7.09375 -3.84375 C 7.09375 -4.425781 6.972656 -4.929688 6.734375 -5.359375 C 6.503906 -5.785156 6.191406 -6.113281 5.796875 -6.34375 C 5.398438 -6.570312 4.96875 -6.6875 4.5 -6.6875 C 4.019531 -6.6875 3.582031 -6.570312 3.1875 -6.34375 C 2.800781 -6.125 2.488281 -5.800781 2.25 -5.375 C 2.019531 -4.945312 1.90625 -4.441406 1.90625 -3.859375 C 1.90625 -3.273438 2.019531 -2.765625 2.25 -2.328125 C 2.488281 -1.898438 2.800781 -1.570312 3.1875 -1.34375 C 3.582031 -1.113281 4.019531 -1 4.5 -1 C 4.96875 -1 5.398438 -1.113281 5.796875 -1.34375 C 6.191406 -1.570312 6.503906 -1.898438 6.734375 -2.328125 C 6.972656 -2.765625 7.09375 -3.269531 7.09375 -3.84375 Z M 7.09375 -3.84375 "/></g></g></g><g fill="#000000" fill-opacity="1"><g transform="translate(218.342946, 257.692615)"><g><path d="M 2.625 -6.625 L 2.625 -2.09375 C 2.625 -1.726562 2.703125 -1.46875 2.859375 -1.3125 C 3.023438 -1.15625 3.304688 -1.078125 3.703125 -1.078125 L 4.640625 -1.078125 L 4.640625 0 L 3.484375 0 C 2.773438 0 2.242188 -0.160156 1.890625 -0.484375 C 1.535156 -0.816406 1.359375 -1.351562 1.359375 -2.09375 L 1.359375 -6.625 L 0.359375 -6.625 L 0.359375 -7.671875 L 1.359375 -7.671875 L 1.359375 -9.609375 L 2.625 -9.609375 L 2.625 -7.671875 L 4.640625 -7.671875 L 4.640625 -6.625 Z M 2.625 -6.625 "/></g></g></g><g fill="#000000" fill-opacity="1"><g transform="translate(223.436104, 257.692615)"><g><path d="M 8.078125 -4.125 C 8.078125 -3.882812 8.0625 -3.628906 8.03125 -3.359375 L 1.90625 -3.359375 C 1.945312 -2.597656 2.203125 -2.003906 2.671875 -1.578125 C 3.148438 -1.160156 3.722656 -0.953125 4.390625 -0.953125 C 4.941406 -0.953125 5.398438 -1.078125 5.765625 -1.328125 C 6.140625 -1.585938 6.398438 -1.929688 6.546875 -2.359375 L 7.921875 -2.359375 C 7.710938 -1.628906 7.300781 -1.03125 6.6875 -0.5625 C 6.070312 -0.101562 5.304688 0.125 4.390625 0.125 C 3.660156 0.125 3.007812 -0.0351562 2.4375 -0.359375 C 1.863281 -0.691406 1.414062 -1.15625 1.09375 -1.75 C 0.769531 -2.351562 0.609375 -3.050781 0.609375 -3.84375 C 0.609375 -4.644531 0.765625 -5.34375 1.078125 -5.9375 C 1.390625 -6.53125 1.832031 -6.988281 2.40625 -7.3125 C 2.988281 -7.632812 3.648438 -7.796875 4.390625 -7.796875 C 5.117188 -7.796875 5.765625 -7.632812 6.328125 -7.3125 C 6.890625 -7 7.320312 -6.566406 7.625 -6.015625 C 7.925781 -5.460938 8.078125 -4.832031 8.078125 -4.125 Z M 6.765625 -4.390625 C 6.765625 -4.878906 6.65625 -5.296875 6.4375 -5.640625 C 6.226562 -5.992188 5.9375 -6.257812 5.5625 -6.4375 C 5.195312 -6.625 4.789062 -6.71875 4.34375 -6.71875 C 3.695312 -6.71875 3.144531 -6.507812 2.6875 -6.09375 C 2.238281 -5.6875 1.984375 -5.117188 1.921875 -4.390625 Z M 6.765625 -4.390625 "/></g></g></g><g fill="#000000" fill-opacity="1"><g transform="translate(232.111263, 257.692615)"><g><path d="M 2.359375 -6.421875 C 2.578125 -6.859375 2.894531 -7.195312 3.3125 -7.4375 C 3.726562 -7.6875 4.234375 -7.8125 4.828125 -7.8125 L 4.828125 -6.5 L 4.5 -6.5 C 3.070312 -6.5 2.359375 -5.722656 2.359375 -4.171875 L 2.359375 0 L 1.078125 0 L 1.078125 -7.671875 L 2.359375 -7.671875 Z M 2.359375 -6.421875 "/></g></g></g><g fill="#000000" fill-opacity="1"><g transform="translate(237.330352, 257.692615)"><g><path d="M 1.734375 -8.921875 C 1.492188 -8.921875 1.289062 -9.003906 1.125 -9.171875 C 0.957031 -9.335938 0.875 -9.539062 0.875 -9.78125 C 0.875 -10.03125 0.957031 -10.238281 1.125 -10.40625 C 1.289062 -10.570312 1.492188 -10.65625 1.734375 -10.65625 C 1.972656 -10.65625 2.171875 -10.570312 2.328125 -10.40625 C 2.492188 -10.238281 2.578125 -10.03125 2.578125 -9.78125 C 2.578125 -9.539062 2.492188 -9.335938 2.328125 -9.171875 C 2.171875 -9.003906 1.972656 -8.921875 1.734375 -8.921875 Z M 2.359375 -7.671875 L 2.359375 0 L 1.078125 0 L 1.078125 -7.671875 Z M 2.359375 -7.671875 "/></g></g></g><g fill="#000000" fill-opacity="1"><g transform="translate(240.772426, 257.692615)"><g><path d="M 4.8125 -7.8125 C 5.75 -7.8125 6.503906 -7.53125 7.078125 -6.96875 C 7.660156 -6.40625 7.953125 -5.585938 7.953125 -4.515625 L 7.953125 0 L 6.6875 0 L 6.6875 -4.34375 C 6.6875 -5.101562 6.492188 -5.6875 6.109375 -6.09375 C 5.734375 -6.5 5.210938 -6.703125 4.546875 -6.703125 C 3.878906 -6.703125 3.347656 -6.492188 2.953125 -6.078125 C 2.554688 -5.660156 2.359375 -5.046875 2.359375 -4.234375 L 2.359375 0 L 1.078125 0 L 1.078125 -7.671875 L 2.359375 -7.671875 L 2.359375 -6.578125 C 2.609375 -6.972656 2.945312 -7.273438 3.375 -7.484375 C 3.8125 -7.703125 4.289062 -7.8125 4.8125 -7.8125 Z M 4.8125 -7.8125 "/></g></g></g><g fill="#000000" fill-opacity="1"><g transform="translate(249.727427, 257.692615)"><g><path d="M 4.234375 -7.796875 C 4.898438 -7.796875 5.484375 -7.648438 5.984375 -7.359375 C 6.484375 -7.078125 6.851562 -6.710938 7.09375 -6.265625 L 7.09375 -7.671875 L 8.390625 -7.671875 L 8.390625 0.171875 C 8.390625 0.867188 8.238281 1.488281 7.9375 2.03125 C 7.632812 2.582031 7.207031 3.007812 6.65625 3.3125 C 6.101562 3.625 5.457031 3.78125 4.71875 3.78125 C 3.707031 3.78125 2.863281 3.539062 2.1875 3.0625 C 1.519531 2.59375 1.128906 1.945312 1.015625 1.125 L 2.265625 1.125 C 2.410156 1.582031 2.703125 1.953125 3.140625 2.234375 C 3.578125 2.523438 4.101562 2.671875 4.71875 2.671875 C 5.414062 2.671875 5.984375 2.453125 6.421875 2.015625 C 6.867188 1.578125 7.09375 0.960938 7.09375 0.171875 L 7.09375 -1.4375 C 6.84375 -0.988281 6.46875 -0.613281 5.96875 -0.3125 C 5.476562 -0.0195312 4.898438 0.125 4.234375 0.125 C 3.554688 0.125 2.9375 -0.0390625 2.375 -0.375 C 1.820312 -0.707031 1.390625 -1.175781 1.078125 -1.78125 C 0.765625 -2.394531 0.609375 -3.085938 0.609375 -3.859375 C 0.609375 -4.648438 0.765625 -5.335938 1.078125 -5.921875 C 1.390625 -6.515625 1.820312 -6.972656 2.375 -7.296875 C 2.9375 -7.628906 3.554688 -7.796875 4.234375 -7.796875 Z M 7.09375 -3.84375 C 7.09375 -4.425781 6.972656 -4.929688 6.734375 -5.359375 C 6.503906 -5.785156 6.191406 -6.113281 5.796875 -6.34375 C 5.398438 -6.570312 4.96875 -6.6875 4.5 -6.6875 C 4.019531 -6.6875 3.582031 -6.570312 3.1875 -6.34375 C 2.800781 -6.125 2.488281 -5.800781 2.25 -5.375 C 2.019531 -4.945312 1.90625 -4.441406 1.90625 -3.859375 C 1.90625 -3.273438 2.019531 -2.765625 2.25 -2.328125 C 2.488281 -1.898438 2.800781 -1.570312 3.1875 -1.34375 C 3.582031 -1.113281 4.019531 -1 4.5 -1 C 4.96875 -1 5.398438 -1.113281 5.796875 -1.34375 C 6.191406 -1.570312 6.503906 -1.898438 6.734375 -2.328125 C 6.972656 -2.765625 7.09375 -3.269531 7.09375 -3.84375 Z M 7.09375 -3.84375 "/></g></g></g><g fill="#000000" fill-opacity="1"><g transform="translate(259.186151, 257.692615)"><g/></g></g><g fill="#000000" fill-opacity="1"><g transform="translate(262.922063, 257.692615)"><g><path d="M 4.171875 0.09375 C 3.523438 0.09375 2.945312 -0.0195312 2.4375 -0.25 C 1.9375 -0.476562 1.539062 -0.796875 1.25 -1.203125 C 0.957031 -1.609375 0.804688 -2.078125 0.796875 -2.609375 L 2.15625 -2.609375 C 2.195312 -2.148438 2.382812 -1.765625 2.71875 -1.453125 C 3.050781 -1.140625 3.535156 -0.984375 4.171875 -0.984375 C 4.773438 -0.984375 5.25 -1.132812 5.59375 -1.4375 C 5.945312 -1.738281 6.125 -2.128906 6.125 -2.609375 C 6.125 -2.972656 6.019531 -3.269531 5.8125 -3.5 C 5.613281 -3.738281 5.359375 -3.921875 5.046875 -4.046875 C 4.742188 -4.171875 4.332031 -4.300781 3.8125 -4.4375 C 3.164062 -4.601562 2.648438 -4.769531 2.265625 -4.9375 C 1.878906 -5.101562 1.546875 -5.363281 1.265625 -5.71875 C 0.992188 -6.082031 0.859375 -6.570312 0.859375 -7.1875 C 0.859375 -7.71875 0.992188 -8.1875 1.265625 -8.59375 C 1.535156 -9.007812 1.914062 -9.328125 2.40625 -9.546875 C 2.894531 -9.773438 3.457031 -9.890625 4.09375 -9.890625 C 5 -9.890625 5.742188 -9.660156 6.328125 -9.203125 C 6.910156 -8.742188 7.242188 -8.132812 7.328125 -7.375 L 5.921875 -7.375 C 5.878906 -7.75 5.679688 -8.078125 5.328125 -8.359375 C 4.984375 -8.648438 4.53125 -8.796875 3.96875 -8.796875 C 3.425781 -8.796875 2.988281 -8.65625 2.65625 -8.375 C 2.320312 -8.101562 2.15625 -7.71875 2.15625 -7.21875 C 2.15625 -6.863281 2.253906 -6.570312 2.453125 -6.34375 C 2.660156 -6.125 2.910156 -5.957031 3.203125 -5.84375 C 3.492188 -5.726562 3.90625 -5.597656 4.4375 -5.453125 C 5.082031 -5.273438 5.597656 -5.097656 5.984375 -4.921875 C 6.378906 -4.742188 6.71875 -4.472656 7 -4.109375 C 7.28125 -3.753906 7.421875 -3.269531 7.421875 -2.65625 C 7.421875 -2.1875 7.289062 -1.738281 7.03125 -1.3125 C 6.78125 -0.894531 6.410156 -0.554688 5.921875 -0.296875 C 5.429688 -0.0351562 4.847656 0.09375 4.171875 0.09375 Z M 4.171875 0.09375 "/></g></g></g><g fill="#000000" fill-opacity="1"><g transform="translate(271.135476, 257.692615)"><g><path d="M 8.078125 -4.125 C 8.078125 -3.882812 8.0625 -3.628906 8.03125 -3.359375 L 1.90625 -3.359375 C 1.945312 -2.597656 2.203125 -2.003906 2.671875 -1.578125 C 3.148438 -1.160156 3.722656 -0.953125 4.390625 -0.953125 C 4.941406 -0.953125 5.398438 -1.078125 5.765625 -1.328125 C 6.140625 -1.585938 6.398438 -1.929688 6.546875 -2.359375 L 7.921875 -2.359375 C 7.710938 -1.628906 7.300781 -1.03125 6.6875 -0.5625 C 6.070312 -0.101562 5.304688 0.125 4.390625 0.125 C 3.660156 0.125 3.007812 -0.0351562 2.4375 -0.359375 C 1.863281 -0.691406 1.414062 -1.15625 1.09375 -1.75 C 0.769531 -2.351562 0.609375 -3.050781 0.609375 -3.84375 C 0.609375 -4.644531 0.765625 -5.34375 1.078125 -5.9375 C 1.390625 -6.53125 1.832031 -6.988281 2.40625 -7.3125 C 2.988281 -7.632812 3.648438 -7.796875 4.390625 -7.796875 C 5.117188 -7.796875 5.765625 -7.632812 6.328125 -7.3125 C 6.890625 -7 7.320312 -6.566406 7.625 -6.015625 C 7.925781 -5.460938 8.078125 -4.832031 8.078125 -4.125 Z M 6.765625 -4.390625 C 6.765625 -4.878906 6.65625 -5.296875 6.4375 -5.640625 C 6.226562 -5.992188 5.9375 -6.257812 5.5625 -6.4375 C 5.195312 -6.625 4.789062 -6.71875 4.34375 -6.71875 C 3.695312 -6.71875 3.144531 -6.507812 2.6875 -6.09375 C 2.238281 -5.6875 1.984375 -5.117188 1.921875 -4.390625 Z M 6.765625 -4.390625 "/></g></g></g><g fill="#000000" fill-opacity="1"><g transform="translate(279.810635, 257.692615)"><g><path d="M 2.359375 -6.421875 C 2.578125 -6.859375 2.894531 -7.195312 3.3125 -7.4375 C 3.726562 -7.6875 4.234375 -7.8125 4.828125 -7.8125 L 4.828125 -6.5 L 4.5 -6.5 C 3.070312 -6.5 2.359375 -5.722656 2.359375 -4.171875 L 2.359375 0 L 1.078125 0 L 1.078125 -7.671875 L 2.359375 -7.671875 Z M 2.359375 -6.421875 "/></g></g></g><g fill="#000000" fill-opacity="1"><g transform="translate(285.029724, 257.692615)"><g><path d="M 3.9375 -1.171875 L 6.3125 -7.671875 L 7.671875 -7.671875 L 4.65625 0 L 3.171875 0 L 0.171875 -7.671875 L 1.546875 -7.671875 Z M 3.9375 -1.171875 "/></g></g></g><g fill="#000000" fill-opacity="1"><g transform="translate(292.879341, 257.692615)"><g><path d="M 1.734375 -8.921875 C 1.492188 -8.921875 1.289062 -9.003906 1.125 -9.171875 C 0.957031 -9.335938 0.875 -9.539062 0.875 -9.78125 C 0.875 -10.03125 0.957031 -10.238281 1.125 -10.40625 C 1.289062 -10.570312 1.492188 -10.65625 1.734375 -10.65625 C 1.972656 -10.65625 2.171875 -10.570312 2.328125 -10.40625 C 2.492188 -10.238281 2.578125 -10.03125 2.578125 -9.78125 C 2.578125 -9.539062 2.492188 -9.335938 2.328125 -9.171875 C 2.171875 -9.003906 1.972656 -8.921875 1.734375 -8.921875 Z M 2.359375 -7.671875 L 2.359375 0 L 1.078125 0 L 1.078125 -7.671875 Z M 2.359375 -7.671875 "/></g></g></g><g fill="#000000" fill-opacity="1"><g transform="translate(296.321414, 257.692615)"><g><path d="M 0.609375 -3.84375 C 0.609375 -4.644531 0.765625 -5.335938 1.078125 -5.921875 C 1.390625 -6.515625 1.828125 -6.972656 2.390625 -7.296875 C 2.960938 -7.628906 3.613281 -7.796875 4.34375 -7.796875 C 5.28125 -7.796875 6.054688 -7.566406 6.671875 -7.109375 C 7.285156 -6.648438 7.6875 -6.015625 7.875 -5.203125 L 6.515625 -5.203125 C 6.378906 -5.671875 6.125 -6.039062 5.75 -6.3125 C 5.375 -6.582031 4.90625 -6.71875 4.34375 -6.71875 C 3.613281 -6.71875 3.023438 -6.46875 2.578125 -5.96875 C 2.128906 -5.46875 1.90625 -4.757812 1.90625 -3.84375 C 1.90625 -2.925781 2.128906 -2.210938 2.578125 -1.703125 C 3.023438 -1.203125 3.613281 -0.953125 4.34375 -0.953125 C 4.90625 -0.953125 5.367188 -1.082031 5.734375 -1.34375 C 6.109375 -1.601562 6.367188 -1.976562 6.515625 -2.46875 L 7.875 -2.46875 C 7.675781 -1.675781 7.265625 -1.046875 6.640625 -0.578125 C 6.023438 -0.109375 5.257812 0.125 4.34375 0.125 C 3.613281 0.125 2.960938 -0.0351562 2.390625 -0.359375 C 1.828125 -0.691406 1.390625 -1.15625 1.078125 -1.75 C 0.765625 -2.34375 0.609375 -3.039062 0.609375 -3.84375 Z M 0.609375 -3.84375 "/></g></g></g><g fill="#000000" fill-opacity="1"><g transform="translate(304.814669, 257.692615)"><g><path d="M 8.078125 -4.125 C 8.078125 -3.882812 8.0625 -3.628906 8.03125 -3.359375 L 1.90625 -3.359375 C 1.945312 -2.597656 2.203125 -2.003906 2.671875 -1.578125 C 3.148438 -1.160156 3.722656 -0.953125 4.390625 -0.953125 C 4.941406 -0.953125 5.398438 -1.078125 5.765625 -1.328125 C 6.140625 -1.585938 6.398438 -1.929688 6.546875 -2.359375 L 7.921875 -2.359375 C 7.710938 -1.628906 7.300781 -1.03125 6.6875 -0.5625 C 6.070312 -0.101562 5.304688 0.125 4.390625 0.125 C 3.660156 0.125 3.007812 -0.0351562 2.4375 -0.359375 C 1.863281 -0.691406 1.414062 -1.15625 1.09375 -1.75 C 0.769531 -2.351562 0.609375 -3.050781 0.609375 -3.84375 C 0.609375 -4.644531 0.765625 -5.34375 1.078125 -5.9375 C 1.390625 -6.53125 1.832031 -6.988281 2.40625 -7.3125 C 2.988281 -7.632812 3.648438 -7.796875 4.390625 -7.796875 C 5.117188 -7.796875 5.765625 -7.632812 6.328125 -7.3125 C 6.890625 -7 7.320312 -6.566406 7.625 -6.015625 C 7.925781 -5.460938 8.078125 -4.832031 8.078125 -4.125 Z M 6.765625 -4.390625 C 6.765625 -4.878906 6.65625 -5.296875 6.4375 -5.640625 C 6.226562 -5.992188 5.9375 -6.257812 5.5625 -6.4375 C 5.195312 -6.625 4.789062 -6.71875 4.34375 -6.71875 C 3.695312 -6.71875 3.144531 -6.507812 2.6875 -6.09375 C 2.238281 -5.6875 1.984375 -5.117188 1.921875 -4.390625 Z M 6.765625 -4.390625 "/></g></g></g></svg>