<svg xmlns="http://www.w3.org/2000/svg" xmlns:xlink="http://www.w3.org/1999/xlink" width="1920" zoomAndPan="magnify" viewBox="0 0 1440 809.999993" height="1080" preserveAspectRatio="xMidYMid meet" version="1.0"><defs><g/><clipPath id="5e8ed17b26"><path d="M 570.15625 214.058594 L 870 214.058594 L 870 513 L 570.15625 513 Z M 570.15625 214.058594 " clip-rule="nonzero"/></clipPath></defs><rect x="-144" width="1728" fill="#ffffff" y="-80.999999" height="971.999992" fill-opacity="1"/><rect x="-144" width="1728" fill="#000000" y="-80.999999" height="971.999992" fill-opacity="1"/><g clip-path="url(#5e8ed17b26)"><path fill="#ffffff" d="M 863.515625 413.964844 C 860.382812 413.964844 857.835938 411.421875 857.835938 408.285156 L 857.835938 234.023438 L 761.40625 330.453125 C 759.1875 332.667969 755.589844 332.667969 753.371094 330.453125 C 751.15625 328.234375 751.15625 324.636719 753.371094 322.417969 L 859.5 216.292969 C 861.125 214.664062 863.566406 214.179688 865.691406 215.058594 C 867.8125 215.941406 869.199219 218.011719 869.199219 220.308594 L 869.199219 408.285156 C 869.199219 411.421875 866.65625 413.964844 863.515625 413.964844 Z M 576.511719 512.992188 C 573.375 512.992188 570.832031 510.453125 570.832031 507.3125 L 570.832031 309.257812 C 570.832031 306.960938 572.214844 304.886719 574.339844 304.007812 C 576.460938 303.128906 578.90625 303.613281 580.53125 305.238281 L 679.558594 404.269531 C 681.777344 406.484375 681.777344 410.085938 679.558594 412.300781 C 677.339844 414.519531 673.742188 414.519531 671.523438 412.300781 L 582.195312 322.96875 L 582.195312 507.3125 C 582.195312 510.453125 579.648438 512.992188 576.511719 512.992188 Z M 863.515625 512.992188 C 862.0625 512.992188 860.609375 512.4375 859.5 511.328125 L 572.496094 224.324219 C 570.277344 222.105469 570.277344 218.507812 572.496094 216.292969 C 574.714844 214.074219 578.308594 214.074219 580.53125 216.292969 L 867.535156 503.296875 C 869.753906 505.515625 869.753906 509.113281 867.535156 511.328125 C 866.421875 512.4375 864.96875 512.992188 863.515625 512.992188 " fill-opacity="1" fill-rule="nonzero"/></g><g fill="#fffbfa" fill-opacity="1"><g transform="translate(607.490892, 564.944705)"><g><path d="M 7.558594 0 C 7.957031 0 8.164062 -0.207031 8.164062 -0.605469 L 8.164062 -8.738281 L 13.269531 -2.773438 C 13.550781 -2.449219 13.84375 -2.449219 14.109375 -2.773438 L 19.292969 -8.796875 L 19.292969 -0.605469 C 19.292969 -0.207031 19.5 0 19.898438 0 L 24.574219 0 C 24.972656 0 25.179688 -0.207031 25.179688 -0.605469 L 25.179688 -22.15625 C 25.179688 -23.277344 24.398438 -23.542969 23.707031 -22.671875 L 13.699219 -10.15625 L 3.75 -22.671875 C 3.027344 -23.585938 2.273438 -23.277344 2.273438 -22.15625 L 2.273438 -0.605469 C 2.273438 -0.207031 2.480469 0 2.878906 0 Z M 7.558594 0 "/></g></g></g><g fill="#fffbfa" fill-opacity="1"><g transform="translate(659.132194, 564.944705)"><g><path d="M 12.488281 -22.671875 C 12.03125 -23.601562 11.304688 -23.601562 10.847656 -22.671875 L 0.457031 -0.722656 C 0.265625 -0.296875 0.457031 0 0.898438 0 L 6.230469 0 C 6.554688 0 6.804688 -0.175781 6.921875 -0.488281 L 7.660156 -2.390625 L 15.675781 -2.390625 L 16.414062 -0.488281 C 16.53125 -0.175781 16.78125 0 17.105469 0 L 22.4375 0 C 22.878906 0 23.070312 -0.296875 22.878906 -0.722656 Z M 11.675781 -12.621094 L 13.902344 -6.921875 L 9.433594 -6.921875 Z M 11.675781 -12.621094 "/></g></g></g><g fill="#fffbfa" fill-opacity="1"><g transform="translate(706.685699, 564.944705)"><g><path d="M 7.5 0 C 7.898438 0 8.101562 -0.207031 8.101562 -0.605469 L 8.101562 -11.425781 L 20.648438 0 C 21.59375 0.871094 22.273438 0.488281 22.273438 -0.546875 L 22.273438 -22.066406 C 22.273438 -22.464844 22.066406 -22.671875 21.667969 -22.671875 L 17.046875 -22.671875 C 16.648438 -22.671875 16.441406 -22.464844 16.441406 -22.066406 L 16.441406 -11.632812 L 3.75 -22.820312 C 2.90625 -23.558594 2.273438 -23.1875 2.273438 -22.15625 L 2.273438 -0.605469 C 2.273438 -0.207031 2.480469 0 2.878906 0 Z M 7.5 0 "/></g></g></g><g fill="#fffbfa" fill-opacity="1"><g transform="translate(755.419789, 564.944705)"><g><path d="M 13.609375 0.605469 C 18.023438 0.605469 21.578125 -1.035156 23.675781 -3.898438 C 23.824219 -4.074219 23.882812 -4.296875 23.882812 -4.5625 L 23.882812 -12.03125 C 23.882812 -12.429688 23.675781 -12.636719 23.277344 -12.636719 L 14.390625 -12.636719 C 13.992188 -12.636719 13.785156 -12.429688 13.785156 -12.03125 L 13.785156 -8.398438 C 13.785156 -8.015625 13.992188 -7.792969 14.390625 -7.792969 L 18.375 -7.792969 L 18.375 -6.554688 C 17.285156 -5.285156 15.632812 -4.53125 13.609375 -4.53125 C 9.859375 -4.53125 7.378906 -7.128906 7.378906 -11.335938 C 7.378906 -15.351562 9.859375 -17.832031 13.609375 -17.832031 C 15.75 -17.832031 17.476562 -17.019531 18.597656 -15.660156 C 18.835938 -15.351562 19.101562 -15.292969 19.410156 -15.511719 L 23.394531 -18.171875 C 23.734375 -18.40625 23.792969 -18.6875 23.542969 -18.980469 C 21.371094 -21.667969 17.890625 -23.277344 13.609375 -23.277344 C 6.230469 -23.277344 1.328125 -18.628906 1.328125 -11.335938 C 1.328125 -4.042969 6.230469 0.605469 13.609375 0.605469 Z M 13.609375 0.605469 "/></g></g></g><g fill="#fffbfa" fill-opacity="1"><g transform="translate(805.18691, 564.944705)"><g><path d="M 13.609375 0.605469 C 21.003906 0.605469 25.933594 -4.042969 25.933594 -11.335938 C 25.933594 -18.628906 21.003906 -23.277344 13.609375 -23.277344 C 6.230469 -23.277344 1.328125 -18.628906 1.328125 -11.335938 C 1.328125 -4.042969 6.230469 0.605469 13.609375 0.605469 Z M 13.609375 -4.839844 C 9.859375 -4.839844 7.378906 -7.320312 7.378906 -11.335938 C 7.378906 -15.351562 9.859375 -17.832031 13.609375 -17.832031 C 17.386719 -17.832031 19.898438 -15.351562 19.898438 -11.335938 C 19.898438 -7.320312 17.386719 -4.839844 13.609375 -4.839844 Z M 13.609375 -4.839844 "/></g></g></g><g fill="#fffbfa" fill-opacity="1"><g transform="translate(663.34995, 591.90401)"><g><path d="M 1.707031 0 L 5.050781 0 C 8.421875 0 10.554688 -2.101562 10.554688 -5.292969 C 10.554688 -8.484375 8.421875 -10.585938 5.050781 -10.585938 L 1.707031 -10.585938 Z M 2.632812 -0.878906 L 2.632812 -9.707031 L 5.019531 -9.707031 C 7.847656 -9.707031 9.617188 -7.984375 9.617188 -5.292969 C 9.617188 -2.601562 7.863281 -0.878906 5.050781 -0.878906 Z M 2.632812 -0.878906 "/></g></g></g><g fill="#fffbfa" fill-opacity="1"><g transform="translate(680.919847, 591.90401)"><g><path d="M 1.707031 0 L 2.632812 0 L 2.632812 -10.585938 L 1.707031 -10.585938 Z M 1.707031 0 "/></g></g></g><g fill="#fffbfa" fill-opacity="1"><g transform="translate(691.307553, 591.90401)"><g><path d="M 6.320312 0.195312 C 9.539062 0.195312 11.6875 -2.207031 11.65625 -5.5625 L 5.988281 -5.5625 L 5.988281 -4.6875 L 10.675781 -4.6875 C 10.476562 -2.375 8.800781 -0.726562 6.335938 -0.726562 C 3.71875 -0.726562 1.90625 -2.585938 1.90625 -5.292969 C 1.90625 -8 3.703125 -9.859375 6.335938 -9.859375 C 8.226562 -9.859375 9.675781 -8.890625 10.34375 -7.316406 L 11.339844 -7.316406 C 10.660156 -9.375 8.738281 -10.78125 6.289062 -10.78125 C 3.191406 -10.78125 0.96875 -8.496094 0.96875 -5.292969 C 0.96875 -2.085938 3.191406 0.195312 6.320312 0.195312 Z M 6.320312 0.195312 "/></g></g></g><g fill="#fffbfa" fill-opacity="1"><g transform="translate(709.935889, 591.90401)"><g><path d="M 1.707031 0 L 2.632812 0 L 2.632812 -10.585938 L 1.707031 -10.585938 Z M 1.707031 0 "/></g></g></g><g fill="#fffbfa" fill-opacity="1"><g transform="translate(720.323594, 591.90401)"><g><path d="M 4.21875 0 L 5.125 0 L 5.125 -9.707031 L 8.785156 -9.707031 L 8.785156 -10.585938 L 0.574219 -10.585938 L 0.574219 -9.707031 L 4.21875 -9.707031 Z M 4.21875 0 "/></g></g></g><g fill="#fffbfa" fill-opacity="1"><g transform="translate(735.731278, 591.90401)"><g><path d="M 0.332031 0 L 1.316406 0 L 2.402344 -2.660156 L 7.90625 -2.660156 L 9.011719 0 L 9.980469 0 L 5.59375 -10.585938 L 4.71875 -10.585938 Z M 2.765625 -3.507812 L 5.15625 -9.328125 L 7.558594 -3.507812 Z M 2.765625 -3.507812 "/></g></g></g><g fill="#fffbfa" fill-opacity="1"><g transform="translate(752.106675, 591.90401)"><g><path d="M 1.707031 0 L 8 0 L 8 -0.878906 L 2.632812 -0.878906 L 2.632812 -10.585938 L 1.707031 -10.585938 Z M 1.707031 0 "/></g></g></g><g fill="#fffbfa" fill-opacity="1"><g transform="translate(766.667611, 591.90401)"><g><path d="M 5.109375 0.195312 C 7.410156 0.195312 8.859375 -0.921875 8.859375 -2.691406 C 8.859375 -4.203125 7.832031 -5.140625 5.15625 -5.761719 C 2.933594 -6.261719 2.148438 -6.910156 2.148438 -7.96875 C 2.148438 -9.132812 3.144531 -9.902344 4.855469 -9.902344 C 6.621094 -9.902344 7.695312 -9.058594 7.773438 -7.558594 L 8.679688 -7.558594 C 8.601562 -9.601562 7.183594 -10.78125 4.855469 -10.78125 C 2.601562 -10.78125 1.226562 -9.660156 1.226562 -7.96875 C 1.226562 -6.378906 2.328125 -5.503906 4.929688 -4.898438 C 7.0625 -4.429688 7.921875 -3.78125 7.921875 -2.675781 C 7.921875 -1.453125 6.847656 -0.679688 5.109375 -0.679688 C 3.28125 -0.679688 2.054688 -1.585938 1.964844 -3.144531 L 1.058594 -3.144531 C 1.132812 -1.105469 2.691406 0.195312 5.109375 0.195312 Z M 5.109375 0.195312 "/></g></g></g></svg>